M48
;DRILL file {KiCad 5.0.2} date Sat 02 Mar 2019 07:01:34 PM CST
;FORMAT={-:-/ absolute / inch / decimal}
FMAT,2
INCH,TZ
T1C0.0299
T2C0.0315
T3C0.0394
T4C0.0551
T5C0.0591
%
G90
G05
T1
X1.2Y-1.25
X1.2Y-1.35
X1.2Y-1.45
X1.2Y-1.55
X1.3Y-1.3
X1.3Y-1.4
X1.3Y-1.5
X1.3Y-1.6
T2
X1.0631Y-0.978
X1.1141Y-1.8232
X1.4154Y-1.3715
X1.4674Y-0.9826
X1.5501Y-1.7913
X1.6109Y-1.1728
X1.6151Y-1.5171
X1.7844Y-1.0834
X2.1354Y-1.1128
X2.8855Y-1.1495
X2.45Y-1.2
X2.45Y-1.2984
X2.45Y-1.4516
X2.45Y-1.55
T3
X1.8Y-1.3
X1.8Y-1.4
X1.8Y-1.5
T4
X1.35Y-2.15
X1.5469Y-2.15
X1.322Y-0.7
X1.5189Y-0.7
X1.7157Y-0.7
X1.9126Y-0.7
X2.1094Y-0.7
X2.3063Y-0.7
X2.5031Y-0.7
X2.7Y-0.7
X2.25Y-2.15
X2.4469Y-2.15
X3.15Y-1.3031
X3.15Y-1.5
T5
X3.15Y-2.2
X0.8Y-0.7
X0.8Y-2.2
X3.15Y-0.7
T0
M30
