M48
;DRILL file {KiCad 5.0.2} date Sun 03 Mar 2019 01:26:34 PM CST
;FORMAT={-:-/ absolute / inch / decimal}
FMAT,2
INCH,TZ
T1C0.0299
T2C0.0315
T3C0.0394
T4C0.0551
T5C0.0984
T6C0.1260
%
G90
G05
T1
X1.2Y-1.25
X1.2Y-1.35
X1.2Y-1.45
X1.2Y-1.55
X1.3Y-1.3
X1.3Y-1.4
X1.3Y-1.5
X1.3Y-1.6
T2
X0.73Y-1.0266
X1.3086Y-1.0108
X1.3447Y-1.8125
X1.4091Y-1.1124
X1.4165Y-1.2922
X1.4565Y-1.5608
X1.5399Y-1.5005
X1.6108Y-0.9601
X1.7867Y-1.2042
X1.8373Y-1.3999
X2.025Y-0.9813
X3.1225Y-0.8843
X2.65Y-1.4516
X2.65Y-1.55
X2.65Y-1.2
X2.65Y-1.2984
T3
X2.Y-1.3
X2.Y-1.4
X2.Y-1.5
T4
X1.322Y-0.7
X1.5189Y-0.7
X1.7157Y-0.7
X1.9126Y-0.7
X2.1094Y-0.7
X2.3063Y-0.7
X2.5031Y-0.7
X2.7Y-0.7
X2.25Y-2.15
X2.4469Y-2.15
X1.35Y-2.15
X1.5469Y-2.15
X3.15Y-1.3031
X3.15Y-1.5
T5
X0.8Y-0.7
X0.8Y-2.2
X3.15Y-0.7
X3.15Y-2.2
T6
X0.95Y-1.2
X0.95Y-1.65
T0
M30
