G04 #@! TF.GenerationSoftware,KiCad,Pcbnew,5.0.2*
G04 #@! TF.CreationDate,2019-03-04T19:39:24-06:00*
G04 #@! TF.ProjectId,gate board,67617465-2062-46f6-9172-642e6b696361,rev?*
G04 #@! TF.SameCoordinates,Original*
G04 #@! TF.FileFunction,Copper,L1,Top*
G04 #@! TF.FilePolarity,Positive*
%FSLAX46Y46*%
G04 Gerber Fmt 4.6, Leading zero omitted, Abs format (unit mm)*
G04 Created by KiCad (PCBNEW 5.0.2) date Mon 04 Mar 2019 19:39:24 CST*
%MOMM*%
%LPD*%
G01*
G04 APERTURE LIST*
G04 #@! TA.AperFunction,ComponentPad*
%ADD10C,1.600000*%
G04 #@! TD*
G04 #@! TA.AperFunction,ComponentPad*
%ADD11R,1.600000X1.600000*%
G04 #@! TD*
G04 #@! TA.AperFunction,ComponentPad*
%ADD12O,2.000000X3.600000*%
G04 #@! TD*
G04 #@! TA.AperFunction,Conductor*
%ADD13C,0.100000*%
G04 #@! TD*
G04 #@! TA.AperFunction,ComponentPad*
%ADD14C,2.000000*%
G04 #@! TD*
G04 #@! TA.AperFunction,ComponentPad*
%ADD15O,3.600000X2.000000*%
G04 #@! TD*
G04 #@! TA.AperFunction,ComponentPad*
%ADD16C,1.500000*%
G04 #@! TD*
G04 #@! TA.AperFunction,ComponentPad*
%ADD17R,1.500000X1.500000*%
G04 #@! TD*
G04 #@! TA.AperFunction,ComponentPad*
%ADD18O,2.300000X1.500000*%
G04 #@! TD*
G04 #@! TA.AperFunction,ComponentPad*
%ADD19R,2.300000X1.500000*%
G04 #@! TD*
G04 #@! TA.AperFunction,ViaPad*
%ADD20C,1.400000*%
G04 #@! TD*
G04 #@! TA.AperFunction,Conductor*
%ADD21C,1.200000*%
G04 #@! TD*
G04 APERTURE END LIST*
D10*
G04 #@! TO.P,C2,2*
G04 #@! TO.N,GND*
X67310000Y-36870000D03*
D11*
G04 #@! TO.P,C2,1*
G04 #@! TO.N,+5V*
X67310000Y-39370000D03*
G04 #@! TD*
D10*
G04 #@! TO.P,C1,2*
G04 #@! TO.N,GND*
X67310000Y-32980000D03*
D11*
G04 #@! TO.P,C1,1*
G04 #@! TO.N,+12V*
X67310000Y-30480000D03*
G04 #@! TD*
D12*
G04 #@! TO.P,J4,2*
G04 #@! TO.N,+12V*
X39290000Y-54610000D03*
D13*
G04 #@! TD*
G04 #@! TO.N,/start_light*
G04 #@! TO.C,J4*
G36*
X35064504Y-52811204D02*
X35088773Y-52814804D01*
X35112571Y-52820765D01*
X35135671Y-52829030D01*
X35157849Y-52839520D01*
X35178893Y-52852133D01*
X35198598Y-52866747D01*
X35216777Y-52883223D01*
X35233253Y-52901402D01*
X35247867Y-52921107D01*
X35260480Y-52942151D01*
X35270970Y-52964329D01*
X35279235Y-52987429D01*
X35285196Y-53011227D01*
X35288796Y-53035496D01*
X35290000Y-53060000D01*
X35290000Y-56160000D01*
X35288796Y-56184504D01*
X35285196Y-56208773D01*
X35279235Y-56232571D01*
X35270970Y-56255671D01*
X35260480Y-56277849D01*
X35247867Y-56298893D01*
X35233253Y-56318598D01*
X35216777Y-56336777D01*
X35198598Y-56353253D01*
X35178893Y-56367867D01*
X35157849Y-56380480D01*
X35135671Y-56390970D01*
X35112571Y-56399235D01*
X35088773Y-56405196D01*
X35064504Y-56408796D01*
X35040000Y-56410000D01*
X33540000Y-56410000D01*
X33515496Y-56408796D01*
X33491227Y-56405196D01*
X33467429Y-56399235D01*
X33444329Y-56390970D01*
X33422151Y-56380480D01*
X33401107Y-56367867D01*
X33381402Y-56353253D01*
X33363223Y-56336777D01*
X33346747Y-56318598D01*
X33332133Y-56298893D01*
X33319520Y-56277849D01*
X33309030Y-56255671D01*
X33300765Y-56232571D01*
X33294804Y-56208773D01*
X33291204Y-56184504D01*
X33290000Y-56160000D01*
X33290000Y-53060000D01*
X33291204Y-53035496D01*
X33294804Y-53011227D01*
X33300765Y-52987429D01*
X33309030Y-52964329D01*
X33319520Y-52942151D01*
X33332133Y-52921107D01*
X33346747Y-52901402D01*
X33363223Y-52883223D01*
X33381402Y-52866747D01*
X33401107Y-52852133D01*
X33422151Y-52839520D01*
X33444329Y-52829030D01*
X33467429Y-52820765D01*
X33491227Y-52814804D01*
X33515496Y-52811204D01*
X33540000Y-52810000D01*
X35040000Y-52810000D01*
X35064504Y-52811204D01*
X35064504Y-52811204D01*
G37*
D14*
G04 #@! TO.P,J4,1*
G04 #@! TO.N,/start_light*
X34290000Y-54610000D03*
G04 #@! TD*
D15*
G04 #@! TO.P,J3,2*
G04 #@! TO.N,/beam_detect*
X80010000Y-33100000D03*
D13*
G04 #@! TD*
G04 #@! TO.N,+5V*
G04 #@! TO.C,J3*
G36*
X81584504Y-37101204D02*
X81608773Y-37104804D01*
X81632571Y-37110765D01*
X81655671Y-37119030D01*
X81677849Y-37129520D01*
X81698893Y-37142133D01*
X81718598Y-37156747D01*
X81736777Y-37173223D01*
X81753253Y-37191402D01*
X81767867Y-37211107D01*
X81780480Y-37232151D01*
X81790970Y-37254329D01*
X81799235Y-37277429D01*
X81805196Y-37301227D01*
X81808796Y-37325496D01*
X81810000Y-37350000D01*
X81810000Y-38850000D01*
X81808796Y-38874504D01*
X81805196Y-38898773D01*
X81799235Y-38922571D01*
X81790970Y-38945671D01*
X81780480Y-38967849D01*
X81767867Y-38988893D01*
X81753253Y-39008598D01*
X81736777Y-39026777D01*
X81718598Y-39043253D01*
X81698893Y-39057867D01*
X81677849Y-39070480D01*
X81655671Y-39080970D01*
X81632571Y-39089235D01*
X81608773Y-39095196D01*
X81584504Y-39098796D01*
X81560000Y-39100000D01*
X78460000Y-39100000D01*
X78435496Y-39098796D01*
X78411227Y-39095196D01*
X78387429Y-39089235D01*
X78364329Y-39080970D01*
X78342151Y-39070480D01*
X78321107Y-39057867D01*
X78301402Y-39043253D01*
X78283223Y-39026777D01*
X78266747Y-39008598D01*
X78252133Y-38988893D01*
X78239520Y-38967849D01*
X78229030Y-38945671D01*
X78220765Y-38922571D01*
X78214804Y-38898773D01*
X78211204Y-38874504D01*
X78210000Y-38850000D01*
X78210000Y-37350000D01*
X78211204Y-37325496D01*
X78214804Y-37301227D01*
X78220765Y-37277429D01*
X78229030Y-37254329D01*
X78239520Y-37232151D01*
X78252133Y-37211107D01*
X78266747Y-37191402D01*
X78283223Y-37173223D01*
X78301402Y-37156747D01*
X78321107Y-37142133D01*
X78342151Y-37129520D01*
X78364329Y-37119030D01*
X78387429Y-37110765D01*
X78411227Y-37104804D01*
X78435496Y-37101204D01*
X78460000Y-37100000D01*
X81560000Y-37100000D01*
X81584504Y-37101204D01*
X81584504Y-37101204D01*
G37*
D14*
G04 #@! TO.P,J3,1*
G04 #@! TO.N,+5V*
X80010000Y-38100000D03*
G04 #@! TD*
D12*
G04 #@! TO.P,J2,2*
G04 #@! TO.N,+12V*
X62150000Y-54610000D03*
D13*
G04 #@! TD*
G04 #@! TO.N,/beam_excite*
G04 #@! TO.C,J2*
G36*
X57924504Y-52811204D02*
X57948773Y-52814804D01*
X57972571Y-52820765D01*
X57995671Y-52829030D01*
X58017849Y-52839520D01*
X58038893Y-52852133D01*
X58058598Y-52866747D01*
X58076777Y-52883223D01*
X58093253Y-52901402D01*
X58107867Y-52921107D01*
X58120480Y-52942151D01*
X58130970Y-52964329D01*
X58139235Y-52987429D01*
X58145196Y-53011227D01*
X58148796Y-53035496D01*
X58150000Y-53060000D01*
X58150000Y-56160000D01*
X58148796Y-56184504D01*
X58145196Y-56208773D01*
X58139235Y-56232571D01*
X58130970Y-56255671D01*
X58120480Y-56277849D01*
X58107867Y-56298893D01*
X58093253Y-56318598D01*
X58076777Y-56336777D01*
X58058598Y-56353253D01*
X58038893Y-56367867D01*
X58017849Y-56380480D01*
X57995671Y-56390970D01*
X57972571Y-56399235D01*
X57948773Y-56405196D01*
X57924504Y-56408796D01*
X57900000Y-56410000D01*
X56400000Y-56410000D01*
X56375496Y-56408796D01*
X56351227Y-56405196D01*
X56327429Y-56399235D01*
X56304329Y-56390970D01*
X56282151Y-56380480D01*
X56261107Y-56367867D01*
X56241402Y-56353253D01*
X56223223Y-56336777D01*
X56206747Y-56318598D01*
X56192133Y-56298893D01*
X56179520Y-56277849D01*
X56169030Y-56255671D01*
X56160765Y-56232571D01*
X56154804Y-56208773D01*
X56151204Y-56184504D01*
X56150000Y-56160000D01*
X56150000Y-53060000D01*
X56151204Y-53035496D01*
X56154804Y-53011227D01*
X56160765Y-52987429D01*
X56169030Y-52964329D01*
X56179520Y-52942151D01*
X56192133Y-52921107D01*
X56206747Y-52901402D01*
X56223223Y-52883223D01*
X56241402Y-52866747D01*
X56261107Y-52852133D01*
X56282151Y-52839520D01*
X56304329Y-52829030D01*
X56327429Y-52820765D01*
X56351227Y-52814804D01*
X56375496Y-52811204D01*
X56400000Y-52810000D01*
X57900000Y-52810000D01*
X57924504Y-52811204D01*
X57924504Y-52811204D01*
G37*
D14*
G04 #@! TO.P,J2,1*
G04 #@! TO.N,/beam_excite*
X57150000Y-54610000D03*
G04 #@! TD*
D12*
G04 #@! TO.P,J5,8*
G04 #@! TO.N,GND*
X33580000Y-17780000D03*
G04 #@! TO.P,J5,7*
G04 #@! TO.N,Net-(J5-Pad7)*
X38580000Y-17780000D03*
G04 #@! TO.P,J5,6*
G04 #@! TO.N,/CLK*
X43580000Y-17780000D03*
G04 #@! TO.P,J5,5*
G04 #@! TO.N,/SERA*
X48580000Y-17780000D03*
G04 #@! TO.P,J5,4*
G04 #@! TO.N,/chipsel*
X53580000Y-17780000D03*
G04 #@! TO.P,J5,3*
G04 #@! TO.N,/start_light*
X58580000Y-17780000D03*
G04 #@! TO.P,J5,2*
G04 #@! TO.N,+5V*
X63580000Y-17780000D03*
D13*
G04 #@! TD*
G04 #@! TO.N,+12V*
G04 #@! TO.C,J5*
G36*
X69354504Y-15981204D02*
X69378773Y-15984804D01*
X69402571Y-15990765D01*
X69425671Y-15999030D01*
X69447849Y-16009520D01*
X69468893Y-16022133D01*
X69488598Y-16036747D01*
X69506777Y-16053223D01*
X69523253Y-16071402D01*
X69537867Y-16091107D01*
X69550480Y-16112151D01*
X69560970Y-16134329D01*
X69569235Y-16157429D01*
X69575196Y-16181227D01*
X69578796Y-16205496D01*
X69580000Y-16230000D01*
X69580000Y-19330000D01*
X69578796Y-19354504D01*
X69575196Y-19378773D01*
X69569235Y-19402571D01*
X69560970Y-19425671D01*
X69550480Y-19447849D01*
X69537867Y-19468893D01*
X69523253Y-19488598D01*
X69506777Y-19506777D01*
X69488598Y-19523253D01*
X69468893Y-19537867D01*
X69447849Y-19550480D01*
X69425671Y-19560970D01*
X69402571Y-19569235D01*
X69378773Y-19575196D01*
X69354504Y-19578796D01*
X69330000Y-19580000D01*
X67830000Y-19580000D01*
X67805496Y-19578796D01*
X67781227Y-19575196D01*
X67757429Y-19569235D01*
X67734329Y-19560970D01*
X67712151Y-19550480D01*
X67691107Y-19537867D01*
X67671402Y-19523253D01*
X67653223Y-19506777D01*
X67636747Y-19488598D01*
X67622133Y-19468893D01*
X67609520Y-19447849D01*
X67599030Y-19425671D01*
X67590765Y-19402571D01*
X67584804Y-19378773D01*
X67581204Y-19354504D01*
X67580000Y-19330000D01*
X67580000Y-16230000D01*
X67581204Y-16205496D01*
X67584804Y-16181227D01*
X67590765Y-16157429D01*
X67599030Y-16134329D01*
X67609520Y-16112151D01*
X67622133Y-16091107D01*
X67636747Y-16071402D01*
X67653223Y-16053223D01*
X67671402Y-16036747D01*
X67691107Y-16022133D01*
X67712151Y-16009520D01*
X67734329Y-15999030D01*
X67757429Y-15990765D01*
X67781227Y-15984804D01*
X67805496Y-15981204D01*
X67830000Y-15980000D01*
X69330000Y-15980000D01*
X69354504Y-15981204D01*
X69354504Y-15981204D01*
G37*
D14*
G04 #@! TO.P,J5,1*
G04 #@! TO.N,+12V*
X68580000Y-17780000D03*
G04 #@! TD*
D16*
G04 #@! TO.P,J1,8*
G04 #@! TO.N,GND*
X33020000Y-40640000D03*
G04 #@! TO.P,J1,7*
G04 #@! TO.N,/CLK*
X30480000Y-39370000D03*
G04 #@! TO.P,J1,6*
G04 #@! TO.N,/SERA*
X33020000Y-38100000D03*
G04 #@! TO.P,J1,5*
G04 #@! TO.N,/chipsel*
X30480000Y-36830000D03*
G04 #@! TO.P,J1,4*
G04 #@! TO.N,/beam_excite*
X33020000Y-35560000D03*
G04 #@! TO.P,J1,3*
G04 #@! TO.N,/beam_detect*
X30480000Y-34290000D03*
G04 #@! TO.P,J1,2*
G04 #@! TO.N,/start_light*
X33020000Y-33020000D03*
D17*
G04 #@! TO.P,J1,1*
G04 #@! TO.N,+12V*
X30480000Y-31750000D03*
G04 #@! TD*
D18*
G04 #@! TO.P,U1,3*
G04 #@! TO.N,+5V*
X50800000Y-38100000D03*
G04 #@! TO.P,U1,2*
G04 #@! TO.N,GND*
X50800000Y-35560000D03*
D19*
G04 #@! TO.P,U1,1*
G04 #@! TO.N,+12V*
X50800000Y-33020000D03*
G04 #@! TD*
D20*
G04 #@! TO.N,GND*
X33237200Y-25674900D03*
X34155500Y-46038600D03*
X46667100Y-35557300D03*
G04 #@! TO.N,/start_light*
X51436000Y-24924000D03*
X36995700Y-39643200D03*
X35978300Y-32822200D03*
G04 #@! TO.N,/beam_detect*
X79311600Y-22461300D03*
X35790800Y-28255200D03*
G04 #@! TO.N,/SERA*
X39113200Y-38111700D03*
X45383000Y-30587300D03*
G04 #@! TO.N,/CLK*
X40915200Y-24386400D03*
X18542200Y-26075600D03*
G04 #@! TD*
D21*
G04 #@! TO.N,GND*
X34155500Y-46038600D02*
X23988000Y-46038600D01*
X23988000Y-46038600D02*
X21081100Y-43131700D01*
X21081100Y-43131700D02*
X21081100Y-37772100D01*
X21081100Y-37772100D02*
X27587200Y-31266000D01*
X27587200Y-31266000D02*
X27587200Y-30083300D01*
X27587200Y-30083300D02*
X31995600Y-25674900D01*
X31995600Y-25674900D02*
X33237200Y-25674900D01*
X46667100Y-35557300D02*
X36185800Y-46038600D01*
X36185800Y-46038600D02*
X34155500Y-46038600D01*
G04 #@! TO.N,/start_light*
X36995700Y-33136600D02*
X38726200Y-33136600D01*
X38726200Y-33136600D02*
X46938800Y-24924000D01*
X46938800Y-24924000D02*
X51436000Y-24924000D01*
X36995700Y-33136600D02*
X36995700Y-39643200D01*
X35978300Y-32822200D02*
X36681300Y-32822200D01*
X36681300Y-32822200D02*
X36995700Y-33136600D01*
G04 #@! TO.N,/beam_detect*
X35790800Y-28255200D02*
X40016600Y-28255200D01*
X40016600Y-28255200D02*
X45810500Y-22461300D01*
X45810500Y-22461300D02*
X79311600Y-22461300D01*
G04 #@! TO.N,/SERA*
X45383000Y-30587300D02*
X39113300Y-36857000D01*
X39113300Y-36857000D02*
X39113300Y-38111700D01*
X39113300Y-38111700D02*
X39113200Y-38111700D01*
G04 #@! TO.N,/CLK*
X18542200Y-26075600D02*
X21045300Y-23572500D01*
X21045300Y-23572500D02*
X40101300Y-23572500D01*
X40101300Y-23572500D02*
X40915200Y-24386400D01*
G04 #@! TD*
M02*
