<?xml version="1.0" standalone="no"?>
 <!DOCTYPE svg PUBLIC "-//W3C//DTD SVG 1.1//EN" 
 "http://www.w3.org/Graphics/SVG/1.1/DTD/svg11.dtd"> 
<svg xmlns="http://www.w3.org/2000/svg" version="1.1" 
    width="29.7002cm" height="21.0007cm" viewBox="0 0 116930 82680 ">
<title>SVG Picture created as gate board-B.Cu.svg date 2019/03/04 19:28:25 </title>
  <desc>Picture generated by PCBNEW </desc>
<g style="fill:#000000; fill-opacity:1;stroke:#000000; stroke-opacity:1;
stroke-linecap:round; stroke-linejoin:round; "
 transform="translate(0 0) scale(1 1)">
</g>
<g style="fill:#000000; fill-opacity:0.0; 
stroke:#000000; stroke-width:-0.000393701; stroke-opacity:1; 
stroke-linecap:round; stroke-linejoin:round;">
</g>
<g style="fill:#000000; fill-opacity:1.0; 
stroke:#000000; stroke-width:0; stroke-opacity:1; 
stroke-linecap:round; stroke-linejoin:round;">
<circle cx="26500" cy="14515.7" r="314.961" /> 
</g>
<g style="fill:#000000; fill-opacity:1.0; 
stroke:#000000; stroke-width:39.3701; stroke-opacity:1; 
stroke-linecap:round; stroke-linejoin:round;">
</g>
<g style="fill:#000000; fill-opacity:1.0; 
stroke:#000000; stroke-width:0; stroke-opacity:1; 
stroke-linecap:round; stroke-linejoin:round;">
<polyline style="fill-rule:evenodd;"
points="26814,15814
26185,15814
26185,15185
26814,15185
26814,15814
" /> 
<circle cx="26500" cy="12984.3" r="314.961" /> 
</g>
<g style="fill:#000000; fill-opacity:1.0; 
stroke:#000000; stroke-width:39.3701; stroke-opacity:1; 
stroke-linecap:round; stroke-linejoin:round;">
</g>
<g style="fill:#000000; fill-opacity:1.0; 
stroke:#000000; stroke-width:0; stroke-opacity:1; 
stroke-linecap:round; stroke-linejoin:round;">
<polyline style="fill-rule:evenodd;"
points="26185,11685
26814,11685
26814,12314
26185,12314
26185,11685
" /> 
</g>
<g style="fill:#000000; fill-opacity:1.0; 
stroke:#000000; stroke-width:787.402; stroke-opacity:1; 
stroke-linecap:round; stroke-linejoin:round;">
</g>
<g style="fill:#000000; fill-opacity:0.0; 
stroke:#000000; stroke-width:787.402; stroke-opacity:1; 
stroke-linecap:round; stroke-linejoin:round;">
<path d="M15468 21185
L15468 21814
" />
</g>
<g style="fill:#000000; fill-opacity:0.0; 
stroke:#000000; stroke-width:0; stroke-opacity:1; 
stroke-linecap:round; stroke-linejoin:round;">
</g>
<g style="fill:#000000; fill-opacity:1.0; 
stroke:#000000; stroke-width:0; stroke-opacity:1; 
stroke-linecap:round; stroke-linejoin:round;">
<polyline style="fill-rule:evenodd;"
points="13804,20791
13814,20793
13823,20795
13832,20798
13841,20802
13849,20807
13857,20813
13864,20820
13871,20827
13877,20835
13882,20843
13886,20852
13889,20861
13891,20870
13893,20880
13893,20889
13893,22110
13893,22119
13891,22129
13889,22138
13886,22147
13882,22156
13877,22164
13871,22172
13864,22179
13857,22186
13849,22192
13841,22197
13832,22201
13823,22204
13814,22206
13804,22208
13795,22208
13204,22208
13195,22208
13185,22206
13176,22204
13167,22201
13158,22197
13150,22192
13142,22186
13135,22179
13128,22172
13122,22164
13117,22156
13113,22147
13110,22138
13108,22129
13106,22119
13106,22110
13106,20889
13106,20880
13108,20870
13110,20861
13113,20852
13117,20843
13122,20835
13128,20827
13135,20820
13142,20813
13150,20807
13158,20802
13167,20798
13176,20795
13185,20793
13195,20791
13204,20791
13795,20791
13804,20791
" /> 
</g>
<g style="fill:#000000; fill-opacity:1.0; 
stroke:#000000; stroke-width:787.402; stroke-opacity:1; 
stroke-linecap:round; stroke-linejoin:round;">
</g>
<g style="fill:#000000; fill-opacity:0.0; 
stroke:#000000; stroke-width:787.402; stroke-opacity:1; 
stroke-linecap:round; stroke-linejoin:round;">
<path d="M31185 13031
L31814 13031
" />
</g>
<g style="fill:#000000; fill-opacity:0.0; 
stroke:#000000; stroke-width:0; stroke-opacity:1; 
stroke-linecap:round; stroke-linejoin:round;">
</g>
<g style="fill:#000000; fill-opacity:1.0; 
stroke:#000000; stroke-width:0; stroke-opacity:1; 
stroke-linecap:round; stroke-linejoin:round;">
<polyline style="fill-rule:evenodd;"
points="32119,14606
32129,14608
32138,14610
32147,14613
32156,14617
32164,14622
32172,14628
32179,14635
32186,14642
32192,14650
32197,14658
32201,14667
32204,14676
32206,14685
32208,14695
32208,14704
32208,15295
32208,15304
32206,15314
32204,15323
32201,15332
32197,15341
32192,15349
32186,15357
32179,15364
32172,15371
32164,15377
32156,15382
32147,15386
32138,15389
32129,15391
32119,15393
32110,15393
30889,15393
30880,15393
30870,15391
30861,15389
30852,15386
30843,15382
30835,15377
30827,15371
30820,15364
30813,15357
30807,15349
30802,15341
30798,15332
30795,15323
30793,15314
30791,15304
30791,15295
30791,14704
30791,14695
30793,14685
30795,14676
30798,14667
30802,14658
30807,14650
30813,14642
30820,14635
30827,14628
30835,14622
30843,14617
30852,14613
30861,14610
30870,14608
30880,14606
30889,14606
32110,14606
32119,14606
" /> 
</g>
<g style="fill:#000000; fill-opacity:1.0; 
stroke:#000000; stroke-width:787.402; stroke-opacity:1; 
stroke-linecap:round; stroke-linejoin:round;">
</g>
<g style="fill:#000000; fill-opacity:0.0; 
stroke:#000000; stroke-width:787.402; stroke-opacity:1; 
stroke-linecap:round; stroke-linejoin:round;">
<path d="M24468 21185
L24468 21814
" />
</g>
<g style="fill:#000000; fill-opacity:0.0; 
stroke:#000000; stroke-width:0; stroke-opacity:1; 
stroke-linecap:round; stroke-linejoin:round;">
</g>
<g style="fill:#000000; fill-opacity:1.0; 
stroke:#000000; stroke-width:0; stroke-opacity:1; 
stroke-linecap:round; stroke-linejoin:round;">
<polyline style="fill-rule:evenodd;"
points="22804,20791
22814,20793
22823,20795
22832,20798
22841,20802
22849,20807
22857,20813
22864,20820
22871,20827
22877,20835
22882,20843
22886,20852
22889,20861
22891,20870
22893,20880
22893,20889
22893,22110
22893,22119
22891,22129
22889,22138
22886,22147
22882,22156
22877,22164
22871,22172
22864,22179
22857,22186
22849,22192
22841,22197
22832,22201
22823,22204
22814,22206
22804,22208
22795,22208
22204,22208
22195,22208
22185,22206
22176,22204
22167,22201
22158,22197
22150,22192
22142,22186
22135,22179
22128,22172
22122,22164
22117,22156
22113,22147
22110,22138
22108,22129
22106,22119
22106,22110
22106,20889
22106,20880
22108,20870
22110,20861
22113,20852
22117,20843
22122,20835
22128,20827
22135,20820
22142,20813
22150,20807
22158,20802
22167,20798
22176,20795
22185,20793
22195,20791
22204,20791
22795,20791
22804,20791
" /> 
</g>
<g style="fill:#000000; fill-opacity:1.0; 
stroke:#000000; stroke-width:787.402; stroke-opacity:1; 
stroke-linecap:round; stroke-linejoin:round;">
</g>
<g style="fill:#000000; fill-opacity:0.0; 
stroke:#000000; stroke-width:787.402; stroke-opacity:1; 
stroke-linecap:round; stroke-linejoin:round;">
<path d="M13220 7314
L13220 6685
" />
<path d="M15188 7314
L15188 6685
" />
<path d="M17157 7314
L17157 6685
" />
<path d="M19125 7314
L19125 6685
" />
<path d="M21094 7314
L21094 6685
" />
<path d="M23062 7314
L23062 6685
" />
<path d="M25031 7314
L25031 6685
" />
</g>
<g style="fill:#000000; fill-opacity:0.0; 
stroke:#000000; stroke-width:0; stroke-opacity:1; 
stroke-linecap:round; stroke-linejoin:round;">
</g>
<g style="fill:#000000; fill-opacity:1.0; 
stroke:#000000; stroke-width:0; stroke-opacity:1; 
stroke-linecap:round; stroke-linejoin:round;">
<polyline style="fill-rule:evenodd;"
points="27304,6291
27314,6293
27323,6295
27332,6298
27341,6302
27349,6307
27357,6313
27364,6320
27371,6327
27377,6335
27382,6343
27386,6352
27389,6361
27391,6370
27393,6380
27393,6389
27393,7610
27393,7619
27391,7629
27389,7638
27386,7647
27382,7656
27377,7664
27371,7672
27364,7679
27357,7686
27349,7692
27341,7697
27332,7701
27323,7704
27314,7706
27304,7708
27295,7708
26704,7708
26695,7708
26685,7706
26676,7704
26667,7701
26658,7697
26650,7692
26642,7686
26635,7679
26628,7672
26622,7664
26617,7656
26613,7647
26610,7638
26608,7629
26606,7619
26606,7610
26606,6389
26606,6380
26608,6370
26610,6361
26613,6352
26617,6343
26622,6335
26628,6327
26635,6320
26642,6313
26650,6307
26658,6302
26667,6298
26676,6295
26685,6293
26695,6291
26704,6291
27295,6291
27304,6291
" /> 
<circle cx="13000" cy="16000" r="295.276" /> 
</g>
<g style="fill:#000000; fill-opacity:1.0; 
stroke:#000000; stroke-width:39.3701; stroke-opacity:1; 
stroke-linecap:round; stroke-linejoin:round;">
</g>
<g style="fill:#000000; fill-opacity:1.0; 
stroke:#000000; stroke-width:0; stroke-opacity:1; 
stroke-linecap:round; stroke-linejoin:round;">
<circle cx="12000" cy="15500" r="295.276" /> 
</g>
<g style="fill:#000000; fill-opacity:1.0; 
stroke:#000000; stroke-width:39.3701; stroke-opacity:1; 
stroke-linecap:round; stroke-linejoin:round;">
</g>
<g style="fill:#000000; fill-opacity:1.0; 
stroke:#000000; stroke-width:0; stroke-opacity:1; 
stroke-linecap:round; stroke-linejoin:round;">
<circle cx="13000" cy="15000" r="295.276" /> 
</g>
<g style="fill:#000000; fill-opacity:1.0; 
stroke:#000000; stroke-width:39.3701; stroke-opacity:1; 
stroke-linecap:round; stroke-linejoin:round;">
</g>
<g style="fill:#000000; fill-opacity:1.0; 
stroke:#000000; stroke-width:0; stroke-opacity:1; 
stroke-linecap:round; stroke-linejoin:round;">
<circle cx="12000" cy="14500" r="295.276" /> 
</g>
<g style="fill:#000000; fill-opacity:1.0; 
stroke:#000000; stroke-width:39.3701; stroke-opacity:1; 
stroke-linecap:round; stroke-linejoin:round;">
</g>
<g style="fill:#000000; fill-opacity:1.0; 
stroke:#000000; stroke-width:0; stroke-opacity:1; 
stroke-linecap:round; stroke-linejoin:round;">
<circle cx="13000" cy="14000" r="295.276" /> 
</g>
<g style="fill:#000000; fill-opacity:1.0; 
stroke:#000000; stroke-width:39.3701; stroke-opacity:1; 
stroke-linecap:round; stroke-linejoin:round;">
</g>
<g style="fill:#000000; fill-opacity:1.0; 
stroke:#000000; stroke-width:0; stroke-opacity:1; 
stroke-linecap:round; stroke-linejoin:round;">
<circle cx="12000" cy="13500" r="295.276" /> 
</g>
<g style="fill:#000000; fill-opacity:1.0; 
stroke:#000000; stroke-width:39.3701; stroke-opacity:1; 
stroke-linecap:round; stroke-linejoin:round;">
</g>
<g style="fill:#000000; fill-opacity:1.0; 
stroke:#000000; stroke-width:0; stroke-opacity:1; 
stroke-linecap:round; stroke-linejoin:round;">
<circle cx="13000" cy="13000" r="295.276" /> 
</g>
<g style="fill:#000000; fill-opacity:1.0; 
stroke:#000000; stroke-width:39.3701; stroke-opacity:1; 
stroke-linecap:round; stroke-linejoin:round;">
</g>
<g style="fill:#000000; fill-opacity:1.0; 
stroke:#000000; stroke-width:0; stroke-opacity:1; 
stroke-linecap:round; stroke-linejoin:round;">
<polyline style="fill-rule:evenodd;"
points="11704,12204
12295,12204
12295,12795
11704,12795
11704,12204
" /> 
</g>
<g style="fill:#000000; fill-opacity:1.0; 
stroke:#000000; stroke-width:590.551; stroke-opacity:1; 
stroke-linecap:round; stroke-linejoin:round;">
</g>
<g style="fill:#000000; fill-opacity:0.0; 
stroke:#000000; stroke-width:590.551; stroke-opacity:1; 
stroke-linecap:round; stroke-linejoin:round;">
<path d="M20157 15000
L19842 15000
" />
<path d="M20157 14000
L19842 14000
" />
</g>
<g style="fill:#000000; fill-opacity:0.0; 
stroke:#000000; stroke-width:0; stroke-opacity:1; 
stroke-linecap:round; stroke-linejoin:round;">
</g>
<g style="fill:#000000; fill-opacity:1.0; 
stroke:#000000; stroke-width:0; stroke-opacity:1; 
stroke-linecap:round; stroke-linejoin:round;">
<polyline style="fill-rule:evenodd;"
points="19547,12704
20452,12704
20452,13295
19547,13295
19547,12704
" /> 
<circle cx="13085.5" cy="10108.2" r="275.591" /> 
</g>
<g style="fill:#000000; fill-opacity:1.0; 
stroke:#000000; stroke-width:39.3701; stroke-opacity:1; 
stroke-linecap:round; stroke-linejoin:round;">
</g>
<g style="fill:#000000; fill-opacity:1.0; 
stroke:#000000; stroke-width:0; stroke-opacity:1; 
stroke-linecap:round; stroke-linejoin:round;">
<circle cx="13447" cy="18125.4" r="275.591" /> 
</g>
<g style="fill:#000000; fill-opacity:1.0; 
stroke:#000000; stroke-width:39.3701; stroke-opacity:1; 
stroke-linecap:round; stroke-linejoin:round;">
</g>
<g style="fill:#000000; fill-opacity:1.0; 
stroke:#000000; stroke-width:0; stroke-opacity:1; 
stroke-linecap:round; stroke-linejoin:round;">
<circle cx="18372.9" cy="13998.9" r="275.591" /> 
</g>
<g style="fill:#000000; fill-opacity:1.0; 
stroke:#000000; stroke-width:39.3701; stroke-opacity:1; 
stroke-linecap:round; stroke-linejoin:round;">
</g>
<g style="fill:#000000; fill-opacity:1.0; 
stroke:#000000; stroke-width:0; stroke-opacity:1; 
stroke-linecap:round; stroke-linejoin:round;">
<circle cx="20250.4" cy="9812.6" r="275.591" /> 
</g>
<g style="fill:#000000; fill-opacity:1.0; 
stroke:#000000; stroke-width:39.3701; stroke-opacity:1; 
stroke-linecap:round; stroke-linejoin:round;">
</g>
<g style="fill:#000000; fill-opacity:1.0; 
stroke:#000000; stroke-width:0; stroke-opacity:1; 
stroke-linecap:round; stroke-linejoin:round;">
<circle cx="14565.2" cy="15607.6" r="275.591" /> 
</g>
<g style="fill:#000000; fill-opacity:1.0; 
stroke:#000000; stroke-width:39.3701; stroke-opacity:1; 
stroke-linecap:round; stroke-linejoin:round;">
</g>
<g style="fill:#000000; fill-opacity:1.0; 
stroke:#000000; stroke-width:0; stroke-opacity:1; 
stroke-linecap:round; stroke-linejoin:round;">
<circle cx="14164.7" cy="12922.1" r="275.591" /> 
</g>
<g style="fill:#000000; fill-opacity:1.0; 
stroke:#000000; stroke-width:39.3701; stroke-opacity:1; 
stroke-linecap:round; stroke-linejoin:round;">
</g>
<g style="fill:#000000; fill-opacity:1.0; 
stroke:#000000; stroke-width:0; stroke-opacity:1; 
stroke-linecap:round; stroke-linejoin:round;">
<circle cx="31225" cy="8843.03" r="275.591" /> 
</g>
<g style="fill:#000000; fill-opacity:1.0; 
stroke:#000000; stroke-width:39.3701; stroke-opacity:1; 
stroke-linecap:round; stroke-linejoin:round;">
</g>
<g style="fill:#000000; fill-opacity:1.0; 
stroke:#000000; stroke-width:0; stroke-opacity:1; 
stroke-linecap:round; stroke-linejoin:round;">
<circle cx="14090.9" cy="11124.1" r="275.591" /> 
</g>
<g style="fill:#000000; fill-opacity:1.0; 
stroke:#000000; stroke-width:39.3701; stroke-opacity:1; 
stroke-linecap:round; stroke-linejoin:round;">
</g>
<g style="fill:#000000; fill-opacity:1.0; 
stroke:#000000; stroke-width:0; stroke-opacity:1; 
stroke-linecap:round; stroke-linejoin:round;">
<circle cx="15398.9" cy="15004.6" r="275.591" /> 
</g>
<g style="fill:#000000; fill-opacity:1.0; 
stroke:#000000; stroke-width:39.3701; stroke-opacity:1; 
stroke-linecap:round; stroke-linejoin:round;">
</g>
<g style="fill:#000000; fill-opacity:1.0; 
stroke:#000000; stroke-width:0; stroke-opacity:1; 
stroke-linecap:round; stroke-linejoin:round;">
<circle cx="17867.3" cy="12042.2" r="275.591" /> 
</g>
<g style="fill:#000000; fill-opacity:1.0; 
stroke:#000000; stroke-width:39.3701; stroke-opacity:1; 
stroke-linecap:round; stroke-linejoin:round;">
</g>
<g style="fill:#000000; fill-opacity:1.0; 
stroke:#000000; stroke-width:0; stroke-opacity:1; 
stroke-linecap:round; stroke-linejoin:round;">
<circle cx="16108.3" cy="9600.94" r="275.591" /> 
</g>
<g style="fill:#000000; fill-opacity:1.0; 
stroke:#000000; stroke-width:39.3701; stroke-opacity:1; 
stroke-linecap:round; stroke-linejoin:round;">
</g>
<g style="fill:#000000; fill-opacity:1.0; 
stroke:#000000; stroke-width:0; stroke-opacity:1; 
stroke-linecap:round; stroke-linejoin:round;">
<circle cx="7300.08" cy="10266" r="275.591" /> 
</g>
<g style="fill:#000000; fill-opacity:1.0; 
stroke:#000000; stroke-width:39.3701; stroke-opacity:1; 
stroke-linecap:round; stroke-linejoin:round;">
</g>
<g style="fill:#000000; fill-opacity:1.0; 
stroke:#000000; stroke-width:472.441; stroke-opacity:1; 
stroke-linecap:round; stroke-linejoin:round;">
</g>
<g style="fill:#000000; fill-opacity:0.0; 
stroke:#000000; stroke-width:472.441; stroke-opacity:1; 
stroke-linecap:round; stroke-linejoin:round;">
<path d="M20000 13000
L20000 12153
" />
<path d="M20000 12153
L20153 12000
" />
<path d="M20153 12000
L26500 12000
" />
<path d="M20000 13000
L17544 13000
" />
<path d="M17544 13000
L17544 14444
" />
<path d="M17544 14444
L23523 20423
" />
<path d="M23523 20423
L23523 21500
" />
<path d="M12000 12500
L12427 12072
" />
<path d="M12427 12072
L16617 12072
" />
<path d="M16617 12072
L17544 13000
" />
<path d="M24468 21500
L23523 21500
" />
<path d="M15468 21500
L16413 21500
" />
<path d="M16413 21500
L17687 22773
" />
<path d="M17687 22773
L23075 22773
" />
<path d="M23075 22773
L23523 22325
" />
<path d="M23523 22325
L23523 21500
" />
<path d="M26500 12000
L26500 11133
" />
<path d="M27000 7000
L27000 10633
" />
<path d="M27000 10633
L26500 11133
" />
<path d="M13220 7000
L13220 9973
" />
<path d="M13220 9973
L13085 10108
" />
<path d="M18372 13998
L18994 13998
" />
<path d="M18994 13998
L18995 14000
" />
<path d="M25984 14000
L26500 14515
" />
<path d="M20000 14000
L25984 14000
" />
<path d="M25984 14000
L26500 13484
" />
<path d="M26500 13484
L26500 12984
" />
<path d="M19898 14000
L20000 14000
" />
<path d="M19898 14000
L18995 14000
" />
<path d="M13000 16000
L13000 17678
" />
<path d="M13000 17678
L13447 18125
" />
<path d="M25031 7000
L25031 5740
" />
<path d="M30017 14281
L30735 15000
" />
<path d="M30735 15000
L31500 15000
" />
<path d="M25031 5740
L25045 5725
" />
<path d="M25045 5725
L27556 5725
" />
<path d="M27556 5725
L30017 8187
" />
<path d="M30017 8187
L30017 14281
" />
<path d="M26500 15500
L28798 15500
" />
<path d="M28798 15500
L30017 14281
" />
<path d="M21004 15000
L21504 15500
" />
<path d="M21504 15500
L26500 15500
" />
<path d="M20000 15000
L21004 15000
" />
<path d="M23062 7000
L23062 8259
" />
<path d="M20250 9812
L21803 8259
" />
<path d="M21803 8259
L23062 8259
" />
<path d="M13000 13000
L13077 12922
" />
<path d="M13077 12922
L14164 12922
" />
<path d="M13500 21500
L14565 20434
" />
<path d="M14565 20434
L14565 15607
" />
<path d="M12000 13500
L11601 13500
" />
<path d="M11601 13500
L11152 13050
" />
<path d="M11152 13050
L11152 11958
" />
<path d="M11152 11958
L11987 11124
" />
<path d="M11987 11124
L14090 11124
" />
<path d="M31500 13031
L31500 9117
" />
<path d="M31500 9117
L31225 8843
" />
<path d="M13000 14000
L13032 13967
" />
<path d="M13032 13967
L15537 13967
" />
<path d="M15537 13967
L22500 20930
" />
<path d="M22500 20930
L22500 21500
" />
<path d="M21094 7000
L21094 5740
" />
<path d="M12000 14500
L10325 14500
" />
<path d="M10325 14500
L8315 12490
" />
<path d="M8315 12490
L8315 10234
" />
<path d="M8315 10234
L12810 5740
" />
<path d="M12810 5740
L21094 5740
" />
<path d="M19125 8259
L17867 9518
" />
<path d="M17867 9518
L17867 12042
" />
<path d="M15398 15004
L15173 14779
" />
<path d="M15173 14779
L13579 14779
" />
<path d="M13579 14779
L13358 15000
" />
<path d="M13358 15000
L13000 15000
" />
<path d="M19125 7000
L19125 8259
" />
<path d="M12000 15500
L10211 15500
" />
<path d="M10211 15500
L7300 12588
" />
<path d="M7300 12588
L7300 10265
" />
<path d="M16108 9600
L17157 8551
" />
<path d="M17157 8551
L17157 7000
" />
</g> 
</svg>
