M48
; DRILL file {KiCad (5.1.4)} date Tue 11 Feb 2020 08:22:36 AM CST
; FORMAT={-:-/ absolute / metric / decimal}
; #@! TF.CreationDate,2020-02-11T08:22:36-06:00
; #@! TF.GenerationSoftware,Kicad,Pcbnew,(5.1.4)
; #@! TF.FileFunction,Plated,1,2,PTH
FMAT,2
METRIC
T1C0.300
T2C0.760
T3C0.800
T4C0.900
T5C0.990
T6C1.000
T7C1.300
T8C1.780
T9C3.200
%
G90
G05
T1
X-86.129Y-70.62
X-76.962Y-70.612
X-73.015Y-35.012
X-68.326Y-60.96
X-67.437Y-58.293
X-65.195Y-21.517
X-63.754Y-43.307
X-63.5Y-71.12
X-62.23Y-71.12
X-57.852Y-29.226
X-57.815Y-40.553
X-36.83Y-48.26
X-34.29Y-55.88
X-33.932Y-44.773
X-29.21Y-55.88
X-26.218Y-49.285
X-24.987Y-32.861
X-24.987Y-42.256
X-24.831Y-58.586
X-23.22Y-27.294
X-14.294Y-43.721
X-10.891Y-51.84
X-10.75Y-73.173
X-10.701Y-65.736
X-4.82Y-59.161
T2
X-16.51Y-46.99
X-16.51Y-49.53
X-16.51Y-52.07
X-16.51Y-54.61
X-13.97Y-48.26
X-13.97Y-50.8
X-13.97Y-53.34
X-13.97Y-55.88
X-16.51Y-64.77
X-16.51Y-67.31
X-16.51Y-69.85
X-16.51Y-72.39
X-13.97Y-66.04
X-13.97Y-68.58
X-13.97Y-71.12
X-13.97Y-73.66
X-16.51Y-11.43
X-16.51Y-13.97
X-16.51Y-16.51
X-16.51Y-19.05
X-13.97Y-12.7
X-13.97Y-15.24
X-13.97Y-17.78
X-13.97Y-20.32
X-16.51Y-29.21
X-16.51Y-31.75
X-16.51Y-34.29
X-16.51Y-36.83
X-13.97Y-30.48
X-13.97Y-33.02
X-13.97Y-35.56
X-13.97Y-38.1
T3
X-82.55Y-53.38
X-82.55Y-55.88
X-76.2Y-25.4
X-76.2Y-27.94
X-76.2Y-30.48
X-76.2Y-33.02
X-76.2Y-35.56
X-76.2Y-38.1
X-76.2Y-40.64
X-76.2Y-43.18
X-76.2Y-45.72
X-76.2Y-48.26
X-76.2Y-50.8
X-76.2Y-53.34
X-76.2Y-55.88
X-76.2Y-58.42
X-76.2Y-60.96
X-60.96Y-25.4
X-60.96Y-27.94
X-60.96Y-30.48
X-60.96Y-33.02
X-60.96Y-35.56
X-60.96Y-38.1
X-60.96Y-40.64
X-60.96Y-43.18
X-60.96Y-45.72
X-60.96Y-48.26
X-60.96Y-50.8
X-60.96Y-53.34
X-60.96Y-55.88
X-60.96Y-58.42
X-60.96Y-60.96
X-88.9Y-53.34
X-88.9Y-55.84
T4
X-46.99Y-21.59
X-44.45Y-21.59
T5
X-48.41Y-28.52
X-48.41Y-33.02
X-41.91Y-28.52
X-41.91Y-33.02
T6
X-94.615Y-63.881
X-94.615Y-66.421
X-94.615Y-68.961
X-94.615Y-71.501
X-72.39Y-10.24
X-72.39Y-15.24
X-47.783Y-74.168
X-46.398Y-77.008
X-45.013Y-74.168
X-43.628Y-77.008
X-42.243Y-74.168
X-40.858Y-77.008
X-39.473Y-74.168
X-38.088Y-77.008
X-36.703Y-74.168
T7
X-93.98Y-11.43
X-93.98Y-16.51
T8
X-60.72Y-11.84
X-60.72Y-15.24
X-50.8Y-11.84
X-50.8Y-15.24
T9
X-54.743Y-75.588
X-29.743Y-75.588
T0
M30
