G04 #@! TF.GenerationSoftware,KiCad,Pcbnew,(5.1.4)*
G04 #@! TF.CreationDate,2020-02-11T08:22:30-06:00*
G04 #@! TF.ProjectId,race timer,72616365-2074-4696-9d65-722e6b696361,rev?*
G04 #@! TF.SameCoordinates,PX6e37550PYe88b40*
G04 #@! TF.FileFunction,Soldermask,Bot*
G04 #@! TF.FilePolarity,Negative*
%FSLAX46Y46*%
G04 Gerber Fmt 4.6, Leading zero omitted, Abs format (unit mm)*
G04 Created by KiCad (PCBNEW (5.1.4)) date 2020-02-11 08:22:30*
%MOMM*%
%LPD*%
G04 APERTURE LIST*
%ADD10C,0.150000*%
%ADD11C,0.100000*%
G04 APERTURE END LIST*
D10*
X-3810000Y0D02*
G75*
G02X0Y-3810000I0J-3810000D01*
G01*
X0Y-81280000D02*
G75*
G02X-3810000Y-85090000I-3810000J0D01*
G01*
X-99060000Y-3810000D02*
G75*
G02X-95250000Y0I3810000J0D01*
G01*
X-92710000Y-85090000D02*
X-95250000Y-85090000D01*
X-95250000Y-85090000D02*
G75*
G02X-99060000Y-81280000I0J3810000D01*
G01*
X-92710000Y0D02*
X-95250000Y0D01*
X-3810000Y0D02*
X-92710000Y0D01*
X-99060000Y-3810000D02*
X-99060000Y-81280000D01*
X0Y-81280000D02*
X0Y-3810000D01*
X-92710000Y-85090000D02*
X-3810000Y-85090000D01*
D11*
G36*
X-65194000Y-84339000D02*
G01*
X-67394000Y-84339000D01*
X-67394000Y-82539000D01*
X-65194000Y-82539000D01*
X-65194000Y-84339000D01*
X-65194000Y-84339000D01*
G37*
G36*
X-69194000Y-84339000D02*
G01*
X-71394000Y-84339000D01*
X-71394000Y-82539000D01*
X-69194000Y-82539000D01*
X-69194000Y-84339000D01*
X-69194000Y-84339000D01*
G37*
G36*
X-77132000Y-81799000D02*
G01*
X-79332000Y-81799000D01*
X-79332000Y-79999000D01*
X-77132000Y-79999000D01*
X-77132000Y-81799000D01*
X-77132000Y-81799000D01*
G37*
G36*
X-73132000Y-81799000D02*
G01*
X-75332000Y-81799000D01*
X-75332000Y-79999000D01*
X-73132000Y-79999000D01*
X-73132000Y-81799000D01*
X-73132000Y-81799000D01*
G37*
G36*
X-64727908Y-80502599D02*
G01*
X-64695122Y-80512545D01*
X-64664911Y-80528693D01*
X-64638428Y-80550428D01*
X-64616693Y-80576911D01*
X-64600545Y-80607122D01*
X-64590599Y-80639908D01*
X-64587000Y-80676453D01*
X-64587000Y-81121547D01*
X-64590599Y-81158092D01*
X-64600545Y-81190878D01*
X-64616693Y-81221089D01*
X-64638428Y-81247572D01*
X-64664911Y-81269307D01*
X-64695122Y-81285455D01*
X-64727908Y-81295401D01*
X-64764453Y-81299000D01*
X-66559547Y-81299000D01*
X-66596092Y-81295401D01*
X-66628878Y-81285455D01*
X-66659089Y-81269307D01*
X-66685572Y-81247572D01*
X-66707307Y-81221089D01*
X-66723455Y-81190878D01*
X-66733401Y-81158092D01*
X-66737000Y-81121547D01*
X-66737000Y-80676453D01*
X-66733401Y-80639908D01*
X-66723455Y-80607122D01*
X-66707307Y-80576911D01*
X-66685572Y-80550428D01*
X-66659089Y-80528693D01*
X-66628878Y-80512545D01*
X-66596092Y-80502599D01*
X-66559547Y-80499000D01*
X-64764453Y-80499000D01*
X-64727908Y-80502599D01*
X-64727908Y-80502599D01*
G37*
G36*
X-69677908Y-80502599D02*
G01*
X-69645122Y-80512545D01*
X-69614911Y-80528693D01*
X-69588428Y-80550428D01*
X-69566693Y-80576911D01*
X-69550545Y-80607122D01*
X-69540599Y-80639908D01*
X-69537000Y-80676453D01*
X-69537000Y-81121547D01*
X-69540599Y-81158092D01*
X-69550545Y-81190878D01*
X-69566693Y-81221089D01*
X-69588428Y-81247572D01*
X-69614911Y-81269307D01*
X-69645122Y-81285455D01*
X-69677908Y-81295401D01*
X-69714453Y-81299000D01*
X-71509547Y-81299000D01*
X-71546092Y-81295401D01*
X-71578878Y-81285455D01*
X-71609089Y-81269307D01*
X-71635572Y-81247572D01*
X-71657307Y-81221089D01*
X-71673455Y-81190878D01*
X-71683401Y-81158092D01*
X-71687000Y-81121547D01*
X-71687000Y-80676453D01*
X-71683401Y-80639908D01*
X-71673455Y-80607122D01*
X-71657307Y-80576911D01*
X-71635572Y-80550428D01*
X-71609089Y-80528693D01*
X-71578878Y-80512545D01*
X-71546092Y-80502599D01*
X-71509547Y-80499000D01*
X-69714453Y-80499000D01*
X-69677908Y-80502599D01*
X-69677908Y-80502599D01*
G37*
G36*
X-64727908Y-79232599D02*
G01*
X-64695122Y-79242545D01*
X-64664911Y-79258693D01*
X-64638428Y-79280428D01*
X-64616693Y-79306911D01*
X-64600545Y-79337122D01*
X-64590599Y-79369908D01*
X-64587000Y-79406453D01*
X-64587000Y-79851547D01*
X-64590599Y-79888092D01*
X-64600545Y-79920878D01*
X-64616693Y-79951089D01*
X-64638428Y-79977572D01*
X-64664911Y-79999307D01*
X-64695122Y-80015455D01*
X-64727908Y-80025401D01*
X-64764453Y-80029000D01*
X-66559547Y-80029000D01*
X-66596092Y-80025401D01*
X-66628878Y-80015455D01*
X-66659089Y-79999307D01*
X-66685572Y-79977572D01*
X-66707307Y-79951089D01*
X-66723455Y-79920878D01*
X-66733401Y-79888092D01*
X-66737000Y-79851547D01*
X-66737000Y-79406453D01*
X-66733401Y-79369908D01*
X-66723455Y-79337122D01*
X-66707307Y-79306911D01*
X-66685572Y-79280428D01*
X-66659089Y-79258693D01*
X-66628878Y-79242545D01*
X-66596092Y-79232599D01*
X-66559547Y-79229000D01*
X-64764453Y-79229000D01*
X-64727908Y-79232599D01*
X-64727908Y-79232599D01*
G37*
G36*
X-69677908Y-79232599D02*
G01*
X-69645122Y-79242545D01*
X-69614911Y-79258693D01*
X-69588428Y-79280428D01*
X-69566693Y-79306911D01*
X-69550545Y-79337122D01*
X-69540599Y-79369908D01*
X-69537000Y-79406453D01*
X-69537000Y-79851547D01*
X-69540599Y-79888092D01*
X-69550545Y-79920878D01*
X-69566693Y-79951089D01*
X-69588428Y-79977572D01*
X-69614911Y-79999307D01*
X-69645122Y-80015455D01*
X-69677908Y-80025401D01*
X-69714453Y-80029000D01*
X-71509547Y-80029000D01*
X-71546092Y-80025401D01*
X-71578878Y-80015455D01*
X-71609089Y-79999307D01*
X-71635572Y-79977572D01*
X-71657307Y-79951089D01*
X-71673455Y-79920878D01*
X-71683401Y-79888092D01*
X-71687000Y-79851547D01*
X-71687000Y-79406453D01*
X-71683401Y-79369908D01*
X-71673455Y-79337122D01*
X-71657307Y-79306911D01*
X-71635572Y-79280428D01*
X-71609089Y-79258693D01*
X-71578878Y-79242545D01*
X-71546092Y-79232599D01*
X-71509547Y-79229000D01*
X-69714453Y-79229000D01*
X-69677908Y-79232599D01*
X-69677908Y-79232599D01*
G37*
G36*
X-69677908Y-77962599D02*
G01*
X-69645122Y-77972545D01*
X-69614911Y-77988693D01*
X-69588428Y-78010428D01*
X-69566693Y-78036911D01*
X-69550545Y-78067122D01*
X-69540599Y-78099908D01*
X-69537000Y-78136453D01*
X-69537000Y-78581547D01*
X-69540599Y-78618092D01*
X-69550545Y-78650878D01*
X-69566693Y-78681089D01*
X-69588428Y-78707572D01*
X-69614911Y-78729307D01*
X-69645122Y-78745455D01*
X-69677908Y-78755401D01*
X-69714453Y-78759000D01*
X-71509547Y-78759000D01*
X-71546092Y-78755401D01*
X-71578878Y-78745455D01*
X-71609089Y-78729307D01*
X-71635572Y-78707572D01*
X-71657307Y-78681089D01*
X-71673455Y-78650878D01*
X-71683401Y-78618092D01*
X-71687000Y-78581547D01*
X-71687000Y-78136453D01*
X-71683401Y-78099908D01*
X-71673455Y-78067122D01*
X-71657307Y-78036911D01*
X-71635572Y-78010428D01*
X-71609089Y-77988693D01*
X-71578878Y-77972545D01*
X-71546092Y-77962599D01*
X-71509547Y-77959000D01*
X-69714453Y-77959000D01*
X-69677908Y-77962599D01*
X-69677908Y-77962599D01*
G37*
G36*
X-64727908Y-77962599D02*
G01*
X-64695122Y-77972545D01*
X-64664911Y-77988693D01*
X-64638428Y-78010428D01*
X-64616693Y-78036911D01*
X-64600545Y-78067122D01*
X-64590599Y-78099908D01*
X-64587000Y-78136453D01*
X-64587000Y-78581547D01*
X-64590599Y-78618092D01*
X-64600545Y-78650878D01*
X-64616693Y-78681089D01*
X-64638428Y-78707572D01*
X-64664911Y-78729307D01*
X-64695122Y-78745455D01*
X-64727908Y-78755401D01*
X-64764453Y-78759000D01*
X-66559547Y-78759000D01*
X-66596092Y-78755401D01*
X-66628878Y-78745455D01*
X-66659089Y-78729307D01*
X-66685572Y-78707572D01*
X-66707307Y-78681089D01*
X-66723455Y-78650878D01*
X-66733401Y-78618092D01*
X-66737000Y-78581547D01*
X-66737000Y-78136453D01*
X-66733401Y-78099908D01*
X-66723455Y-78067122D01*
X-66707307Y-78036911D01*
X-66685572Y-78010428D01*
X-66659089Y-77988693D01*
X-66628878Y-77972545D01*
X-66596092Y-77962599D01*
X-66559547Y-77959000D01*
X-64764453Y-77959000D01*
X-64727908Y-77962599D01*
X-64727908Y-77962599D01*
G37*
G36*
X-37888182Y-76130114D02*
G01*
X-37825480Y-76142586D01*
X-37722374Y-76185294D01*
X-37673700Y-76205455D01*
X-37661690Y-76210430D01*
X-37514283Y-76308924D01*
X-37388924Y-76434283D01*
X-37290430Y-76581690D01*
X-37222586Y-76745480D01*
X-37218323Y-76766911D01*
X-37201799Y-76849982D01*
X-37188000Y-76919358D01*
X-37188000Y-77096642D01*
X-37222586Y-77270520D01*
X-37254717Y-77348092D01*
X-37280811Y-77411089D01*
X-37290430Y-77434310D01*
X-37388924Y-77581717D01*
X-37514283Y-77707076D01*
X-37661690Y-77805570D01*
X-37825480Y-77873414D01*
X-37883439Y-77884943D01*
X-37999356Y-77908000D01*
X-38176644Y-77908000D01*
X-38292561Y-77884943D01*
X-38350520Y-77873414D01*
X-38514310Y-77805570D01*
X-38661717Y-77707076D01*
X-38787076Y-77581717D01*
X-38885570Y-77434310D01*
X-38895188Y-77411089D01*
X-38921283Y-77348092D01*
X-38953414Y-77270520D01*
X-38988000Y-77096642D01*
X-38988000Y-76919358D01*
X-38974200Y-76849982D01*
X-38957677Y-76766911D01*
X-38953414Y-76745480D01*
X-38885570Y-76581690D01*
X-38787076Y-76434283D01*
X-38661717Y-76308924D01*
X-38514310Y-76210430D01*
X-38502299Y-76205455D01*
X-38453626Y-76185294D01*
X-38350520Y-76142586D01*
X-38287818Y-76130114D01*
X-38176644Y-76108000D01*
X-37999356Y-76108000D01*
X-37888182Y-76130114D01*
X-37888182Y-76130114D01*
G37*
G36*
X-46198182Y-76130114D02*
G01*
X-46135480Y-76142586D01*
X-46032374Y-76185294D01*
X-45983700Y-76205455D01*
X-45971690Y-76210430D01*
X-45824283Y-76308924D01*
X-45698924Y-76434283D01*
X-45600430Y-76581690D01*
X-45532586Y-76745480D01*
X-45528323Y-76766911D01*
X-45511799Y-76849982D01*
X-45498000Y-76919358D01*
X-45498000Y-77096642D01*
X-45532586Y-77270520D01*
X-45564717Y-77348092D01*
X-45590811Y-77411089D01*
X-45600430Y-77434310D01*
X-45698924Y-77581717D01*
X-45824283Y-77707076D01*
X-45971690Y-77805570D01*
X-46135480Y-77873414D01*
X-46193439Y-77884943D01*
X-46309356Y-77908000D01*
X-46486644Y-77908000D01*
X-46602561Y-77884943D01*
X-46660520Y-77873414D01*
X-46824310Y-77805570D01*
X-46971717Y-77707076D01*
X-47097076Y-77581717D01*
X-47195570Y-77434310D01*
X-47205188Y-77411089D01*
X-47231283Y-77348092D01*
X-47263414Y-77270520D01*
X-47298000Y-77096642D01*
X-47298000Y-76919358D01*
X-47284200Y-76849982D01*
X-47267677Y-76766911D01*
X-47263414Y-76745480D01*
X-47195570Y-76581690D01*
X-47097076Y-76434283D01*
X-46971717Y-76308924D01*
X-46824310Y-76210430D01*
X-46812299Y-76205455D01*
X-46763626Y-76185294D01*
X-46660520Y-76142586D01*
X-46597818Y-76130114D01*
X-46486644Y-76108000D01*
X-46309356Y-76108000D01*
X-46198182Y-76130114D01*
X-46198182Y-76130114D01*
G37*
G36*
X-40658182Y-76130114D02*
G01*
X-40595480Y-76142586D01*
X-40492374Y-76185294D01*
X-40443700Y-76205455D01*
X-40431690Y-76210430D01*
X-40284283Y-76308924D01*
X-40158924Y-76434283D01*
X-40060430Y-76581690D01*
X-39992586Y-76745480D01*
X-39988323Y-76766911D01*
X-39971799Y-76849982D01*
X-39958000Y-76919358D01*
X-39958000Y-77096642D01*
X-39992586Y-77270520D01*
X-40024717Y-77348092D01*
X-40050811Y-77411089D01*
X-40060430Y-77434310D01*
X-40158924Y-77581717D01*
X-40284283Y-77707076D01*
X-40431690Y-77805570D01*
X-40595480Y-77873414D01*
X-40653439Y-77884943D01*
X-40769356Y-77908000D01*
X-40946644Y-77908000D01*
X-41062561Y-77884943D01*
X-41120520Y-77873414D01*
X-41284310Y-77805570D01*
X-41431717Y-77707076D01*
X-41557076Y-77581717D01*
X-41655570Y-77434310D01*
X-41665188Y-77411089D01*
X-41691283Y-77348092D01*
X-41723414Y-77270520D01*
X-41758000Y-77096642D01*
X-41758000Y-76919358D01*
X-41744200Y-76849982D01*
X-41727677Y-76766911D01*
X-41723414Y-76745480D01*
X-41655570Y-76581690D01*
X-41557076Y-76434283D01*
X-41431717Y-76308924D01*
X-41284310Y-76210430D01*
X-41272299Y-76205455D01*
X-41223626Y-76185294D01*
X-41120520Y-76142586D01*
X-41057818Y-76130114D01*
X-40946644Y-76108000D01*
X-40769356Y-76108000D01*
X-40658182Y-76130114D01*
X-40658182Y-76130114D01*
G37*
G36*
X-43428182Y-76130114D02*
G01*
X-43365480Y-76142586D01*
X-43262374Y-76185294D01*
X-43213700Y-76205455D01*
X-43201690Y-76210430D01*
X-43054283Y-76308924D01*
X-42928924Y-76434283D01*
X-42830430Y-76581690D01*
X-42762586Y-76745480D01*
X-42758323Y-76766911D01*
X-42741799Y-76849982D01*
X-42728000Y-76919358D01*
X-42728000Y-77096642D01*
X-42762586Y-77270520D01*
X-42794717Y-77348092D01*
X-42820811Y-77411089D01*
X-42830430Y-77434310D01*
X-42928924Y-77581717D01*
X-43054283Y-77707076D01*
X-43201690Y-77805570D01*
X-43365480Y-77873414D01*
X-43423439Y-77884943D01*
X-43539356Y-77908000D01*
X-43716644Y-77908000D01*
X-43832561Y-77884943D01*
X-43890520Y-77873414D01*
X-44054310Y-77805570D01*
X-44201717Y-77707076D01*
X-44327076Y-77581717D01*
X-44425570Y-77434310D01*
X-44435188Y-77411089D01*
X-44461283Y-77348092D01*
X-44493414Y-77270520D01*
X-44528000Y-77096642D01*
X-44528000Y-76919358D01*
X-44514200Y-76849982D01*
X-44497677Y-76766911D01*
X-44493414Y-76745480D01*
X-44425570Y-76581690D01*
X-44327076Y-76434283D01*
X-44201717Y-76308924D01*
X-44054310Y-76210430D01*
X-44042299Y-76205455D01*
X-43993626Y-76185294D01*
X-43890520Y-76142586D01*
X-43827818Y-76130114D01*
X-43716644Y-76108000D01*
X-43539356Y-76108000D01*
X-43428182Y-76130114D01*
X-43428182Y-76130114D01*
G37*
G36*
X-29130454Y-73568701D02*
G01*
X-29031902Y-73609523D01*
X-28748277Y-73727004D01*
X-28404328Y-73956823D01*
X-28111823Y-74249328D01*
X-27882004Y-74593277D01*
X-27801340Y-74788018D01*
X-27723701Y-74975454D01*
X-27643000Y-75381167D01*
X-27643000Y-75794833D01*
X-27723701Y-76200546D01*
X-27768593Y-76308924D01*
X-27882004Y-76582723D01*
X-28111823Y-76926672D01*
X-28404328Y-77219177D01*
X-28748277Y-77448996D01*
X-28972151Y-77541728D01*
X-29130454Y-77607299D01*
X-29536167Y-77688000D01*
X-29949833Y-77688000D01*
X-30355546Y-77607299D01*
X-30513849Y-77541728D01*
X-30737723Y-77448996D01*
X-31081672Y-77219177D01*
X-31374177Y-76926672D01*
X-31603996Y-76582723D01*
X-31717407Y-76308924D01*
X-31762299Y-76200546D01*
X-31843000Y-75794833D01*
X-31843000Y-75381167D01*
X-31762299Y-74975454D01*
X-31684660Y-74788018D01*
X-31603996Y-74593277D01*
X-31374177Y-74249328D01*
X-31081672Y-73956823D01*
X-30737723Y-73727004D01*
X-30454098Y-73609523D01*
X-30355546Y-73568701D01*
X-29949833Y-73488000D01*
X-29536167Y-73488000D01*
X-29130454Y-73568701D01*
X-29130454Y-73568701D01*
G37*
G36*
X-54130454Y-73568701D02*
G01*
X-54031902Y-73609523D01*
X-53748277Y-73727004D01*
X-53404328Y-73956823D01*
X-53111823Y-74249328D01*
X-52882004Y-74593277D01*
X-52801340Y-74788018D01*
X-52723701Y-74975454D01*
X-52643000Y-75381167D01*
X-52643000Y-75794833D01*
X-52723701Y-76200546D01*
X-52768593Y-76308924D01*
X-52882004Y-76582723D01*
X-53111823Y-76926672D01*
X-53404328Y-77219177D01*
X-53748277Y-77448996D01*
X-53972151Y-77541728D01*
X-54130454Y-77607299D01*
X-54536167Y-77688000D01*
X-54949833Y-77688000D01*
X-55355546Y-77607299D01*
X-55513849Y-77541728D01*
X-55737723Y-77448996D01*
X-56081672Y-77219177D01*
X-56374177Y-76926672D01*
X-56603996Y-76582723D01*
X-56717407Y-76308924D01*
X-56762299Y-76200546D01*
X-56843000Y-75794833D01*
X-56843000Y-75381167D01*
X-56762299Y-74975454D01*
X-56684660Y-74788018D01*
X-56603996Y-74593277D01*
X-56374177Y-74249328D01*
X-56081672Y-73956823D01*
X-55737723Y-73727004D01*
X-55454098Y-73609523D01*
X-55355546Y-73568701D01*
X-54949833Y-73488000D01*
X-54536167Y-73488000D01*
X-54130454Y-73568701D01*
X-54130454Y-73568701D01*
G37*
G36*
X-69677908Y-76692599D02*
G01*
X-69645122Y-76702545D01*
X-69614911Y-76718693D01*
X-69588428Y-76740428D01*
X-69566693Y-76766911D01*
X-69550545Y-76797122D01*
X-69540599Y-76829908D01*
X-69537000Y-76866453D01*
X-69537000Y-77311547D01*
X-69540599Y-77348092D01*
X-69550545Y-77380878D01*
X-69566693Y-77411089D01*
X-69588428Y-77437572D01*
X-69614911Y-77459307D01*
X-69645122Y-77475455D01*
X-69677908Y-77485401D01*
X-69714453Y-77489000D01*
X-71509547Y-77489000D01*
X-71546092Y-77485401D01*
X-71578878Y-77475455D01*
X-71609089Y-77459307D01*
X-71635572Y-77437572D01*
X-71657307Y-77411089D01*
X-71673455Y-77380878D01*
X-71683401Y-77348092D01*
X-71687000Y-77311547D01*
X-71687000Y-76866453D01*
X-71683401Y-76829908D01*
X-71673455Y-76797122D01*
X-71657307Y-76766911D01*
X-71635572Y-76740428D01*
X-71609089Y-76718693D01*
X-71578878Y-76702545D01*
X-71546092Y-76692599D01*
X-71509547Y-76689000D01*
X-69714453Y-76689000D01*
X-69677908Y-76692599D01*
X-69677908Y-76692599D01*
G37*
G36*
X-64727908Y-76692599D02*
G01*
X-64695122Y-76702545D01*
X-64664911Y-76718693D01*
X-64638428Y-76740428D01*
X-64616693Y-76766911D01*
X-64600545Y-76797122D01*
X-64590599Y-76829908D01*
X-64587000Y-76866453D01*
X-64587000Y-77311547D01*
X-64590599Y-77348092D01*
X-64600545Y-77380878D01*
X-64616693Y-77411089D01*
X-64638428Y-77437572D01*
X-64664911Y-77459307D01*
X-64695122Y-77475455D01*
X-64727908Y-77485401D01*
X-64764453Y-77489000D01*
X-66559547Y-77489000D01*
X-66596092Y-77485401D01*
X-66628878Y-77475455D01*
X-66659089Y-77459307D01*
X-66685572Y-77437572D01*
X-66707307Y-77411089D01*
X-66723455Y-77380878D01*
X-66733401Y-77348092D01*
X-66737000Y-77311547D01*
X-66737000Y-76866453D01*
X-66733401Y-76829908D01*
X-66723455Y-76797122D01*
X-66707307Y-76766911D01*
X-66685572Y-76740428D01*
X-66659089Y-76718693D01*
X-66628878Y-76702545D01*
X-66596092Y-76692599D01*
X-66559547Y-76689000D01*
X-64764453Y-76689000D01*
X-64727908Y-76692599D01*
X-64727908Y-76692599D01*
G37*
G36*
X-73005000Y-76973000D02*
G01*
X-75205000Y-76973000D01*
X-75205000Y-75173000D01*
X-73005000Y-75173000D01*
X-73005000Y-76973000D01*
X-73005000Y-76973000D01*
G37*
G36*
X-77005000Y-76973000D02*
G01*
X-79205000Y-76973000D01*
X-79205000Y-75173000D01*
X-77005000Y-75173000D01*
X-77005000Y-76973000D01*
X-77005000Y-76973000D01*
G37*
G36*
X-7339007Y-73252588D02*
G01*
X-7124128Y-73295330D01*
X-6814748Y-73423479D01*
X-6536313Y-73609523D01*
X-6299523Y-73846313D01*
X-6113479Y-74124748D01*
X-5985330Y-74434128D01*
X-5920000Y-74762565D01*
X-5920000Y-75097435D01*
X-5985330Y-75425872D01*
X-6113479Y-75735252D01*
X-6299523Y-76013687D01*
X-6536313Y-76250477D01*
X-6814748Y-76436521D01*
X-7124128Y-76564670D01*
X-7288347Y-76597335D01*
X-7452563Y-76630000D01*
X-7787437Y-76630000D01*
X-7951654Y-76597335D01*
X-8115872Y-76564670D01*
X-8425252Y-76436521D01*
X-8703687Y-76250477D01*
X-8940477Y-76013687D01*
X-9126521Y-75735252D01*
X-9254670Y-75425872D01*
X-9320000Y-75097435D01*
X-9320000Y-74762565D01*
X-9254670Y-74434128D01*
X-9126521Y-74124748D01*
X-8940477Y-73846313D01*
X-8703687Y-73609523D01*
X-8425252Y-73423479D01*
X-8115872Y-73295330D01*
X-7900993Y-73252588D01*
X-7787437Y-73230000D01*
X-7452563Y-73230000D01*
X-7339007Y-73252588D01*
X-7339007Y-73252588D01*
G37*
G36*
X-64727908Y-75422599D02*
G01*
X-64695122Y-75432545D01*
X-64664911Y-75448693D01*
X-64638428Y-75470428D01*
X-64616693Y-75496911D01*
X-64600545Y-75527122D01*
X-64590599Y-75559908D01*
X-64587000Y-75596453D01*
X-64587000Y-76041547D01*
X-64590599Y-76078092D01*
X-64600545Y-76110878D01*
X-64616693Y-76141089D01*
X-64638428Y-76167572D01*
X-64664911Y-76189307D01*
X-64695122Y-76205455D01*
X-64727908Y-76215401D01*
X-64764453Y-76219000D01*
X-66559547Y-76219000D01*
X-66596092Y-76215401D01*
X-66628878Y-76205455D01*
X-66659089Y-76189307D01*
X-66685572Y-76167572D01*
X-66707307Y-76141089D01*
X-66723455Y-76110878D01*
X-66733401Y-76078092D01*
X-66737000Y-76041547D01*
X-66737000Y-75596453D01*
X-66733401Y-75559908D01*
X-66723455Y-75527122D01*
X-66707307Y-75496911D01*
X-66685572Y-75470428D01*
X-66659089Y-75448693D01*
X-66628878Y-75432545D01*
X-66596092Y-75422599D01*
X-66559547Y-75419000D01*
X-64764453Y-75419000D01*
X-64727908Y-75422599D01*
X-64727908Y-75422599D01*
G37*
G36*
X-69677908Y-75422599D02*
G01*
X-69645122Y-75432545D01*
X-69614911Y-75448693D01*
X-69588428Y-75470428D01*
X-69566693Y-75496911D01*
X-69550545Y-75527122D01*
X-69540599Y-75559908D01*
X-69537000Y-75596453D01*
X-69537000Y-76041547D01*
X-69540599Y-76078092D01*
X-69550545Y-76110878D01*
X-69566693Y-76141089D01*
X-69588428Y-76167572D01*
X-69614911Y-76189307D01*
X-69645122Y-76205455D01*
X-69677908Y-76215401D01*
X-69714453Y-76219000D01*
X-71509547Y-76219000D01*
X-71546092Y-76215401D01*
X-71578878Y-76205455D01*
X-71609089Y-76189307D01*
X-71635572Y-76167572D01*
X-71657307Y-76141089D01*
X-71673455Y-76110878D01*
X-71683401Y-76078092D01*
X-71687000Y-76041547D01*
X-71687000Y-75596453D01*
X-71683401Y-75559908D01*
X-71673455Y-75527122D01*
X-71657307Y-75496911D01*
X-71635572Y-75470428D01*
X-71609089Y-75448693D01*
X-71578878Y-75432545D01*
X-71546092Y-75422599D01*
X-71509547Y-75419000D01*
X-69714453Y-75419000D01*
X-69677908Y-75422599D01*
X-69677908Y-75422599D01*
G37*
G36*
X-35803000Y-75068000D02*
G01*
X-37603000Y-75068000D01*
X-37603000Y-73268000D01*
X-35803000Y-73268000D01*
X-35803000Y-75068000D01*
X-35803000Y-75068000D01*
G37*
G36*
X-39269562Y-73290834D02*
G01*
X-39210480Y-73302586D01*
X-39046690Y-73370430D01*
X-38899283Y-73468924D01*
X-38773924Y-73594283D01*
X-38675430Y-73741690D01*
X-38607586Y-73905480D01*
X-38573000Y-74079358D01*
X-38573000Y-74256642D01*
X-38607586Y-74430520D01*
X-38675430Y-74594310D01*
X-38773924Y-74741717D01*
X-38899283Y-74867076D01*
X-39046690Y-74965570D01*
X-39046691Y-74965571D01*
X-39046692Y-74965571D01*
X-39070552Y-74975454D01*
X-39210480Y-75033414D01*
X-39268439Y-75044943D01*
X-39384356Y-75068000D01*
X-39561644Y-75068000D01*
X-39677561Y-75044943D01*
X-39735520Y-75033414D01*
X-39875448Y-74975454D01*
X-39899308Y-74965571D01*
X-39899309Y-74965571D01*
X-39899310Y-74965570D01*
X-40046717Y-74867076D01*
X-40172076Y-74741717D01*
X-40270570Y-74594310D01*
X-40338414Y-74430520D01*
X-40373000Y-74256642D01*
X-40373000Y-74079358D01*
X-40338414Y-73905480D01*
X-40270570Y-73741690D01*
X-40172076Y-73594283D01*
X-40046717Y-73468924D01*
X-39899310Y-73370430D01*
X-39735520Y-73302586D01*
X-39676438Y-73290834D01*
X-39561644Y-73268000D01*
X-39384356Y-73268000D01*
X-39269562Y-73290834D01*
X-39269562Y-73290834D01*
G37*
G36*
X-44809562Y-73290834D02*
G01*
X-44750480Y-73302586D01*
X-44586690Y-73370430D01*
X-44439283Y-73468924D01*
X-44313924Y-73594283D01*
X-44215430Y-73741690D01*
X-44147586Y-73905480D01*
X-44113000Y-74079358D01*
X-44113000Y-74256642D01*
X-44147586Y-74430520D01*
X-44215430Y-74594310D01*
X-44313924Y-74741717D01*
X-44439283Y-74867076D01*
X-44586690Y-74965570D01*
X-44586691Y-74965571D01*
X-44586692Y-74965571D01*
X-44610552Y-74975454D01*
X-44750480Y-75033414D01*
X-44808439Y-75044943D01*
X-44924356Y-75068000D01*
X-45101644Y-75068000D01*
X-45217561Y-75044943D01*
X-45275520Y-75033414D01*
X-45415448Y-74975454D01*
X-45439308Y-74965571D01*
X-45439309Y-74965571D01*
X-45439310Y-74965570D01*
X-45586717Y-74867076D01*
X-45712076Y-74741717D01*
X-45810570Y-74594310D01*
X-45878414Y-74430520D01*
X-45913000Y-74256642D01*
X-45913000Y-74079358D01*
X-45878414Y-73905480D01*
X-45810570Y-73741690D01*
X-45712076Y-73594283D01*
X-45586717Y-73468924D01*
X-45439310Y-73370430D01*
X-45275520Y-73302586D01*
X-45216438Y-73290834D01*
X-45101644Y-73268000D01*
X-44924356Y-73268000D01*
X-44809562Y-73290834D01*
X-44809562Y-73290834D01*
G37*
G36*
X-47579562Y-73290834D02*
G01*
X-47520480Y-73302586D01*
X-47356690Y-73370430D01*
X-47209283Y-73468924D01*
X-47083924Y-73594283D01*
X-46985430Y-73741690D01*
X-46917586Y-73905480D01*
X-46883000Y-74079358D01*
X-46883000Y-74256642D01*
X-46917586Y-74430520D01*
X-46985430Y-74594310D01*
X-47083924Y-74741717D01*
X-47209283Y-74867076D01*
X-47356690Y-74965570D01*
X-47356691Y-74965571D01*
X-47356692Y-74965571D01*
X-47380552Y-74975454D01*
X-47520480Y-75033414D01*
X-47578439Y-75044943D01*
X-47694356Y-75068000D01*
X-47871644Y-75068000D01*
X-47987561Y-75044943D01*
X-48045520Y-75033414D01*
X-48185448Y-74975454D01*
X-48209308Y-74965571D01*
X-48209309Y-74965571D01*
X-48209310Y-74965570D01*
X-48356717Y-74867076D01*
X-48482076Y-74741717D01*
X-48580570Y-74594310D01*
X-48648414Y-74430520D01*
X-48683000Y-74256642D01*
X-48683000Y-74079358D01*
X-48648414Y-73905480D01*
X-48580570Y-73741690D01*
X-48482076Y-73594283D01*
X-48356717Y-73468924D01*
X-48209310Y-73370430D01*
X-48045520Y-73302586D01*
X-47986438Y-73290834D01*
X-47871644Y-73268000D01*
X-47694356Y-73268000D01*
X-47579562Y-73290834D01*
X-47579562Y-73290834D01*
G37*
G36*
X-42039562Y-73290834D02*
G01*
X-41980480Y-73302586D01*
X-41816690Y-73370430D01*
X-41669283Y-73468924D01*
X-41543924Y-73594283D01*
X-41445430Y-73741690D01*
X-41377586Y-73905480D01*
X-41343000Y-74079358D01*
X-41343000Y-74256642D01*
X-41377586Y-74430520D01*
X-41445430Y-74594310D01*
X-41543924Y-74741717D01*
X-41669283Y-74867076D01*
X-41816690Y-74965570D01*
X-41816691Y-74965571D01*
X-41816692Y-74965571D01*
X-41840552Y-74975454D01*
X-41980480Y-75033414D01*
X-42038439Y-75044943D01*
X-42154356Y-75068000D01*
X-42331644Y-75068000D01*
X-42447561Y-75044943D01*
X-42505520Y-75033414D01*
X-42645448Y-74975454D01*
X-42669308Y-74965571D01*
X-42669309Y-74965571D01*
X-42669310Y-74965570D01*
X-42816717Y-74867076D01*
X-42942076Y-74741717D01*
X-43040570Y-74594310D01*
X-43108414Y-74430520D01*
X-43143000Y-74256642D01*
X-43143000Y-74079358D01*
X-43108414Y-73905480D01*
X-43040570Y-73741690D01*
X-42942076Y-73594283D01*
X-42816717Y-73468924D01*
X-42669310Y-73370430D01*
X-42505520Y-73302586D01*
X-42446438Y-73290834D01*
X-42331644Y-73268000D01*
X-42154356Y-73268000D01*
X-42039562Y-73290834D01*
X-42039562Y-73290834D01*
G37*
G36*
X-69677908Y-74152599D02*
G01*
X-69645122Y-74162545D01*
X-69614911Y-74178693D01*
X-69588428Y-74200428D01*
X-69566693Y-74226911D01*
X-69550545Y-74257122D01*
X-69540599Y-74289908D01*
X-69537000Y-74326453D01*
X-69537000Y-74771547D01*
X-69540599Y-74808092D01*
X-69550545Y-74840878D01*
X-69566693Y-74871089D01*
X-69588428Y-74897572D01*
X-69614911Y-74919307D01*
X-69645122Y-74935455D01*
X-69677908Y-74945401D01*
X-69714453Y-74949000D01*
X-71509547Y-74949000D01*
X-71546092Y-74945401D01*
X-71578878Y-74935455D01*
X-71609089Y-74919307D01*
X-71635572Y-74897572D01*
X-71657307Y-74871089D01*
X-71673455Y-74840878D01*
X-71683401Y-74808092D01*
X-71687000Y-74771547D01*
X-71687000Y-74326453D01*
X-71683401Y-74289908D01*
X-71673455Y-74257122D01*
X-71657307Y-74226911D01*
X-71635572Y-74200428D01*
X-71609089Y-74178693D01*
X-71578878Y-74162545D01*
X-71546092Y-74152599D01*
X-71509547Y-74149000D01*
X-69714453Y-74149000D01*
X-69677908Y-74152599D01*
X-69677908Y-74152599D01*
G37*
G36*
X-64727908Y-74152599D02*
G01*
X-64695122Y-74162545D01*
X-64664911Y-74178693D01*
X-64638428Y-74200428D01*
X-64616693Y-74226911D01*
X-64600545Y-74257122D01*
X-64590599Y-74289908D01*
X-64587000Y-74326453D01*
X-64587000Y-74771547D01*
X-64590599Y-74808092D01*
X-64600545Y-74840878D01*
X-64616693Y-74871089D01*
X-64638428Y-74897572D01*
X-64664911Y-74919307D01*
X-64695122Y-74935455D01*
X-64727908Y-74945401D01*
X-64764453Y-74949000D01*
X-66559547Y-74949000D01*
X-66596092Y-74945401D01*
X-66628878Y-74935455D01*
X-66659089Y-74919307D01*
X-66685572Y-74897572D01*
X-66707307Y-74871089D01*
X-66723455Y-74840878D01*
X-66733401Y-74808092D01*
X-66737000Y-74771547D01*
X-66737000Y-74326453D01*
X-66733401Y-74289908D01*
X-66723455Y-74257122D01*
X-66707307Y-74226911D01*
X-66685572Y-74200428D01*
X-66659089Y-74178693D01*
X-66628878Y-74162545D01*
X-66596092Y-74152599D01*
X-66559547Y-74149000D01*
X-64764453Y-74149000D01*
X-64727908Y-74152599D01*
X-64727908Y-74152599D01*
G37*
G36*
X-13120000Y-74510000D02*
G01*
X-14820000Y-74510000D01*
X-14820000Y-72810000D01*
X-13120000Y-72810000D01*
X-13120000Y-74510000D01*
X-13120000Y-74510000D01*
G37*
G36*
X-64727908Y-72882599D02*
G01*
X-64695122Y-72892545D01*
X-64664911Y-72908693D01*
X-64638428Y-72930428D01*
X-64616693Y-72956911D01*
X-64600545Y-72987122D01*
X-64590599Y-73019908D01*
X-64587000Y-73056453D01*
X-64587000Y-73501547D01*
X-64590599Y-73538092D01*
X-64600545Y-73570878D01*
X-64616693Y-73601089D01*
X-64638428Y-73627572D01*
X-64664911Y-73649307D01*
X-64695122Y-73665455D01*
X-64727908Y-73675401D01*
X-64764453Y-73679000D01*
X-66559547Y-73679000D01*
X-66596092Y-73675401D01*
X-66628878Y-73665455D01*
X-66659089Y-73649307D01*
X-66685572Y-73627572D01*
X-66707307Y-73601089D01*
X-66723455Y-73570878D01*
X-66733401Y-73538092D01*
X-66737000Y-73501547D01*
X-66737000Y-73056453D01*
X-66733401Y-73019908D01*
X-66723455Y-72987122D01*
X-66707307Y-72956911D01*
X-66685572Y-72930428D01*
X-66659089Y-72908693D01*
X-66628878Y-72892545D01*
X-66596092Y-72882599D01*
X-66559547Y-72879000D01*
X-64764453Y-72879000D01*
X-64727908Y-72882599D01*
X-64727908Y-72882599D01*
G37*
G36*
X-69677908Y-72882599D02*
G01*
X-69645122Y-72892545D01*
X-69614911Y-72908693D01*
X-69588428Y-72930428D01*
X-69566693Y-72956911D01*
X-69550545Y-72987122D01*
X-69540599Y-73019908D01*
X-69537000Y-73056453D01*
X-69537000Y-73501547D01*
X-69540599Y-73538092D01*
X-69550545Y-73570878D01*
X-69566693Y-73601089D01*
X-69588428Y-73627572D01*
X-69614911Y-73649307D01*
X-69645122Y-73665455D01*
X-69677908Y-73675401D01*
X-69714453Y-73679000D01*
X-71509547Y-73679000D01*
X-71546092Y-73675401D01*
X-71578878Y-73665455D01*
X-71609089Y-73649307D01*
X-71635572Y-73627572D01*
X-71657307Y-73601089D01*
X-71673455Y-73570878D01*
X-71683401Y-73538092D01*
X-71687000Y-73501547D01*
X-71687000Y-73056453D01*
X-71683401Y-73019908D01*
X-71673455Y-72987122D01*
X-71657307Y-72956911D01*
X-71635572Y-72930428D01*
X-71609089Y-72908693D01*
X-71578878Y-72892545D01*
X-71546092Y-72882599D01*
X-71509547Y-72879000D01*
X-69714453Y-72879000D01*
X-69677908Y-72882599D01*
X-69677908Y-72882599D01*
G37*
G36*
X-73068000Y-73417000D02*
G01*
X-75268000Y-73417000D01*
X-75268000Y-71617000D01*
X-73068000Y-71617000D01*
X-73068000Y-73417000D01*
X-73068000Y-73417000D01*
G37*
G36*
X-77068000Y-73417000D02*
G01*
X-79268000Y-73417000D01*
X-79268000Y-71617000D01*
X-77068000Y-71617000D01*
X-77068000Y-73417000D01*
X-77068000Y-73417000D01*
G37*
G36*
X-24878393Y-71420091D02*
G01*
X-24831049Y-71434453D01*
X-24787412Y-71457778D01*
X-24749166Y-71489166D01*
X-24717778Y-71527412D01*
X-24694453Y-71571049D01*
X-24680091Y-71618393D01*
X-24675000Y-71670086D01*
X-24675000Y-73109914D01*
X-24680091Y-73161607D01*
X-24694453Y-73208951D01*
X-24717778Y-73252588D01*
X-24749166Y-73290834D01*
X-24787412Y-73322222D01*
X-24831049Y-73345547D01*
X-24878393Y-73359909D01*
X-24930086Y-73365000D01*
X-26044914Y-73365000D01*
X-26096607Y-73359909D01*
X-26143951Y-73345547D01*
X-26187588Y-73322222D01*
X-26225834Y-73290834D01*
X-26257222Y-73252588D01*
X-26280547Y-73208951D01*
X-26294909Y-73161607D01*
X-26300000Y-73109914D01*
X-26300000Y-71670086D01*
X-26294909Y-71618393D01*
X-26280547Y-71571049D01*
X-26257222Y-71527412D01*
X-26225834Y-71489166D01*
X-26187588Y-71457778D01*
X-26143951Y-71434453D01*
X-26096607Y-71420091D01*
X-26044914Y-71415000D01*
X-24930086Y-71415000D01*
X-24878393Y-71420091D01*
X-24878393Y-71420091D01*
G37*
G36*
X-21903393Y-71420091D02*
G01*
X-21856049Y-71434453D01*
X-21812412Y-71457778D01*
X-21774166Y-71489166D01*
X-21742778Y-71527412D01*
X-21719453Y-71571049D01*
X-21705091Y-71618393D01*
X-21700000Y-71670086D01*
X-21700000Y-73109914D01*
X-21705091Y-73161607D01*
X-21719453Y-73208951D01*
X-21742778Y-73252588D01*
X-21774166Y-73290834D01*
X-21812412Y-73322222D01*
X-21856049Y-73345547D01*
X-21903393Y-73359909D01*
X-21955086Y-73365000D01*
X-23069914Y-73365000D01*
X-23121607Y-73359909D01*
X-23168951Y-73345547D01*
X-23212588Y-73322222D01*
X-23250834Y-73290834D01*
X-23282222Y-73252588D01*
X-23305547Y-73208951D01*
X-23319909Y-73161607D01*
X-23325000Y-73109914D01*
X-23325000Y-71670086D01*
X-23319909Y-71618393D01*
X-23305547Y-71571049D01*
X-23282222Y-71527412D01*
X-23250834Y-71489166D01*
X-23212588Y-71457778D01*
X-23168951Y-71434453D01*
X-23121607Y-71420091D01*
X-23069914Y-71415000D01*
X-21955086Y-71415000D01*
X-21903393Y-71420091D01*
X-21903393Y-71420091D01*
G37*
G36*
X-16262066Y-71572664D02*
G01*
X-16107375Y-71636739D01*
X-16107374Y-71636740D01*
X-15968156Y-71729762D01*
X-15849762Y-71848156D01*
X-15802935Y-71918238D01*
X-15756739Y-71987375D01*
X-15692664Y-72142066D01*
X-15660000Y-72306281D01*
X-15660000Y-72473719D01*
X-15692664Y-72637934D01*
X-15756739Y-72792625D01*
X-15756740Y-72792626D01*
X-15849762Y-72931844D01*
X-15968156Y-73050238D01*
X-16011202Y-73079000D01*
X-16107375Y-73143261D01*
X-16262066Y-73207336D01*
X-16426281Y-73240000D01*
X-16593719Y-73240000D01*
X-16757934Y-73207336D01*
X-16912625Y-73143261D01*
X-17008798Y-73079000D01*
X-17051844Y-73050238D01*
X-17170238Y-72931844D01*
X-17263260Y-72792626D01*
X-17263261Y-72792625D01*
X-17327336Y-72637934D01*
X-17360000Y-72473719D01*
X-17360000Y-72306281D01*
X-17327336Y-72142066D01*
X-17263261Y-71987375D01*
X-17217065Y-71918238D01*
X-17170238Y-71848156D01*
X-17051844Y-71729762D01*
X-16912626Y-71636740D01*
X-16912625Y-71636739D01*
X-16757934Y-71572664D01*
X-16593719Y-71540000D01*
X-16426281Y-71540000D01*
X-16262066Y-71572664D01*
X-16262066Y-71572664D01*
G37*
G36*
X-94428768Y-70564746D02*
G01*
X-94249692Y-70619068D01*
X-94167174Y-70663175D01*
X-94084656Y-70707281D01*
X-93939999Y-70825999D01*
X-93902192Y-70872066D01*
X-93821282Y-70970655D01*
X-93733068Y-71135692D01*
X-93678746Y-71314768D01*
X-93660404Y-71501000D01*
X-93678746Y-71687232D01*
X-93733068Y-71866308D01*
X-93771033Y-71937335D01*
X-93821281Y-72031344D01*
X-93939999Y-72176001D01*
X-94084656Y-72294719D01*
X-94152700Y-72331089D01*
X-94249692Y-72382932D01*
X-94428768Y-72437254D01*
X-94568334Y-72451000D01*
X-94661666Y-72451000D01*
X-94801232Y-72437254D01*
X-94980308Y-72382932D01*
X-95077300Y-72331089D01*
X-95145344Y-72294719D01*
X-95290001Y-72176001D01*
X-95408719Y-72031344D01*
X-95458967Y-71937335D01*
X-95496932Y-71866308D01*
X-95551254Y-71687232D01*
X-95569596Y-71501000D01*
X-95551254Y-71314768D01*
X-95496932Y-71135692D01*
X-95408718Y-70970655D01*
X-95327807Y-70872066D01*
X-95290001Y-70825999D01*
X-95145344Y-70707281D01*
X-95062826Y-70663175D01*
X-94980308Y-70619068D01*
X-94801232Y-70564746D01*
X-94661666Y-70551000D01*
X-94568334Y-70551000D01*
X-94428768Y-70564746D01*
X-94428768Y-70564746D01*
G37*
G36*
X-64727908Y-71612599D02*
G01*
X-64695122Y-71622545D01*
X-64664911Y-71638693D01*
X-64638428Y-71660428D01*
X-64616693Y-71686911D01*
X-64600545Y-71717122D01*
X-64590599Y-71749908D01*
X-64587000Y-71786453D01*
X-64587000Y-72231547D01*
X-64590599Y-72268092D01*
X-64600545Y-72300878D01*
X-64616693Y-72331089D01*
X-64638428Y-72357572D01*
X-64664911Y-72379307D01*
X-64695122Y-72395455D01*
X-64727908Y-72405401D01*
X-64764453Y-72409000D01*
X-66559547Y-72409000D01*
X-66596092Y-72405401D01*
X-66628878Y-72395455D01*
X-66659089Y-72379307D01*
X-66685572Y-72357572D01*
X-66707307Y-72331089D01*
X-66723455Y-72300878D01*
X-66733401Y-72268092D01*
X-66737000Y-72231547D01*
X-66737000Y-71786453D01*
X-66733401Y-71749908D01*
X-66723455Y-71717122D01*
X-66707307Y-71686911D01*
X-66685572Y-71660428D01*
X-66659089Y-71638693D01*
X-66628878Y-71622545D01*
X-66596092Y-71612599D01*
X-66559547Y-71609000D01*
X-64764453Y-71609000D01*
X-64727908Y-71612599D01*
X-64727908Y-71612599D01*
G37*
G36*
X-69677908Y-71612599D02*
G01*
X-69645122Y-71622545D01*
X-69614911Y-71638693D01*
X-69588428Y-71660428D01*
X-69566693Y-71686911D01*
X-69550545Y-71717122D01*
X-69540599Y-71749908D01*
X-69537000Y-71786453D01*
X-69537000Y-72231547D01*
X-69540599Y-72268092D01*
X-69550545Y-72300878D01*
X-69566693Y-72331089D01*
X-69588428Y-72357572D01*
X-69614911Y-72379307D01*
X-69645122Y-72395455D01*
X-69677908Y-72405401D01*
X-69714453Y-72409000D01*
X-71509547Y-72409000D01*
X-71546092Y-72405401D01*
X-71578878Y-72395455D01*
X-71609089Y-72379307D01*
X-71635572Y-72357572D01*
X-71657307Y-72331089D01*
X-71673455Y-72300878D01*
X-71683401Y-72268092D01*
X-71687000Y-72231547D01*
X-71687000Y-71786453D01*
X-71683401Y-71749908D01*
X-71673455Y-71717122D01*
X-71657307Y-71686911D01*
X-71635572Y-71660428D01*
X-71609089Y-71638693D01*
X-71578878Y-71622545D01*
X-71546092Y-71612599D01*
X-71509547Y-71609000D01*
X-69714453Y-71609000D01*
X-69677908Y-71612599D01*
X-69677908Y-71612599D01*
G37*
G36*
X-13722066Y-70302664D02*
G01*
X-13567375Y-70366739D01*
X-13567374Y-70366740D01*
X-13428156Y-70459762D01*
X-13309762Y-70578156D01*
X-13282426Y-70619068D01*
X-13216739Y-70717375D01*
X-13152664Y-70872066D01*
X-13120000Y-71036281D01*
X-13120000Y-71203719D01*
X-13152664Y-71367934D01*
X-13216739Y-71522625D01*
X-13216740Y-71522626D01*
X-13309762Y-71661844D01*
X-13428156Y-71780238D01*
X-13471202Y-71809000D01*
X-13567375Y-71873261D01*
X-13722066Y-71937336D01*
X-13886281Y-71970000D01*
X-14053719Y-71970000D01*
X-14217934Y-71937336D01*
X-14372625Y-71873261D01*
X-14468798Y-71809000D01*
X-14511844Y-71780238D01*
X-14630238Y-71661844D01*
X-14723260Y-71522626D01*
X-14723261Y-71522625D01*
X-14787336Y-71367934D01*
X-14820000Y-71203719D01*
X-14820000Y-71036281D01*
X-14787336Y-70872066D01*
X-14723261Y-70717375D01*
X-14657574Y-70619068D01*
X-14630238Y-70578156D01*
X-14511844Y-70459762D01*
X-14372626Y-70366740D01*
X-14372625Y-70366739D01*
X-14217934Y-70302664D01*
X-14053719Y-70270000D01*
X-13886281Y-70270000D01*
X-13722066Y-70302664D01*
X-13722066Y-70302664D01*
G37*
G36*
X-16262066Y-69032664D02*
G01*
X-16107375Y-69096739D01*
X-16107374Y-69096740D01*
X-15968156Y-69189762D01*
X-15849762Y-69308156D01*
X-15820729Y-69351607D01*
X-15756739Y-69447375D01*
X-15692664Y-69602066D01*
X-15660000Y-69766281D01*
X-15660000Y-69933719D01*
X-15692664Y-70097934D01*
X-15756739Y-70252625D01*
X-15756740Y-70252626D01*
X-15849762Y-70391844D01*
X-15968156Y-70510238D01*
X-16029161Y-70551000D01*
X-16107375Y-70603261D01*
X-16262066Y-70667336D01*
X-16426281Y-70700000D01*
X-16593719Y-70700000D01*
X-16757934Y-70667336D01*
X-16912625Y-70603261D01*
X-16990839Y-70551000D01*
X-17051844Y-70510238D01*
X-17170238Y-70391844D01*
X-17263260Y-70252626D01*
X-17263261Y-70252625D01*
X-17327336Y-70097934D01*
X-17360000Y-69933719D01*
X-17360000Y-69766281D01*
X-17327336Y-69602066D01*
X-17263261Y-69447375D01*
X-17199271Y-69351607D01*
X-17170238Y-69308156D01*
X-17051844Y-69189762D01*
X-16912626Y-69096740D01*
X-16912625Y-69096739D01*
X-16757934Y-69032664D01*
X-16593719Y-69000000D01*
X-16426281Y-69000000D01*
X-16262066Y-69032664D01*
X-16262066Y-69032664D01*
G37*
G36*
X-94428768Y-68024746D02*
G01*
X-94249692Y-68079068D01*
X-94167174Y-68123175D01*
X-94084656Y-68167281D01*
X-93939999Y-68285999D01*
X-93902192Y-68332066D01*
X-93821282Y-68430655D01*
X-93733068Y-68595692D01*
X-93678746Y-68774768D01*
X-93660404Y-68961000D01*
X-93678746Y-69147232D01*
X-93733068Y-69326308D01*
X-93746591Y-69351607D01*
X-93821281Y-69491344D01*
X-93939999Y-69636001D01*
X-94084656Y-69754719D01*
X-94167173Y-69798825D01*
X-94249692Y-69842932D01*
X-94428768Y-69897254D01*
X-94568334Y-69911000D01*
X-94661666Y-69911000D01*
X-94801232Y-69897254D01*
X-94980308Y-69842932D01*
X-95062827Y-69798825D01*
X-95145344Y-69754719D01*
X-95290001Y-69636001D01*
X-95408719Y-69491344D01*
X-95483409Y-69351607D01*
X-95496932Y-69326308D01*
X-95551254Y-69147232D01*
X-95569596Y-68961000D01*
X-95551254Y-68774768D01*
X-95496932Y-68595692D01*
X-95408718Y-68430655D01*
X-95327807Y-68332066D01*
X-95290001Y-68285999D01*
X-95145344Y-68167281D01*
X-95062826Y-68123175D01*
X-94980308Y-68079068D01*
X-94801232Y-68024746D01*
X-94661666Y-68011000D01*
X-94568334Y-68011000D01*
X-94428768Y-68024746D01*
X-94428768Y-68024746D01*
G37*
G36*
X-25008393Y-67610091D02*
G01*
X-24961049Y-67624453D01*
X-24917412Y-67647778D01*
X-24879166Y-67679166D01*
X-24847778Y-67717412D01*
X-24824453Y-67761049D01*
X-24810091Y-67808393D01*
X-24805000Y-67860086D01*
X-24805000Y-69299914D01*
X-24810091Y-69351607D01*
X-24824453Y-69398951D01*
X-24847778Y-69442588D01*
X-24879166Y-69480834D01*
X-24917412Y-69512222D01*
X-24961049Y-69535547D01*
X-25008393Y-69549909D01*
X-25060086Y-69555000D01*
X-26174914Y-69555000D01*
X-26226607Y-69549909D01*
X-26273951Y-69535547D01*
X-26317588Y-69512222D01*
X-26355834Y-69480834D01*
X-26387222Y-69442588D01*
X-26410547Y-69398951D01*
X-26424909Y-69351607D01*
X-26430000Y-69299914D01*
X-26430000Y-67860086D01*
X-26424909Y-67808393D01*
X-26410547Y-67761049D01*
X-26387222Y-67717412D01*
X-26355834Y-67679166D01*
X-26317588Y-67647778D01*
X-26273951Y-67624453D01*
X-26226607Y-67610091D01*
X-26174914Y-67605000D01*
X-25060086Y-67605000D01*
X-25008393Y-67610091D01*
X-25008393Y-67610091D01*
G37*
G36*
X-22033393Y-67610091D02*
G01*
X-21986049Y-67624453D01*
X-21942412Y-67647778D01*
X-21904166Y-67679166D01*
X-21872778Y-67717412D01*
X-21849453Y-67761049D01*
X-21835091Y-67808393D01*
X-21830000Y-67860086D01*
X-21830000Y-69299914D01*
X-21835091Y-69351607D01*
X-21849453Y-69398951D01*
X-21872778Y-69442588D01*
X-21904166Y-69480834D01*
X-21942412Y-69512222D01*
X-21986049Y-69535547D01*
X-22033393Y-69549909D01*
X-22085086Y-69555000D01*
X-23199914Y-69555000D01*
X-23251607Y-69549909D01*
X-23298951Y-69535547D01*
X-23342588Y-69512222D01*
X-23380834Y-69480834D01*
X-23412222Y-69442588D01*
X-23435547Y-69398951D01*
X-23449909Y-69351607D01*
X-23455000Y-69299914D01*
X-23455000Y-67860086D01*
X-23449909Y-67808393D01*
X-23435547Y-67761049D01*
X-23412222Y-67717412D01*
X-23380834Y-67679166D01*
X-23342588Y-67647778D01*
X-23298951Y-67624453D01*
X-23251607Y-67610091D01*
X-23199914Y-67605000D01*
X-22085086Y-67605000D01*
X-22033393Y-67610091D01*
X-22033393Y-67610091D01*
G37*
G36*
X-13722066Y-67762664D02*
G01*
X-13567375Y-67826739D01*
X-13567374Y-67826740D01*
X-13428156Y-67919762D01*
X-13309762Y-68038156D01*
X-13282426Y-68079068D01*
X-13216739Y-68177375D01*
X-13152664Y-68332066D01*
X-13120000Y-68496281D01*
X-13120000Y-68663719D01*
X-13152664Y-68827934D01*
X-13216739Y-68982625D01*
X-13216740Y-68982626D01*
X-13309762Y-69121844D01*
X-13428156Y-69240238D01*
X-13472567Y-69269912D01*
X-13567375Y-69333261D01*
X-13722066Y-69397336D01*
X-13886281Y-69430000D01*
X-14053719Y-69430000D01*
X-14217934Y-69397336D01*
X-14372625Y-69333261D01*
X-14467433Y-69269912D01*
X-14511844Y-69240238D01*
X-14630238Y-69121844D01*
X-14723260Y-68982626D01*
X-14723261Y-68982625D01*
X-14787336Y-68827934D01*
X-14820000Y-68663719D01*
X-14820000Y-68496281D01*
X-14787336Y-68332066D01*
X-14723261Y-68177375D01*
X-14657574Y-68079068D01*
X-14630238Y-68038156D01*
X-14511844Y-67919762D01*
X-14372626Y-67826740D01*
X-14372625Y-67826739D01*
X-14217934Y-67762664D01*
X-14053719Y-67730000D01*
X-13886281Y-67730000D01*
X-13722066Y-67762664D01*
X-13722066Y-67762664D01*
G37*
G36*
X-16262066Y-66492664D02*
G01*
X-16107375Y-66556739D01*
X-16107374Y-66556740D01*
X-15968156Y-66649762D01*
X-15849762Y-66768156D01*
X-15802935Y-66838238D01*
X-15756739Y-66907375D01*
X-15692664Y-67062066D01*
X-15660000Y-67226281D01*
X-15660000Y-67393719D01*
X-15692664Y-67557934D01*
X-15756739Y-67712625D01*
X-15756740Y-67712626D01*
X-15849762Y-67851844D01*
X-15968156Y-67970238D01*
X-16029161Y-68011000D01*
X-16107375Y-68063261D01*
X-16262066Y-68127336D01*
X-16426281Y-68160000D01*
X-16593719Y-68160000D01*
X-16757934Y-68127336D01*
X-16912625Y-68063261D01*
X-16990839Y-68011000D01*
X-17051844Y-67970238D01*
X-17170238Y-67851844D01*
X-17263260Y-67712626D01*
X-17263261Y-67712625D01*
X-17327336Y-67557934D01*
X-17360000Y-67393719D01*
X-17360000Y-67226281D01*
X-17327336Y-67062066D01*
X-17263261Y-66907375D01*
X-17217065Y-66838238D01*
X-17170238Y-66768156D01*
X-17051844Y-66649762D01*
X-16912626Y-66556740D01*
X-16912625Y-66556739D01*
X-16757934Y-66492664D01*
X-16593719Y-66460000D01*
X-16426281Y-66460000D01*
X-16262066Y-66492664D01*
X-16262066Y-66492664D01*
G37*
G36*
X-94428768Y-65484746D02*
G01*
X-94249692Y-65539068D01*
X-94167173Y-65583175D01*
X-94084656Y-65627281D01*
X-93939999Y-65745999D01*
X-93902192Y-65792066D01*
X-93821282Y-65890655D01*
X-93733068Y-66055692D01*
X-93678746Y-66234768D01*
X-93660404Y-66421000D01*
X-93678746Y-66607232D01*
X-93733068Y-66786308D01*
X-93771033Y-66857335D01*
X-93821281Y-66951344D01*
X-93939999Y-67096001D01*
X-94084656Y-67214719D01*
X-94167173Y-67258825D01*
X-94249692Y-67302932D01*
X-94428768Y-67357254D01*
X-94568334Y-67371000D01*
X-94661666Y-67371000D01*
X-94801232Y-67357254D01*
X-94980308Y-67302932D01*
X-95062827Y-67258825D01*
X-95145344Y-67214719D01*
X-95290001Y-67096001D01*
X-95408719Y-66951344D01*
X-95458967Y-66857335D01*
X-95496932Y-66786308D01*
X-95551254Y-66607232D01*
X-95569596Y-66421000D01*
X-95551254Y-66234768D01*
X-95496932Y-66055692D01*
X-95408718Y-65890655D01*
X-95327807Y-65792066D01*
X-95290001Y-65745999D01*
X-95145344Y-65627281D01*
X-95062827Y-65583175D01*
X-94980308Y-65539068D01*
X-94801232Y-65484746D01*
X-94661666Y-65471000D01*
X-94568334Y-65471000D01*
X-94428768Y-65484746D01*
X-94428768Y-65484746D01*
G37*
G36*
X-13722066Y-65222664D02*
G01*
X-13567375Y-65286739D01*
X-13567374Y-65286740D01*
X-13428156Y-65379762D01*
X-13309762Y-65498156D01*
X-13282426Y-65539068D01*
X-13216739Y-65637375D01*
X-13152664Y-65792066D01*
X-13120000Y-65956281D01*
X-13120000Y-66123719D01*
X-13152664Y-66287934D01*
X-13216739Y-66442625D01*
X-13216740Y-66442626D01*
X-13309762Y-66581844D01*
X-13428156Y-66700238D01*
X-13498238Y-66747065D01*
X-13567375Y-66793261D01*
X-13722066Y-66857336D01*
X-13886281Y-66890000D01*
X-14053719Y-66890000D01*
X-14217934Y-66857336D01*
X-14372625Y-66793261D01*
X-14441762Y-66747065D01*
X-14511844Y-66700238D01*
X-14630238Y-66581844D01*
X-14723260Y-66442626D01*
X-14723261Y-66442625D01*
X-14787336Y-66287934D01*
X-14820000Y-66123719D01*
X-14820000Y-65956281D01*
X-14787336Y-65792066D01*
X-14723261Y-65637375D01*
X-14657574Y-65539068D01*
X-14630238Y-65498156D01*
X-14511844Y-65379762D01*
X-14372626Y-65286740D01*
X-14372625Y-65286739D01*
X-14217934Y-65222664D01*
X-14053719Y-65190000D01*
X-13886281Y-65190000D01*
X-13722066Y-65222664D01*
X-13722066Y-65222664D01*
G37*
G36*
X-16262066Y-63952664D02*
G01*
X-16107375Y-64016739D01*
X-16107374Y-64016740D01*
X-15968156Y-64109762D01*
X-15849762Y-64228156D01*
X-15849761Y-64228158D01*
X-15756739Y-64367375D01*
X-15692664Y-64522066D01*
X-15660000Y-64686281D01*
X-15660000Y-64853719D01*
X-15692664Y-65017934D01*
X-15756739Y-65172625D01*
X-15790174Y-65222664D01*
X-15849762Y-65311844D01*
X-15968156Y-65430238D01*
X-16029161Y-65471000D01*
X-16107375Y-65523261D01*
X-16262066Y-65587336D01*
X-16426281Y-65620000D01*
X-16593719Y-65620000D01*
X-16757934Y-65587336D01*
X-16912625Y-65523261D01*
X-16990839Y-65471000D01*
X-17051844Y-65430238D01*
X-17170238Y-65311844D01*
X-17229826Y-65222664D01*
X-17263261Y-65172625D01*
X-17327336Y-65017934D01*
X-17360000Y-64853719D01*
X-17360000Y-64686281D01*
X-17327336Y-64522066D01*
X-17263261Y-64367375D01*
X-17170239Y-64228158D01*
X-17170238Y-64228156D01*
X-17051844Y-64109762D01*
X-16912626Y-64016740D01*
X-16912625Y-64016739D01*
X-16757934Y-63952664D01*
X-16593719Y-63920000D01*
X-16426281Y-63920000D01*
X-16262066Y-63952664D01*
X-16262066Y-63952664D01*
G37*
G36*
X-7288346Y-61832665D02*
G01*
X-7124128Y-61865330D01*
X-6814748Y-61993479D01*
X-6536313Y-62179523D01*
X-6299523Y-62416313D01*
X-6113479Y-62694748D01*
X-5985330Y-63004128D01*
X-5920000Y-63332565D01*
X-5920000Y-63667435D01*
X-5985330Y-63995872D01*
X-6113479Y-64305252D01*
X-6299523Y-64583687D01*
X-6536313Y-64820477D01*
X-6814748Y-65006521D01*
X-7124128Y-65134670D01*
X-7288346Y-65167335D01*
X-7452563Y-65200000D01*
X-7787437Y-65200000D01*
X-7951654Y-65167335D01*
X-8115872Y-65134670D01*
X-8425252Y-65006521D01*
X-8703687Y-64820477D01*
X-8940477Y-64583687D01*
X-9126521Y-64305252D01*
X-9254670Y-63995872D01*
X-9320000Y-63667435D01*
X-9320000Y-63332565D01*
X-9254670Y-63004128D01*
X-9126521Y-62694748D01*
X-8940477Y-62416313D01*
X-8703687Y-62179523D01*
X-8425252Y-61993479D01*
X-8115872Y-61865330D01*
X-7951654Y-61832665D01*
X-7787437Y-61800000D01*
X-7452563Y-61800000D01*
X-7288346Y-61832665D01*
X-7288346Y-61832665D01*
G37*
G36*
X-93665000Y-64831000D02*
G01*
X-95565000Y-64831000D01*
X-95565000Y-62931000D01*
X-93665000Y-62931000D01*
X-93665000Y-64831000D01*
X-93665000Y-64831000D01*
G37*
G36*
X-60060000Y-61860000D02*
G01*
X-61860000Y-61860000D01*
X-61860000Y-60060000D01*
X-60060000Y-60060000D01*
X-60060000Y-61860000D01*
X-60060000Y-61860000D01*
G37*
G36*
X-76023570Y-60073022D02*
G01*
X-75853917Y-60124486D01*
X-75697569Y-60208055D01*
X-75560525Y-60320525D01*
X-75448055Y-60457569D01*
X-75364486Y-60613917D01*
X-75313022Y-60783570D01*
X-75295646Y-60960000D01*
X-75313022Y-61136430D01*
X-75364486Y-61306083D01*
X-75448055Y-61462431D01*
X-75560525Y-61599475D01*
X-75697569Y-61711945D01*
X-75853917Y-61795514D01*
X-76023570Y-61846978D01*
X-76155789Y-61860000D01*
X-76244211Y-61860000D01*
X-76376430Y-61846978D01*
X-76546083Y-61795514D01*
X-76702431Y-61711945D01*
X-76839475Y-61599475D01*
X-76951945Y-61462431D01*
X-77035514Y-61306083D01*
X-77086978Y-61136430D01*
X-77104354Y-60960000D01*
X-77086978Y-60783570D01*
X-77035514Y-60613917D01*
X-76951945Y-60457569D01*
X-76839475Y-60320525D01*
X-76702431Y-60208055D01*
X-76546083Y-60124486D01*
X-76376430Y-60073022D01*
X-76244211Y-60060000D01*
X-76155789Y-60060000D01*
X-76023570Y-60073022D01*
X-76023570Y-60073022D01*
G37*
G36*
X-76023570Y-57533022D02*
G01*
X-75853917Y-57584486D01*
X-75697569Y-57668055D01*
X-75560525Y-57780525D01*
X-75448055Y-57917569D01*
X-75364486Y-58073917D01*
X-75313022Y-58243570D01*
X-75295646Y-58420000D01*
X-75313022Y-58596430D01*
X-75364486Y-58766083D01*
X-75448055Y-58922431D01*
X-75560525Y-59059475D01*
X-75697569Y-59171945D01*
X-75853917Y-59255514D01*
X-76023570Y-59306978D01*
X-76155789Y-59320000D01*
X-76244211Y-59320000D01*
X-76376430Y-59306978D01*
X-76546083Y-59255514D01*
X-76702431Y-59171945D01*
X-76839475Y-59059475D01*
X-76951945Y-58922431D01*
X-77035514Y-58766083D01*
X-77086978Y-58596430D01*
X-77104354Y-58420000D01*
X-77086978Y-58243570D01*
X-77035514Y-58073917D01*
X-76951945Y-57917569D01*
X-76839475Y-57780525D01*
X-76702431Y-57668055D01*
X-76546083Y-57584486D01*
X-76376430Y-57533022D01*
X-76244211Y-57520000D01*
X-76155789Y-57520000D01*
X-76023570Y-57533022D01*
X-76023570Y-57533022D01*
G37*
G36*
X-60783570Y-57533022D02*
G01*
X-60613917Y-57584486D01*
X-60457569Y-57668055D01*
X-60320525Y-57780525D01*
X-60208055Y-57917569D01*
X-60124486Y-58073917D01*
X-60073022Y-58243570D01*
X-60055646Y-58420000D01*
X-60073022Y-58596430D01*
X-60124486Y-58766083D01*
X-60208055Y-58922431D01*
X-60320525Y-59059475D01*
X-60457569Y-59171945D01*
X-60613917Y-59255514D01*
X-60783570Y-59306978D01*
X-60915789Y-59320000D01*
X-61004211Y-59320000D01*
X-61136430Y-59306978D01*
X-61306083Y-59255514D01*
X-61462431Y-59171945D01*
X-61599475Y-59059475D01*
X-61711945Y-58922431D01*
X-61795514Y-58766083D01*
X-61846978Y-58596430D01*
X-61864354Y-58420000D01*
X-61846978Y-58243570D01*
X-61795514Y-58073917D01*
X-61711945Y-57917569D01*
X-61599475Y-57780525D01*
X-61462431Y-57668055D01*
X-61306083Y-57584486D01*
X-61136430Y-57533022D01*
X-61004211Y-57520000D01*
X-60915789Y-57520000D01*
X-60783570Y-57533022D01*
X-60783570Y-57533022D01*
G37*
G36*
X-7288347Y-55482665D02*
G01*
X-7124128Y-55515330D01*
X-6814748Y-55643479D01*
X-6536313Y-55829523D01*
X-6299523Y-56066313D01*
X-6113479Y-56344748D01*
X-5985330Y-56654128D01*
X-5920000Y-56982565D01*
X-5920000Y-57317435D01*
X-5985330Y-57645872D01*
X-6113479Y-57955252D01*
X-6299523Y-58233687D01*
X-6536313Y-58470477D01*
X-6814748Y-58656521D01*
X-7124128Y-58784670D01*
X-7288346Y-58817335D01*
X-7452563Y-58850000D01*
X-7787437Y-58850000D01*
X-7951654Y-58817335D01*
X-8115872Y-58784670D01*
X-8425252Y-58656521D01*
X-8703687Y-58470477D01*
X-8940477Y-58233687D01*
X-9126521Y-57955252D01*
X-9254670Y-57645872D01*
X-9320000Y-57317435D01*
X-9320000Y-56982565D01*
X-9254670Y-56654128D01*
X-9126521Y-56344748D01*
X-8940477Y-56066313D01*
X-8703687Y-55829523D01*
X-8425252Y-55643479D01*
X-8115872Y-55515330D01*
X-7951653Y-55482665D01*
X-7787437Y-55450000D01*
X-7452563Y-55450000D01*
X-7288347Y-55482665D01*
X-7288347Y-55482665D01*
G37*
G36*
X-25008393Y-54910091D02*
G01*
X-24961049Y-54924453D01*
X-24917412Y-54947778D01*
X-24879166Y-54979166D01*
X-24847778Y-55017412D01*
X-24824453Y-55061049D01*
X-24810091Y-55108393D01*
X-24805000Y-55160086D01*
X-24805000Y-56599914D01*
X-24810091Y-56651607D01*
X-24824453Y-56698951D01*
X-24847778Y-56742588D01*
X-24879166Y-56780834D01*
X-24917412Y-56812222D01*
X-24961049Y-56835547D01*
X-25008393Y-56849909D01*
X-25060086Y-56855000D01*
X-26174914Y-56855000D01*
X-26226607Y-56849909D01*
X-26273951Y-56835547D01*
X-26317588Y-56812222D01*
X-26355834Y-56780834D01*
X-26387222Y-56742588D01*
X-26410547Y-56698951D01*
X-26424909Y-56651607D01*
X-26430000Y-56599914D01*
X-26430000Y-55160086D01*
X-26424909Y-55108393D01*
X-26410547Y-55061049D01*
X-26387222Y-55017412D01*
X-26355834Y-54979166D01*
X-26317588Y-54947778D01*
X-26273951Y-54924453D01*
X-26226607Y-54910091D01*
X-26174914Y-54905000D01*
X-25060086Y-54905000D01*
X-25008393Y-54910091D01*
X-25008393Y-54910091D01*
G37*
G36*
X-22033393Y-54910091D02*
G01*
X-21986049Y-54924453D01*
X-21942412Y-54947778D01*
X-21904166Y-54979166D01*
X-21872778Y-55017412D01*
X-21849453Y-55061049D01*
X-21835091Y-55108393D01*
X-21830000Y-55160086D01*
X-21830000Y-56599914D01*
X-21835091Y-56651607D01*
X-21849453Y-56698951D01*
X-21872778Y-56742588D01*
X-21904166Y-56780834D01*
X-21942412Y-56812222D01*
X-21986049Y-56835547D01*
X-22033393Y-56849909D01*
X-22085086Y-56855000D01*
X-23199914Y-56855000D01*
X-23251607Y-56849909D01*
X-23298951Y-56835547D01*
X-23342588Y-56812222D01*
X-23380834Y-56780834D01*
X-23412222Y-56742588D01*
X-23435547Y-56698951D01*
X-23449909Y-56651607D01*
X-23455000Y-56599914D01*
X-23455000Y-55160086D01*
X-23449909Y-55108393D01*
X-23435547Y-55061049D01*
X-23412222Y-55017412D01*
X-23380834Y-54979166D01*
X-23342588Y-54947778D01*
X-23298951Y-54924453D01*
X-23251607Y-54910091D01*
X-23199914Y-54905000D01*
X-22085086Y-54905000D01*
X-22033393Y-54910091D01*
X-22033393Y-54910091D01*
G37*
G36*
X-76023570Y-54993022D02*
G01*
X-75853917Y-55044486D01*
X-75697569Y-55128055D01*
X-75560525Y-55240525D01*
X-75448055Y-55377569D01*
X-75364486Y-55533917D01*
X-75313022Y-55703570D01*
X-75295646Y-55880000D01*
X-75313022Y-56056430D01*
X-75364486Y-56226083D01*
X-75448055Y-56382431D01*
X-75560525Y-56519475D01*
X-75697569Y-56631945D01*
X-75853917Y-56715514D01*
X-76023570Y-56766978D01*
X-76155789Y-56780000D01*
X-76244211Y-56780000D01*
X-76376430Y-56766978D01*
X-76546083Y-56715514D01*
X-76702431Y-56631945D01*
X-76839475Y-56519475D01*
X-76951945Y-56382431D01*
X-77035514Y-56226083D01*
X-77086978Y-56056430D01*
X-77104354Y-55880000D01*
X-77086978Y-55703570D01*
X-77035514Y-55533917D01*
X-76951945Y-55377569D01*
X-76839475Y-55240525D01*
X-76702431Y-55128055D01*
X-76546083Y-55044486D01*
X-76376430Y-54993022D01*
X-76244211Y-54980000D01*
X-76155789Y-54980000D01*
X-76023570Y-54993022D01*
X-76023570Y-54993022D01*
G37*
G36*
X-82345439Y-55003057D02*
G01*
X-82287480Y-55014586D01*
X-82123690Y-55082430D01*
X-81976283Y-55180924D01*
X-81850924Y-55306283D01*
X-81752430Y-55453690D01*
X-81684586Y-55617480D01*
X-81650000Y-55791358D01*
X-81650000Y-55968642D01*
X-81684586Y-56142520D01*
X-81752430Y-56306310D01*
X-81850924Y-56453717D01*
X-81976283Y-56579076D01*
X-82123690Y-56677570D01*
X-82287480Y-56745414D01*
X-82345439Y-56756943D01*
X-82461356Y-56780000D01*
X-82638644Y-56780000D01*
X-82754561Y-56756943D01*
X-82812520Y-56745414D01*
X-82976310Y-56677570D01*
X-83123717Y-56579076D01*
X-83249076Y-56453717D01*
X-83347570Y-56306310D01*
X-83415414Y-56142520D01*
X-83450000Y-55968642D01*
X-83450000Y-55791358D01*
X-83415414Y-55617480D01*
X-83347570Y-55453690D01*
X-83249076Y-55306283D01*
X-83123717Y-55180924D01*
X-82976310Y-55082430D01*
X-82812520Y-55014586D01*
X-82754561Y-55003057D01*
X-82638644Y-54980000D01*
X-82461356Y-54980000D01*
X-82345439Y-55003057D01*
X-82345439Y-55003057D01*
G37*
G36*
X-60783570Y-54993022D02*
G01*
X-60613917Y-55044486D01*
X-60457569Y-55128055D01*
X-60320525Y-55240525D01*
X-60208055Y-55377569D01*
X-60124486Y-55533917D01*
X-60073022Y-55703570D01*
X-60055646Y-55880000D01*
X-60073022Y-56056430D01*
X-60124486Y-56226083D01*
X-60208055Y-56382431D01*
X-60320525Y-56519475D01*
X-60457569Y-56631945D01*
X-60613917Y-56715514D01*
X-60783570Y-56766978D01*
X-60915789Y-56780000D01*
X-61004211Y-56780000D01*
X-61136430Y-56766978D01*
X-61306083Y-56715514D01*
X-61462431Y-56631945D01*
X-61599475Y-56519475D01*
X-61711945Y-56382431D01*
X-61795514Y-56226083D01*
X-61846978Y-56056430D01*
X-61864354Y-55880000D01*
X-61846978Y-55703570D01*
X-61795514Y-55533917D01*
X-61711945Y-55377569D01*
X-61599475Y-55240525D01*
X-61462431Y-55128055D01*
X-61306083Y-55044486D01*
X-61136430Y-54993022D01*
X-61004211Y-54980000D01*
X-60915789Y-54980000D01*
X-60783570Y-54993022D01*
X-60783570Y-54993022D01*
G37*
G36*
X-88745770Y-54953046D02*
G01*
X-88637480Y-54974586D01*
X-88473690Y-55042430D01*
X-88326283Y-55140924D01*
X-88200924Y-55266283D01*
X-88102430Y-55413690D01*
X-88052630Y-55533917D01*
X-88034586Y-55577481D01*
X-88009505Y-55703569D01*
X-88000000Y-55751358D01*
X-88000000Y-55928642D01*
X-88034586Y-56102520D01*
X-88102430Y-56266310D01*
X-88200924Y-56413717D01*
X-88326283Y-56539076D01*
X-88473690Y-56637570D01*
X-88637480Y-56705414D01*
X-88688257Y-56715514D01*
X-88811356Y-56740000D01*
X-88988644Y-56740000D01*
X-89111743Y-56715514D01*
X-89162520Y-56705414D01*
X-89326310Y-56637570D01*
X-89473717Y-56539076D01*
X-89599076Y-56413717D01*
X-89697570Y-56266310D01*
X-89765414Y-56102520D01*
X-89800000Y-55928642D01*
X-89800000Y-55751358D01*
X-89790494Y-55703569D01*
X-89765414Y-55577481D01*
X-89747369Y-55533917D01*
X-89697570Y-55413690D01*
X-89599076Y-55266283D01*
X-89473717Y-55140924D01*
X-89326310Y-55042430D01*
X-89162520Y-54974586D01*
X-89054230Y-54953046D01*
X-88988644Y-54940000D01*
X-88811356Y-54940000D01*
X-88745770Y-54953046D01*
X-88745770Y-54953046D01*
G37*
G36*
X-13120000Y-56730000D02*
G01*
X-14820000Y-56730000D01*
X-14820000Y-55030000D01*
X-13120000Y-55030000D01*
X-13120000Y-56730000D01*
X-13120000Y-56730000D01*
G37*
G36*
X-16262066Y-53792664D02*
G01*
X-16107375Y-53856739D01*
X-16107374Y-53856740D01*
X-15968156Y-53949762D01*
X-15849762Y-54068156D01*
X-15802935Y-54138238D01*
X-15756739Y-54207375D01*
X-15692664Y-54362066D01*
X-15660000Y-54526281D01*
X-15660000Y-54693719D01*
X-15692664Y-54857934D01*
X-15756739Y-55012625D01*
X-15776654Y-55042430D01*
X-15849762Y-55151844D01*
X-15968156Y-55270238D01*
X-16038238Y-55317065D01*
X-16107375Y-55363261D01*
X-16262066Y-55427336D01*
X-16426281Y-55460000D01*
X-16593719Y-55460000D01*
X-16757934Y-55427336D01*
X-16912625Y-55363261D01*
X-16981762Y-55317065D01*
X-17051844Y-55270238D01*
X-17170238Y-55151844D01*
X-17243346Y-55042430D01*
X-17263261Y-55012625D01*
X-17327336Y-54857934D01*
X-17360000Y-54693719D01*
X-17360000Y-54526281D01*
X-17327336Y-54362066D01*
X-17263261Y-54207375D01*
X-17217065Y-54138238D01*
X-17170238Y-54068156D01*
X-17051844Y-53949762D01*
X-16912626Y-53856740D01*
X-16912625Y-53856739D01*
X-16757934Y-53792664D01*
X-16593719Y-53760000D01*
X-16426281Y-53760000D01*
X-16262066Y-53792664D01*
X-16262066Y-53792664D01*
G37*
G36*
X-44110000Y-55010000D02*
G01*
X-46310000Y-55010000D01*
X-46310000Y-54210000D01*
X-44110000Y-54210000D01*
X-44110000Y-55010000D01*
X-44110000Y-55010000D01*
G37*
G36*
X-53510000Y-55010000D02*
G01*
X-55710000Y-55010000D01*
X-55710000Y-54210000D01*
X-53510000Y-54210000D01*
X-53510000Y-55010000D01*
X-53510000Y-55010000D01*
G37*
G36*
X-82345439Y-52503057D02*
G01*
X-82287480Y-52514586D01*
X-82123690Y-52582430D01*
X-81976283Y-52680924D01*
X-81850924Y-52806283D01*
X-81752430Y-52953690D01*
X-81752429Y-52953692D01*
X-81684586Y-53117481D01*
X-81650000Y-53291356D01*
X-81650000Y-53468644D01*
X-81673057Y-53584561D01*
X-81684586Y-53642520D01*
X-81752430Y-53806310D01*
X-81850924Y-53953717D01*
X-81976283Y-54079076D01*
X-82123690Y-54177570D01*
X-82287480Y-54245414D01*
X-82345439Y-54256943D01*
X-82461356Y-54280000D01*
X-82638644Y-54280000D01*
X-82754561Y-54256943D01*
X-82812520Y-54245414D01*
X-82976310Y-54177570D01*
X-83123717Y-54079076D01*
X-83249076Y-53953717D01*
X-83347570Y-53806310D01*
X-83415414Y-53642520D01*
X-83426943Y-53584561D01*
X-83450000Y-53468644D01*
X-83450000Y-53291356D01*
X-83415414Y-53117481D01*
X-83347571Y-52953692D01*
X-83347570Y-52953690D01*
X-83249076Y-52806283D01*
X-83123717Y-52680924D01*
X-82976310Y-52582430D01*
X-82812520Y-52514586D01*
X-82754561Y-52503057D01*
X-82638644Y-52480000D01*
X-82461356Y-52480000D01*
X-82345439Y-52503057D01*
X-82345439Y-52503057D01*
G37*
G36*
X-60783570Y-52453022D02*
G01*
X-60613917Y-52504486D01*
X-60457569Y-52588055D01*
X-60320525Y-52700525D01*
X-60208055Y-52837569D01*
X-60124486Y-52993917D01*
X-60073022Y-53163570D01*
X-60055646Y-53340000D01*
X-60073022Y-53516430D01*
X-60124486Y-53686083D01*
X-60208055Y-53842431D01*
X-60320525Y-53979475D01*
X-60457569Y-54091945D01*
X-60613917Y-54175514D01*
X-60783570Y-54226978D01*
X-60915789Y-54240000D01*
X-61004211Y-54240000D01*
X-61136430Y-54226978D01*
X-61306083Y-54175514D01*
X-61462431Y-54091945D01*
X-61599475Y-53979475D01*
X-61711945Y-53842431D01*
X-61795514Y-53686083D01*
X-61846978Y-53516430D01*
X-61864354Y-53340000D01*
X-61846978Y-53163570D01*
X-61795514Y-52993917D01*
X-61711945Y-52837569D01*
X-61599475Y-52700525D01*
X-61462431Y-52588055D01*
X-61306083Y-52504486D01*
X-61136430Y-52453022D01*
X-61004211Y-52440000D01*
X-60915789Y-52440000D01*
X-60783570Y-52453022D01*
X-60783570Y-52453022D01*
G37*
G36*
X-76023570Y-52453022D02*
G01*
X-75853917Y-52504486D01*
X-75697569Y-52588055D01*
X-75560525Y-52700525D01*
X-75448055Y-52837569D01*
X-75364486Y-52993917D01*
X-75313022Y-53163570D01*
X-75295646Y-53340000D01*
X-75313022Y-53516430D01*
X-75364486Y-53686083D01*
X-75448055Y-53842431D01*
X-75560525Y-53979475D01*
X-75697569Y-54091945D01*
X-75853917Y-54175514D01*
X-76023570Y-54226978D01*
X-76155789Y-54240000D01*
X-76244211Y-54240000D01*
X-76376430Y-54226978D01*
X-76546083Y-54175514D01*
X-76702431Y-54091945D01*
X-76839475Y-53979475D01*
X-76951945Y-53842431D01*
X-77035514Y-53686083D01*
X-77086978Y-53516430D01*
X-77104354Y-53340000D01*
X-77086978Y-53163570D01*
X-77035514Y-52993917D01*
X-76951945Y-52837569D01*
X-76839475Y-52700525D01*
X-76702431Y-52588055D01*
X-76546083Y-52504486D01*
X-76376430Y-52453022D01*
X-76244211Y-52440000D01*
X-76155789Y-52440000D01*
X-76023570Y-52453022D01*
X-76023570Y-52453022D01*
G37*
G36*
X-88000000Y-54240000D02*
G01*
X-89800000Y-54240000D01*
X-89800000Y-52440000D01*
X-88000000Y-52440000D01*
X-88000000Y-54240000D01*
X-88000000Y-54240000D01*
G37*
G36*
X-13722066Y-52522664D02*
G01*
X-13567375Y-52586739D01*
X-13529806Y-52611842D01*
X-13428156Y-52679762D01*
X-13309762Y-52798156D01*
X-13284692Y-52835676D01*
X-13216739Y-52937375D01*
X-13152664Y-53092066D01*
X-13120000Y-53256281D01*
X-13120000Y-53423719D01*
X-13152664Y-53587934D01*
X-13216739Y-53742625D01*
X-13216740Y-53742626D01*
X-13309762Y-53881844D01*
X-13428156Y-54000238D01*
X-13498238Y-54047065D01*
X-13567375Y-54093261D01*
X-13722066Y-54157336D01*
X-13886281Y-54190000D01*
X-14053719Y-54190000D01*
X-14217934Y-54157336D01*
X-14372625Y-54093261D01*
X-14441762Y-54047065D01*
X-14511844Y-54000238D01*
X-14630238Y-53881844D01*
X-14723260Y-53742626D01*
X-14723261Y-53742625D01*
X-14787336Y-53587934D01*
X-14820000Y-53423719D01*
X-14820000Y-53256281D01*
X-14787336Y-53092066D01*
X-14723261Y-52937375D01*
X-14655308Y-52835676D01*
X-14630238Y-52798156D01*
X-14511844Y-52679762D01*
X-14410194Y-52611842D01*
X-14372625Y-52586739D01*
X-14217934Y-52522664D01*
X-14053719Y-52490000D01*
X-13886281Y-52490000D01*
X-13722066Y-52522664D01*
X-13722066Y-52522664D01*
G37*
G36*
X-44110000Y-53740000D02*
G01*
X-46310000Y-53740000D01*
X-46310000Y-52940000D01*
X-44110000Y-52940000D01*
X-44110000Y-53740000D01*
X-44110000Y-53740000D01*
G37*
G36*
X-53510000Y-53740000D02*
G01*
X-55710000Y-53740000D01*
X-55710000Y-52940000D01*
X-53510000Y-52940000D01*
X-53510000Y-53740000D01*
X-53510000Y-53740000D01*
G37*
G36*
X-22214324Y-51100233D02*
G01*
X-22165594Y-51115015D01*
X-22120685Y-51139019D01*
X-22081323Y-51171323D01*
X-22049019Y-51210685D01*
X-22025015Y-51255594D01*
X-22010233Y-51304324D01*
X-22005000Y-51357454D01*
X-22005000Y-52782546D01*
X-22010233Y-52835676D01*
X-22025015Y-52884406D01*
X-22049019Y-52929315D01*
X-22081323Y-52968677D01*
X-22120685Y-53000981D01*
X-22165594Y-53024985D01*
X-22214324Y-53039767D01*
X-22267454Y-53045000D01*
X-23192546Y-53045000D01*
X-23245676Y-53039767D01*
X-23294406Y-53024985D01*
X-23339315Y-53000981D01*
X-23378677Y-52968677D01*
X-23410981Y-52929315D01*
X-23434985Y-52884406D01*
X-23449767Y-52835676D01*
X-23455000Y-52782546D01*
X-23455000Y-51357454D01*
X-23449767Y-51304324D01*
X-23434985Y-51255594D01*
X-23410981Y-51210685D01*
X-23378677Y-51171323D01*
X-23339315Y-51139019D01*
X-23294406Y-51115015D01*
X-23245676Y-51100233D01*
X-23192546Y-51095000D01*
X-22267454Y-51095000D01*
X-22214324Y-51100233D01*
X-22214324Y-51100233D01*
G37*
G36*
X-25014324Y-51100233D02*
G01*
X-24965594Y-51115015D01*
X-24920685Y-51139019D01*
X-24881323Y-51171323D01*
X-24849019Y-51210685D01*
X-24825015Y-51255594D01*
X-24810233Y-51304324D01*
X-24805000Y-51357454D01*
X-24805000Y-52782546D01*
X-24810233Y-52835676D01*
X-24825015Y-52884406D01*
X-24849019Y-52929315D01*
X-24881323Y-52968677D01*
X-24920685Y-53000981D01*
X-24965594Y-53024985D01*
X-25014324Y-53039767D01*
X-25067454Y-53045000D01*
X-25992546Y-53045000D01*
X-26045676Y-53039767D01*
X-26094406Y-53024985D01*
X-26139315Y-53000981D01*
X-26178677Y-52968677D01*
X-26210981Y-52929315D01*
X-26234985Y-52884406D01*
X-26249767Y-52835676D01*
X-26255000Y-52782546D01*
X-26255000Y-51357454D01*
X-26249767Y-51304324D01*
X-26234985Y-51255594D01*
X-26210981Y-51210685D01*
X-26178677Y-51171323D01*
X-26139315Y-51139019D01*
X-26094406Y-51115015D01*
X-26045676Y-51100233D01*
X-25992546Y-51095000D01*
X-25067454Y-51095000D01*
X-25014324Y-51100233D01*
X-25014324Y-51100233D01*
G37*
G36*
X-16262066Y-51252664D02*
G01*
X-16107375Y-51316739D01*
X-16069806Y-51341842D01*
X-15968156Y-51409762D01*
X-15849762Y-51528156D01*
X-15802935Y-51598238D01*
X-15756739Y-51667375D01*
X-15692664Y-51822066D01*
X-15660000Y-51986281D01*
X-15660000Y-52153719D01*
X-15692664Y-52317934D01*
X-15756739Y-52472625D01*
X-15790174Y-52522664D01*
X-15849762Y-52611844D01*
X-15968156Y-52730238D01*
X-16005215Y-52755000D01*
X-16107375Y-52823261D01*
X-16262066Y-52887336D01*
X-16426281Y-52920000D01*
X-16593719Y-52920000D01*
X-16757934Y-52887336D01*
X-16912625Y-52823261D01*
X-17014785Y-52755000D01*
X-17051844Y-52730238D01*
X-17170238Y-52611844D01*
X-17229826Y-52522664D01*
X-17263261Y-52472625D01*
X-17327336Y-52317934D01*
X-17360000Y-52153719D01*
X-17360000Y-51986281D01*
X-17327336Y-51822066D01*
X-17263261Y-51667375D01*
X-17217065Y-51598238D01*
X-17170238Y-51528156D01*
X-17051844Y-51409762D01*
X-16950194Y-51341842D01*
X-16912625Y-51316739D01*
X-16757934Y-51252664D01*
X-16593719Y-51220000D01*
X-16426281Y-51220000D01*
X-16262066Y-51252664D01*
X-16262066Y-51252664D01*
G37*
G36*
X-53510000Y-52470000D02*
G01*
X-55710000Y-52470000D01*
X-55710000Y-51670000D01*
X-53510000Y-51670000D01*
X-53510000Y-52470000D01*
X-53510000Y-52470000D01*
G37*
G36*
X-44110000Y-52470000D02*
G01*
X-46310000Y-52470000D01*
X-46310000Y-51670000D01*
X-44110000Y-51670000D01*
X-44110000Y-52470000D01*
X-44110000Y-52470000D01*
G37*
G36*
X-60783570Y-49913022D02*
G01*
X-60613917Y-49964486D01*
X-60457569Y-50048055D01*
X-60320525Y-50160525D01*
X-60208055Y-50297569D01*
X-60124486Y-50453917D01*
X-60073022Y-50623570D01*
X-60055646Y-50800000D01*
X-60073022Y-50976430D01*
X-60124486Y-51146083D01*
X-60208055Y-51302431D01*
X-60320525Y-51439475D01*
X-60457569Y-51551945D01*
X-60613917Y-51635514D01*
X-60783570Y-51686978D01*
X-60915789Y-51700000D01*
X-61004211Y-51700000D01*
X-61136430Y-51686978D01*
X-61306083Y-51635514D01*
X-61462431Y-51551945D01*
X-61599475Y-51439475D01*
X-61711945Y-51302431D01*
X-61795514Y-51146083D01*
X-61846978Y-50976430D01*
X-61864354Y-50800000D01*
X-61846978Y-50623570D01*
X-61795514Y-50453917D01*
X-61711945Y-50297569D01*
X-61599475Y-50160525D01*
X-61462431Y-50048055D01*
X-61306083Y-49964486D01*
X-61136430Y-49913022D01*
X-61004211Y-49900000D01*
X-60915789Y-49900000D01*
X-60783570Y-49913022D01*
X-60783570Y-49913022D01*
G37*
G36*
X-76023570Y-49913022D02*
G01*
X-75853917Y-49964486D01*
X-75697569Y-50048055D01*
X-75560525Y-50160525D01*
X-75448055Y-50297569D01*
X-75364486Y-50453917D01*
X-75313022Y-50623570D01*
X-75295646Y-50800000D01*
X-75313022Y-50976430D01*
X-75364486Y-51146083D01*
X-75448055Y-51302431D01*
X-75560525Y-51439475D01*
X-75697569Y-51551945D01*
X-75853917Y-51635514D01*
X-76023570Y-51686978D01*
X-76155789Y-51700000D01*
X-76244211Y-51700000D01*
X-76376430Y-51686978D01*
X-76546083Y-51635514D01*
X-76702431Y-51551945D01*
X-76839475Y-51439475D01*
X-76951945Y-51302431D01*
X-77035514Y-51146083D01*
X-77086978Y-50976430D01*
X-77104354Y-50800000D01*
X-77086978Y-50623570D01*
X-77035514Y-50453917D01*
X-76951945Y-50297569D01*
X-76839475Y-50160525D01*
X-76702431Y-50048055D01*
X-76546083Y-49964486D01*
X-76376430Y-49913022D01*
X-76244211Y-49900000D01*
X-76155789Y-49900000D01*
X-76023570Y-49913022D01*
X-76023570Y-49913022D01*
G37*
G36*
X-13722066Y-49982664D02*
G01*
X-13567375Y-50046739D01*
X-13529806Y-50071842D01*
X-13428156Y-50139762D01*
X-13309762Y-50258156D01*
X-13283428Y-50297568D01*
X-13216739Y-50397375D01*
X-13152664Y-50552066D01*
X-13120000Y-50716281D01*
X-13120000Y-50883719D01*
X-13152664Y-51047934D01*
X-13216739Y-51202625D01*
X-13216740Y-51202626D01*
X-13309762Y-51341844D01*
X-13428156Y-51460238D01*
X-13498238Y-51507065D01*
X-13567375Y-51553261D01*
X-13722066Y-51617336D01*
X-13886281Y-51650000D01*
X-14053719Y-51650000D01*
X-14217934Y-51617336D01*
X-14372625Y-51553261D01*
X-14441762Y-51507065D01*
X-14511844Y-51460238D01*
X-14630238Y-51341844D01*
X-14723260Y-51202626D01*
X-14723261Y-51202625D01*
X-14787336Y-51047934D01*
X-14820000Y-50883719D01*
X-14820000Y-50716281D01*
X-14787336Y-50552066D01*
X-14723261Y-50397375D01*
X-14656572Y-50297568D01*
X-14630238Y-50258156D01*
X-14511844Y-50139762D01*
X-14410194Y-50071842D01*
X-14372625Y-50046739D01*
X-14217934Y-49982664D01*
X-14053719Y-49950000D01*
X-13886281Y-49950000D01*
X-13722066Y-49982664D01*
X-13722066Y-49982664D01*
G37*
G36*
X-44110000Y-51200000D02*
G01*
X-46310000Y-51200000D01*
X-46310000Y-50400000D01*
X-44110000Y-50400000D01*
X-44110000Y-51200000D01*
X-44110000Y-51200000D01*
G37*
G36*
X-53510000Y-51200000D02*
G01*
X-55710000Y-51200000D01*
X-55710000Y-50400000D01*
X-53510000Y-50400000D01*
X-53510000Y-51200000D01*
X-53510000Y-51200000D01*
G37*
G36*
X-16262066Y-48712664D02*
G01*
X-16107375Y-48776739D01*
X-16107374Y-48776740D01*
X-15968156Y-48869762D01*
X-15849762Y-48988156D01*
X-15802935Y-49058238D01*
X-15756739Y-49127375D01*
X-15692664Y-49282066D01*
X-15660000Y-49446281D01*
X-15660000Y-49613719D01*
X-15692664Y-49777934D01*
X-15756739Y-49932625D01*
X-15756740Y-49932626D01*
X-15849762Y-50071844D01*
X-15968156Y-50190238D01*
X-16038238Y-50237065D01*
X-16107375Y-50283261D01*
X-16262066Y-50347336D01*
X-16426281Y-50380000D01*
X-16593719Y-50380000D01*
X-16757934Y-50347336D01*
X-16912625Y-50283261D01*
X-16981762Y-50237065D01*
X-17051844Y-50190238D01*
X-17170238Y-50071844D01*
X-17263260Y-49932626D01*
X-17263261Y-49932625D01*
X-17327336Y-49777934D01*
X-17360000Y-49613719D01*
X-17360000Y-49446281D01*
X-17327336Y-49282066D01*
X-17263261Y-49127375D01*
X-17217065Y-49058238D01*
X-17170238Y-48988156D01*
X-17051844Y-48869762D01*
X-16912626Y-48776740D01*
X-16912625Y-48776739D01*
X-16757934Y-48712664D01*
X-16593719Y-48680000D01*
X-16426281Y-48680000D01*
X-16262066Y-48712664D01*
X-16262066Y-48712664D01*
G37*
G36*
X-44110000Y-49930000D02*
G01*
X-46310000Y-49930000D01*
X-46310000Y-49130000D01*
X-44110000Y-49130000D01*
X-44110000Y-49930000D01*
X-44110000Y-49930000D01*
G37*
G36*
X-53510000Y-49930000D02*
G01*
X-55710000Y-49930000D01*
X-55710000Y-49130000D01*
X-53510000Y-49130000D01*
X-53510000Y-49930000D01*
X-53510000Y-49930000D01*
G37*
G36*
X-76023570Y-47373022D02*
G01*
X-75853917Y-47424486D01*
X-75697569Y-47508055D01*
X-75560525Y-47620525D01*
X-75448055Y-47757569D01*
X-75364486Y-47913917D01*
X-75313022Y-48083570D01*
X-75295646Y-48260000D01*
X-75313022Y-48436430D01*
X-75364486Y-48606083D01*
X-75448055Y-48762431D01*
X-75560525Y-48899475D01*
X-75697569Y-49011945D01*
X-75853917Y-49095514D01*
X-76023570Y-49146978D01*
X-76155789Y-49160000D01*
X-76244211Y-49160000D01*
X-76376430Y-49146978D01*
X-76546083Y-49095514D01*
X-76702431Y-49011945D01*
X-76839475Y-48899475D01*
X-76951945Y-48762431D01*
X-77035514Y-48606083D01*
X-77086978Y-48436430D01*
X-77104354Y-48260000D01*
X-77086978Y-48083570D01*
X-77035514Y-47913917D01*
X-76951945Y-47757569D01*
X-76839475Y-47620525D01*
X-76702431Y-47508055D01*
X-76546083Y-47424486D01*
X-76376430Y-47373022D01*
X-76244211Y-47360000D01*
X-76155789Y-47360000D01*
X-76023570Y-47373022D01*
X-76023570Y-47373022D01*
G37*
G36*
X-60783570Y-47373022D02*
G01*
X-60613917Y-47424486D01*
X-60457569Y-47508055D01*
X-60320525Y-47620525D01*
X-60208055Y-47757569D01*
X-60124486Y-47913917D01*
X-60073022Y-48083570D01*
X-60055646Y-48260000D01*
X-60073022Y-48436430D01*
X-60124486Y-48606083D01*
X-60208055Y-48762431D01*
X-60320525Y-48899475D01*
X-60457569Y-49011945D01*
X-60613917Y-49095514D01*
X-60783570Y-49146978D01*
X-60915789Y-49160000D01*
X-61004211Y-49160000D01*
X-61136430Y-49146978D01*
X-61306083Y-49095514D01*
X-61462431Y-49011945D01*
X-61599475Y-48899475D01*
X-61711945Y-48762431D01*
X-61795514Y-48606083D01*
X-61846978Y-48436430D01*
X-61864354Y-48260000D01*
X-61846978Y-48083570D01*
X-61795514Y-47913917D01*
X-61711945Y-47757569D01*
X-61599475Y-47620525D01*
X-61462431Y-47508055D01*
X-61306083Y-47424486D01*
X-61136430Y-47373022D01*
X-61004211Y-47360000D01*
X-60915789Y-47360000D01*
X-60783570Y-47373022D01*
X-60783570Y-47373022D01*
G37*
G36*
X-13722066Y-47442664D02*
G01*
X-13567375Y-47506739D01*
X-13529806Y-47531842D01*
X-13428156Y-47599762D01*
X-13309762Y-47718156D01*
X-13283428Y-47757568D01*
X-13216739Y-47857375D01*
X-13152664Y-48012066D01*
X-13120000Y-48176281D01*
X-13120000Y-48343719D01*
X-13152664Y-48507934D01*
X-13216739Y-48662625D01*
X-13216740Y-48662626D01*
X-13309762Y-48801844D01*
X-13428156Y-48920238D01*
X-13498238Y-48967065D01*
X-13567375Y-49013261D01*
X-13722066Y-49077336D01*
X-13886281Y-49110000D01*
X-14053719Y-49110000D01*
X-14217934Y-49077336D01*
X-14372625Y-49013261D01*
X-14441762Y-48967065D01*
X-14511844Y-48920238D01*
X-14630238Y-48801844D01*
X-14723260Y-48662626D01*
X-14723261Y-48662625D01*
X-14787336Y-48507934D01*
X-14820000Y-48343719D01*
X-14820000Y-48176281D01*
X-14787336Y-48012066D01*
X-14723261Y-47857375D01*
X-14656572Y-47757568D01*
X-14630238Y-47718156D01*
X-14511844Y-47599762D01*
X-14410194Y-47531842D01*
X-14372625Y-47506739D01*
X-14217934Y-47442664D01*
X-14053719Y-47410000D01*
X-13886281Y-47410000D01*
X-13722066Y-47442664D01*
X-13722066Y-47442664D01*
G37*
G36*
X-53510000Y-48660000D02*
G01*
X-55710000Y-48660000D01*
X-55710000Y-47860000D01*
X-53510000Y-47860000D01*
X-53510000Y-48660000D01*
X-53510000Y-48660000D01*
G37*
G36*
X-44110000Y-48660000D02*
G01*
X-46310000Y-48660000D01*
X-46310000Y-47860000D01*
X-44110000Y-47860000D01*
X-44110000Y-48660000D01*
X-44110000Y-48660000D01*
G37*
G36*
X-85533393Y-46655091D02*
G01*
X-85486049Y-46669453D01*
X-85442412Y-46692778D01*
X-85404166Y-46724166D01*
X-85372778Y-46762412D01*
X-85349453Y-46806049D01*
X-85335091Y-46853393D01*
X-85330000Y-46905086D01*
X-85330000Y-48344914D01*
X-85335091Y-48396607D01*
X-85349453Y-48443951D01*
X-85372778Y-48487588D01*
X-85404166Y-48525834D01*
X-85442412Y-48557222D01*
X-85486049Y-48580547D01*
X-85533393Y-48594909D01*
X-85585086Y-48600000D01*
X-86699914Y-48600000D01*
X-86751607Y-48594909D01*
X-86798951Y-48580547D01*
X-86842588Y-48557222D01*
X-86880834Y-48525834D01*
X-86912222Y-48487588D01*
X-86935547Y-48443951D01*
X-86949909Y-48396607D01*
X-86955000Y-48344914D01*
X-86955000Y-46905086D01*
X-86949909Y-46853393D01*
X-86935547Y-46806049D01*
X-86912222Y-46762412D01*
X-86880834Y-46724166D01*
X-86842588Y-46692778D01*
X-86798951Y-46669453D01*
X-86751607Y-46655091D01*
X-86699914Y-46650000D01*
X-85585086Y-46650000D01*
X-85533393Y-46655091D01*
X-85533393Y-46655091D01*
G37*
G36*
X-88508393Y-46655091D02*
G01*
X-88461049Y-46669453D01*
X-88417412Y-46692778D01*
X-88379166Y-46724166D01*
X-88347778Y-46762412D01*
X-88324453Y-46806049D01*
X-88310091Y-46853393D01*
X-88305000Y-46905086D01*
X-88305000Y-48344914D01*
X-88310091Y-48396607D01*
X-88324453Y-48443951D01*
X-88347778Y-48487588D01*
X-88379166Y-48525834D01*
X-88417412Y-48557222D01*
X-88461049Y-48580547D01*
X-88508393Y-48594909D01*
X-88560086Y-48600000D01*
X-89674914Y-48600000D01*
X-89726607Y-48594909D01*
X-89773951Y-48580547D01*
X-89817588Y-48557222D01*
X-89855834Y-48525834D01*
X-89887222Y-48487588D01*
X-89910547Y-48443951D01*
X-89924909Y-48396607D01*
X-89930000Y-48344914D01*
X-89930000Y-46905086D01*
X-89924909Y-46853393D01*
X-89910547Y-46806049D01*
X-89887222Y-46762412D01*
X-89855834Y-46724166D01*
X-89817588Y-46692778D01*
X-89773951Y-46669453D01*
X-89726607Y-46655091D01*
X-89674914Y-46650000D01*
X-88560086Y-46650000D01*
X-88508393Y-46655091D01*
X-88508393Y-46655091D01*
G37*
G36*
X-16262066Y-46172664D02*
G01*
X-16107375Y-46236739D01*
X-16107374Y-46236740D01*
X-15968156Y-46329762D01*
X-15849762Y-46448156D01*
X-15849761Y-46448158D01*
X-15756739Y-46587375D01*
X-15692664Y-46742066D01*
X-15660000Y-46906281D01*
X-15660000Y-47073719D01*
X-15692664Y-47237934D01*
X-15756739Y-47392625D01*
X-15778028Y-47424486D01*
X-15849762Y-47531844D01*
X-15968156Y-47650238D01*
X-16038238Y-47697065D01*
X-16107375Y-47743261D01*
X-16262066Y-47807336D01*
X-16426281Y-47840000D01*
X-16593719Y-47840000D01*
X-16757934Y-47807336D01*
X-16912625Y-47743261D01*
X-16981762Y-47697065D01*
X-17051844Y-47650238D01*
X-17170238Y-47531844D01*
X-17241972Y-47424486D01*
X-17263261Y-47392625D01*
X-17327336Y-47237934D01*
X-17360000Y-47073719D01*
X-17360000Y-46906281D01*
X-17327336Y-46742066D01*
X-17263261Y-46587375D01*
X-17170239Y-46448158D01*
X-17170238Y-46448156D01*
X-17051844Y-46329762D01*
X-16912626Y-46236740D01*
X-16912625Y-46236739D01*
X-16757934Y-46172664D01*
X-16593719Y-46140000D01*
X-16426281Y-46140000D01*
X-16262066Y-46172664D01*
X-16262066Y-46172664D01*
G37*
G36*
X-7301744Y-44050000D02*
G01*
X-7124128Y-44085330D01*
X-6814748Y-44213479D01*
X-6536313Y-44399523D01*
X-6299523Y-44636313D01*
X-6113479Y-44914748D01*
X-5985330Y-45224128D01*
X-5985330Y-45224130D01*
X-5920000Y-45552563D01*
X-5920000Y-45887437D01*
X-5931965Y-45947588D01*
X-5985330Y-46215872D01*
X-6113479Y-46525252D01*
X-6299523Y-46803687D01*
X-6536313Y-47040477D01*
X-6814748Y-47226521D01*
X-7124128Y-47354670D01*
X-7288346Y-47387335D01*
X-7452563Y-47420000D01*
X-7787437Y-47420000D01*
X-7951654Y-47387335D01*
X-8115872Y-47354670D01*
X-8425252Y-47226521D01*
X-8703687Y-47040477D01*
X-8940477Y-46803687D01*
X-9126521Y-46525252D01*
X-9254670Y-46215872D01*
X-9308035Y-45947588D01*
X-9320000Y-45887437D01*
X-9320000Y-45552563D01*
X-9254670Y-45224130D01*
X-9254670Y-45224128D01*
X-9126521Y-44914748D01*
X-8940477Y-44636313D01*
X-8703687Y-44399523D01*
X-8425252Y-44213479D01*
X-8115872Y-44085330D01*
X-7938256Y-44050000D01*
X-7787437Y-44020000D01*
X-7452563Y-44020000D01*
X-7301744Y-44050000D01*
X-7301744Y-44050000D01*
G37*
G36*
X-53510000Y-47390000D02*
G01*
X-55710000Y-47390000D01*
X-55710000Y-46590000D01*
X-53510000Y-46590000D01*
X-53510000Y-47390000D01*
X-53510000Y-47390000D01*
G37*
G36*
X-44110000Y-47390000D02*
G01*
X-46310000Y-47390000D01*
X-46310000Y-46590000D01*
X-44110000Y-46590000D01*
X-44110000Y-47390000D01*
X-44110000Y-47390000D01*
G37*
G36*
X-60783570Y-44833022D02*
G01*
X-60613917Y-44884486D01*
X-60457569Y-44968055D01*
X-60320525Y-45080525D01*
X-60208055Y-45217569D01*
X-60124486Y-45373917D01*
X-60073022Y-45543570D01*
X-60055646Y-45720000D01*
X-60073022Y-45896430D01*
X-60124486Y-46066083D01*
X-60208055Y-46222431D01*
X-60320525Y-46359475D01*
X-60457569Y-46471945D01*
X-60613917Y-46555514D01*
X-60783570Y-46606978D01*
X-60915789Y-46620000D01*
X-61004211Y-46620000D01*
X-61136430Y-46606978D01*
X-61306083Y-46555514D01*
X-61462431Y-46471945D01*
X-61599475Y-46359475D01*
X-61711945Y-46222431D01*
X-61795514Y-46066083D01*
X-61846978Y-45896430D01*
X-61864354Y-45720000D01*
X-61846978Y-45543570D01*
X-61795514Y-45373917D01*
X-61711945Y-45217569D01*
X-61599475Y-45080525D01*
X-61462431Y-44968055D01*
X-61306083Y-44884486D01*
X-61136430Y-44833022D01*
X-61004211Y-44820000D01*
X-60915789Y-44820000D01*
X-60783570Y-44833022D01*
X-60783570Y-44833022D01*
G37*
G36*
X-76023570Y-44833022D02*
G01*
X-75853917Y-44884486D01*
X-75697569Y-44968055D01*
X-75560525Y-45080525D01*
X-75448055Y-45217569D01*
X-75364486Y-45373917D01*
X-75313022Y-45543570D01*
X-75295646Y-45720000D01*
X-75313022Y-45896430D01*
X-75364486Y-46066083D01*
X-75448055Y-46222431D01*
X-75560525Y-46359475D01*
X-75697569Y-46471945D01*
X-75853917Y-46555514D01*
X-76023570Y-46606978D01*
X-76155789Y-46620000D01*
X-76244211Y-46620000D01*
X-76376430Y-46606978D01*
X-76546083Y-46555514D01*
X-76702431Y-46471945D01*
X-76839475Y-46359475D01*
X-76951945Y-46222431D01*
X-77035514Y-46066083D01*
X-77086978Y-45896430D01*
X-77104354Y-45720000D01*
X-77086978Y-45543570D01*
X-77035514Y-45373917D01*
X-76951945Y-45217569D01*
X-76839475Y-45080525D01*
X-76702431Y-44968055D01*
X-76546083Y-44884486D01*
X-76376430Y-44833022D01*
X-76244211Y-44820000D01*
X-76155789Y-44820000D01*
X-76023570Y-44833022D01*
X-76023570Y-44833022D01*
G37*
G36*
X-44110000Y-46120000D02*
G01*
X-46310000Y-46120000D01*
X-46310000Y-45320000D01*
X-44110000Y-45320000D01*
X-44110000Y-46120000D01*
X-44110000Y-46120000D01*
G37*
G36*
X-53510000Y-46120000D02*
G01*
X-55710000Y-46120000D01*
X-55710000Y-45320000D01*
X-53510000Y-45320000D01*
X-53510000Y-46120000D01*
X-53510000Y-46120000D01*
G37*
G36*
X-88508393Y-44115091D02*
G01*
X-88461049Y-44129453D01*
X-88417412Y-44152778D01*
X-88379166Y-44184166D01*
X-88347778Y-44222412D01*
X-88324453Y-44266049D01*
X-88310091Y-44313393D01*
X-88305000Y-44365086D01*
X-88305000Y-45804914D01*
X-88310091Y-45856607D01*
X-88324453Y-45903951D01*
X-88347778Y-45947588D01*
X-88379166Y-45985834D01*
X-88417412Y-46017222D01*
X-88461049Y-46040547D01*
X-88508393Y-46054909D01*
X-88560086Y-46060000D01*
X-89674914Y-46060000D01*
X-89726607Y-46054909D01*
X-89773951Y-46040547D01*
X-89817588Y-46017222D01*
X-89855834Y-45985834D01*
X-89887222Y-45947588D01*
X-89910547Y-45903951D01*
X-89924909Y-45856607D01*
X-89930000Y-45804914D01*
X-89930000Y-44365086D01*
X-89924909Y-44313393D01*
X-89910547Y-44266049D01*
X-89887222Y-44222412D01*
X-89855834Y-44184166D01*
X-89817588Y-44152778D01*
X-89773951Y-44129453D01*
X-89726607Y-44115091D01*
X-89674914Y-44110000D01*
X-88560086Y-44110000D01*
X-88508393Y-44115091D01*
X-88508393Y-44115091D01*
G37*
G36*
X-85533393Y-44115091D02*
G01*
X-85486049Y-44129453D01*
X-85442412Y-44152778D01*
X-85404166Y-44184166D01*
X-85372778Y-44222412D01*
X-85349453Y-44266049D01*
X-85335091Y-44313393D01*
X-85330000Y-44365086D01*
X-85330000Y-45804914D01*
X-85335091Y-45856607D01*
X-85349453Y-45903951D01*
X-85372778Y-45947588D01*
X-85404166Y-45985834D01*
X-85442412Y-46017222D01*
X-85486049Y-46040547D01*
X-85533393Y-46054909D01*
X-85585086Y-46060000D01*
X-86699914Y-46060000D01*
X-86751607Y-46054909D01*
X-86798951Y-46040547D01*
X-86842588Y-46017222D01*
X-86880834Y-45985834D01*
X-86912222Y-45947588D01*
X-86935547Y-45903951D01*
X-86949909Y-45856607D01*
X-86955000Y-45804914D01*
X-86955000Y-44365086D01*
X-86949909Y-44313393D01*
X-86935547Y-44266049D01*
X-86912222Y-44222412D01*
X-86880834Y-44184166D01*
X-86842588Y-44152778D01*
X-86798951Y-44129453D01*
X-86751607Y-44115091D01*
X-86699914Y-44110000D01*
X-85585086Y-44110000D01*
X-85533393Y-44115091D01*
X-85533393Y-44115091D01*
G37*
G36*
X-44110000Y-44850000D02*
G01*
X-46310000Y-44850000D01*
X-46310000Y-44050000D01*
X-44110000Y-44050000D01*
X-44110000Y-44850000D01*
X-44110000Y-44850000D01*
G37*
G36*
X-53510000Y-44850000D02*
G01*
X-55710000Y-44850000D01*
X-55710000Y-44050000D01*
X-53510000Y-44050000D01*
X-53510000Y-44850000D01*
X-53510000Y-44850000D01*
G37*
G36*
X-60783570Y-42293022D02*
G01*
X-60613917Y-42344486D01*
X-60457569Y-42428055D01*
X-60320525Y-42540525D01*
X-60208055Y-42677569D01*
X-60124486Y-42833917D01*
X-60073022Y-43003570D01*
X-60055646Y-43180000D01*
X-60073022Y-43356430D01*
X-60124486Y-43526083D01*
X-60208055Y-43682431D01*
X-60320525Y-43819475D01*
X-60457569Y-43931945D01*
X-60613917Y-44015514D01*
X-60783570Y-44066978D01*
X-60915789Y-44080000D01*
X-61004211Y-44080000D01*
X-61136430Y-44066978D01*
X-61306083Y-44015514D01*
X-61462431Y-43931945D01*
X-61599475Y-43819475D01*
X-61711945Y-43682431D01*
X-61795514Y-43526083D01*
X-61846978Y-43356430D01*
X-61864354Y-43180000D01*
X-61846978Y-43003570D01*
X-61795514Y-42833917D01*
X-61711945Y-42677569D01*
X-61599475Y-42540525D01*
X-61462431Y-42428055D01*
X-61306083Y-42344486D01*
X-61136430Y-42293022D01*
X-61004211Y-42280000D01*
X-60915789Y-42280000D01*
X-60783570Y-42293022D01*
X-60783570Y-42293022D01*
G37*
G36*
X-76023570Y-42293022D02*
G01*
X-75853917Y-42344486D01*
X-75697569Y-42428055D01*
X-75560525Y-42540525D01*
X-75448055Y-42677569D01*
X-75364486Y-42833917D01*
X-75313022Y-43003570D01*
X-75295646Y-43180000D01*
X-75313022Y-43356430D01*
X-75364486Y-43526083D01*
X-75448055Y-43682431D01*
X-75560525Y-43819475D01*
X-75697569Y-43931945D01*
X-75853917Y-44015514D01*
X-76023570Y-44066978D01*
X-76155789Y-44080000D01*
X-76244211Y-44080000D01*
X-76376430Y-44066978D01*
X-76546083Y-44015514D01*
X-76702431Y-43931945D01*
X-76839475Y-43819475D01*
X-76951945Y-43682431D01*
X-77035514Y-43526083D01*
X-77086978Y-43356430D01*
X-77104354Y-43180000D01*
X-77086978Y-43003570D01*
X-77035514Y-42833917D01*
X-76951945Y-42677569D01*
X-76839475Y-42540525D01*
X-76702431Y-42428055D01*
X-76546083Y-42344486D01*
X-76376430Y-42293022D01*
X-76244211Y-42280000D01*
X-76155789Y-42280000D01*
X-76023570Y-42293022D01*
X-76023570Y-42293022D01*
G37*
G36*
X-82993393Y-40940091D02*
G01*
X-82946049Y-40954453D01*
X-82902412Y-40977778D01*
X-82864166Y-41009166D01*
X-82832778Y-41047412D01*
X-82809453Y-41091049D01*
X-82795091Y-41138393D01*
X-82790000Y-41190086D01*
X-82790000Y-42629914D01*
X-82795091Y-42681607D01*
X-82809453Y-42728951D01*
X-82832778Y-42772588D01*
X-82864166Y-42810834D01*
X-82902412Y-42842222D01*
X-82946049Y-42865547D01*
X-82993393Y-42879909D01*
X-83045086Y-42885000D01*
X-84159914Y-42885000D01*
X-84211607Y-42879909D01*
X-84258951Y-42865547D01*
X-84302588Y-42842222D01*
X-84340834Y-42810834D01*
X-84372222Y-42772588D01*
X-84395547Y-42728951D01*
X-84409909Y-42681607D01*
X-84415000Y-42629914D01*
X-84415000Y-41190086D01*
X-84409909Y-41138393D01*
X-84395547Y-41091049D01*
X-84372222Y-41047412D01*
X-84340834Y-41009166D01*
X-84302588Y-40977778D01*
X-84258951Y-40954453D01*
X-84211607Y-40940091D01*
X-84159914Y-40935000D01*
X-83045086Y-40935000D01*
X-82993393Y-40940091D01*
X-82993393Y-40940091D01*
G37*
G36*
X-85968393Y-40940091D02*
G01*
X-85921049Y-40954453D01*
X-85877412Y-40977778D01*
X-85839166Y-41009166D01*
X-85807778Y-41047412D01*
X-85784453Y-41091049D01*
X-85770091Y-41138393D01*
X-85765000Y-41190086D01*
X-85765000Y-42629914D01*
X-85770091Y-42681607D01*
X-85784453Y-42728951D01*
X-85807778Y-42772588D01*
X-85839166Y-42810834D01*
X-85877412Y-42842222D01*
X-85921049Y-42865547D01*
X-85968393Y-42879909D01*
X-86020086Y-42885000D01*
X-87134914Y-42885000D01*
X-87186607Y-42879909D01*
X-87233951Y-42865547D01*
X-87277588Y-42842222D01*
X-87315834Y-42810834D01*
X-87347222Y-42772588D01*
X-87370547Y-42728951D01*
X-87384909Y-42681607D01*
X-87390000Y-42629914D01*
X-87390000Y-41190086D01*
X-87384909Y-41138393D01*
X-87370547Y-41091049D01*
X-87347222Y-41047412D01*
X-87315834Y-41009166D01*
X-87277588Y-40977778D01*
X-87233951Y-40954453D01*
X-87186607Y-40940091D01*
X-87134914Y-40935000D01*
X-86020086Y-40935000D01*
X-85968393Y-40940091D01*
X-85968393Y-40940091D01*
G37*
G36*
X-95620000Y-42565000D02*
G01*
X-97420000Y-42565000D01*
X-97420000Y-40365000D01*
X-95620000Y-40365000D01*
X-95620000Y-42565000D01*
X-95620000Y-42565000D01*
G37*
G36*
X-76023570Y-39753022D02*
G01*
X-75853917Y-39804486D01*
X-75697569Y-39888055D01*
X-75560525Y-40000525D01*
X-75448055Y-40137569D01*
X-75364486Y-40293917D01*
X-75313022Y-40463570D01*
X-75295646Y-40640000D01*
X-75313022Y-40816430D01*
X-75364486Y-40986083D01*
X-75448055Y-41142431D01*
X-75560525Y-41279475D01*
X-75697569Y-41391945D01*
X-75853917Y-41475514D01*
X-76023570Y-41526978D01*
X-76155789Y-41540000D01*
X-76244211Y-41540000D01*
X-76376430Y-41526978D01*
X-76546083Y-41475514D01*
X-76702431Y-41391945D01*
X-76839475Y-41279475D01*
X-76951945Y-41142431D01*
X-77035514Y-40986083D01*
X-77086978Y-40816430D01*
X-77104354Y-40640000D01*
X-77086978Y-40463570D01*
X-77035514Y-40293917D01*
X-76951945Y-40137569D01*
X-76839475Y-40000525D01*
X-76702431Y-39888055D01*
X-76546083Y-39804486D01*
X-76376430Y-39753022D01*
X-76244211Y-39740000D01*
X-76155789Y-39740000D01*
X-76023570Y-39753022D01*
X-76023570Y-39753022D01*
G37*
G36*
X-60783570Y-39753022D02*
G01*
X-60613917Y-39804486D01*
X-60457569Y-39888055D01*
X-60320525Y-40000525D01*
X-60208055Y-40137569D01*
X-60124486Y-40293917D01*
X-60073022Y-40463570D01*
X-60055646Y-40640000D01*
X-60073022Y-40816430D01*
X-60124486Y-40986083D01*
X-60208055Y-41142431D01*
X-60320525Y-41279475D01*
X-60457569Y-41391945D01*
X-60613917Y-41475514D01*
X-60783570Y-41526978D01*
X-60915789Y-41540000D01*
X-61004211Y-41540000D01*
X-61136430Y-41526978D01*
X-61306083Y-41475514D01*
X-61462431Y-41391945D01*
X-61599475Y-41279475D01*
X-61711945Y-41142431D01*
X-61795514Y-40986083D01*
X-61846978Y-40816430D01*
X-61864354Y-40640000D01*
X-61846978Y-40463570D01*
X-61795514Y-40293917D01*
X-61711945Y-40137569D01*
X-61599475Y-40000525D01*
X-61462431Y-39888055D01*
X-61306083Y-39804486D01*
X-61136430Y-39753022D01*
X-61004211Y-39740000D01*
X-60915789Y-39740000D01*
X-60783570Y-39753022D01*
X-60783570Y-39753022D01*
G37*
G36*
X-7288347Y-37702665D02*
G01*
X-7124128Y-37735330D01*
X-6814748Y-37863479D01*
X-6536313Y-38049523D01*
X-6299523Y-38286313D01*
X-6113479Y-38564748D01*
X-5985330Y-38874128D01*
X-5920000Y-39202565D01*
X-5920000Y-39537435D01*
X-5985330Y-39865872D01*
X-6113479Y-40175252D01*
X-6299523Y-40453687D01*
X-6536313Y-40690477D01*
X-6814748Y-40876521D01*
X-7124128Y-41004670D01*
X-7288346Y-41037335D01*
X-7452563Y-41070000D01*
X-7787437Y-41070000D01*
X-7951654Y-41037335D01*
X-8115872Y-41004670D01*
X-8425252Y-40876521D01*
X-8703687Y-40690477D01*
X-8940477Y-40453687D01*
X-9126521Y-40175252D01*
X-9254670Y-39865872D01*
X-9320000Y-39537435D01*
X-9320000Y-39202565D01*
X-9254670Y-38874128D01*
X-9126521Y-38564748D01*
X-8940477Y-38286313D01*
X-8703687Y-38049523D01*
X-8425252Y-37863479D01*
X-8115872Y-37735330D01*
X-7951653Y-37702665D01*
X-7787437Y-37670000D01*
X-7452563Y-37670000D01*
X-7288347Y-37702665D01*
X-7288347Y-37702665D01*
G37*
G36*
X-25008393Y-38400091D02*
G01*
X-24961049Y-38414453D01*
X-24917412Y-38437778D01*
X-24879166Y-38469166D01*
X-24847778Y-38507412D01*
X-24824453Y-38551049D01*
X-24810091Y-38598393D01*
X-24805000Y-38650086D01*
X-24805000Y-40089914D01*
X-24810091Y-40141607D01*
X-24824453Y-40188951D01*
X-24847778Y-40232588D01*
X-24879166Y-40270834D01*
X-24917412Y-40302222D01*
X-24961049Y-40325547D01*
X-25008393Y-40339909D01*
X-25060086Y-40345000D01*
X-26174914Y-40345000D01*
X-26226607Y-40339909D01*
X-26273951Y-40325547D01*
X-26317588Y-40302222D01*
X-26355834Y-40270834D01*
X-26387222Y-40232588D01*
X-26410547Y-40188951D01*
X-26424909Y-40141607D01*
X-26430000Y-40089914D01*
X-26430000Y-38650086D01*
X-26424909Y-38598393D01*
X-26410547Y-38551049D01*
X-26387222Y-38507412D01*
X-26355834Y-38469166D01*
X-26317588Y-38437778D01*
X-26273951Y-38414453D01*
X-26226607Y-38400091D01*
X-26174914Y-38395000D01*
X-25060086Y-38395000D01*
X-25008393Y-38400091D01*
X-25008393Y-38400091D01*
G37*
G36*
X-22033393Y-38400091D02*
G01*
X-21986049Y-38414453D01*
X-21942412Y-38437778D01*
X-21904166Y-38469166D01*
X-21872778Y-38507412D01*
X-21849453Y-38551049D01*
X-21835091Y-38598393D01*
X-21830000Y-38650086D01*
X-21830000Y-40089914D01*
X-21835091Y-40141607D01*
X-21849453Y-40188951D01*
X-21872778Y-40232588D01*
X-21904166Y-40270834D01*
X-21942412Y-40302222D01*
X-21986049Y-40325547D01*
X-22033393Y-40339909D01*
X-22085086Y-40345000D01*
X-23199914Y-40345000D01*
X-23251607Y-40339909D01*
X-23298951Y-40325547D01*
X-23342588Y-40302222D01*
X-23380834Y-40270834D01*
X-23412222Y-40232588D01*
X-23435547Y-40188951D01*
X-23449909Y-40141607D01*
X-23455000Y-40089914D01*
X-23455000Y-38650086D01*
X-23449909Y-38598393D01*
X-23435547Y-38551049D01*
X-23412222Y-38507412D01*
X-23380834Y-38469166D01*
X-23342588Y-38437778D01*
X-23298951Y-38414453D01*
X-23251607Y-38400091D01*
X-23199914Y-38395000D01*
X-22085086Y-38395000D01*
X-22033393Y-38400091D01*
X-22033393Y-38400091D01*
G37*
G36*
X-82993393Y-37130091D02*
G01*
X-82946049Y-37144453D01*
X-82902412Y-37167778D01*
X-82864166Y-37199166D01*
X-82832778Y-37237412D01*
X-82809453Y-37281049D01*
X-82795091Y-37328393D01*
X-82790000Y-37380086D01*
X-82790000Y-38819914D01*
X-82795091Y-38871607D01*
X-82809453Y-38918951D01*
X-82832778Y-38962588D01*
X-82864166Y-39000834D01*
X-82902412Y-39032222D01*
X-82946049Y-39055547D01*
X-82993393Y-39069909D01*
X-83045086Y-39075000D01*
X-84159914Y-39075000D01*
X-84211607Y-39069909D01*
X-84258951Y-39055547D01*
X-84302588Y-39032222D01*
X-84340834Y-39000834D01*
X-84372222Y-38962588D01*
X-84395547Y-38918951D01*
X-84409909Y-38871607D01*
X-84415000Y-38819914D01*
X-84415000Y-37380086D01*
X-84409909Y-37328393D01*
X-84395547Y-37281049D01*
X-84372222Y-37237412D01*
X-84340834Y-37199166D01*
X-84302588Y-37167778D01*
X-84258951Y-37144453D01*
X-84211607Y-37130091D01*
X-84159914Y-37125000D01*
X-83045086Y-37125000D01*
X-82993393Y-37130091D01*
X-82993393Y-37130091D01*
G37*
G36*
X-85968393Y-37130091D02*
G01*
X-85921049Y-37144453D01*
X-85877412Y-37167778D01*
X-85839166Y-37199166D01*
X-85807778Y-37237412D01*
X-85784453Y-37281049D01*
X-85770091Y-37328393D01*
X-85765000Y-37380086D01*
X-85765000Y-38819914D01*
X-85770091Y-38871607D01*
X-85784453Y-38918951D01*
X-85807778Y-38962588D01*
X-85839166Y-39000834D01*
X-85877412Y-39032222D01*
X-85921049Y-39055547D01*
X-85968393Y-39069909D01*
X-86020086Y-39075000D01*
X-87134914Y-39075000D01*
X-87186607Y-39069909D01*
X-87233951Y-39055547D01*
X-87277588Y-39032222D01*
X-87315834Y-39000834D01*
X-87347222Y-38962588D01*
X-87370547Y-38918951D01*
X-87384909Y-38871607D01*
X-87390000Y-38819914D01*
X-87390000Y-37380086D01*
X-87384909Y-37328393D01*
X-87370547Y-37281049D01*
X-87347222Y-37237412D01*
X-87315834Y-37199166D01*
X-87277588Y-37167778D01*
X-87233951Y-37144453D01*
X-87186607Y-37130091D01*
X-87134914Y-37125000D01*
X-86020086Y-37125000D01*
X-85968393Y-37130091D01*
X-85968393Y-37130091D01*
G37*
G36*
X-76023570Y-37213022D02*
G01*
X-75853917Y-37264486D01*
X-75697569Y-37348055D01*
X-75560525Y-37460525D01*
X-75448055Y-37597569D01*
X-75364486Y-37753917D01*
X-75313022Y-37923570D01*
X-75295646Y-38100000D01*
X-75313022Y-38276430D01*
X-75364486Y-38446083D01*
X-75448055Y-38602431D01*
X-75560525Y-38739475D01*
X-75697569Y-38851945D01*
X-75853917Y-38935514D01*
X-76023570Y-38986978D01*
X-76155789Y-39000000D01*
X-76244211Y-39000000D01*
X-76376430Y-38986978D01*
X-76546083Y-38935514D01*
X-76702431Y-38851945D01*
X-76839475Y-38739475D01*
X-76951945Y-38602431D01*
X-77035514Y-38446083D01*
X-77086978Y-38276430D01*
X-77104354Y-38100000D01*
X-77086978Y-37923570D01*
X-77035514Y-37753917D01*
X-76951945Y-37597569D01*
X-76839475Y-37460525D01*
X-76702431Y-37348055D01*
X-76546083Y-37264486D01*
X-76376430Y-37213022D01*
X-76244211Y-37200000D01*
X-76155789Y-37200000D01*
X-76023570Y-37213022D01*
X-76023570Y-37213022D01*
G37*
G36*
X-60783570Y-37213022D02*
G01*
X-60613917Y-37264486D01*
X-60457569Y-37348055D01*
X-60320525Y-37460525D01*
X-60208055Y-37597569D01*
X-60124486Y-37753917D01*
X-60073022Y-37923570D01*
X-60055646Y-38100000D01*
X-60073022Y-38276430D01*
X-60124486Y-38446083D01*
X-60208055Y-38602431D01*
X-60320525Y-38739475D01*
X-60457569Y-38851945D01*
X-60613917Y-38935514D01*
X-60783570Y-38986978D01*
X-60915789Y-39000000D01*
X-61004211Y-39000000D01*
X-61136430Y-38986978D01*
X-61306083Y-38935514D01*
X-61462431Y-38851945D01*
X-61599475Y-38739475D01*
X-61711945Y-38602431D01*
X-61795514Y-38446083D01*
X-61846978Y-38276430D01*
X-61864354Y-38100000D01*
X-61846978Y-37923570D01*
X-61795514Y-37753917D01*
X-61711945Y-37597569D01*
X-61599475Y-37460525D01*
X-61462431Y-37348055D01*
X-61306083Y-37264486D01*
X-61136430Y-37213022D01*
X-61004211Y-37200000D01*
X-60915789Y-37200000D01*
X-60783570Y-37213022D01*
X-60783570Y-37213022D01*
G37*
G36*
X-13120000Y-38950000D02*
G01*
X-14820000Y-38950000D01*
X-14820000Y-37250000D01*
X-13120000Y-37250000D01*
X-13120000Y-38950000D01*
X-13120000Y-38950000D01*
G37*
G36*
X-95620000Y-38565000D02*
G01*
X-97420000Y-38565000D01*
X-97420000Y-36365000D01*
X-95620000Y-36365000D01*
X-95620000Y-38565000D01*
X-95620000Y-38565000D01*
G37*
G36*
X-16262066Y-36012664D02*
G01*
X-16107375Y-36076739D01*
X-16107374Y-36076740D01*
X-15968156Y-36169762D01*
X-15849762Y-36288156D01*
X-15820729Y-36331607D01*
X-15756739Y-36427375D01*
X-15692664Y-36582066D01*
X-15660000Y-36746281D01*
X-15660000Y-36913719D01*
X-15692664Y-37077934D01*
X-15756739Y-37232625D01*
X-15756740Y-37232626D01*
X-15849762Y-37371844D01*
X-15968156Y-37490238D01*
X-16038238Y-37537065D01*
X-16107375Y-37583261D01*
X-16262066Y-37647336D01*
X-16426281Y-37680000D01*
X-16593719Y-37680000D01*
X-16757934Y-37647336D01*
X-16912625Y-37583261D01*
X-16981762Y-37537065D01*
X-17051844Y-37490238D01*
X-17170238Y-37371844D01*
X-17263260Y-37232626D01*
X-17263261Y-37232625D01*
X-17327336Y-37077934D01*
X-17360000Y-36913719D01*
X-17360000Y-36746281D01*
X-17327336Y-36582066D01*
X-17263261Y-36427375D01*
X-17199271Y-36331607D01*
X-17170238Y-36288156D01*
X-17051844Y-36169762D01*
X-16912626Y-36076740D01*
X-16912625Y-36076739D01*
X-16757934Y-36012664D01*
X-16593719Y-35980000D01*
X-16426281Y-35980000D01*
X-16262066Y-36012664D01*
X-16262066Y-36012664D01*
G37*
G36*
X-22033393Y-34590091D02*
G01*
X-21986049Y-34604453D01*
X-21942412Y-34627778D01*
X-21904166Y-34659166D01*
X-21872778Y-34697412D01*
X-21849453Y-34741049D01*
X-21835091Y-34788393D01*
X-21830000Y-34840086D01*
X-21830000Y-36279914D01*
X-21835091Y-36331607D01*
X-21849453Y-36378951D01*
X-21872778Y-36422588D01*
X-21904166Y-36460834D01*
X-21942412Y-36492222D01*
X-21986049Y-36515547D01*
X-22033393Y-36529909D01*
X-22085086Y-36535000D01*
X-23199914Y-36535000D01*
X-23251607Y-36529909D01*
X-23298951Y-36515547D01*
X-23342588Y-36492222D01*
X-23380834Y-36460834D01*
X-23412222Y-36422588D01*
X-23435547Y-36378951D01*
X-23449909Y-36331607D01*
X-23455000Y-36279914D01*
X-23455000Y-34840086D01*
X-23449909Y-34788393D01*
X-23435547Y-34741049D01*
X-23412222Y-34697412D01*
X-23380834Y-34659166D01*
X-23342588Y-34627778D01*
X-23298951Y-34604453D01*
X-23251607Y-34590091D01*
X-23199914Y-34585000D01*
X-22085086Y-34585000D01*
X-22033393Y-34590091D01*
X-22033393Y-34590091D01*
G37*
G36*
X-25008393Y-34590091D02*
G01*
X-24961049Y-34604453D01*
X-24917412Y-34627778D01*
X-24879166Y-34659166D01*
X-24847778Y-34697412D01*
X-24824453Y-34741049D01*
X-24810091Y-34788393D01*
X-24805000Y-34840086D01*
X-24805000Y-36279914D01*
X-24810091Y-36331607D01*
X-24824453Y-36378951D01*
X-24847778Y-36422588D01*
X-24879166Y-36460834D01*
X-24917412Y-36492222D01*
X-24961049Y-36515547D01*
X-25008393Y-36529909D01*
X-25060086Y-36535000D01*
X-26174914Y-36535000D01*
X-26226607Y-36529909D01*
X-26273951Y-36515547D01*
X-26317588Y-36492222D01*
X-26355834Y-36460834D01*
X-26387222Y-36422588D01*
X-26410547Y-36378951D01*
X-26424909Y-36331607D01*
X-26430000Y-36279914D01*
X-26430000Y-34840086D01*
X-26424909Y-34788393D01*
X-26410547Y-34741049D01*
X-26387222Y-34697412D01*
X-26355834Y-34659166D01*
X-26317588Y-34627778D01*
X-26273951Y-34604453D01*
X-26226607Y-34590091D01*
X-26174914Y-34585000D01*
X-25060086Y-34585000D01*
X-25008393Y-34590091D01*
X-25008393Y-34590091D01*
G37*
G36*
X-52643393Y-34590091D02*
G01*
X-52596049Y-34604453D01*
X-52552412Y-34627778D01*
X-52514166Y-34659166D01*
X-52482778Y-34697412D01*
X-52459453Y-34741049D01*
X-52445091Y-34788393D01*
X-52440000Y-34840086D01*
X-52440000Y-36279914D01*
X-52445091Y-36331607D01*
X-52459453Y-36378951D01*
X-52482778Y-36422588D01*
X-52514166Y-36460834D01*
X-52552412Y-36492222D01*
X-52596049Y-36515547D01*
X-52643393Y-36529909D01*
X-52695086Y-36535000D01*
X-53809914Y-36535000D01*
X-53861607Y-36529909D01*
X-53908951Y-36515547D01*
X-53952588Y-36492222D01*
X-53990834Y-36460834D01*
X-54022222Y-36422588D01*
X-54045547Y-36378951D01*
X-54059909Y-36331607D01*
X-54065000Y-36279914D01*
X-54065000Y-34840086D01*
X-54059909Y-34788393D01*
X-54045547Y-34741049D01*
X-54022222Y-34697412D01*
X-53990834Y-34659166D01*
X-53952588Y-34627778D01*
X-53908951Y-34604453D01*
X-53861607Y-34590091D01*
X-53809914Y-34585000D01*
X-52695086Y-34585000D01*
X-52643393Y-34590091D01*
X-52643393Y-34590091D01*
G37*
G36*
X-55618393Y-34590091D02*
G01*
X-55571049Y-34604453D01*
X-55527412Y-34627778D01*
X-55489166Y-34659166D01*
X-55457778Y-34697412D01*
X-55434453Y-34741049D01*
X-55420091Y-34788393D01*
X-55415000Y-34840086D01*
X-55415000Y-36279914D01*
X-55420091Y-36331607D01*
X-55434453Y-36378951D01*
X-55457778Y-36422588D01*
X-55489166Y-36460834D01*
X-55527412Y-36492222D01*
X-55571049Y-36515547D01*
X-55618393Y-36529909D01*
X-55670086Y-36535000D01*
X-56784914Y-36535000D01*
X-56836607Y-36529909D01*
X-56883951Y-36515547D01*
X-56927588Y-36492222D01*
X-56965834Y-36460834D01*
X-56997222Y-36422588D01*
X-57020547Y-36378951D01*
X-57034909Y-36331607D01*
X-57040000Y-36279914D01*
X-57040000Y-34840086D01*
X-57034909Y-34788393D01*
X-57020547Y-34741049D01*
X-56997222Y-34697412D01*
X-56965834Y-34659166D01*
X-56927588Y-34627778D01*
X-56883951Y-34604453D01*
X-56836607Y-34590091D01*
X-56784914Y-34585000D01*
X-55670086Y-34585000D01*
X-55618393Y-34590091D01*
X-55618393Y-34590091D01*
G37*
G36*
X-60783570Y-34673022D02*
G01*
X-60613917Y-34724486D01*
X-60457569Y-34808055D01*
X-60320525Y-34920525D01*
X-60208055Y-35057569D01*
X-60124486Y-35213917D01*
X-60073022Y-35383570D01*
X-60055646Y-35560000D01*
X-60073022Y-35736430D01*
X-60124486Y-35906083D01*
X-60208055Y-36062431D01*
X-60320525Y-36199475D01*
X-60457569Y-36311945D01*
X-60613917Y-36395514D01*
X-60783570Y-36446978D01*
X-60915789Y-36460000D01*
X-61004211Y-36460000D01*
X-61136430Y-36446978D01*
X-61306083Y-36395514D01*
X-61462431Y-36311945D01*
X-61599475Y-36199475D01*
X-61711945Y-36062431D01*
X-61795514Y-35906083D01*
X-61846978Y-35736430D01*
X-61864354Y-35560000D01*
X-61846978Y-35383570D01*
X-61795514Y-35213917D01*
X-61711945Y-35057569D01*
X-61599475Y-34920525D01*
X-61462431Y-34808055D01*
X-61306083Y-34724486D01*
X-61136430Y-34673022D01*
X-61004211Y-34660000D01*
X-60915789Y-34660000D01*
X-60783570Y-34673022D01*
X-60783570Y-34673022D01*
G37*
G36*
X-76023570Y-34673022D02*
G01*
X-75853917Y-34724486D01*
X-75697569Y-34808055D01*
X-75560525Y-34920525D01*
X-75448055Y-35057569D01*
X-75364486Y-35213917D01*
X-75313022Y-35383570D01*
X-75295646Y-35560000D01*
X-75313022Y-35736430D01*
X-75364486Y-35906083D01*
X-75448055Y-36062431D01*
X-75560525Y-36199475D01*
X-75697569Y-36311945D01*
X-75853917Y-36395514D01*
X-76023570Y-36446978D01*
X-76155789Y-36460000D01*
X-76244211Y-36460000D01*
X-76376430Y-36446978D01*
X-76546083Y-36395514D01*
X-76702431Y-36311945D01*
X-76839475Y-36199475D01*
X-76951945Y-36062431D01*
X-77035514Y-35906083D01*
X-77086978Y-35736430D01*
X-77104354Y-35560000D01*
X-77086978Y-35383570D01*
X-77035514Y-35213917D01*
X-76951945Y-35057569D01*
X-76839475Y-34920525D01*
X-76702431Y-34808055D01*
X-76546083Y-34724486D01*
X-76376430Y-34673022D01*
X-76244211Y-34660000D01*
X-76155789Y-34660000D01*
X-76023570Y-34673022D01*
X-76023570Y-34673022D01*
G37*
G36*
X-13722066Y-34742664D02*
G01*
X-13567375Y-34806739D01*
X-13555805Y-34814470D01*
X-13428156Y-34899762D01*
X-13309762Y-35018156D01*
X-13283428Y-35057568D01*
X-13216739Y-35157375D01*
X-13152664Y-35312066D01*
X-13120000Y-35476281D01*
X-13120000Y-35643719D01*
X-13152664Y-35807934D01*
X-13216739Y-35962625D01*
X-13216740Y-35962626D01*
X-13309762Y-36101844D01*
X-13428156Y-36220238D01*
X-13472567Y-36249912D01*
X-13567375Y-36313261D01*
X-13722066Y-36377336D01*
X-13886281Y-36410000D01*
X-14053719Y-36410000D01*
X-14217934Y-36377336D01*
X-14372625Y-36313261D01*
X-14467433Y-36249912D01*
X-14511844Y-36220238D01*
X-14630238Y-36101844D01*
X-14723260Y-35962626D01*
X-14723261Y-35962625D01*
X-14787336Y-35807934D01*
X-14820000Y-35643719D01*
X-14820000Y-35476281D01*
X-14787336Y-35312066D01*
X-14723261Y-35157375D01*
X-14656572Y-35057568D01*
X-14630238Y-35018156D01*
X-14511844Y-34899762D01*
X-14384195Y-34814470D01*
X-14372625Y-34806739D01*
X-14217934Y-34742664D01*
X-14053719Y-34710000D01*
X-13886281Y-34710000D01*
X-13722066Y-34742664D01*
X-13722066Y-34742664D01*
G37*
G36*
X-82993393Y-33320091D02*
G01*
X-82946049Y-33334453D01*
X-82902412Y-33357778D01*
X-82864166Y-33389166D01*
X-82832778Y-33427412D01*
X-82809453Y-33471049D01*
X-82795091Y-33518393D01*
X-82790000Y-33570086D01*
X-82790000Y-35009914D01*
X-82795091Y-35061607D01*
X-82809453Y-35108951D01*
X-82832778Y-35152588D01*
X-82864166Y-35190834D01*
X-82902412Y-35222222D01*
X-82946049Y-35245547D01*
X-82993393Y-35259909D01*
X-83045086Y-35265000D01*
X-84159914Y-35265000D01*
X-84211607Y-35259909D01*
X-84258951Y-35245547D01*
X-84302588Y-35222222D01*
X-84340834Y-35190834D01*
X-84372222Y-35152588D01*
X-84395547Y-35108951D01*
X-84409909Y-35061607D01*
X-84415000Y-35009914D01*
X-84415000Y-33570086D01*
X-84409909Y-33518393D01*
X-84395547Y-33471049D01*
X-84372222Y-33427412D01*
X-84340834Y-33389166D01*
X-84302588Y-33357778D01*
X-84258951Y-33334453D01*
X-84211607Y-33320091D01*
X-84159914Y-33315000D01*
X-83045086Y-33315000D01*
X-82993393Y-33320091D01*
X-82993393Y-33320091D01*
G37*
G36*
X-85968393Y-33320091D02*
G01*
X-85921049Y-33334453D01*
X-85877412Y-33357778D01*
X-85839166Y-33389166D01*
X-85807778Y-33427412D01*
X-85784453Y-33471049D01*
X-85770091Y-33518393D01*
X-85765000Y-33570086D01*
X-85765000Y-35009914D01*
X-85770091Y-35061607D01*
X-85784453Y-35108951D01*
X-85807778Y-35152588D01*
X-85839166Y-35190834D01*
X-85877412Y-35222222D01*
X-85921049Y-35245547D01*
X-85968393Y-35259909D01*
X-86020086Y-35265000D01*
X-87134914Y-35265000D01*
X-87186607Y-35259909D01*
X-87233951Y-35245547D01*
X-87277588Y-35222222D01*
X-87315834Y-35190834D01*
X-87347222Y-35152588D01*
X-87370547Y-35108951D01*
X-87384909Y-35061607D01*
X-87390000Y-35009914D01*
X-87390000Y-33570086D01*
X-87384909Y-33518393D01*
X-87370547Y-33471049D01*
X-87347222Y-33427412D01*
X-87315834Y-33389166D01*
X-87277588Y-33357778D01*
X-87233951Y-33334453D01*
X-87186607Y-33320091D01*
X-87134914Y-33315000D01*
X-86020086Y-33315000D01*
X-85968393Y-33320091D01*
X-85968393Y-33320091D01*
G37*
G36*
X-16262066Y-33472664D02*
G01*
X-16107375Y-33536739D01*
X-16107374Y-33536740D01*
X-15968156Y-33629762D01*
X-15849762Y-33748156D01*
X-15802935Y-33818238D01*
X-15756739Y-33887375D01*
X-15692664Y-34042066D01*
X-15660000Y-34206281D01*
X-15660000Y-34373719D01*
X-15692664Y-34537934D01*
X-15756739Y-34692625D01*
X-15756740Y-34692626D01*
X-15849762Y-34831844D01*
X-15968156Y-34950238D01*
X-16012567Y-34979912D01*
X-16107375Y-35043261D01*
X-16262066Y-35107336D01*
X-16426281Y-35140000D01*
X-16593719Y-35140000D01*
X-16757934Y-35107336D01*
X-16912625Y-35043261D01*
X-17007433Y-34979912D01*
X-17051844Y-34950238D01*
X-17170238Y-34831844D01*
X-17263260Y-34692626D01*
X-17263261Y-34692625D01*
X-17327336Y-34537934D01*
X-17360000Y-34373719D01*
X-17360000Y-34206281D01*
X-17327336Y-34042066D01*
X-17263261Y-33887375D01*
X-17217065Y-33818238D01*
X-17170238Y-33748156D01*
X-17051844Y-33629762D01*
X-16912626Y-33536740D01*
X-16912625Y-33536739D01*
X-16757934Y-33472664D01*
X-16593719Y-33440000D01*
X-16426281Y-33440000D01*
X-16262066Y-33472664D01*
X-16262066Y-33472664D01*
G37*
G36*
X-92945000Y-34695000D02*
G01*
X-93745000Y-34695000D01*
X-93745000Y-31995000D01*
X-92945000Y-31995000D01*
X-92945000Y-34695000D01*
X-92945000Y-34695000D01*
G37*
G36*
X-90405000Y-34695000D02*
G01*
X-91205000Y-34695000D01*
X-91205000Y-31995000D01*
X-90405000Y-31995000D01*
X-90405000Y-34695000D01*
X-90405000Y-34695000D01*
G37*
G36*
X-91675000Y-34695000D02*
G01*
X-92475000Y-34695000D01*
X-92475000Y-31995000D01*
X-91675000Y-31995000D01*
X-91675000Y-34695000D01*
X-91675000Y-34695000D01*
G37*
G36*
X-94215000Y-34695000D02*
G01*
X-95015000Y-34695000D01*
X-95015000Y-31995000D01*
X-94215000Y-31995000D01*
X-94215000Y-34695000D01*
X-94215000Y-34695000D01*
G37*
G36*
X-89135000Y-34695000D02*
G01*
X-89935000Y-34695000D01*
X-89935000Y-31995000D01*
X-89135000Y-31995000D01*
X-89135000Y-34695000D01*
X-89135000Y-34695000D01*
G37*
G36*
X-96755000Y-34695000D02*
G01*
X-97555000Y-34695000D01*
X-97555000Y-31995000D01*
X-96755000Y-31995000D01*
X-96755000Y-34695000D01*
X-96755000Y-34695000D01*
G37*
G36*
X-95485000Y-34695000D02*
G01*
X-96285000Y-34695000D01*
X-96285000Y-31995000D01*
X-95485000Y-31995000D01*
X-95485000Y-34695000D01*
X-95485000Y-34695000D01*
G37*
G36*
X-76023570Y-32133022D02*
G01*
X-75853917Y-32184486D01*
X-75697569Y-32268055D01*
X-75560525Y-32380525D01*
X-75448055Y-32517569D01*
X-75364486Y-32673917D01*
X-75313022Y-32843570D01*
X-75295646Y-33020000D01*
X-75313022Y-33196430D01*
X-75364486Y-33366083D01*
X-75448055Y-33522431D01*
X-75560525Y-33659475D01*
X-75697569Y-33771945D01*
X-75853917Y-33855514D01*
X-76023570Y-33906978D01*
X-76155789Y-33920000D01*
X-76244211Y-33920000D01*
X-76376430Y-33906978D01*
X-76546083Y-33855514D01*
X-76702431Y-33771945D01*
X-76839475Y-33659475D01*
X-76951945Y-33522431D01*
X-77035514Y-33366083D01*
X-77086978Y-33196430D01*
X-77104354Y-33020000D01*
X-77086978Y-32843570D01*
X-77035514Y-32673917D01*
X-76951945Y-32517569D01*
X-76839475Y-32380525D01*
X-76702431Y-32268055D01*
X-76546083Y-32184486D01*
X-76376430Y-32133022D01*
X-76244211Y-32120000D01*
X-76155789Y-32120000D01*
X-76023570Y-32133022D01*
X-76023570Y-32133022D01*
G37*
G36*
X-60783570Y-32133022D02*
G01*
X-60613917Y-32184486D01*
X-60457569Y-32268055D01*
X-60320525Y-32380525D01*
X-60208055Y-32517569D01*
X-60124486Y-32673917D01*
X-60073022Y-32843570D01*
X-60055646Y-33020000D01*
X-60073022Y-33196430D01*
X-60124486Y-33366083D01*
X-60208055Y-33522431D01*
X-60320525Y-33659475D01*
X-60457569Y-33771945D01*
X-60613917Y-33855514D01*
X-60783570Y-33906978D01*
X-60915789Y-33920000D01*
X-61004211Y-33920000D01*
X-61136430Y-33906978D01*
X-61306083Y-33855514D01*
X-61462431Y-33771945D01*
X-61599475Y-33659475D01*
X-61711945Y-33522431D01*
X-61795514Y-33366083D01*
X-61846978Y-33196430D01*
X-61864354Y-33020000D01*
X-61846978Y-32843570D01*
X-61795514Y-32673917D01*
X-61711945Y-32517569D01*
X-61599475Y-32380525D01*
X-61462431Y-32268055D01*
X-61306083Y-32184486D01*
X-61136430Y-32133022D01*
X-61004211Y-32120000D01*
X-60915789Y-32120000D01*
X-60783570Y-32133022D01*
X-60783570Y-32133022D01*
G37*
G36*
X-13722066Y-32202664D02*
G01*
X-13567375Y-32266739D01*
X-13529806Y-32291842D01*
X-13428156Y-32359762D01*
X-13309762Y-32478156D01*
X-13283428Y-32517568D01*
X-13216739Y-32617375D01*
X-13152664Y-32772066D01*
X-13120000Y-32936281D01*
X-13120000Y-33103719D01*
X-13152664Y-33267934D01*
X-13216739Y-33422625D01*
X-13216740Y-33422626D01*
X-13309762Y-33561844D01*
X-13428156Y-33680238D01*
X-13498238Y-33727065D01*
X-13567375Y-33773261D01*
X-13722066Y-33837336D01*
X-13886281Y-33870000D01*
X-14053719Y-33870000D01*
X-14217934Y-33837336D01*
X-14372625Y-33773261D01*
X-14441762Y-33727065D01*
X-14511844Y-33680238D01*
X-14630238Y-33561844D01*
X-14723260Y-33422626D01*
X-14723261Y-33422625D01*
X-14787336Y-33267934D01*
X-14820000Y-33103719D01*
X-14820000Y-32936281D01*
X-14787336Y-32772066D01*
X-14723261Y-32617375D01*
X-14656572Y-32517568D01*
X-14630238Y-32478156D01*
X-14511844Y-32359762D01*
X-14410194Y-32291842D01*
X-14372625Y-32266739D01*
X-14217934Y-32202664D01*
X-14053719Y-32170000D01*
X-13886281Y-32170000D01*
X-13722066Y-32202664D01*
X-13722066Y-32202664D01*
G37*
G36*
X-48162358Y-32203626D02*
G01*
X-48007849Y-32267625D01*
X-47868795Y-32360538D01*
X-47750538Y-32478795D01*
X-47657625Y-32617849D01*
X-47593626Y-32772358D01*
X-47561000Y-32936379D01*
X-47561000Y-33103621D01*
X-47593626Y-33267642D01*
X-47657625Y-33422151D01*
X-47750538Y-33561205D01*
X-47868795Y-33679462D01*
X-48007849Y-33772375D01*
X-48162358Y-33836374D01*
X-48326379Y-33869000D01*
X-48493621Y-33869000D01*
X-48657642Y-33836374D01*
X-48812151Y-33772375D01*
X-48951205Y-33679462D01*
X-49069462Y-33561205D01*
X-49162375Y-33422151D01*
X-49226374Y-33267642D01*
X-49259000Y-33103621D01*
X-49259000Y-32936379D01*
X-49226374Y-32772358D01*
X-49162375Y-32617849D01*
X-49069462Y-32478795D01*
X-48951205Y-32360538D01*
X-48812151Y-32267625D01*
X-48657642Y-32203626D01*
X-48493621Y-32171000D01*
X-48326379Y-32171000D01*
X-48162358Y-32203626D01*
X-48162358Y-32203626D01*
G37*
G36*
X-41662358Y-32203626D02*
G01*
X-41507849Y-32267625D01*
X-41368795Y-32360538D01*
X-41250538Y-32478795D01*
X-41157625Y-32617849D01*
X-41093626Y-32772358D01*
X-41061000Y-32936379D01*
X-41061000Y-33103621D01*
X-41093626Y-33267642D01*
X-41157625Y-33422151D01*
X-41250538Y-33561205D01*
X-41368795Y-33679462D01*
X-41507849Y-33772375D01*
X-41662358Y-33836374D01*
X-41826379Y-33869000D01*
X-41993621Y-33869000D01*
X-42157642Y-33836374D01*
X-42312151Y-33772375D01*
X-42451205Y-33679462D01*
X-42569462Y-33561205D01*
X-42662375Y-33422151D01*
X-42726374Y-33267642D01*
X-42759000Y-33103621D01*
X-42759000Y-32936379D01*
X-42726374Y-32772358D01*
X-42662375Y-32617849D01*
X-42569462Y-32478795D01*
X-42451205Y-32360538D01*
X-42312151Y-32267625D01*
X-42157642Y-32203626D01*
X-41993621Y-32171000D01*
X-41826379Y-32171000D01*
X-41662358Y-32203626D01*
X-41662358Y-32203626D01*
G37*
G36*
X-16262066Y-30932664D02*
G01*
X-16107375Y-30996739D01*
X-16107374Y-30996740D01*
X-15968156Y-31089762D01*
X-15849762Y-31208156D01*
X-15820729Y-31251607D01*
X-15756739Y-31347375D01*
X-15692664Y-31502066D01*
X-15660000Y-31666281D01*
X-15660000Y-31833719D01*
X-15692664Y-31997934D01*
X-15756739Y-32152625D01*
X-15756740Y-32152626D01*
X-15849762Y-32291844D01*
X-15968156Y-32410238D01*
X-16038238Y-32457065D01*
X-16107375Y-32503261D01*
X-16262066Y-32567336D01*
X-16426281Y-32600000D01*
X-16593719Y-32600000D01*
X-16757934Y-32567336D01*
X-16912625Y-32503261D01*
X-16981762Y-32457065D01*
X-17051844Y-32410238D01*
X-17170238Y-32291844D01*
X-17263260Y-32152626D01*
X-17263261Y-32152625D01*
X-17327336Y-31997934D01*
X-17360000Y-31833719D01*
X-17360000Y-31666281D01*
X-17327336Y-31502066D01*
X-17263261Y-31347375D01*
X-17199271Y-31251607D01*
X-17170238Y-31208156D01*
X-17051844Y-31089762D01*
X-16912626Y-30996740D01*
X-16912625Y-30996739D01*
X-16757934Y-30932664D01*
X-16593719Y-30900000D01*
X-16426281Y-30900000D01*
X-16262066Y-30932664D01*
X-16262066Y-30932664D01*
G37*
G36*
X-86098393Y-29510091D02*
G01*
X-86051049Y-29524453D01*
X-86007412Y-29547778D01*
X-85969166Y-29579166D01*
X-85937778Y-29617412D01*
X-85914453Y-29661049D01*
X-85900091Y-29708393D01*
X-85895000Y-29760086D01*
X-85895000Y-31199914D01*
X-85900091Y-31251607D01*
X-85914453Y-31298951D01*
X-85937778Y-31342588D01*
X-85969166Y-31380834D01*
X-86007412Y-31412222D01*
X-86051049Y-31435547D01*
X-86098393Y-31449909D01*
X-86150086Y-31455000D01*
X-87264914Y-31455000D01*
X-87316607Y-31449909D01*
X-87363951Y-31435547D01*
X-87407588Y-31412222D01*
X-87445834Y-31380834D01*
X-87477222Y-31342588D01*
X-87500547Y-31298951D01*
X-87514909Y-31251607D01*
X-87520000Y-31199914D01*
X-87520000Y-29760086D01*
X-87514909Y-29708393D01*
X-87500547Y-29661049D01*
X-87477222Y-29617412D01*
X-87445834Y-29579166D01*
X-87407588Y-29547778D01*
X-87363951Y-29524453D01*
X-87316607Y-29510091D01*
X-87264914Y-29505000D01*
X-86150086Y-29505000D01*
X-86098393Y-29510091D01*
X-86098393Y-29510091D01*
G37*
G36*
X-83123393Y-29510091D02*
G01*
X-83076049Y-29524453D01*
X-83032412Y-29547778D01*
X-82994166Y-29579166D01*
X-82962778Y-29617412D01*
X-82939453Y-29661049D01*
X-82925091Y-29708393D01*
X-82920000Y-29760086D01*
X-82920000Y-31199914D01*
X-82925091Y-31251607D01*
X-82939453Y-31298951D01*
X-82962778Y-31342588D01*
X-82994166Y-31380834D01*
X-83032412Y-31412222D01*
X-83076049Y-31435547D01*
X-83123393Y-31449909D01*
X-83175086Y-31455000D01*
X-84289914Y-31455000D01*
X-84341607Y-31449909D01*
X-84388951Y-31435547D01*
X-84432588Y-31412222D01*
X-84470834Y-31380834D01*
X-84502222Y-31342588D01*
X-84525547Y-31298951D01*
X-84539909Y-31251607D01*
X-84545000Y-31199914D01*
X-84545000Y-29760086D01*
X-84539909Y-29708393D01*
X-84525547Y-29661049D01*
X-84502222Y-29617412D01*
X-84470834Y-29579166D01*
X-84432588Y-29547778D01*
X-84388951Y-29524453D01*
X-84341607Y-29510091D01*
X-84289914Y-29505000D01*
X-83175086Y-29505000D01*
X-83123393Y-29510091D01*
X-83123393Y-29510091D01*
G37*
G36*
X-76023570Y-29593022D02*
G01*
X-75853917Y-29644486D01*
X-75697569Y-29728055D01*
X-75560525Y-29840525D01*
X-75448055Y-29977569D01*
X-75364486Y-30133917D01*
X-75313022Y-30303570D01*
X-75295646Y-30480000D01*
X-75313022Y-30656430D01*
X-75364486Y-30826083D01*
X-75448055Y-30982431D01*
X-75560525Y-31119475D01*
X-75697569Y-31231945D01*
X-75853917Y-31315514D01*
X-76023570Y-31366978D01*
X-76155789Y-31380000D01*
X-76244211Y-31380000D01*
X-76376430Y-31366978D01*
X-76546083Y-31315514D01*
X-76702431Y-31231945D01*
X-76839475Y-31119475D01*
X-76951945Y-30982431D01*
X-77035514Y-30826083D01*
X-77086978Y-30656430D01*
X-77104354Y-30480000D01*
X-77086978Y-30303570D01*
X-77035514Y-30133917D01*
X-76951945Y-29977569D01*
X-76839475Y-29840525D01*
X-76702431Y-29728055D01*
X-76546083Y-29644486D01*
X-76376430Y-29593022D01*
X-76244211Y-29580000D01*
X-76155789Y-29580000D01*
X-76023570Y-29593022D01*
X-76023570Y-29593022D01*
G37*
G36*
X-60783570Y-29593022D02*
G01*
X-60613917Y-29644486D01*
X-60457569Y-29728055D01*
X-60320525Y-29840525D01*
X-60208055Y-29977569D01*
X-60124486Y-30133917D01*
X-60073022Y-30303570D01*
X-60055646Y-30480000D01*
X-60073022Y-30656430D01*
X-60124486Y-30826083D01*
X-60208055Y-30982431D01*
X-60320525Y-31119475D01*
X-60457569Y-31231945D01*
X-60613917Y-31315514D01*
X-60783570Y-31366978D01*
X-60915789Y-31380000D01*
X-61004211Y-31380000D01*
X-61136430Y-31366978D01*
X-61306083Y-31315514D01*
X-61462431Y-31231945D01*
X-61599475Y-31119475D01*
X-61711945Y-30982431D01*
X-61795514Y-30826083D01*
X-61846978Y-30656430D01*
X-61864354Y-30480000D01*
X-61846978Y-30303570D01*
X-61795514Y-30133917D01*
X-61711945Y-29977569D01*
X-61599475Y-29840525D01*
X-61462431Y-29728055D01*
X-61306083Y-29644486D01*
X-61136430Y-29593022D01*
X-61004211Y-29580000D01*
X-60915789Y-29580000D01*
X-60783570Y-29593022D01*
X-60783570Y-29593022D01*
G37*
G36*
X-13722066Y-29662664D02*
G01*
X-13567375Y-29726739D01*
X-13555805Y-29734470D01*
X-13428156Y-29819762D01*
X-13309762Y-29938156D01*
X-13283428Y-29977568D01*
X-13216739Y-30077375D01*
X-13152664Y-30232066D01*
X-13120000Y-30396281D01*
X-13120000Y-30563719D01*
X-13152664Y-30727934D01*
X-13216739Y-30882625D01*
X-13216740Y-30882626D01*
X-13309762Y-31021844D01*
X-13428156Y-31140238D01*
X-13472567Y-31169912D01*
X-13567375Y-31233261D01*
X-13722066Y-31297336D01*
X-13886281Y-31330000D01*
X-14053719Y-31330000D01*
X-14217934Y-31297336D01*
X-14372625Y-31233261D01*
X-14467433Y-31169912D01*
X-14511844Y-31140238D01*
X-14630238Y-31021844D01*
X-14723260Y-30882626D01*
X-14723261Y-30882625D01*
X-14787336Y-30727934D01*
X-14820000Y-30563719D01*
X-14820000Y-30396281D01*
X-14787336Y-30232066D01*
X-14723261Y-30077375D01*
X-14656572Y-29977568D01*
X-14630238Y-29938156D01*
X-14511844Y-29819762D01*
X-14384195Y-29734470D01*
X-14372625Y-29726739D01*
X-14217934Y-29662664D01*
X-14053719Y-29630000D01*
X-13886281Y-29630000D01*
X-13722066Y-29662664D01*
X-13722066Y-29662664D01*
G37*
G36*
X-16262066Y-28392664D02*
G01*
X-16107375Y-28456739D01*
X-16107374Y-28456740D01*
X-15968156Y-28549762D01*
X-15849762Y-28668156D01*
X-15849761Y-28668158D01*
X-15756739Y-28807375D01*
X-15692664Y-28962066D01*
X-15660000Y-29126281D01*
X-15660000Y-29293719D01*
X-15692664Y-29457934D01*
X-15756739Y-29612625D01*
X-15778028Y-29644486D01*
X-15849762Y-29751844D01*
X-15968156Y-29870238D01*
X-16038238Y-29917065D01*
X-16107375Y-29963261D01*
X-16262066Y-30027336D01*
X-16426281Y-30060000D01*
X-16593719Y-30060000D01*
X-16757934Y-30027336D01*
X-16912625Y-29963261D01*
X-16981762Y-29917065D01*
X-17051844Y-29870238D01*
X-17170238Y-29751844D01*
X-17241972Y-29644486D01*
X-17263261Y-29612625D01*
X-17327336Y-29457934D01*
X-17360000Y-29293719D01*
X-17360000Y-29126281D01*
X-17327336Y-28962066D01*
X-17263261Y-28807375D01*
X-17170239Y-28668158D01*
X-17170238Y-28668156D01*
X-17051844Y-28549762D01*
X-16912626Y-28456740D01*
X-16912625Y-28456739D01*
X-16757934Y-28392664D01*
X-16593719Y-28360000D01*
X-16426281Y-28360000D01*
X-16262066Y-28392664D01*
X-16262066Y-28392664D01*
G37*
G36*
X-7288347Y-26272665D02*
G01*
X-7124128Y-26305330D01*
X-6814748Y-26433479D01*
X-6536313Y-26619523D01*
X-6299523Y-26856313D01*
X-6113479Y-27134748D01*
X-5985330Y-27444128D01*
X-5985330Y-27444130D01*
X-5920982Y-27767625D01*
X-5920000Y-27772565D01*
X-5920000Y-28107435D01*
X-5985330Y-28435872D01*
X-6113479Y-28745252D01*
X-6299523Y-29023687D01*
X-6536313Y-29260477D01*
X-6814748Y-29446521D01*
X-7124128Y-29574670D01*
X-7288346Y-29607335D01*
X-7452563Y-29640000D01*
X-7787437Y-29640000D01*
X-7951654Y-29607335D01*
X-8115872Y-29574670D01*
X-8425252Y-29446521D01*
X-8703687Y-29260477D01*
X-8940477Y-29023687D01*
X-9126521Y-28745252D01*
X-9254670Y-28435872D01*
X-9320000Y-28107435D01*
X-9320000Y-27772565D01*
X-9319017Y-27767625D01*
X-9254670Y-27444130D01*
X-9254670Y-27444128D01*
X-9126521Y-27134748D01*
X-8940477Y-26856313D01*
X-8703687Y-26619523D01*
X-8425252Y-26433479D01*
X-8115872Y-26305330D01*
X-7951653Y-26272665D01*
X-7787437Y-26240000D01*
X-7452563Y-26240000D01*
X-7288347Y-26272665D01*
X-7288347Y-26272665D01*
G37*
G36*
X-47561000Y-29369000D02*
G01*
X-49259000Y-29369000D01*
X-49259000Y-27671000D01*
X-47561000Y-27671000D01*
X-47561000Y-29369000D01*
X-47561000Y-29369000D01*
G37*
G36*
X-41662358Y-27703626D02*
G01*
X-41507849Y-27767625D01*
X-41368795Y-27860538D01*
X-41250538Y-27978795D01*
X-41157625Y-28117849D01*
X-41093626Y-28272358D01*
X-41061000Y-28436379D01*
X-41061000Y-28603621D01*
X-41093626Y-28767642D01*
X-41157625Y-28922151D01*
X-41250538Y-29061205D01*
X-41368795Y-29179462D01*
X-41507849Y-29272375D01*
X-41662358Y-29336374D01*
X-41826379Y-29369000D01*
X-41993621Y-29369000D01*
X-42157642Y-29336374D01*
X-42312151Y-29272375D01*
X-42451205Y-29179462D01*
X-42569462Y-29061205D01*
X-42662375Y-28922151D01*
X-42726374Y-28767642D01*
X-42759000Y-28603621D01*
X-42759000Y-28436379D01*
X-42726374Y-28272358D01*
X-42662375Y-28117849D01*
X-42569462Y-27978795D01*
X-42451205Y-27860538D01*
X-42312151Y-27767625D01*
X-42157642Y-27703626D01*
X-41993621Y-27671000D01*
X-41826379Y-27671000D01*
X-41662358Y-27703626D01*
X-41662358Y-27703626D01*
G37*
G36*
X-76023570Y-27053022D02*
G01*
X-75853917Y-27104486D01*
X-75697569Y-27188055D01*
X-75560525Y-27300525D01*
X-75448055Y-27437569D01*
X-75364486Y-27593917D01*
X-75313022Y-27763570D01*
X-75295646Y-27940000D01*
X-75313022Y-28116430D01*
X-75364486Y-28286083D01*
X-75448055Y-28442431D01*
X-75560525Y-28579475D01*
X-75697569Y-28691945D01*
X-75853917Y-28775514D01*
X-76023570Y-28826978D01*
X-76155789Y-28840000D01*
X-76244211Y-28840000D01*
X-76376430Y-28826978D01*
X-76546083Y-28775514D01*
X-76702431Y-28691945D01*
X-76839475Y-28579475D01*
X-76951945Y-28442431D01*
X-77035514Y-28286083D01*
X-77086978Y-28116430D01*
X-77104354Y-27940000D01*
X-77086978Y-27763570D01*
X-77035514Y-27593917D01*
X-76951945Y-27437569D01*
X-76839475Y-27300525D01*
X-76702431Y-27188055D01*
X-76546083Y-27104486D01*
X-76376430Y-27053022D01*
X-76244211Y-27040000D01*
X-76155789Y-27040000D01*
X-76023570Y-27053022D01*
X-76023570Y-27053022D01*
G37*
G36*
X-60783570Y-27053022D02*
G01*
X-60613917Y-27104486D01*
X-60457569Y-27188055D01*
X-60320525Y-27300525D01*
X-60208055Y-27437569D01*
X-60124486Y-27593917D01*
X-60073022Y-27763570D01*
X-60055646Y-27940000D01*
X-60073022Y-28116430D01*
X-60124486Y-28286083D01*
X-60208055Y-28442431D01*
X-60320525Y-28579475D01*
X-60457569Y-28691945D01*
X-60613917Y-28775514D01*
X-60783570Y-28826978D01*
X-60915789Y-28840000D01*
X-61004211Y-28840000D01*
X-61136430Y-28826978D01*
X-61306083Y-28775514D01*
X-61462431Y-28691945D01*
X-61599475Y-28579475D01*
X-61711945Y-28442431D01*
X-61795514Y-28286083D01*
X-61846978Y-28116430D01*
X-61864354Y-27940000D01*
X-61846978Y-27763570D01*
X-61795514Y-27593917D01*
X-61711945Y-27437569D01*
X-61599475Y-27300525D01*
X-61462431Y-27188055D01*
X-61306083Y-27104486D01*
X-61136430Y-27053022D01*
X-61004211Y-27040000D01*
X-60915789Y-27040000D01*
X-60783570Y-27053022D01*
X-60783570Y-27053022D01*
G37*
G36*
X-96755000Y-27695000D02*
G01*
X-97555000Y-27695000D01*
X-97555000Y-24995000D01*
X-96755000Y-24995000D01*
X-96755000Y-27695000D01*
X-96755000Y-27695000D01*
G37*
G36*
X-91675000Y-27695000D02*
G01*
X-92475000Y-27695000D01*
X-92475000Y-24995000D01*
X-91675000Y-24995000D01*
X-91675000Y-27695000D01*
X-91675000Y-27695000D01*
G37*
G36*
X-89135000Y-27695000D02*
G01*
X-89935000Y-27695000D01*
X-89935000Y-24995000D01*
X-89135000Y-24995000D01*
X-89135000Y-27695000D01*
X-89135000Y-27695000D01*
G37*
G36*
X-95485000Y-27695000D02*
G01*
X-96285000Y-27695000D01*
X-96285000Y-24995000D01*
X-95485000Y-24995000D01*
X-95485000Y-27695000D01*
X-95485000Y-27695000D01*
G37*
G36*
X-94215000Y-27695000D02*
G01*
X-95015000Y-27695000D01*
X-95015000Y-24995000D01*
X-94215000Y-24995000D01*
X-94215000Y-27695000D01*
X-94215000Y-27695000D01*
G37*
G36*
X-90405000Y-27695000D02*
G01*
X-91205000Y-27695000D01*
X-91205000Y-24995000D01*
X-90405000Y-24995000D01*
X-90405000Y-27695000D01*
X-90405000Y-27695000D01*
G37*
G36*
X-92945000Y-27695000D02*
G01*
X-93745000Y-27695000D01*
X-93745000Y-24995000D01*
X-92945000Y-24995000D01*
X-92945000Y-27695000D01*
X-92945000Y-27695000D01*
G37*
G36*
X-60783570Y-24513022D02*
G01*
X-60613917Y-24564486D01*
X-60457569Y-24648055D01*
X-60320525Y-24760525D01*
X-60208055Y-24897569D01*
X-60124486Y-25053917D01*
X-60073022Y-25223570D01*
X-60055646Y-25400000D01*
X-60073022Y-25576430D01*
X-60124486Y-25746083D01*
X-60208055Y-25902431D01*
X-60320525Y-26039475D01*
X-60457569Y-26151945D01*
X-60613917Y-26235514D01*
X-60783570Y-26286978D01*
X-60915789Y-26300000D01*
X-61004211Y-26300000D01*
X-61136430Y-26286978D01*
X-61306083Y-26235514D01*
X-61462431Y-26151945D01*
X-61599475Y-26039475D01*
X-61711945Y-25902431D01*
X-61795514Y-25746083D01*
X-61846978Y-25576430D01*
X-61864354Y-25400000D01*
X-61846978Y-25223570D01*
X-61795514Y-25053917D01*
X-61711945Y-24897569D01*
X-61599475Y-24760525D01*
X-61462431Y-24648055D01*
X-61306083Y-24564486D01*
X-61136430Y-24513022D01*
X-61004211Y-24500000D01*
X-60915789Y-24500000D01*
X-60783570Y-24513022D01*
X-60783570Y-24513022D01*
G37*
G36*
X-76023570Y-24513022D02*
G01*
X-75853917Y-24564486D01*
X-75697569Y-24648055D01*
X-75560525Y-24760525D01*
X-75448055Y-24897569D01*
X-75364486Y-25053917D01*
X-75313022Y-25223570D01*
X-75295646Y-25400000D01*
X-75313022Y-25576430D01*
X-75364486Y-25746083D01*
X-75448055Y-25902431D01*
X-75560525Y-26039475D01*
X-75697569Y-26151945D01*
X-75853917Y-26235514D01*
X-76023570Y-26286978D01*
X-76155789Y-26300000D01*
X-76244211Y-26300000D01*
X-76376430Y-26286978D01*
X-76546083Y-26235514D01*
X-76702431Y-26151945D01*
X-76839475Y-26039475D01*
X-76951945Y-25902431D01*
X-77035514Y-25746083D01*
X-77086978Y-25576430D01*
X-77104354Y-25400000D01*
X-77086978Y-25223570D01*
X-77035514Y-25053917D01*
X-76951945Y-24897569D01*
X-76839475Y-24760525D01*
X-76702431Y-24648055D01*
X-76546083Y-24564486D01*
X-76376430Y-24513022D01*
X-76244211Y-24500000D01*
X-76155789Y-24500000D01*
X-76023570Y-24513022D01*
X-76023570Y-24513022D01*
G37*
G36*
X-7339007Y-19912588D02*
G01*
X-7124128Y-19955330D01*
X-6814748Y-20083479D01*
X-6536313Y-20269523D01*
X-6299523Y-20506313D01*
X-6113479Y-20784748D01*
X-5985330Y-21094128D01*
X-5980915Y-21116324D01*
X-5920000Y-21422563D01*
X-5920000Y-21757437D01*
X-5952665Y-21921654D01*
X-5985330Y-22085872D01*
X-6113479Y-22395252D01*
X-6299523Y-22673687D01*
X-6536313Y-22910477D01*
X-6814748Y-23096521D01*
X-7124128Y-23224670D01*
X-7288346Y-23257335D01*
X-7452563Y-23290000D01*
X-7787437Y-23290000D01*
X-7951654Y-23257335D01*
X-8115872Y-23224670D01*
X-8425252Y-23096521D01*
X-8703687Y-22910477D01*
X-8940477Y-22673687D01*
X-9126521Y-22395252D01*
X-9254670Y-22085872D01*
X-9287335Y-21921654D01*
X-9320000Y-21757437D01*
X-9320000Y-21422563D01*
X-9259085Y-21116324D01*
X-9254670Y-21094128D01*
X-9126521Y-20784748D01*
X-8940477Y-20506313D01*
X-8703687Y-20269523D01*
X-8425252Y-20083479D01*
X-8115872Y-19955330D01*
X-7900993Y-19912588D01*
X-7787437Y-19890000D01*
X-7452563Y-19890000D01*
X-7339007Y-19912588D01*
X-7339007Y-19912588D01*
G37*
G36*
X-46794910Y-20609215D02*
G01*
X-46698311Y-20628429D01*
X-46516322Y-20703811D01*
X-46352537Y-20813249D01*
X-46213249Y-20952537D01*
X-46103811Y-21116322D01*
X-46028429Y-21298311D01*
X-45990000Y-21491509D01*
X-45990000Y-21688491D01*
X-46028429Y-21881689D01*
X-46103811Y-22063678D01*
X-46213249Y-22227463D01*
X-46352537Y-22366751D01*
X-46516322Y-22476189D01*
X-46698311Y-22551571D01*
X-46794910Y-22570785D01*
X-46891507Y-22590000D01*
X-47088493Y-22590000D01*
X-47185090Y-22570785D01*
X-47281689Y-22551571D01*
X-47463678Y-22476189D01*
X-47627463Y-22366751D01*
X-47766751Y-22227463D01*
X-47876189Y-22063678D01*
X-47951571Y-21881689D01*
X-47990000Y-21688491D01*
X-47990000Y-21491509D01*
X-47951571Y-21298311D01*
X-47876189Y-21116322D01*
X-47766751Y-20952537D01*
X-47627463Y-20813249D01*
X-47463678Y-20703811D01*
X-47281689Y-20628429D01*
X-47185090Y-20609215D01*
X-47088493Y-20590000D01*
X-46891507Y-20590000D01*
X-46794910Y-20609215D01*
X-46794910Y-20609215D01*
G37*
G36*
X-43450000Y-22590000D02*
G01*
X-45450000Y-22590000D01*
X-45450000Y-20590000D01*
X-43450000Y-20590000D01*
X-43450000Y-22590000D01*
X-43450000Y-22590000D01*
G37*
G36*
X-13120000Y-21170000D02*
G01*
X-14820000Y-21170000D01*
X-14820000Y-19470000D01*
X-13120000Y-19470000D01*
X-13120000Y-21170000D01*
X-13120000Y-21170000D01*
G37*
G36*
X-24878393Y-18080091D02*
G01*
X-24831049Y-18094453D01*
X-24787412Y-18117778D01*
X-24749166Y-18149166D01*
X-24717778Y-18187412D01*
X-24694453Y-18231049D01*
X-24680091Y-18278393D01*
X-24675000Y-18330086D01*
X-24675000Y-19769914D01*
X-24680091Y-19821607D01*
X-24694453Y-19868951D01*
X-24717778Y-19912588D01*
X-24749166Y-19950834D01*
X-24787412Y-19982222D01*
X-24831049Y-20005547D01*
X-24878393Y-20019909D01*
X-24930086Y-20025000D01*
X-26044914Y-20025000D01*
X-26096607Y-20019909D01*
X-26143951Y-20005547D01*
X-26187588Y-19982222D01*
X-26225834Y-19950834D01*
X-26257222Y-19912588D01*
X-26280547Y-19868951D01*
X-26294909Y-19821607D01*
X-26300000Y-19769914D01*
X-26300000Y-18330086D01*
X-26294909Y-18278393D01*
X-26280547Y-18231049D01*
X-26257222Y-18187412D01*
X-26225834Y-18149166D01*
X-26187588Y-18117778D01*
X-26143951Y-18094453D01*
X-26096607Y-18080091D01*
X-26044914Y-18075000D01*
X-24930086Y-18075000D01*
X-24878393Y-18080091D01*
X-24878393Y-18080091D01*
G37*
G36*
X-21903393Y-18080091D02*
G01*
X-21856049Y-18094453D01*
X-21812412Y-18117778D01*
X-21774166Y-18149166D01*
X-21742778Y-18187412D01*
X-21719453Y-18231049D01*
X-21705091Y-18278393D01*
X-21700000Y-18330086D01*
X-21700000Y-19769914D01*
X-21705091Y-19821607D01*
X-21719453Y-19868951D01*
X-21742778Y-19912588D01*
X-21774166Y-19950834D01*
X-21812412Y-19982222D01*
X-21856049Y-20005547D01*
X-21903393Y-20019909D01*
X-21955086Y-20025000D01*
X-23069914Y-20025000D01*
X-23121607Y-20019909D01*
X-23168951Y-20005547D01*
X-23212588Y-19982222D01*
X-23250834Y-19950834D01*
X-23282222Y-19912588D01*
X-23305547Y-19868951D01*
X-23319909Y-19821607D01*
X-23325000Y-19769914D01*
X-23325000Y-18330086D01*
X-23319909Y-18278393D01*
X-23305547Y-18231049D01*
X-23282222Y-18187412D01*
X-23250834Y-18149166D01*
X-23212588Y-18117778D01*
X-23168951Y-18094453D01*
X-23121607Y-18080091D01*
X-23069914Y-18075000D01*
X-21955086Y-18075000D01*
X-21903393Y-18080091D01*
X-21903393Y-18080091D01*
G37*
G36*
X-16262066Y-18232664D02*
G01*
X-16107375Y-18296739D01*
X-16107374Y-18296740D01*
X-15968156Y-18389762D01*
X-15849762Y-18508156D01*
X-15802935Y-18578238D01*
X-15756739Y-18647375D01*
X-15692664Y-18802066D01*
X-15660000Y-18966281D01*
X-15660000Y-19133719D01*
X-15692664Y-19297934D01*
X-15756739Y-19452625D01*
X-15756740Y-19452626D01*
X-15849762Y-19591844D01*
X-15968156Y-19710238D01*
X-16012567Y-19739912D01*
X-16107375Y-19803261D01*
X-16262066Y-19867336D01*
X-16426281Y-19900000D01*
X-16593719Y-19900000D01*
X-16757934Y-19867336D01*
X-16912625Y-19803261D01*
X-17007433Y-19739912D01*
X-17051844Y-19710238D01*
X-17170238Y-19591844D01*
X-17263260Y-19452626D01*
X-17263261Y-19452625D01*
X-17327336Y-19297934D01*
X-17360000Y-19133719D01*
X-17360000Y-18966281D01*
X-17327336Y-18802066D01*
X-17263261Y-18647375D01*
X-17217065Y-18578238D01*
X-17170238Y-18508156D01*
X-17051844Y-18389762D01*
X-16912626Y-18296740D01*
X-16912625Y-18296739D01*
X-16757934Y-18232664D01*
X-16593719Y-18200000D01*
X-16426281Y-18200000D01*
X-16262066Y-18232664D01*
X-16262066Y-18232664D01*
G37*
G36*
X-13722066Y-16962664D02*
G01*
X-13567375Y-17026739D01*
X-13567374Y-17026740D01*
X-13428156Y-17119762D01*
X-13309762Y-17238156D01*
X-13262935Y-17308238D01*
X-13216739Y-17377375D01*
X-13152664Y-17532066D01*
X-13120000Y-17696281D01*
X-13120000Y-17863719D01*
X-13152664Y-18027934D01*
X-13216739Y-18182625D01*
X-13216740Y-18182626D01*
X-13309762Y-18321844D01*
X-13428156Y-18440238D01*
X-13498238Y-18487065D01*
X-13567375Y-18533261D01*
X-13722066Y-18597336D01*
X-13886281Y-18630000D01*
X-14053719Y-18630000D01*
X-14217934Y-18597336D01*
X-14372625Y-18533261D01*
X-14441762Y-18487065D01*
X-14511844Y-18440238D01*
X-14630238Y-18321844D01*
X-14723260Y-18182626D01*
X-14723261Y-18182625D01*
X-14787336Y-18027934D01*
X-14820000Y-17863719D01*
X-14820000Y-17696281D01*
X-14787336Y-17532066D01*
X-14723261Y-17377375D01*
X-14677065Y-17308238D01*
X-14630238Y-17238156D01*
X-14511844Y-17119762D01*
X-14372626Y-17026740D01*
X-14372625Y-17026739D01*
X-14217934Y-16962664D01*
X-14053719Y-16930000D01*
X-13886281Y-16930000D01*
X-13722066Y-16962664D01*
X-13722066Y-16962664D01*
G37*
G36*
X-93751953Y-15127934D02*
G01*
X-93571635Y-15163801D01*
X-93316851Y-15269336D01*
X-93235463Y-15323718D01*
X-93087553Y-15422548D01*
X-92892548Y-15617553D01*
X-92854419Y-15674617D01*
X-92782772Y-15781844D01*
X-92739335Y-15846853D01*
X-92738130Y-15849762D01*
X-92633801Y-16101635D01*
X-92580000Y-16372112D01*
X-92580000Y-16647888D01*
X-92633801Y-16918365D01*
X-92689089Y-17051842D01*
X-92738130Y-17170239D01*
X-92739336Y-17173149D01*
X-92782774Y-17238158D01*
X-92875795Y-17377375D01*
X-92892549Y-17402448D01*
X-93087552Y-17597451D01*
X-93316851Y-17750664D01*
X-93571635Y-17856199D01*
X-93751953Y-17892066D01*
X-93842111Y-17910000D01*
X-94117889Y-17910000D01*
X-94208047Y-17892066D01*
X-94388365Y-17856199D01*
X-94643149Y-17750664D01*
X-94872448Y-17597451D01*
X-95067451Y-17402448D01*
X-95084204Y-17377375D01*
X-95177226Y-17238158D01*
X-95220664Y-17173149D01*
X-95221869Y-17170239D01*
X-95270911Y-17051842D01*
X-95326199Y-16918365D01*
X-95380000Y-16647888D01*
X-95380000Y-16372112D01*
X-95326199Y-16101635D01*
X-95221870Y-15849762D01*
X-95220665Y-15846853D01*
X-95177227Y-15781844D01*
X-95105581Y-15674617D01*
X-95067452Y-15617553D01*
X-94872447Y-15422548D01*
X-94724537Y-15323718D01*
X-94643149Y-15269336D01*
X-94388365Y-15163801D01*
X-94208047Y-15127934D01*
X-94117889Y-15110000D01*
X-93842111Y-15110000D01*
X-93751953Y-15127934D01*
X-93751953Y-15127934D01*
G37*
G36*
X-16262066Y-15692664D02*
G01*
X-16107375Y-15756739D01*
X-16107374Y-15756740D01*
X-15968156Y-15849762D01*
X-15849762Y-15968156D01*
X-15820729Y-16011607D01*
X-15756739Y-16107375D01*
X-15692664Y-16262066D01*
X-15660000Y-16426281D01*
X-15660000Y-16593719D01*
X-15692664Y-16757934D01*
X-15756739Y-16912625D01*
X-15768349Y-16930000D01*
X-15849762Y-17051844D01*
X-15968156Y-17170238D01*
X-15972510Y-17173147D01*
X-16107375Y-17263261D01*
X-16262066Y-17327336D01*
X-16426281Y-17360000D01*
X-16593719Y-17360000D01*
X-16757934Y-17327336D01*
X-16912625Y-17263261D01*
X-17047490Y-17173147D01*
X-17051844Y-17170238D01*
X-17170238Y-17051844D01*
X-17251651Y-16930000D01*
X-17263261Y-16912625D01*
X-17327336Y-16757934D01*
X-17360000Y-16593719D01*
X-17360000Y-16426281D01*
X-17327336Y-16262066D01*
X-17263261Y-16107375D01*
X-17199271Y-16011607D01*
X-17170238Y-15968156D01*
X-17051844Y-15849762D01*
X-16912626Y-15756740D01*
X-16912625Y-15756739D01*
X-16757934Y-15692664D01*
X-16593719Y-15660000D01*
X-16426281Y-15660000D01*
X-16262066Y-15692664D01*
X-16262066Y-15692664D01*
G37*
G36*
X-50509316Y-13778630D02*
G01*
X-50365383Y-13807260D01*
X-50206540Y-13873055D01*
X-50094222Y-13919579D01*
X-49850182Y-14082641D01*
X-49642641Y-14290182D01*
X-49479579Y-14534222D01*
X-49460716Y-14579762D01*
X-49367260Y-14805383D01*
X-49310000Y-15093248D01*
X-49310000Y-15386752D01*
X-49367260Y-15674617D01*
X-49433055Y-15833460D01*
X-49479579Y-15945778D01*
X-49642641Y-16189818D01*
X-49850182Y-16397359D01*
X-50094222Y-16560421D01*
X-50174611Y-16593719D01*
X-50365383Y-16672740D01*
X-50509315Y-16701370D01*
X-50653246Y-16730000D01*
X-50946754Y-16730000D01*
X-51090685Y-16701370D01*
X-51234617Y-16672740D01*
X-51425389Y-16593719D01*
X-51505778Y-16560421D01*
X-51749818Y-16397359D01*
X-51957359Y-16189818D01*
X-52120421Y-15945778D01*
X-52166945Y-15833460D01*
X-52232740Y-15674617D01*
X-52290000Y-15386752D01*
X-52290000Y-15093248D01*
X-52232740Y-14805383D01*
X-52139284Y-14579762D01*
X-52120421Y-14534222D01*
X-51957359Y-14290182D01*
X-51749818Y-14082641D01*
X-51505778Y-13919579D01*
X-51393460Y-13873055D01*
X-51234617Y-13807260D01*
X-51090684Y-13778630D01*
X-50946754Y-13750000D01*
X-50653246Y-13750000D01*
X-50509316Y-13778630D01*
X-50509316Y-13778630D01*
G37*
G36*
X-60429316Y-13778630D02*
G01*
X-60285383Y-13807260D01*
X-60126540Y-13873055D01*
X-60014222Y-13919579D01*
X-59770182Y-14082641D01*
X-59562641Y-14290182D01*
X-59399579Y-14534222D01*
X-59380716Y-14579762D01*
X-59287260Y-14805383D01*
X-59230000Y-15093248D01*
X-59230000Y-15386752D01*
X-59287260Y-15674617D01*
X-59353055Y-15833460D01*
X-59399579Y-15945778D01*
X-59562641Y-16189818D01*
X-59770182Y-16397359D01*
X-60014222Y-16560421D01*
X-60094611Y-16593719D01*
X-60285383Y-16672740D01*
X-60429315Y-16701370D01*
X-60573246Y-16730000D01*
X-60866754Y-16730000D01*
X-61010685Y-16701370D01*
X-61154617Y-16672740D01*
X-61345389Y-16593719D01*
X-61425778Y-16560421D01*
X-61669818Y-16397359D01*
X-61877359Y-16189818D01*
X-62040421Y-15945778D01*
X-62086945Y-15833460D01*
X-62152740Y-15674617D01*
X-62210000Y-15386752D01*
X-62210000Y-15093248D01*
X-62152740Y-14805383D01*
X-62059284Y-14579762D01*
X-62040421Y-14534222D01*
X-61877359Y-14290182D01*
X-61669818Y-14082641D01*
X-61425778Y-13919579D01*
X-61313460Y-13873055D01*
X-61154617Y-13807260D01*
X-61010684Y-13778630D01*
X-60866754Y-13750000D01*
X-60573246Y-13750000D01*
X-60429316Y-13778630D01*
X-60429316Y-13778630D01*
G37*
G36*
X-71290000Y-16340000D02*
G01*
X-73490000Y-16340000D01*
X-73490000Y-14140000D01*
X-71290000Y-14140000D01*
X-71290000Y-16340000D01*
X-71290000Y-16340000D01*
G37*
G36*
X-21903393Y-14270091D02*
G01*
X-21856049Y-14284453D01*
X-21812412Y-14307778D01*
X-21774166Y-14339166D01*
X-21742778Y-14377412D01*
X-21719453Y-14421049D01*
X-21705091Y-14468393D01*
X-21700000Y-14520086D01*
X-21700000Y-15959914D01*
X-21705091Y-16011607D01*
X-21719453Y-16058951D01*
X-21742778Y-16102588D01*
X-21774166Y-16140834D01*
X-21812412Y-16172222D01*
X-21856049Y-16195547D01*
X-21903393Y-16209909D01*
X-21955086Y-16215000D01*
X-23069914Y-16215000D01*
X-23121607Y-16209909D01*
X-23168951Y-16195547D01*
X-23212588Y-16172222D01*
X-23250834Y-16140834D01*
X-23282222Y-16102588D01*
X-23305547Y-16058951D01*
X-23319909Y-16011607D01*
X-23325000Y-15959914D01*
X-23325000Y-14520086D01*
X-23319909Y-14468393D01*
X-23305547Y-14421049D01*
X-23282222Y-14377412D01*
X-23250834Y-14339166D01*
X-23212588Y-14307778D01*
X-23168951Y-14284453D01*
X-23121607Y-14270091D01*
X-23069914Y-14265000D01*
X-21955086Y-14265000D01*
X-21903393Y-14270091D01*
X-21903393Y-14270091D01*
G37*
G36*
X-24878393Y-14270091D02*
G01*
X-24831049Y-14284453D01*
X-24787412Y-14307778D01*
X-24749166Y-14339166D01*
X-24717778Y-14377412D01*
X-24694453Y-14421049D01*
X-24680091Y-14468393D01*
X-24675000Y-14520086D01*
X-24675000Y-15959914D01*
X-24680091Y-16011607D01*
X-24694453Y-16058951D01*
X-24717778Y-16102588D01*
X-24749166Y-16140834D01*
X-24787412Y-16172222D01*
X-24831049Y-16195547D01*
X-24878393Y-16209909D01*
X-24930086Y-16215000D01*
X-26044914Y-16215000D01*
X-26096607Y-16209909D01*
X-26143951Y-16195547D01*
X-26187588Y-16172222D01*
X-26225834Y-16140834D01*
X-26257222Y-16102588D01*
X-26280547Y-16058951D01*
X-26294909Y-16011607D01*
X-26300000Y-15959914D01*
X-26300000Y-14520086D01*
X-26294909Y-14468393D01*
X-26280547Y-14421049D01*
X-26257222Y-14377412D01*
X-26225834Y-14339166D01*
X-26187588Y-14307778D01*
X-26143951Y-14284453D01*
X-26096607Y-14270091D01*
X-26044914Y-14265000D01*
X-24930086Y-14265000D01*
X-24878393Y-14270091D01*
X-24878393Y-14270091D01*
G37*
G36*
X-13722066Y-14422664D02*
G01*
X-13567375Y-14486739D01*
X-13567374Y-14486740D01*
X-13428156Y-14579762D01*
X-13309762Y-14698156D01*
X-13262935Y-14768238D01*
X-13216739Y-14837375D01*
X-13152664Y-14992066D01*
X-13120000Y-15156281D01*
X-13120000Y-15323719D01*
X-13152664Y-15487934D01*
X-13216739Y-15642625D01*
X-13250174Y-15692664D01*
X-13309762Y-15781844D01*
X-13428156Y-15900238D01*
X-13472567Y-15929912D01*
X-13567375Y-15993261D01*
X-13722066Y-16057336D01*
X-13886281Y-16090000D01*
X-14053719Y-16090000D01*
X-14217934Y-16057336D01*
X-14372625Y-15993261D01*
X-14467433Y-15929912D01*
X-14511844Y-15900238D01*
X-14630238Y-15781844D01*
X-14689826Y-15692664D01*
X-14723261Y-15642625D01*
X-14787336Y-15487934D01*
X-14820000Y-15323719D01*
X-14820000Y-15156281D01*
X-14787336Y-14992066D01*
X-14723261Y-14837375D01*
X-14677065Y-14768238D01*
X-14630238Y-14698156D01*
X-14511844Y-14579762D01*
X-14372626Y-14486740D01*
X-14372625Y-14486739D01*
X-14217934Y-14422664D01*
X-14053719Y-14390000D01*
X-13886281Y-14390000D01*
X-13722066Y-14422664D01*
X-13722066Y-14422664D01*
G37*
G36*
X-16262066Y-13152664D02*
G01*
X-16107375Y-13216739D01*
X-16107374Y-13216740D01*
X-15968156Y-13309762D01*
X-15849762Y-13428156D01*
X-15802935Y-13498238D01*
X-15756739Y-13567375D01*
X-15692664Y-13722066D01*
X-15660000Y-13886281D01*
X-15660000Y-14053719D01*
X-15692664Y-14217934D01*
X-15756739Y-14372625D01*
X-15756740Y-14372626D01*
X-15849762Y-14511844D01*
X-15968156Y-14630238D01*
X-16038238Y-14677065D01*
X-16107375Y-14723261D01*
X-16262066Y-14787336D01*
X-16426281Y-14820000D01*
X-16593719Y-14820000D01*
X-16757934Y-14787336D01*
X-16912625Y-14723261D01*
X-16981762Y-14677065D01*
X-17051844Y-14630238D01*
X-17170238Y-14511844D01*
X-17263260Y-14372626D01*
X-17263261Y-14372625D01*
X-17327336Y-14217934D01*
X-17360000Y-14053719D01*
X-17360000Y-13886281D01*
X-17327336Y-13722066D01*
X-17263261Y-13567375D01*
X-17217065Y-13498238D01*
X-17170238Y-13428156D01*
X-17051844Y-13309762D01*
X-16912626Y-13216740D01*
X-16912625Y-13216739D01*
X-16757934Y-13152664D01*
X-16593719Y-13120000D01*
X-16426281Y-13120000D01*
X-16262066Y-13152664D01*
X-16262066Y-13152664D01*
G37*
G36*
X-13722066Y-11882664D02*
G01*
X-13567375Y-11946739D01*
X-13567374Y-11946740D01*
X-13428156Y-12039762D01*
X-13309762Y-12158156D01*
X-13262935Y-12228238D01*
X-13216739Y-12297375D01*
X-13152664Y-12452066D01*
X-13120000Y-12616281D01*
X-13120000Y-12783719D01*
X-13152664Y-12947934D01*
X-13216739Y-13102625D01*
X-13255357Y-13160421D01*
X-13309762Y-13241844D01*
X-13428156Y-13360238D01*
X-13498238Y-13407065D01*
X-13567375Y-13453261D01*
X-13722066Y-13517336D01*
X-13886281Y-13550000D01*
X-14053719Y-13550000D01*
X-14217934Y-13517336D01*
X-14372625Y-13453261D01*
X-14441762Y-13407065D01*
X-14511844Y-13360238D01*
X-14630238Y-13241844D01*
X-14684643Y-13160421D01*
X-14723261Y-13102625D01*
X-14787336Y-12947934D01*
X-14820000Y-12783719D01*
X-14820000Y-12616281D01*
X-14787336Y-12452066D01*
X-14723261Y-12297375D01*
X-14677065Y-12228238D01*
X-14630238Y-12158156D01*
X-14511844Y-12039762D01*
X-14372626Y-11946740D01*
X-14372625Y-11946739D01*
X-14217934Y-11882664D01*
X-14053719Y-11850000D01*
X-13886281Y-11850000D01*
X-13722066Y-11882664D01*
X-13722066Y-11882664D01*
G37*
G36*
X-50509315Y-10378630D02*
G01*
X-50365383Y-10407260D01*
X-50206540Y-10473055D01*
X-50094222Y-10519579D01*
X-49850182Y-10682641D01*
X-49642641Y-10890182D01*
X-49479579Y-11134222D01*
X-49446200Y-11214807D01*
X-49367260Y-11405383D01*
X-49367260Y-11405385D01*
X-49313045Y-11677936D01*
X-49310000Y-11693248D01*
X-49310000Y-11986752D01*
X-49367260Y-12274617D01*
X-49376687Y-12297375D01*
X-49479579Y-12545778D01*
X-49642641Y-12789818D01*
X-49850182Y-12997359D01*
X-50094222Y-13160421D01*
X-50206540Y-13206945D01*
X-50365383Y-13272740D01*
X-50509315Y-13301370D01*
X-50653246Y-13330000D01*
X-50946754Y-13330000D01*
X-51090685Y-13301370D01*
X-51234617Y-13272740D01*
X-51393460Y-13206945D01*
X-51505778Y-13160421D01*
X-51749818Y-12997359D01*
X-51957359Y-12789818D01*
X-52120421Y-12545778D01*
X-52223313Y-12297375D01*
X-52232740Y-12274617D01*
X-52290000Y-11986752D01*
X-52290000Y-11693248D01*
X-52286954Y-11677936D01*
X-52232740Y-11405385D01*
X-52232740Y-11405383D01*
X-52153800Y-11214807D01*
X-52120421Y-11134222D01*
X-51957359Y-10890182D01*
X-51749818Y-10682641D01*
X-51505778Y-10519579D01*
X-51393460Y-10473055D01*
X-51234617Y-10407260D01*
X-51090684Y-10378630D01*
X-50946754Y-10350000D01*
X-50653246Y-10350000D01*
X-50509315Y-10378630D01*
X-50509315Y-10378630D01*
G37*
G36*
X-60429315Y-10378630D02*
G01*
X-60285383Y-10407260D01*
X-60126540Y-10473055D01*
X-60014222Y-10519579D01*
X-59770182Y-10682641D01*
X-59562641Y-10890182D01*
X-59399579Y-11134222D01*
X-59366200Y-11214807D01*
X-59287260Y-11405383D01*
X-59287260Y-11405385D01*
X-59233045Y-11677936D01*
X-59230000Y-11693248D01*
X-59230000Y-11986752D01*
X-59287260Y-12274617D01*
X-59296687Y-12297375D01*
X-59399579Y-12545778D01*
X-59562641Y-12789818D01*
X-59770182Y-12997359D01*
X-60014222Y-13160421D01*
X-60126540Y-13206945D01*
X-60285383Y-13272740D01*
X-60429315Y-13301370D01*
X-60573246Y-13330000D01*
X-60866754Y-13330000D01*
X-61010685Y-13301370D01*
X-61154617Y-13272740D01*
X-61313460Y-13206945D01*
X-61425778Y-13160421D01*
X-61669818Y-12997359D01*
X-61877359Y-12789818D01*
X-62040421Y-12545778D01*
X-62143313Y-12297375D01*
X-62152740Y-12274617D01*
X-62210000Y-11986752D01*
X-62210000Y-11693248D01*
X-62206954Y-11677936D01*
X-62152740Y-11405385D01*
X-62152740Y-11405383D01*
X-62073800Y-11214807D01*
X-62040421Y-11134222D01*
X-61877359Y-10890182D01*
X-61669818Y-10682641D01*
X-61425778Y-10519579D01*
X-61313460Y-10473055D01*
X-61154617Y-10407260D01*
X-61010684Y-10378630D01*
X-60866754Y-10350000D01*
X-60573246Y-10350000D01*
X-60429315Y-10378630D01*
X-60429315Y-10378630D01*
G37*
G36*
X-92580000Y-12830000D02*
G01*
X-95380000Y-12830000D01*
X-95380000Y-10030000D01*
X-92580000Y-10030000D01*
X-92580000Y-12830000D01*
X-92580000Y-12830000D01*
G37*
G36*
X-16262066Y-10612664D02*
G01*
X-16107375Y-10676739D01*
X-16107374Y-10676740D01*
X-15968156Y-10769762D01*
X-15849762Y-10888156D01*
X-15814315Y-10941207D01*
X-15756739Y-11027375D01*
X-15692664Y-11182066D01*
X-15660000Y-11346281D01*
X-15660000Y-11513719D01*
X-15692664Y-11677934D01*
X-15756739Y-11832625D01*
X-15790174Y-11882664D01*
X-15849762Y-11971844D01*
X-15968156Y-12090238D01*
X-16038238Y-12137065D01*
X-16107375Y-12183261D01*
X-16262066Y-12247336D01*
X-16426281Y-12280000D01*
X-16593719Y-12280000D01*
X-16757934Y-12247336D01*
X-16912625Y-12183261D01*
X-16981762Y-12137065D01*
X-17051844Y-12090238D01*
X-17170238Y-11971844D01*
X-17229826Y-11882664D01*
X-17263261Y-11832625D01*
X-17327336Y-11677934D01*
X-17360000Y-11513719D01*
X-17360000Y-11346281D01*
X-17327336Y-11182066D01*
X-17263261Y-11027375D01*
X-17205685Y-10941207D01*
X-17170238Y-10888156D01*
X-17051844Y-10769762D01*
X-16912626Y-10676740D01*
X-16912625Y-10676739D01*
X-16757934Y-10612664D01*
X-16593719Y-10580000D01*
X-16426281Y-10580000D01*
X-16262066Y-10612664D01*
X-16262066Y-10612664D01*
G37*
G36*
X-7288347Y-8492665D02*
G01*
X-7124128Y-8525330D01*
X-6814748Y-8653479D01*
X-6536313Y-8839523D01*
X-6299523Y-9076313D01*
X-6113479Y-9354748D01*
X-5985330Y-9664128D01*
X-5974424Y-9718956D01*
X-5920000Y-9992563D01*
X-5920000Y-10327437D01*
X-5924488Y-10350000D01*
X-5985330Y-10655872D01*
X-6113479Y-10965252D01*
X-6299523Y-11243687D01*
X-6536313Y-11480477D01*
X-6814748Y-11666521D01*
X-7124128Y-11794670D01*
X-7288346Y-11827335D01*
X-7452563Y-11860000D01*
X-7787437Y-11860000D01*
X-7951654Y-11827335D01*
X-8115872Y-11794670D01*
X-8425252Y-11666521D01*
X-8703687Y-11480477D01*
X-8940477Y-11243687D01*
X-9126521Y-10965252D01*
X-9254670Y-10655872D01*
X-9315512Y-10350000D01*
X-9320000Y-10327437D01*
X-9320000Y-9992563D01*
X-9265576Y-9718956D01*
X-9254670Y-9664128D01*
X-9126521Y-9354748D01*
X-8940477Y-9076313D01*
X-8703687Y-8839523D01*
X-8425252Y-8653479D01*
X-8115872Y-8525330D01*
X-7951653Y-8492665D01*
X-7787437Y-8460000D01*
X-7452563Y-8460000D01*
X-7288347Y-8492665D01*
X-7288347Y-8492665D01*
G37*
G36*
X-72069144Y-9182272D02*
G01*
X-71868956Y-9265192D01*
X-71868955Y-9265193D01*
X-71688791Y-9385575D01*
X-71535575Y-9538791D01*
X-71535574Y-9538793D01*
X-71415192Y-9718956D01*
X-71332272Y-9919144D01*
X-71290000Y-10131658D01*
X-71290000Y-10348342D01*
X-71332272Y-10560856D01*
X-71415192Y-10761044D01*
X-71474974Y-10850513D01*
X-71535575Y-10941209D01*
X-71688791Y-11094425D01*
X-71748350Y-11134221D01*
X-71868956Y-11214808D01*
X-72069144Y-11297728D01*
X-72281658Y-11340000D01*
X-72498342Y-11340000D01*
X-72710856Y-11297728D01*
X-72911044Y-11214808D01*
X-73031650Y-11134221D01*
X-73091209Y-11094425D01*
X-73244425Y-10941209D01*
X-73305026Y-10850513D01*
X-73364808Y-10761044D01*
X-73447728Y-10560856D01*
X-73490000Y-10348342D01*
X-73490000Y-10131658D01*
X-73447728Y-9919144D01*
X-73364808Y-9718956D01*
X-73244426Y-9538793D01*
X-73244425Y-9538791D01*
X-73091209Y-9385575D01*
X-72911045Y-9265193D01*
X-72911044Y-9265192D01*
X-72710856Y-9182272D01*
X-72498342Y-9140000D01*
X-72281658Y-9140000D01*
X-72069144Y-9182272D01*
X-72069144Y-9182272D01*
G37*
M02*
