G04 #@! TF.GenerationSoftware,KiCad,Pcbnew,(5.1.4)*
G04 #@! TF.CreationDate,2020-02-11T08:22:30-06:00*
G04 #@! TF.ProjectId,race timer,72616365-2074-4696-9d65-722e6b696361,rev?*
G04 #@! TF.SameCoordinates,PX6e37550PYe88b40*
G04 #@! TF.FileFunction,Legend,Bot*
G04 #@! TF.FilePolarity,Positive*
%FSLAX46Y46*%
G04 Gerber Fmt 4.6, Leading zero omitted, Abs format (unit mm)*
G04 Created by KiCad (PCBNEW (5.1.4)) date 2020-02-11 08:22:30*
%MOMM*%
%LPD*%
G04 APERTURE LIST*
%ADD10C,0.150000*%
%ADD11C,0.120000*%
G04 APERTURE END LIST*
D10*
X-3810000Y0D02*
G75*
G02X0Y-3810000I0J-3810000D01*
G01*
X0Y-81280000D02*
G75*
G02X-3810000Y-85090000I-3810000J0D01*
G01*
X-99060000Y-3810000D02*
G75*
G02X-95250000Y0I3810000J0D01*
G01*
X-92710000Y-85090000D02*
X-95250000Y-85090000D01*
X-95250000Y-85090000D02*
G75*
G02X-99060000Y-81280000I0J3810000D01*
G01*
X-92710000Y0D02*
X-95250000Y0D01*
X-3810000Y0D02*
X-92710000Y0D01*
X-99060000Y-3810000D02*
X-99060000Y-81280000D01*
X0Y-81280000D02*
X0Y-3810000D01*
X-92710000Y-85090000D02*
X-3810000Y-85090000D01*
D11*
X-88232064Y-44175000D02*
X-87027936Y-44175000D01*
X-88232064Y-45995000D02*
X-87027936Y-45995000D01*
X-89535000Y-35095000D02*
X-88735000Y-34295000D01*
X-88735000Y-34295000D02*
X-88735000Y-24595000D01*
X-88735000Y-24595000D02*
X-97955000Y-24595000D01*
X-97955000Y-24595000D02*
X-97955000Y-35095000D01*
X-97955000Y-35095000D02*
X-89535000Y-35095000D01*
D10*
X-53785000Y-55480000D02*
X-53785000Y-55230000D01*
X-46035000Y-55480000D02*
X-46035000Y-55135000D01*
X-46035000Y-43580000D02*
X-46035000Y-43925000D01*
X-53785000Y-43580000D02*
X-53785000Y-43925000D01*
X-53785000Y-55480000D02*
X-46035000Y-55480000D01*
X-53785000Y-43580000D02*
X-46035000Y-43580000D01*
X-53785000Y-55230000D02*
X-55610000Y-55230000D01*
D11*
X-85692064Y-33380000D02*
X-84487936Y-33380000D01*
X-85692064Y-35200000D02*
X-84487936Y-35200000D01*
X-85822064Y-31390000D02*
X-84617936Y-31390000D01*
X-85822064Y-29570000D02*
X-84617936Y-29570000D01*
X-23527936Y-56790000D02*
X-24732064Y-56790000D01*
X-23527936Y-54970000D02*
X-24732064Y-54970000D01*
X-23397936Y-71480000D02*
X-24602064Y-71480000D01*
X-23397936Y-73300000D02*
X-24602064Y-73300000D01*
X-85692064Y-37190000D02*
X-84487936Y-37190000D01*
X-85692064Y-39010000D02*
X-84487936Y-39010000D01*
X-85692064Y-42820000D02*
X-84487936Y-42820000D01*
X-85692064Y-41000000D02*
X-84487936Y-41000000D01*
X-23397936Y-16150000D02*
X-24602064Y-16150000D01*
X-23397936Y-14330000D02*
X-24602064Y-14330000D01*
X-23527936Y-34650000D02*
X-24732064Y-34650000D01*
X-23527936Y-36470000D02*
X-24732064Y-36470000D01*
X-23527936Y-69490000D02*
X-24732064Y-69490000D01*
X-23527936Y-67670000D02*
X-24732064Y-67670000D01*
X-23397936Y-18140000D02*
X-24602064Y-18140000D01*
X-23397936Y-19960000D02*
X-24602064Y-19960000D01*
X-23527936Y-40280000D02*
X-24732064Y-40280000D01*
X-23527936Y-38460000D02*
X-24732064Y-38460000D01*
X-54137936Y-34650000D02*
X-55342064Y-34650000D01*
X-54137936Y-36470000D02*
X-55342064Y-36470000D01*
X-23527936Y-52980000D02*
X-24732064Y-52980000D01*
X-23527936Y-51160000D02*
X-24732064Y-51160000D01*
X-97540000Y-40465000D02*
X-97540000Y-38465000D01*
X-95500000Y-38465000D02*
X-95500000Y-40465000D01*
X-77105000Y-75053000D02*
X-75105000Y-75053000D01*
X-75105000Y-77093000D02*
X-77105000Y-77093000D01*
X-77232000Y-79879000D02*
X-75232000Y-79879000D01*
X-75232000Y-81919000D02*
X-77232000Y-81919000D01*
X-75168000Y-73537000D02*
X-77168000Y-73537000D01*
X-77168000Y-71497000D02*
X-75168000Y-71497000D01*
X-67294000Y-84459000D02*
X-69294000Y-84459000D01*
X-69294000Y-82419000D02*
X-67294000Y-82419000D01*
X-88232064Y-48535000D02*
X-87027936Y-48535000D01*
X-88232064Y-46715000D02*
X-87027936Y-46715000D01*
X-68137000Y-71394000D02*
X-66187000Y-71394000D01*
X-68137000Y-71394000D02*
X-70087000Y-71394000D01*
X-68137000Y-81514000D02*
X-66187000Y-81514000D01*
X-68137000Y-81514000D02*
X-71587000Y-81514000D01*
D10*
X-83050143Y-46680380D02*
X-82716810Y-46204190D01*
X-82478715Y-46680380D02*
X-82478715Y-45680380D01*
X-82859667Y-45680380D01*
X-82954905Y-45728000D01*
X-83002524Y-45775619D01*
X-83050143Y-45870857D01*
X-83050143Y-46013714D01*
X-83002524Y-46108952D01*
X-82954905Y-46156571D01*
X-82859667Y-46204190D01*
X-82478715Y-46204190D01*
X-84002524Y-46680380D02*
X-83431096Y-46680380D01*
X-83716810Y-46680380D02*
X-83716810Y-45680380D01*
X-83621572Y-45823238D01*
X-83526334Y-45918476D01*
X-83431096Y-45966095D01*
X-84907286Y-45680380D02*
X-84431096Y-45680380D01*
X-84383477Y-46156571D01*
X-84431096Y-46108952D01*
X-84526334Y-46061333D01*
X-84764429Y-46061333D01*
X-84859667Y-46108952D01*
X-84907286Y-46156571D01*
X-84954905Y-46251809D01*
X-84954905Y-46489904D01*
X-84907286Y-46585142D01*
X-84859667Y-46632761D01*
X-84764429Y-46680380D01*
X-84526334Y-46680380D01*
X-84431096Y-46632761D01*
X-84383477Y-46585142D01*
X-88177620Y-26924095D02*
X-87368096Y-26924095D01*
X-87272858Y-26971714D01*
X-87225239Y-27019333D01*
X-87177620Y-27114571D01*
X-87177620Y-27305047D01*
X-87225239Y-27400285D01*
X-87272858Y-27447904D01*
X-87368096Y-27495523D01*
X-88177620Y-27495523D01*
X-88082381Y-27924095D02*
X-88130000Y-27971714D01*
X-88177620Y-28066952D01*
X-88177620Y-28305047D01*
X-88130000Y-28400285D01*
X-88082381Y-28447904D01*
X-87987143Y-28495523D01*
X-87891905Y-28495523D01*
X-87749048Y-28447904D01*
X-87177620Y-27876476D01*
X-87177620Y-28495523D01*
X-49148096Y-55857380D02*
X-49148096Y-56666904D01*
X-49195715Y-56762142D01*
X-49243334Y-56809761D01*
X-49338572Y-56857380D01*
X-49529048Y-56857380D01*
X-49624286Y-56809761D01*
X-49671905Y-56762142D01*
X-49719524Y-56666904D01*
X-49719524Y-55857380D01*
X-50719524Y-56857380D02*
X-50148096Y-56857380D01*
X-50433810Y-56857380D02*
X-50433810Y-55857380D01*
X-50338572Y-56000238D01*
X-50243334Y-56095476D01*
X-50148096Y-56143095D01*
X-84923334Y-36562380D02*
X-84590000Y-36086190D01*
X-84351905Y-36562380D02*
X-84351905Y-35562380D01*
X-84732858Y-35562380D01*
X-84828096Y-35610000D01*
X-84875715Y-35657619D01*
X-84923334Y-35752857D01*
X-84923334Y-35895714D01*
X-84875715Y-35990952D01*
X-84828096Y-36038571D01*
X-84732858Y-36086190D01*
X-84351905Y-36086190D01*
X-85780477Y-35895714D02*
X-85780477Y-36562380D01*
X-85542381Y-35514761D02*
X-85304286Y-36229047D01*
X-85923334Y-36229047D01*
X-85053334Y-32752380D02*
X-84720000Y-32276190D01*
X-84481905Y-32752380D02*
X-84481905Y-31752380D01*
X-84862858Y-31752380D01*
X-84958096Y-31800000D01*
X-85005715Y-31847619D01*
X-85053334Y-31942857D01*
X-85053334Y-32085714D01*
X-85005715Y-32180952D01*
X-84958096Y-32228571D01*
X-84862858Y-32276190D01*
X-84481905Y-32276190D01*
X-85386667Y-31752380D02*
X-86005715Y-31752380D01*
X-85672381Y-32133333D01*
X-85815239Y-32133333D01*
X-85910477Y-32180952D01*
X-85958096Y-32228571D01*
X-86005715Y-32323809D01*
X-86005715Y-32561904D01*
X-85958096Y-32657142D01*
X-85910477Y-32704761D01*
X-85815239Y-32752380D01*
X-85529524Y-32752380D01*
X-85434286Y-32704761D01*
X-85386667Y-32657142D01*
X-23963334Y-54512380D02*
X-23630000Y-54036190D01*
X-23391905Y-54512380D02*
X-23391905Y-53512380D01*
X-23772858Y-53512380D01*
X-23868096Y-53560000D01*
X-23915715Y-53607619D01*
X-23963334Y-53702857D01*
X-23963334Y-53845714D01*
X-23915715Y-53940952D01*
X-23868096Y-53988571D01*
X-23772858Y-54036190D01*
X-23391905Y-54036190D01*
X-24344286Y-53607619D02*
X-24391905Y-53560000D01*
X-24487143Y-53512380D01*
X-24725239Y-53512380D01*
X-24820477Y-53560000D01*
X-24868096Y-53607619D01*
X-24915715Y-53702857D01*
X-24915715Y-53798095D01*
X-24868096Y-53940952D01*
X-24296667Y-54512380D01*
X-24915715Y-54512380D01*
X-23833334Y-71022380D02*
X-23500000Y-70546190D01*
X-23261905Y-71022380D02*
X-23261905Y-70022380D01*
X-23642858Y-70022380D01*
X-23738096Y-70070000D01*
X-23785715Y-70117619D01*
X-23833334Y-70212857D01*
X-23833334Y-70355714D01*
X-23785715Y-70450952D01*
X-23738096Y-70498571D01*
X-23642858Y-70546190D01*
X-23261905Y-70546190D01*
X-24785715Y-71022380D02*
X-24214286Y-71022380D01*
X-24500000Y-71022380D02*
X-24500000Y-70022380D01*
X-24404762Y-70165238D01*
X-24309524Y-70260476D01*
X-24214286Y-70308095D01*
X-84923334Y-40372380D02*
X-84590000Y-39896190D01*
X-84351905Y-40372380D02*
X-84351905Y-39372380D01*
X-84732858Y-39372380D01*
X-84828096Y-39420000D01*
X-84875715Y-39467619D01*
X-84923334Y-39562857D01*
X-84923334Y-39705714D01*
X-84875715Y-39800952D01*
X-84828096Y-39848571D01*
X-84732858Y-39896190D01*
X-84351905Y-39896190D01*
X-85828096Y-39372380D02*
X-85351905Y-39372380D01*
X-85304286Y-39848571D01*
X-85351905Y-39800952D01*
X-85447143Y-39753333D01*
X-85685239Y-39753333D01*
X-85780477Y-39800952D01*
X-85828096Y-39848571D01*
X-85875715Y-39943809D01*
X-85875715Y-40181904D01*
X-85828096Y-40277142D01*
X-85780477Y-40324761D01*
X-85685239Y-40372380D01*
X-85447143Y-40372380D01*
X-85351905Y-40324761D01*
X-85304286Y-40277142D01*
X-84923334Y-44182380D02*
X-84590000Y-43706190D01*
X-84351905Y-44182380D02*
X-84351905Y-43182380D01*
X-84732858Y-43182380D01*
X-84828096Y-43230000D01*
X-84875715Y-43277619D01*
X-84923334Y-43372857D01*
X-84923334Y-43515714D01*
X-84875715Y-43610952D01*
X-84828096Y-43658571D01*
X-84732858Y-43706190D01*
X-84351905Y-43706190D01*
X-85780477Y-43182380D02*
X-85590000Y-43182380D01*
X-85494762Y-43230000D01*
X-85447143Y-43277619D01*
X-85351905Y-43420476D01*
X-85304286Y-43610952D01*
X-85304286Y-43991904D01*
X-85351905Y-44087142D01*
X-85399524Y-44134761D01*
X-85494762Y-44182380D01*
X-85685239Y-44182380D01*
X-85780477Y-44134761D01*
X-85828096Y-44087142D01*
X-85875715Y-43991904D01*
X-85875715Y-43753809D01*
X-85828096Y-43658571D01*
X-85780477Y-43610952D01*
X-85685239Y-43563333D01*
X-85494762Y-43563333D01*
X-85399524Y-43610952D01*
X-85351905Y-43658571D01*
X-85304286Y-43753809D01*
X-23833334Y-13872380D02*
X-23500000Y-13396190D01*
X-23261905Y-13872380D02*
X-23261905Y-12872380D01*
X-23642858Y-12872380D01*
X-23738096Y-12920000D01*
X-23785715Y-12967619D01*
X-23833334Y-13062857D01*
X-23833334Y-13205714D01*
X-23785715Y-13300952D01*
X-23738096Y-13348571D01*
X-23642858Y-13396190D01*
X-23261905Y-13396190D01*
X-24166667Y-12872380D02*
X-24833334Y-12872380D01*
X-24404762Y-13872380D01*
X-23963334Y-34192380D02*
X-23630000Y-33716190D01*
X-23391905Y-34192380D02*
X-23391905Y-33192380D01*
X-23772858Y-33192380D01*
X-23868096Y-33240000D01*
X-23915715Y-33287619D01*
X-23963334Y-33382857D01*
X-23963334Y-33525714D01*
X-23915715Y-33620952D01*
X-23868096Y-33668571D01*
X-23772858Y-33716190D01*
X-23391905Y-33716190D01*
X-24534762Y-33620952D02*
X-24439524Y-33573333D01*
X-24391905Y-33525714D01*
X-24344286Y-33430476D01*
X-24344286Y-33382857D01*
X-24391905Y-33287619D01*
X-24439524Y-33240000D01*
X-24534762Y-33192380D01*
X-24725239Y-33192380D01*
X-24820477Y-33240000D01*
X-24868096Y-33287619D01*
X-24915715Y-33382857D01*
X-24915715Y-33430476D01*
X-24868096Y-33525714D01*
X-24820477Y-33573333D01*
X-24725239Y-33620952D01*
X-24534762Y-33620952D01*
X-24439524Y-33668571D01*
X-24391905Y-33716190D01*
X-24344286Y-33811428D01*
X-24344286Y-34001904D01*
X-24391905Y-34097142D01*
X-24439524Y-34144761D01*
X-24534762Y-34192380D01*
X-24725239Y-34192380D01*
X-24820477Y-34144761D01*
X-24868096Y-34097142D01*
X-24915715Y-34001904D01*
X-24915715Y-33811428D01*
X-24868096Y-33716190D01*
X-24820477Y-33668571D01*
X-24725239Y-33620952D01*
X-23487143Y-67212380D02*
X-23153810Y-66736190D01*
X-22915715Y-67212380D02*
X-22915715Y-66212380D01*
X-23296667Y-66212380D01*
X-23391905Y-66260000D01*
X-23439524Y-66307619D01*
X-23487143Y-66402857D01*
X-23487143Y-66545714D01*
X-23439524Y-66640952D01*
X-23391905Y-66688571D01*
X-23296667Y-66736190D01*
X-22915715Y-66736190D01*
X-24439524Y-67212380D02*
X-23868096Y-67212380D01*
X-24153810Y-67212380D02*
X-24153810Y-66212380D01*
X-24058572Y-66355238D01*
X-23963334Y-66450476D01*
X-23868096Y-66498095D01*
X-25058572Y-66212380D02*
X-25153810Y-66212380D01*
X-25249048Y-66260000D01*
X-25296667Y-66307619D01*
X-25344286Y-66402857D01*
X-25391905Y-66593333D01*
X-25391905Y-66831428D01*
X-25344286Y-67021904D01*
X-25296667Y-67117142D01*
X-25249048Y-67164761D01*
X-25153810Y-67212380D01*
X-25058572Y-67212380D01*
X-24963334Y-67164761D01*
X-24915715Y-67117142D01*
X-24868096Y-67021904D01*
X-24820477Y-66831428D01*
X-24820477Y-66593333D01*
X-24868096Y-66402857D01*
X-24915715Y-66307619D01*
X-24963334Y-66260000D01*
X-25058572Y-66212380D01*
X-23357143Y-17682380D02*
X-23023810Y-17206190D01*
X-22785715Y-17682380D02*
X-22785715Y-16682380D01*
X-23166667Y-16682380D01*
X-23261905Y-16730000D01*
X-23309524Y-16777619D01*
X-23357143Y-16872857D01*
X-23357143Y-17015714D01*
X-23309524Y-17110952D01*
X-23261905Y-17158571D01*
X-23166667Y-17206190D01*
X-22785715Y-17206190D01*
X-24309524Y-17682380D02*
X-23738096Y-17682380D01*
X-24023810Y-17682380D02*
X-24023810Y-16682380D01*
X-23928572Y-16825238D01*
X-23833334Y-16920476D01*
X-23738096Y-16968095D01*
X-25261905Y-17682380D02*
X-24690477Y-17682380D01*
X-24976191Y-17682380D02*
X-24976191Y-16682380D01*
X-24880953Y-16825238D01*
X-24785715Y-16920476D01*
X-24690477Y-16968095D01*
X-23487143Y-38002380D02*
X-23153810Y-37526190D01*
X-22915715Y-38002380D02*
X-22915715Y-37002380D01*
X-23296667Y-37002380D01*
X-23391905Y-37050000D01*
X-23439524Y-37097619D01*
X-23487143Y-37192857D01*
X-23487143Y-37335714D01*
X-23439524Y-37430952D01*
X-23391905Y-37478571D01*
X-23296667Y-37526190D01*
X-22915715Y-37526190D01*
X-24439524Y-38002380D02*
X-23868096Y-38002380D01*
X-24153810Y-38002380D02*
X-24153810Y-37002380D01*
X-24058572Y-37145238D01*
X-23963334Y-37240476D01*
X-23868096Y-37288095D01*
X-24820477Y-37097619D02*
X-24868096Y-37050000D01*
X-24963334Y-37002380D01*
X-25201429Y-37002380D01*
X-25296667Y-37050000D01*
X-25344286Y-37097619D01*
X-25391905Y-37192857D01*
X-25391905Y-37288095D01*
X-25344286Y-37430952D01*
X-24772858Y-38002380D01*
X-25391905Y-38002380D01*
X-54097143Y-34192380D02*
X-53763810Y-33716190D01*
X-53525715Y-34192380D02*
X-53525715Y-33192380D01*
X-53906667Y-33192380D01*
X-54001905Y-33240000D01*
X-54049524Y-33287619D01*
X-54097143Y-33382857D01*
X-54097143Y-33525714D01*
X-54049524Y-33620952D01*
X-54001905Y-33668571D01*
X-53906667Y-33716190D01*
X-53525715Y-33716190D01*
X-55049524Y-34192380D02*
X-54478096Y-34192380D01*
X-54763810Y-34192380D02*
X-54763810Y-33192380D01*
X-54668572Y-33335238D01*
X-54573334Y-33430476D01*
X-54478096Y-33478095D01*
X-55382858Y-33192380D02*
X-56001905Y-33192380D01*
X-55668572Y-33573333D01*
X-55811429Y-33573333D01*
X-55906667Y-33620952D01*
X-55954286Y-33668571D01*
X-56001905Y-33763809D01*
X-56001905Y-34001904D01*
X-55954286Y-34097142D01*
X-55906667Y-34144761D01*
X-55811429Y-34192380D01*
X-55525715Y-34192380D01*
X-55430477Y-34144761D01*
X-55382858Y-34097142D01*
X-23963334Y-50702380D02*
X-23630000Y-50226190D01*
X-23391905Y-50702380D02*
X-23391905Y-49702380D01*
X-23772858Y-49702380D01*
X-23868096Y-49750000D01*
X-23915715Y-49797619D01*
X-23963334Y-49892857D01*
X-23963334Y-50035714D01*
X-23915715Y-50130952D01*
X-23868096Y-50178571D01*
X-23772858Y-50226190D01*
X-23391905Y-50226190D01*
X-24439524Y-50702380D02*
X-24630000Y-50702380D01*
X-24725239Y-50654761D01*
X-24772858Y-50607142D01*
X-24868096Y-50464285D01*
X-24915715Y-50273809D01*
X-24915715Y-49892857D01*
X-24868096Y-49797619D01*
X-24820477Y-49750000D01*
X-24725239Y-49702380D01*
X-24534762Y-49702380D01*
X-24439524Y-49750000D01*
X-24391905Y-49797619D01*
X-24344286Y-49892857D01*
X-24344286Y-50130952D01*
X-24391905Y-50226190D01*
X-24439524Y-50273809D01*
X-24534762Y-50321428D01*
X-24725239Y-50321428D01*
X-24820477Y-50273809D01*
X-24868096Y-50226190D01*
X-24915715Y-50130952D01*
X-93876858Y-42505333D02*
X-93829239Y-42457714D01*
X-93781620Y-42314857D01*
X-93781620Y-42219619D01*
X-93829239Y-42076761D01*
X-93924477Y-41981523D01*
X-94019715Y-41933904D01*
X-94210191Y-41886285D01*
X-94353048Y-41886285D01*
X-94543524Y-41933904D01*
X-94638762Y-41981523D01*
X-94734000Y-42076761D01*
X-94781620Y-42219619D01*
X-94781620Y-42314857D01*
X-94734000Y-42457714D01*
X-94686381Y-42505333D01*
X-94448286Y-43362476D02*
X-93781620Y-43362476D01*
X-94829239Y-43124380D02*
X-94114953Y-42886285D01*
X-94114953Y-43505333D01*
X-75938334Y-78180142D02*
X-75890715Y-78227761D01*
X-75747858Y-78275380D01*
X-75652620Y-78275380D01*
X-75509762Y-78227761D01*
X-75414524Y-78132523D01*
X-75366905Y-78037285D01*
X-75319286Y-77846809D01*
X-75319286Y-77703952D01*
X-75366905Y-77513476D01*
X-75414524Y-77418238D01*
X-75509762Y-77323000D01*
X-75652620Y-77275380D01*
X-75747858Y-77275380D01*
X-75890715Y-77323000D01*
X-75938334Y-77370619D01*
X-76843096Y-77275380D02*
X-76366905Y-77275380D01*
X-76319286Y-77751571D01*
X-76366905Y-77703952D01*
X-76462143Y-77656333D01*
X-76700239Y-77656333D01*
X-76795477Y-77703952D01*
X-76843096Y-77751571D01*
X-76890715Y-77846809D01*
X-76890715Y-78084904D01*
X-76843096Y-78180142D01*
X-76795477Y-78227761D01*
X-76700239Y-78275380D01*
X-76462143Y-78275380D01*
X-76366905Y-78227761D01*
X-76319286Y-78180142D01*
X-76033334Y-83034142D02*
X-75985715Y-83081761D01*
X-75842858Y-83129380D01*
X-75747620Y-83129380D01*
X-75604762Y-83081761D01*
X-75509524Y-82986523D01*
X-75461905Y-82891285D01*
X-75414286Y-82700809D01*
X-75414286Y-82557952D01*
X-75461905Y-82367476D01*
X-75509524Y-82272238D01*
X-75604762Y-82177000D01*
X-75747620Y-82129380D01*
X-75842858Y-82129380D01*
X-75985715Y-82177000D01*
X-76033334Y-82224619D01*
X-76890477Y-82129380D02*
X-76700000Y-82129380D01*
X-76604762Y-82177000D01*
X-76557143Y-82224619D01*
X-76461905Y-82367476D01*
X-76414286Y-82557952D01*
X-76414286Y-82938904D01*
X-76461905Y-83034142D01*
X-76509524Y-83081761D01*
X-76604762Y-83129380D01*
X-76795239Y-83129380D01*
X-76890477Y-83081761D01*
X-76938096Y-83034142D01*
X-76985715Y-82938904D01*
X-76985715Y-82700809D01*
X-76938096Y-82605571D01*
X-76890477Y-82557952D01*
X-76795239Y-82510333D01*
X-76604762Y-82510333D01*
X-76509524Y-82557952D01*
X-76461905Y-82605571D01*
X-76414286Y-82700809D01*
X-76001334Y-71124142D02*
X-75953715Y-71171761D01*
X-75810858Y-71219380D01*
X-75715620Y-71219380D01*
X-75572762Y-71171761D01*
X-75477524Y-71076523D01*
X-75429905Y-70981285D01*
X-75382286Y-70790809D01*
X-75382286Y-70647952D01*
X-75429905Y-70457476D01*
X-75477524Y-70362238D01*
X-75572762Y-70267000D01*
X-75715620Y-70219380D01*
X-75810858Y-70219380D01*
X-75953715Y-70267000D01*
X-76001334Y-70314619D01*
X-76334667Y-70219380D02*
X-77001334Y-70219380D01*
X-76572762Y-71219380D01*
X-63333334Y-83923142D02*
X-63285715Y-83970761D01*
X-63142858Y-84018380D01*
X-63047620Y-84018380D01*
X-62904762Y-83970761D01*
X-62809524Y-83875523D01*
X-62761905Y-83780285D01*
X-62714286Y-83589809D01*
X-62714286Y-83446952D01*
X-62761905Y-83256476D01*
X-62809524Y-83161238D01*
X-62904762Y-83066000D01*
X-63047620Y-83018380D01*
X-63142858Y-83018380D01*
X-63285715Y-83066000D01*
X-63333334Y-83113619D01*
X-63904762Y-83446952D02*
X-63809524Y-83399333D01*
X-63761905Y-83351714D01*
X-63714286Y-83256476D01*
X-63714286Y-83208857D01*
X-63761905Y-83113619D01*
X-63809524Y-83066000D01*
X-63904762Y-83018380D01*
X-64095239Y-83018380D01*
X-64190477Y-83066000D01*
X-64238096Y-83113619D01*
X-64285715Y-83208857D01*
X-64285715Y-83256476D01*
X-64238096Y-83351714D01*
X-64190477Y-83399333D01*
X-64095239Y-83446952D01*
X-63904762Y-83446952D01*
X-63809524Y-83494571D01*
X-63761905Y-83542190D01*
X-63714286Y-83637428D01*
X-63714286Y-83827904D01*
X-63761905Y-83923142D01*
X-63809524Y-83970761D01*
X-63904762Y-84018380D01*
X-64095239Y-84018380D01*
X-64190477Y-83970761D01*
X-64238096Y-83923142D01*
X-64285715Y-83827904D01*
X-64285715Y-83637428D01*
X-64238096Y-83542190D01*
X-64190477Y-83494571D01*
X-64095239Y-83446952D01*
X-83177143Y-49220380D02*
X-82843810Y-48744190D01*
X-82605715Y-49220380D02*
X-82605715Y-48220380D01*
X-82986667Y-48220380D01*
X-83081905Y-48268000D01*
X-83129524Y-48315619D01*
X-83177143Y-48410857D01*
X-83177143Y-48553714D01*
X-83129524Y-48648952D01*
X-83081905Y-48696571D01*
X-82986667Y-48744190D01*
X-82605715Y-48744190D01*
X-84129524Y-49220380D02*
X-83558096Y-49220380D01*
X-83843810Y-49220380D02*
X-83843810Y-48220380D01*
X-83748572Y-48363238D01*
X-83653334Y-48458476D01*
X-83558096Y-48506095D01*
X-84986667Y-48220380D02*
X-84796191Y-48220380D01*
X-84700953Y-48268000D01*
X-84653334Y-48315619D01*
X-84558096Y-48458476D01*
X-84510477Y-48648952D01*
X-84510477Y-49029904D01*
X-84558096Y-49125142D01*
X-84605715Y-49172761D01*
X-84700953Y-49220380D01*
X-84891429Y-49220380D01*
X-84986667Y-49172761D01*
X-85034286Y-49125142D01*
X-85081905Y-49029904D01*
X-85081905Y-48791809D01*
X-85034286Y-48696571D01*
X-84986667Y-48648952D01*
X-84891429Y-48601333D01*
X-84700953Y-48601333D01*
X-84605715Y-48648952D01*
X-84558096Y-48696571D01*
X-84510477Y-48791809D01*
X-66802096Y-69810380D02*
X-66802096Y-70619904D01*
X-66849715Y-70715142D01*
X-66897334Y-70762761D01*
X-66992572Y-70810380D01*
X-67183048Y-70810380D01*
X-67278286Y-70762761D01*
X-67325905Y-70715142D01*
X-67373524Y-70619904D01*
X-67373524Y-69810380D01*
X-67754477Y-69810380D02*
X-68373524Y-69810380D01*
X-68040191Y-70191333D01*
X-68183048Y-70191333D01*
X-68278286Y-70238952D01*
X-68325905Y-70286571D01*
X-68373524Y-70381809D01*
X-68373524Y-70619904D01*
X-68325905Y-70715142D01*
X-68278286Y-70762761D01*
X-68183048Y-70810380D01*
X-67897334Y-70810380D01*
X-67802096Y-70762761D01*
X-67754477Y-70715142D01*
M02*
