G04 #@! TF.GenerationSoftware,KiCad,Pcbnew,5.0.2*
G04 #@! TF.CreationDate,2019-03-04T19:00:17-06:00*
G04 #@! TF.ProjectId,race timer,72616365-2074-4696-9d65-722e6b696361,rev?*
G04 #@! TF.SameCoordinates,PX6e37550PYe88b40*
G04 #@! TF.FileFunction,Copper,L2,Bot*
G04 #@! TF.FilePolarity,Positive*
%FSLAX46Y46*%
G04 Gerber Fmt 4.6, Leading zero omitted, Abs format (unit mm)*
G04 Created by KiCad (PCBNEW 5.0.2) date Mon 04 Mar 2019 19:00:17 CST*
%MOMM*%
%LPD*%
G01*
G04 APERTURE LIST*
G04 #@! TA.AperFunction,NonConductor*
%ADD10C,0.150000*%
G04 #@! TD*
G04 #@! TA.AperFunction,ComponentPad*
%ADD11C,3.000000*%
G04 #@! TD*
G04 #@! TA.AperFunction,SMDPad,CuDef*
%ADD12R,2.000000X0.600000*%
G04 #@! TD*
G04 #@! TA.AperFunction,ComponentPad*
%ADD13R,1.498000X1.498000*%
G04 #@! TD*
G04 #@! TA.AperFunction,ComponentPad*
%ADD14C,1.498000*%
G04 #@! TD*
G04 #@! TA.AperFunction,Conductor*
%ADD15C,0.100000*%
G04 #@! TD*
G04 #@! TA.AperFunction,SMDPad,CuDef*
%ADD16C,1.425000*%
G04 #@! TD*
G04 #@! TA.AperFunction,ComponentPad*
%ADD17R,1.600000X1.600000*%
G04 #@! TD*
G04 #@! TA.AperFunction,ComponentPad*
%ADD18C,1.600000*%
G04 #@! TD*
G04 #@! TA.AperFunction,ComponentPad*
%ADD19C,2.780000*%
G04 #@! TD*
G04 #@! TA.AperFunction,ComponentPad*
%ADD20C,1.800000*%
G04 #@! TD*
G04 #@! TA.AperFunction,ComponentPad*
%ADD21R,1.800000X1.800000*%
G04 #@! TD*
G04 #@! TA.AperFunction,SMDPad,CuDef*
%ADD22C,1.250000*%
G04 #@! TD*
G04 #@! TA.AperFunction,ComponentPad*
%ADD23R,2.600000X2.600000*%
G04 #@! TD*
G04 #@! TA.AperFunction,ComponentPad*
%ADD24C,2.600000*%
G04 #@! TD*
G04 #@! TA.AperFunction,ComponentPad*
%ADD25O,1.600000X1.600000*%
G04 #@! TD*
G04 #@! TA.AperFunction,ComponentPad*
%ADD26C,1.500000*%
G04 #@! TD*
G04 #@! TA.AperFunction,ComponentPad*
%ADD27R,1.500000X1.500000*%
G04 #@! TD*
G04 #@! TA.AperFunction,ComponentPad*
%ADD28R,2.000000X2.000000*%
G04 #@! TD*
G04 #@! TA.AperFunction,ComponentPad*
%ADD29C,2.000000*%
G04 #@! TD*
G04 #@! TA.AperFunction,ViaPad*
%ADD30C,2.000000*%
G04 #@! TD*
G04 #@! TA.AperFunction,Conductor*
%ADD31C,0.800000*%
G04 #@! TD*
G04 #@! TA.AperFunction,Conductor*
%ADD32C,0.500000*%
G04 #@! TD*
G04 #@! TA.AperFunction,Conductor*
%ADD33C,1.500000*%
G04 #@! TD*
G04 APERTURE END LIST*
D10*
X0Y0D02*
X-92710000Y0D01*
X-92710000Y0D02*
X-92710000Y-85090000D01*
X0Y-85090000D02*
X0Y0D01*
X-92710000Y-85090000D02*
X0Y-85090000D01*
D11*
G04 #@! TO.P,MOUNT3,1*
G04 #@! TO.N,N/C*
X-87630000Y-81280000D03*
G04 #@! TD*
G04 #@! TO.P,MOUNT4,1*
G04 #@! TO.N,N/C*
X-3810000Y-3810000D03*
G04 #@! TD*
G04 #@! TO.P,MOUNT2,1*
G04 #@! TO.N,N/C*
X-3810000Y-81280000D03*
G04 #@! TD*
D12*
G04 #@! TO.P,U1,1*
G04 #@! TO.N,Net-(U1-Pad1)*
X-54610000Y-54610000D03*
G04 #@! TO.P,U1,2*
G04 #@! TO.N,Net-(U1-Pad2)*
X-54610000Y-53340000D03*
G04 #@! TO.P,U1,3*
G04 #@! TO.N,Net-(U1-Pad3)*
X-54610000Y-52070000D03*
G04 #@! TO.P,U1,4*
G04 #@! TO.N,Net-(U1-Pad4)*
X-54610000Y-50800000D03*
G04 #@! TO.P,U1,5*
G04 #@! TO.N,Net-(A1-Pad5)*
X-54610000Y-49530000D03*
G04 #@! TO.P,U1,6*
G04 #@! TO.N,Net-(A1-Pad6)*
X-54610000Y-48260000D03*
G04 #@! TO.P,U1,7*
G04 #@! TO.N,Net-(A1-Pad7)*
X-54610000Y-46990000D03*
G04 #@! TO.P,U1,8*
G04 #@! TO.N,Net-(A1-Pad8)*
X-54610000Y-45720000D03*
G04 #@! TO.P,U1,9*
G04 #@! TO.N,GND*
X-54610000Y-44450000D03*
G04 #@! TO.P,U1,10*
G04 #@! TO.N,/12V_FUSED*
X-45210000Y-44450000D03*
G04 #@! TO.P,U1,11*
G04 #@! TO.N,Net-(R10-Pad2)*
X-45210000Y-45720000D03*
G04 #@! TO.P,U1,12*
G04 #@! TO.N,Net-(R11-Pad2)*
X-45210000Y-46990000D03*
G04 #@! TO.P,U1,13*
G04 #@! TO.N,Net-(R2-Pad2)*
X-45210000Y-48260000D03*
G04 #@! TO.P,U1,14*
G04 #@! TO.N,Net-(R1-Pad2)*
X-45210000Y-49530000D03*
G04 #@! TO.P,U1,15*
G04 #@! TO.N,Net-(U1-Pad15)*
X-45210000Y-50800000D03*
G04 #@! TO.P,U1,16*
G04 #@! TO.N,Net-(U1-Pad16)*
X-45210000Y-52070000D03*
G04 #@! TO.P,U1,17*
G04 #@! TO.N,Net-(U1-Pad17)*
X-45210000Y-53340000D03*
G04 #@! TO.P,U1,18*
G04 #@! TO.N,Net-(U1-Pad18)*
X-45210000Y-54610000D03*
G04 #@! TD*
D13*
G04 #@! TO.P,SW1,1*
G04 #@! TO.N,/PB1*
X-48410000Y-28520000D03*
D14*
G04 #@! TO.P,SW1,2*
G04 #@! TO.N,GND*
X-48410000Y-33020000D03*
G04 #@! TO.P,SW1,4*
G04 #@! TO.N,N/C*
X-41910000Y-33020000D03*
G04 #@! TO.P,SW1,3*
X-41910000Y-28520000D03*
G04 #@! TD*
D15*
G04 #@! TO.N,Net-(A1-Pad20)*
G04 #@! TO.C,R4*
G36*
X-83115496Y-33416204D02*
X-83091227Y-33419804D01*
X-83067429Y-33425765D01*
X-83044329Y-33434030D01*
X-83022151Y-33444520D01*
X-83001107Y-33457133D01*
X-82981402Y-33471747D01*
X-82963223Y-33488223D01*
X-82946747Y-33506402D01*
X-82932133Y-33526107D01*
X-82919520Y-33547151D01*
X-82909030Y-33569329D01*
X-82900765Y-33592429D01*
X-82894804Y-33616227D01*
X-82891204Y-33640496D01*
X-82890000Y-33665000D01*
X-82890000Y-34915000D01*
X-82891204Y-34939504D01*
X-82894804Y-34963773D01*
X-82900765Y-34987571D01*
X-82909030Y-35010671D01*
X-82919520Y-35032849D01*
X-82932133Y-35053893D01*
X-82946747Y-35073598D01*
X-82963223Y-35091777D01*
X-82981402Y-35108253D01*
X-83001107Y-35122867D01*
X-83022151Y-35135480D01*
X-83044329Y-35145970D01*
X-83067429Y-35154235D01*
X-83091227Y-35160196D01*
X-83115496Y-35163796D01*
X-83140000Y-35165000D01*
X-84065000Y-35165000D01*
X-84089504Y-35163796D01*
X-84113773Y-35160196D01*
X-84137571Y-35154235D01*
X-84160671Y-35145970D01*
X-84182849Y-35135480D01*
X-84203893Y-35122867D01*
X-84223598Y-35108253D01*
X-84241777Y-35091777D01*
X-84258253Y-35073598D01*
X-84272867Y-35053893D01*
X-84285480Y-35032849D01*
X-84295970Y-35010671D01*
X-84304235Y-34987571D01*
X-84310196Y-34963773D01*
X-84313796Y-34939504D01*
X-84315000Y-34915000D01*
X-84315000Y-33665000D01*
X-84313796Y-33640496D01*
X-84310196Y-33616227D01*
X-84304235Y-33592429D01*
X-84295970Y-33569329D01*
X-84285480Y-33547151D01*
X-84272867Y-33526107D01*
X-84258253Y-33506402D01*
X-84241777Y-33488223D01*
X-84223598Y-33471747D01*
X-84203893Y-33457133D01*
X-84182849Y-33444520D01*
X-84160671Y-33434030D01*
X-84137571Y-33425765D01*
X-84113773Y-33419804D01*
X-84089504Y-33416204D01*
X-84065000Y-33415000D01*
X-83140000Y-33415000D01*
X-83115496Y-33416204D01*
X-83115496Y-33416204D01*
G37*
D16*
G04 #@! TD*
G04 #@! TO.P,R4,2*
G04 #@! TO.N,Net-(A1-Pad20)*
X-83602500Y-34290000D03*
D15*
G04 #@! TO.N,GND*
G04 #@! TO.C,R4*
G36*
X-86090496Y-33416204D02*
X-86066227Y-33419804D01*
X-86042429Y-33425765D01*
X-86019329Y-33434030D01*
X-85997151Y-33444520D01*
X-85976107Y-33457133D01*
X-85956402Y-33471747D01*
X-85938223Y-33488223D01*
X-85921747Y-33506402D01*
X-85907133Y-33526107D01*
X-85894520Y-33547151D01*
X-85884030Y-33569329D01*
X-85875765Y-33592429D01*
X-85869804Y-33616227D01*
X-85866204Y-33640496D01*
X-85865000Y-33665000D01*
X-85865000Y-34915000D01*
X-85866204Y-34939504D01*
X-85869804Y-34963773D01*
X-85875765Y-34987571D01*
X-85884030Y-35010671D01*
X-85894520Y-35032849D01*
X-85907133Y-35053893D01*
X-85921747Y-35073598D01*
X-85938223Y-35091777D01*
X-85956402Y-35108253D01*
X-85976107Y-35122867D01*
X-85997151Y-35135480D01*
X-86019329Y-35145970D01*
X-86042429Y-35154235D01*
X-86066227Y-35160196D01*
X-86090496Y-35163796D01*
X-86115000Y-35165000D01*
X-87040000Y-35165000D01*
X-87064504Y-35163796D01*
X-87088773Y-35160196D01*
X-87112571Y-35154235D01*
X-87135671Y-35145970D01*
X-87157849Y-35135480D01*
X-87178893Y-35122867D01*
X-87198598Y-35108253D01*
X-87216777Y-35091777D01*
X-87233253Y-35073598D01*
X-87247867Y-35053893D01*
X-87260480Y-35032849D01*
X-87270970Y-35010671D01*
X-87279235Y-34987571D01*
X-87285196Y-34963773D01*
X-87288796Y-34939504D01*
X-87290000Y-34915000D01*
X-87290000Y-33665000D01*
X-87288796Y-33640496D01*
X-87285196Y-33616227D01*
X-87279235Y-33592429D01*
X-87270970Y-33569329D01*
X-87260480Y-33547151D01*
X-87247867Y-33526107D01*
X-87233253Y-33506402D01*
X-87216777Y-33488223D01*
X-87198598Y-33471747D01*
X-87178893Y-33457133D01*
X-87157849Y-33444520D01*
X-87135671Y-33434030D01*
X-87112571Y-33425765D01*
X-87088773Y-33419804D01*
X-87064504Y-33416204D01*
X-87040000Y-33415000D01*
X-86115000Y-33415000D01*
X-86090496Y-33416204D01*
X-86090496Y-33416204D01*
G37*
D16*
G04 #@! TD*
G04 #@! TO.P,R4,1*
G04 #@! TO.N,GND*
X-86577500Y-34290000D03*
D15*
G04 #@! TO.N,GND*
G04 #@! TO.C,R3*
G36*
X-86220496Y-29606204D02*
X-86196227Y-29609804D01*
X-86172429Y-29615765D01*
X-86149329Y-29624030D01*
X-86127151Y-29634520D01*
X-86106107Y-29647133D01*
X-86086402Y-29661747D01*
X-86068223Y-29678223D01*
X-86051747Y-29696402D01*
X-86037133Y-29716107D01*
X-86024520Y-29737151D01*
X-86014030Y-29759329D01*
X-86005765Y-29782429D01*
X-85999804Y-29806227D01*
X-85996204Y-29830496D01*
X-85995000Y-29855000D01*
X-85995000Y-31105000D01*
X-85996204Y-31129504D01*
X-85999804Y-31153773D01*
X-86005765Y-31177571D01*
X-86014030Y-31200671D01*
X-86024520Y-31222849D01*
X-86037133Y-31243893D01*
X-86051747Y-31263598D01*
X-86068223Y-31281777D01*
X-86086402Y-31298253D01*
X-86106107Y-31312867D01*
X-86127151Y-31325480D01*
X-86149329Y-31335970D01*
X-86172429Y-31344235D01*
X-86196227Y-31350196D01*
X-86220496Y-31353796D01*
X-86245000Y-31355000D01*
X-87170000Y-31355000D01*
X-87194504Y-31353796D01*
X-87218773Y-31350196D01*
X-87242571Y-31344235D01*
X-87265671Y-31335970D01*
X-87287849Y-31325480D01*
X-87308893Y-31312867D01*
X-87328598Y-31298253D01*
X-87346777Y-31281777D01*
X-87363253Y-31263598D01*
X-87377867Y-31243893D01*
X-87390480Y-31222849D01*
X-87400970Y-31200671D01*
X-87409235Y-31177571D01*
X-87415196Y-31153773D01*
X-87418796Y-31129504D01*
X-87420000Y-31105000D01*
X-87420000Y-29855000D01*
X-87418796Y-29830496D01*
X-87415196Y-29806227D01*
X-87409235Y-29782429D01*
X-87400970Y-29759329D01*
X-87390480Y-29737151D01*
X-87377867Y-29716107D01*
X-87363253Y-29696402D01*
X-87346777Y-29678223D01*
X-87328598Y-29661747D01*
X-87308893Y-29647133D01*
X-87287849Y-29634520D01*
X-87265671Y-29624030D01*
X-87242571Y-29615765D01*
X-87218773Y-29609804D01*
X-87194504Y-29606204D01*
X-87170000Y-29605000D01*
X-86245000Y-29605000D01*
X-86220496Y-29606204D01*
X-86220496Y-29606204D01*
G37*
D16*
G04 #@! TD*
G04 #@! TO.P,R3,1*
G04 #@! TO.N,GND*
X-86707500Y-30480000D03*
D15*
G04 #@! TO.N,Net-(A1-Pad19)*
G04 #@! TO.C,R3*
G36*
X-83245496Y-29606204D02*
X-83221227Y-29609804D01*
X-83197429Y-29615765D01*
X-83174329Y-29624030D01*
X-83152151Y-29634520D01*
X-83131107Y-29647133D01*
X-83111402Y-29661747D01*
X-83093223Y-29678223D01*
X-83076747Y-29696402D01*
X-83062133Y-29716107D01*
X-83049520Y-29737151D01*
X-83039030Y-29759329D01*
X-83030765Y-29782429D01*
X-83024804Y-29806227D01*
X-83021204Y-29830496D01*
X-83020000Y-29855000D01*
X-83020000Y-31105000D01*
X-83021204Y-31129504D01*
X-83024804Y-31153773D01*
X-83030765Y-31177571D01*
X-83039030Y-31200671D01*
X-83049520Y-31222849D01*
X-83062133Y-31243893D01*
X-83076747Y-31263598D01*
X-83093223Y-31281777D01*
X-83111402Y-31298253D01*
X-83131107Y-31312867D01*
X-83152151Y-31325480D01*
X-83174329Y-31335970D01*
X-83197429Y-31344235D01*
X-83221227Y-31350196D01*
X-83245496Y-31353796D01*
X-83270000Y-31355000D01*
X-84195000Y-31355000D01*
X-84219504Y-31353796D01*
X-84243773Y-31350196D01*
X-84267571Y-31344235D01*
X-84290671Y-31335970D01*
X-84312849Y-31325480D01*
X-84333893Y-31312867D01*
X-84353598Y-31298253D01*
X-84371777Y-31281777D01*
X-84388253Y-31263598D01*
X-84402867Y-31243893D01*
X-84415480Y-31222849D01*
X-84425970Y-31200671D01*
X-84434235Y-31177571D01*
X-84440196Y-31153773D01*
X-84443796Y-31129504D01*
X-84445000Y-31105000D01*
X-84445000Y-29855000D01*
X-84443796Y-29830496D01*
X-84440196Y-29806227D01*
X-84434235Y-29782429D01*
X-84425970Y-29759329D01*
X-84415480Y-29737151D01*
X-84402867Y-29716107D01*
X-84388253Y-29696402D01*
X-84371777Y-29678223D01*
X-84353598Y-29661747D01*
X-84333893Y-29647133D01*
X-84312849Y-29634520D01*
X-84290671Y-29624030D01*
X-84267571Y-29615765D01*
X-84243773Y-29609804D01*
X-84219504Y-29606204D01*
X-84195000Y-29605000D01*
X-83270000Y-29605000D01*
X-83245496Y-29606204D01*
X-83245496Y-29606204D01*
G37*
D16*
G04 #@! TD*
G04 #@! TO.P,R3,2*
G04 #@! TO.N,Net-(A1-Pad19)*
X-83732500Y-30480000D03*
D15*
G04 #@! TO.N,Net-(R2-Pad2)*
G04 #@! TO.C,R2*
G36*
X-25130496Y-55006204D02*
X-25106227Y-55009804D01*
X-25082429Y-55015765D01*
X-25059329Y-55024030D01*
X-25037151Y-55034520D01*
X-25016107Y-55047133D01*
X-24996402Y-55061747D01*
X-24978223Y-55078223D01*
X-24961747Y-55096402D01*
X-24947133Y-55116107D01*
X-24934520Y-55137151D01*
X-24924030Y-55159329D01*
X-24915765Y-55182429D01*
X-24909804Y-55206227D01*
X-24906204Y-55230496D01*
X-24905000Y-55255000D01*
X-24905000Y-56505000D01*
X-24906204Y-56529504D01*
X-24909804Y-56553773D01*
X-24915765Y-56577571D01*
X-24924030Y-56600671D01*
X-24934520Y-56622849D01*
X-24947133Y-56643893D01*
X-24961747Y-56663598D01*
X-24978223Y-56681777D01*
X-24996402Y-56698253D01*
X-25016107Y-56712867D01*
X-25037151Y-56725480D01*
X-25059329Y-56735970D01*
X-25082429Y-56744235D01*
X-25106227Y-56750196D01*
X-25130496Y-56753796D01*
X-25155000Y-56755000D01*
X-26080000Y-56755000D01*
X-26104504Y-56753796D01*
X-26128773Y-56750196D01*
X-26152571Y-56744235D01*
X-26175671Y-56735970D01*
X-26197849Y-56725480D01*
X-26218893Y-56712867D01*
X-26238598Y-56698253D01*
X-26256777Y-56681777D01*
X-26273253Y-56663598D01*
X-26287867Y-56643893D01*
X-26300480Y-56622849D01*
X-26310970Y-56600671D01*
X-26319235Y-56577571D01*
X-26325196Y-56553773D01*
X-26328796Y-56529504D01*
X-26330000Y-56505000D01*
X-26330000Y-55255000D01*
X-26328796Y-55230496D01*
X-26325196Y-55206227D01*
X-26319235Y-55182429D01*
X-26310970Y-55159329D01*
X-26300480Y-55137151D01*
X-26287867Y-55116107D01*
X-26273253Y-55096402D01*
X-26256777Y-55078223D01*
X-26238598Y-55061747D01*
X-26218893Y-55047133D01*
X-26197849Y-55034520D01*
X-26175671Y-55024030D01*
X-26152571Y-55015765D01*
X-26128773Y-55009804D01*
X-26104504Y-55006204D01*
X-26080000Y-55005000D01*
X-25155000Y-55005000D01*
X-25130496Y-55006204D01*
X-25130496Y-55006204D01*
G37*
D16*
G04 #@! TD*
G04 #@! TO.P,R2,2*
G04 #@! TO.N,Net-(R2-Pad2)*
X-25617500Y-55880000D03*
D15*
G04 #@! TO.N,Net-(L1_Finish1-Pad2)*
G04 #@! TO.C,R2*
G36*
X-22155496Y-55006204D02*
X-22131227Y-55009804D01*
X-22107429Y-55015765D01*
X-22084329Y-55024030D01*
X-22062151Y-55034520D01*
X-22041107Y-55047133D01*
X-22021402Y-55061747D01*
X-22003223Y-55078223D01*
X-21986747Y-55096402D01*
X-21972133Y-55116107D01*
X-21959520Y-55137151D01*
X-21949030Y-55159329D01*
X-21940765Y-55182429D01*
X-21934804Y-55206227D01*
X-21931204Y-55230496D01*
X-21930000Y-55255000D01*
X-21930000Y-56505000D01*
X-21931204Y-56529504D01*
X-21934804Y-56553773D01*
X-21940765Y-56577571D01*
X-21949030Y-56600671D01*
X-21959520Y-56622849D01*
X-21972133Y-56643893D01*
X-21986747Y-56663598D01*
X-22003223Y-56681777D01*
X-22021402Y-56698253D01*
X-22041107Y-56712867D01*
X-22062151Y-56725480D01*
X-22084329Y-56735970D01*
X-22107429Y-56744235D01*
X-22131227Y-56750196D01*
X-22155496Y-56753796D01*
X-22180000Y-56755000D01*
X-23105000Y-56755000D01*
X-23129504Y-56753796D01*
X-23153773Y-56750196D01*
X-23177571Y-56744235D01*
X-23200671Y-56735970D01*
X-23222849Y-56725480D01*
X-23243893Y-56712867D01*
X-23263598Y-56698253D01*
X-23281777Y-56681777D01*
X-23298253Y-56663598D01*
X-23312867Y-56643893D01*
X-23325480Y-56622849D01*
X-23335970Y-56600671D01*
X-23344235Y-56577571D01*
X-23350196Y-56553773D01*
X-23353796Y-56529504D01*
X-23355000Y-56505000D01*
X-23355000Y-55255000D01*
X-23353796Y-55230496D01*
X-23350196Y-55206227D01*
X-23344235Y-55182429D01*
X-23335970Y-55159329D01*
X-23325480Y-55137151D01*
X-23312867Y-55116107D01*
X-23298253Y-55096402D01*
X-23281777Y-55078223D01*
X-23263598Y-55061747D01*
X-23243893Y-55047133D01*
X-23222849Y-55034520D01*
X-23200671Y-55024030D01*
X-23177571Y-55015765D01*
X-23153773Y-55009804D01*
X-23129504Y-55006204D01*
X-23105000Y-55005000D01*
X-22180000Y-55005000D01*
X-22155496Y-55006204D01*
X-22155496Y-55006204D01*
G37*
D16*
G04 #@! TD*
G04 #@! TO.P,R2,1*
G04 #@! TO.N,Net-(L1_Finish1-Pad2)*
X-22642500Y-55880000D03*
D15*
G04 #@! TO.N,Net-(L2_finish1-Pad2)*
G04 #@! TO.C,R1*
G36*
X-22025496Y-71516204D02*
X-22001227Y-71519804D01*
X-21977429Y-71525765D01*
X-21954329Y-71534030D01*
X-21932151Y-71544520D01*
X-21911107Y-71557133D01*
X-21891402Y-71571747D01*
X-21873223Y-71588223D01*
X-21856747Y-71606402D01*
X-21842133Y-71626107D01*
X-21829520Y-71647151D01*
X-21819030Y-71669329D01*
X-21810765Y-71692429D01*
X-21804804Y-71716227D01*
X-21801204Y-71740496D01*
X-21800000Y-71765000D01*
X-21800000Y-73015000D01*
X-21801204Y-73039504D01*
X-21804804Y-73063773D01*
X-21810765Y-73087571D01*
X-21819030Y-73110671D01*
X-21829520Y-73132849D01*
X-21842133Y-73153893D01*
X-21856747Y-73173598D01*
X-21873223Y-73191777D01*
X-21891402Y-73208253D01*
X-21911107Y-73222867D01*
X-21932151Y-73235480D01*
X-21954329Y-73245970D01*
X-21977429Y-73254235D01*
X-22001227Y-73260196D01*
X-22025496Y-73263796D01*
X-22050000Y-73265000D01*
X-22975000Y-73265000D01*
X-22999504Y-73263796D01*
X-23023773Y-73260196D01*
X-23047571Y-73254235D01*
X-23070671Y-73245970D01*
X-23092849Y-73235480D01*
X-23113893Y-73222867D01*
X-23133598Y-73208253D01*
X-23151777Y-73191777D01*
X-23168253Y-73173598D01*
X-23182867Y-73153893D01*
X-23195480Y-73132849D01*
X-23205970Y-73110671D01*
X-23214235Y-73087571D01*
X-23220196Y-73063773D01*
X-23223796Y-73039504D01*
X-23225000Y-73015000D01*
X-23225000Y-71765000D01*
X-23223796Y-71740496D01*
X-23220196Y-71716227D01*
X-23214235Y-71692429D01*
X-23205970Y-71669329D01*
X-23195480Y-71647151D01*
X-23182867Y-71626107D01*
X-23168253Y-71606402D01*
X-23151777Y-71588223D01*
X-23133598Y-71571747D01*
X-23113893Y-71557133D01*
X-23092849Y-71544520D01*
X-23070671Y-71534030D01*
X-23047571Y-71525765D01*
X-23023773Y-71519804D01*
X-22999504Y-71516204D01*
X-22975000Y-71515000D01*
X-22050000Y-71515000D01*
X-22025496Y-71516204D01*
X-22025496Y-71516204D01*
G37*
D16*
G04 #@! TD*
G04 #@! TO.P,R1,1*
G04 #@! TO.N,Net-(L2_finish1-Pad2)*
X-22512500Y-72390000D03*
D15*
G04 #@! TO.N,Net-(R1-Pad2)*
G04 #@! TO.C,R1*
G36*
X-25000496Y-71516204D02*
X-24976227Y-71519804D01*
X-24952429Y-71525765D01*
X-24929329Y-71534030D01*
X-24907151Y-71544520D01*
X-24886107Y-71557133D01*
X-24866402Y-71571747D01*
X-24848223Y-71588223D01*
X-24831747Y-71606402D01*
X-24817133Y-71626107D01*
X-24804520Y-71647151D01*
X-24794030Y-71669329D01*
X-24785765Y-71692429D01*
X-24779804Y-71716227D01*
X-24776204Y-71740496D01*
X-24775000Y-71765000D01*
X-24775000Y-73015000D01*
X-24776204Y-73039504D01*
X-24779804Y-73063773D01*
X-24785765Y-73087571D01*
X-24794030Y-73110671D01*
X-24804520Y-73132849D01*
X-24817133Y-73153893D01*
X-24831747Y-73173598D01*
X-24848223Y-73191777D01*
X-24866402Y-73208253D01*
X-24886107Y-73222867D01*
X-24907151Y-73235480D01*
X-24929329Y-73245970D01*
X-24952429Y-73254235D01*
X-24976227Y-73260196D01*
X-25000496Y-73263796D01*
X-25025000Y-73265000D01*
X-25950000Y-73265000D01*
X-25974504Y-73263796D01*
X-25998773Y-73260196D01*
X-26022571Y-73254235D01*
X-26045671Y-73245970D01*
X-26067849Y-73235480D01*
X-26088893Y-73222867D01*
X-26108598Y-73208253D01*
X-26126777Y-73191777D01*
X-26143253Y-73173598D01*
X-26157867Y-73153893D01*
X-26170480Y-73132849D01*
X-26180970Y-73110671D01*
X-26189235Y-73087571D01*
X-26195196Y-73063773D01*
X-26198796Y-73039504D01*
X-26200000Y-73015000D01*
X-26200000Y-71765000D01*
X-26198796Y-71740496D01*
X-26195196Y-71716227D01*
X-26189235Y-71692429D01*
X-26180970Y-71669329D01*
X-26170480Y-71647151D01*
X-26157867Y-71626107D01*
X-26143253Y-71606402D01*
X-26126777Y-71588223D01*
X-26108598Y-71571747D01*
X-26088893Y-71557133D01*
X-26067849Y-71544520D01*
X-26045671Y-71534030D01*
X-26022571Y-71525765D01*
X-25998773Y-71519804D01*
X-25974504Y-71516204D01*
X-25950000Y-71515000D01*
X-25025000Y-71515000D01*
X-25000496Y-71516204D01*
X-25000496Y-71516204D01*
G37*
D16*
G04 #@! TD*
G04 #@! TO.P,R1,2*
G04 #@! TO.N,Net-(R1-Pad2)*
X-25487500Y-72390000D03*
D15*
G04 #@! TO.N,Net-(A1-Pad21)*
G04 #@! TO.C,R5*
G36*
X-83115496Y-37226204D02*
X-83091227Y-37229804D01*
X-83067429Y-37235765D01*
X-83044329Y-37244030D01*
X-83022151Y-37254520D01*
X-83001107Y-37267133D01*
X-82981402Y-37281747D01*
X-82963223Y-37298223D01*
X-82946747Y-37316402D01*
X-82932133Y-37336107D01*
X-82919520Y-37357151D01*
X-82909030Y-37379329D01*
X-82900765Y-37402429D01*
X-82894804Y-37426227D01*
X-82891204Y-37450496D01*
X-82890000Y-37475000D01*
X-82890000Y-38725000D01*
X-82891204Y-38749504D01*
X-82894804Y-38773773D01*
X-82900765Y-38797571D01*
X-82909030Y-38820671D01*
X-82919520Y-38842849D01*
X-82932133Y-38863893D01*
X-82946747Y-38883598D01*
X-82963223Y-38901777D01*
X-82981402Y-38918253D01*
X-83001107Y-38932867D01*
X-83022151Y-38945480D01*
X-83044329Y-38955970D01*
X-83067429Y-38964235D01*
X-83091227Y-38970196D01*
X-83115496Y-38973796D01*
X-83140000Y-38975000D01*
X-84065000Y-38975000D01*
X-84089504Y-38973796D01*
X-84113773Y-38970196D01*
X-84137571Y-38964235D01*
X-84160671Y-38955970D01*
X-84182849Y-38945480D01*
X-84203893Y-38932867D01*
X-84223598Y-38918253D01*
X-84241777Y-38901777D01*
X-84258253Y-38883598D01*
X-84272867Y-38863893D01*
X-84285480Y-38842849D01*
X-84295970Y-38820671D01*
X-84304235Y-38797571D01*
X-84310196Y-38773773D01*
X-84313796Y-38749504D01*
X-84315000Y-38725000D01*
X-84315000Y-37475000D01*
X-84313796Y-37450496D01*
X-84310196Y-37426227D01*
X-84304235Y-37402429D01*
X-84295970Y-37379329D01*
X-84285480Y-37357151D01*
X-84272867Y-37336107D01*
X-84258253Y-37316402D01*
X-84241777Y-37298223D01*
X-84223598Y-37281747D01*
X-84203893Y-37267133D01*
X-84182849Y-37254520D01*
X-84160671Y-37244030D01*
X-84137571Y-37235765D01*
X-84113773Y-37229804D01*
X-84089504Y-37226204D01*
X-84065000Y-37225000D01*
X-83140000Y-37225000D01*
X-83115496Y-37226204D01*
X-83115496Y-37226204D01*
G37*
D16*
G04 #@! TD*
G04 #@! TO.P,R5,2*
G04 #@! TO.N,Net-(A1-Pad21)*
X-83602500Y-38100000D03*
D15*
G04 #@! TO.N,GND*
G04 #@! TO.C,R5*
G36*
X-86090496Y-37226204D02*
X-86066227Y-37229804D01*
X-86042429Y-37235765D01*
X-86019329Y-37244030D01*
X-85997151Y-37254520D01*
X-85976107Y-37267133D01*
X-85956402Y-37281747D01*
X-85938223Y-37298223D01*
X-85921747Y-37316402D01*
X-85907133Y-37336107D01*
X-85894520Y-37357151D01*
X-85884030Y-37379329D01*
X-85875765Y-37402429D01*
X-85869804Y-37426227D01*
X-85866204Y-37450496D01*
X-85865000Y-37475000D01*
X-85865000Y-38725000D01*
X-85866204Y-38749504D01*
X-85869804Y-38773773D01*
X-85875765Y-38797571D01*
X-85884030Y-38820671D01*
X-85894520Y-38842849D01*
X-85907133Y-38863893D01*
X-85921747Y-38883598D01*
X-85938223Y-38901777D01*
X-85956402Y-38918253D01*
X-85976107Y-38932867D01*
X-85997151Y-38945480D01*
X-86019329Y-38955970D01*
X-86042429Y-38964235D01*
X-86066227Y-38970196D01*
X-86090496Y-38973796D01*
X-86115000Y-38975000D01*
X-87040000Y-38975000D01*
X-87064504Y-38973796D01*
X-87088773Y-38970196D01*
X-87112571Y-38964235D01*
X-87135671Y-38955970D01*
X-87157849Y-38945480D01*
X-87178893Y-38932867D01*
X-87198598Y-38918253D01*
X-87216777Y-38901777D01*
X-87233253Y-38883598D01*
X-87247867Y-38863893D01*
X-87260480Y-38842849D01*
X-87270970Y-38820671D01*
X-87279235Y-38797571D01*
X-87285196Y-38773773D01*
X-87288796Y-38749504D01*
X-87290000Y-38725000D01*
X-87290000Y-37475000D01*
X-87288796Y-37450496D01*
X-87285196Y-37426227D01*
X-87279235Y-37402429D01*
X-87270970Y-37379329D01*
X-87260480Y-37357151D01*
X-87247867Y-37336107D01*
X-87233253Y-37316402D01*
X-87216777Y-37298223D01*
X-87198598Y-37281747D01*
X-87178893Y-37267133D01*
X-87157849Y-37254520D01*
X-87135671Y-37244030D01*
X-87112571Y-37235765D01*
X-87088773Y-37229804D01*
X-87064504Y-37226204D01*
X-87040000Y-37225000D01*
X-86115000Y-37225000D01*
X-86090496Y-37226204D01*
X-86090496Y-37226204D01*
G37*
D16*
G04 #@! TD*
G04 #@! TO.P,R5,1*
G04 #@! TO.N,GND*
X-86577500Y-38100000D03*
D15*
G04 #@! TO.N,GND*
G04 #@! TO.C,R6*
G36*
X-86090496Y-41036204D02*
X-86066227Y-41039804D01*
X-86042429Y-41045765D01*
X-86019329Y-41054030D01*
X-85997151Y-41064520D01*
X-85976107Y-41077133D01*
X-85956402Y-41091747D01*
X-85938223Y-41108223D01*
X-85921747Y-41126402D01*
X-85907133Y-41146107D01*
X-85894520Y-41167151D01*
X-85884030Y-41189329D01*
X-85875765Y-41212429D01*
X-85869804Y-41236227D01*
X-85866204Y-41260496D01*
X-85865000Y-41285000D01*
X-85865000Y-42535000D01*
X-85866204Y-42559504D01*
X-85869804Y-42583773D01*
X-85875765Y-42607571D01*
X-85884030Y-42630671D01*
X-85894520Y-42652849D01*
X-85907133Y-42673893D01*
X-85921747Y-42693598D01*
X-85938223Y-42711777D01*
X-85956402Y-42728253D01*
X-85976107Y-42742867D01*
X-85997151Y-42755480D01*
X-86019329Y-42765970D01*
X-86042429Y-42774235D01*
X-86066227Y-42780196D01*
X-86090496Y-42783796D01*
X-86115000Y-42785000D01*
X-87040000Y-42785000D01*
X-87064504Y-42783796D01*
X-87088773Y-42780196D01*
X-87112571Y-42774235D01*
X-87135671Y-42765970D01*
X-87157849Y-42755480D01*
X-87178893Y-42742867D01*
X-87198598Y-42728253D01*
X-87216777Y-42711777D01*
X-87233253Y-42693598D01*
X-87247867Y-42673893D01*
X-87260480Y-42652849D01*
X-87270970Y-42630671D01*
X-87279235Y-42607571D01*
X-87285196Y-42583773D01*
X-87288796Y-42559504D01*
X-87290000Y-42535000D01*
X-87290000Y-41285000D01*
X-87288796Y-41260496D01*
X-87285196Y-41236227D01*
X-87279235Y-41212429D01*
X-87270970Y-41189329D01*
X-87260480Y-41167151D01*
X-87247867Y-41146107D01*
X-87233253Y-41126402D01*
X-87216777Y-41108223D01*
X-87198598Y-41091747D01*
X-87178893Y-41077133D01*
X-87157849Y-41064520D01*
X-87135671Y-41054030D01*
X-87112571Y-41045765D01*
X-87088773Y-41039804D01*
X-87064504Y-41036204D01*
X-87040000Y-41035000D01*
X-86115000Y-41035000D01*
X-86090496Y-41036204D01*
X-86090496Y-41036204D01*
G37*
D16*
G04 #@! TD*
G04 #@! TO.P,R6,1*
G04 #@! TO.N,GND*
X-86577500Y-41910000D03*
D15*
G04 #@! TO.N,Net-(A1-Pad22)*
G04 #@! TO.C,R6*
G36*
X-83115496Y-41036204D02*
X-83091227Y-41039804D01*
X-83067429Y-41045765D01*
X-83044329Y-41054030D01*
X-83022151Y-41064520D01*
X-83001107Y-41077133D01*
X-82981402Y-41091747D01*
X-82963223Y-41108223D01*
X-82946747Y-41126402D01*
X-82932133Y-41146107D01*
X-82919520Y-41167151D01*
X-82909030Y-41189329D01*
X-82900765Y-41212429D01*
X-82894804Y-41236227D01*
X-82891204Y-41260496D01*
X-82890000Y-41285000D01*
X-82890000Y-42535000D01*
X-82891204Y-42559504D01*
X-82894804Y-42583773D01*
X-82900765Y-42607571D01*
X-82909030Y-42630671D01*
X-82919520Y-42652849D01*
X-82932133Y-42673893D01*
X-82946747Y-42693598D01*
X-82963223Y-42711777D01*
X-82981402Y-42728253D01*
X-83001107Y-42742867D01*
X-83022151Y-42755480D01*
X-83044329Y-42765970D01*
X-83067429Y-42774235D01*
X-83091227Y-42780196D01*
X-83115496Y-42783796D01*
X-83140000Y-42785000D01*
X-84065000Y-42785000D01*
X-84089504Y-42783796D01*
X-84113773Y-42780196D01*
X-84137571Y-42774235D01*
X-84160671Y-42765970D01*
X-84182849Y-42755480D01*
X-84203893Y-42742867D01*
X-84223598Y-42728253D01*
X-84241777Y-42711777D01*
X-84258253Y-42693598D01*
X-84272867Y-42673893D01*
X-84285480Y-42652849D01*
X-84295970Y-42630671D01*
X-84304235Y-42607571D01*
X-84310196Y-42583773D01*
X-84313796Y-42559504D01*
X-84315000Y-42535000D01*
X-84315000Y-41285000D01*
X-84313796Y-41260496D01*
X-84310196Y-41236227D01*
X-84304235Y-41212429D01*
X-84295970Y-41189329D01*
X-84285480Y-41167151D01*
X-84272867Y-41146107D01*
X-84258253Y-41126402D01*
X-84241777Y-41108223D01*
X-84223598Y-41091747D01*
X-84203893Y-41077133D01*
X-84182849Y-41064520D01*
X-84160671Y-41054030D01*
X-84137571Y-41045765D01*
X-84113773Y-41039804D01*
X-84089504Y-41036204D01*
X-84065000Y-41035000D01*
X-83140000Y-41035000D01*
X-83115496Y-41036204D01*
X-83115496Y-41036204D01*
G37*
D16*
G04 #@! TD*
G04 #@! TO.P,R6,2*
G04 #@! TO.N,Net-(A1-Pad22)*
X-83602500Y-41910000D03*
D15*
G04 #@! TO.N,Net-(R10-Pad2)*
G04 #@! TO.C,R7*
G36*
X-25000496Y-14366204D02*
X-24976227Y-14369804D01*
X-24952429Y-14375765D01*
X-24929329Y-14384030D01*
X-24907151Y-14394520D01*
X-24886107Y-14407133D01*
X-24866402Y-14421747D01*
X-24848223Y-14438223D01*
X-24831747Y-14456402D01*
X-24817133Y-14476107D01*
X-24804520Y-14497151D01*
X-24794030Y-14519329D01*
X-24785765Y-14542429D01*
X-24779804Y-14566227D01*
X-24776204Y-14590496D01*
X-24775000Y-14615000D01*
X-24775000Y-15865000D01*
X-24776204Y-15889504D01*
X-24779804Y-15913773D01*
X-24785765Y-15937571D01*
X-24794030Y-15960671D01*
X-24804520Y-15982849D01*
X-24817133Y-16003893D01*
X-24831747Y-16023598D01*
X-24848223Y-16041777D01*
X-24866402Y-16058253D01*
X-24886107Y-16072867D01*
X-24907151Y-16085480D01*
X-24929329Y-16095970D01*
X-24952429Y-16104235D01*
X-24976227Y-16110196D01*
X-25000496Y-16113796D01*
X-25025000Y-16115000D01*
X-25950000Y-16115000D01*
X-25974504Y-16113796D01*
X-25998773Y-16110196D01*
X-26022571Y-16104235D01*
X-26045671Y-16095970D01*
X-26067849Y-16085480D01*
X-26088893Y-16072867D01*
X-26108598Y-16058253D01*
X-26126777Y-16041777D01*
X-26143253Y-16023598D01*
X-26157867Y-16003893D01*
X-26170480Y-15982849D01*
X-26180970Y-15960671D01*
X-26189235Y-15937571D01*
X-26195196Y-15913773D01*
X-26198796Y-15889504D01*
X-26200000Y-15865000D01*
X-26200000Y-14615000D01*
X-26198796Y-14590496D01*
X-26195196Y-14566227D01*
X-26189235Y-14542429D01*
X-26180970Y-14519329D01*
X-26170480Y-14497151D01*
X-26157867Y-14476107D01*
X-26143253Y-14456402D01*
X-26126777Y-14438223D01*
X-26108598Y-14421747D01*
X-26088893Y-14407133D01*
X-26067849Y-14394520D01*
X-26045671Y-14384030D01*
X-26022571Y-14375765D01*
X-25998773Y-14369804D01*
X-25974504Y-14366204D01*
X-25950000Y-14365000D01*
X-25025000Y-14365000D01*
X-25000496Y-14366204D01*
X-25000496Y-14366204D01*
G37*
D16*
G04 #@! TD*
G04 #@! TO.P,R7,2*
G04 #@! TO.N,Net-(R10-Pad2)*
X-25487500Y-15240000D03*
D15*
G04 #@! TO.N,/PORT0_LED_EXCITE*
G04 #@! TO.C,R7*
G36*
X-22025496Y-14366204D02*
X-22001227Y-14369804D01*
X-21977429Y-14375765D01*
X-21954329Y-14384030D01*
X-21932151Y-14394520D01*
X-21911107Y-14407133D01*
X-21891402Y-14421747D01*
X-21873223Y-14438223D01*
X-21856747Y-14456402D01*
X-21842133Y-14476107D01*
X-21829520Y-14497151D01*
X-21819030Y-14519329D01*
X-21810765Y-14542429D01*
X-21804804Y-14566227D01*
X-21801204Y-14590496D01*
X-21800000Y-14615000D01*
X-21800000Y-15865000D01*
X-21801204Y-15889504D01*
X-21804804Y-15913773D01*
X-21810765Y-15937571D01*
X-21819030Y-15960671D01*
X-21829520Y-15982849D01*
X-21842133Y-16003893D01*
X-21856747Y-16023598D01*
X-21873223Y-16041777D01*
X-21891402Y-16058253D01*
X-21911107Y-16072867D01*
X-21932151Y-16085480D01*
X-21954329Y-16095970D01*
X-21977429Y-16104235D01*
X-22001227Y-16110196D01*
X-22025496Y-16113796D01*
X-22050000Y-16115000D01*
X-22975000Y-16115000D01*
X-22999504Y-16113796D01*
X-23023773Y-16110196D01*
X-23047571Y-16104235D01*
X-23070671Y-16095970D01*
X-23092849Y-16085480D01*
X-23113893Y-16072867D01*
X-23133598Y-16058253D01*
X-23151777Y-16041777D01*
X-23168253Y-16023598D01*
X-23182867Y-16003893D01*
X-23195480Y-15982849D01*
X-23205970Y-15960671D01*
X-23214235Y-15937571D01*
X-23220196Y-15913773D01*
X-23223796Y-15889504D01*
X-23225000Y-15865000D01*
X-23225000Y-14615000D01*
X-23223796Y-14590496D01*
X-23220196Y-14566227D01*
X-23214235Y-14542429D01*
X-23205970Y-14519329D01*
X-23195480Y-14497151D01*
X-23182867Y-14476107D01*
X-23168253Y-14456402D01*
X-23151777Y-14438223D01*
X-23133598Y-14421747D01*
X-23113893Y-14407133D01*
X-23092849Y-14394520D01*
X-23070671Y-14384030D01*
X-23047571Y-14375765D01*
X-23023773Y-14369804D01*
X-22999504Y-14366204D01*
X-22975000Y-14365000D01*
X-22050000Y-14365000D01*
X-22025496Y-14366204D01*
X-22025496Y-14366204D01*
G37*
D16*
G04 #@! TD*
G04 #@! TO.P,R7,1*
G04 #@! TO.N,/PORT0_LED_EXCITE*
X-22512500Y-15240000D03*
D15*
G04 #@! TO.N,/PORT1_LED_EXCITE*
G04 #@! TO.C,R8*
G36*
X-22155496Y-34686204D02*
X-22131227Y-34689804D01*
X-22107429Y-34695765D01*
X-22084329Y-34704030D01*
X-22062151Y-34714520D01*
X-22041107Y-34727133D01*
X-22021402Y-34741747D01*
X-22003223Y-34758223D01*
X-21986747Y-34776402D01*
X-21972133Y-34796107D01*
X-21959520Y-34817151D01*
X-21949030Y-34839329D01*
X-21940765Y-34862429D01*
X-21934804Y-34886227D01*
X-21931204Y-34910496D01*
X-21930000Y-34935000D01*
X-21930000Y-36185000D01*
X-21931204Y-36209504D01*
X-21934804Y-36233773D01*
X-21940765Y-36257571D01*
X-21949030Y-36280671D01*
X-21959520Y-36302849D01*
X-21972133Y-36323893D01*
X-21986747Y-36343598D01*
X-22003223Y-36361777D01*
X-22021402Y-36378253D01*
X-22041107Y-36392867D01*
X-22062151Y-36405480D01*
X-22084329Y-36415970D01*
X-22107429Y-36424235D01*
X-22131227Y-36430196D01*
X-22155496Y-36433796D01*
X-22180000Y-36435000D01*
X-23105000Y-36435000D01*
X-23129504Y-36433796D01*
X-23153773Y-36430196D01*
X-23177571Y-36424235D01*
X-23200671Y-36415970D01*
X-23222849Y-36405480D01*
X-23243893Y-36392867D01*
X-23263598Y-36378253D01*
X-23281777Y-36361777D01*
X-23298253Y-36343598D01*
X-23312867Y-36323893D01*
X-23325480Y-36302849D01*
X-23335970Y-36280671D01*
X-23344235Y-36257571D01*
X-23350196Y-36233773D01*
X-23353796Y-36209504D01*
X-23355000Y-36185000D01*
X-23355000Y-34935000D01*
X-23353796Y-34910496D01*
X-23350196Y-34886227D01*
X-23344235Y-34862429D01*
X-23335970Y-34839329D01*
X-23325480Y-34817151D01*
X-23312867Y-34796107D01*
X-23298253Y-34776402D01*
X-23281777Y-34758223D01*
X-23263598Y-34741747D01*
X-23243893Y-34727133D01*
X-23222849Y-34714520D01*
X-23200671Y-34704030D01*
X-23177571Y-34695765D01*
X-23153773Y-34689804D01*
X-23129504Y-34686204D01*
X-23105000Y-34685000D01*
X-22180000Y-34685000D01*
X-22155496Y-34686204D01*
X-22155496Y-34686204D01*
G37*
D16*
G04 #@! TD*
G04 #@! TO.P,R8,1*
G04 #@! TO.N,/PORT1_LED_EXCITE*
X-22642500Y-35560000D03*
D15*
G04 #@! TO.N,Net-(R10-Pad2)*
G04 #@! TO.C,R8*
G36*
X-25130496Y-34686204D02*
X-25106227Y-34689804D01*
X-25082429Y-34695765D01*
X-25059329Y-34704030D01*
X-25037151Y-34714520D01*
X-25016107Y-34727133D01*
X-24996402Y-34741747D01*
X-24978223Y-34758223D01*
X-24961747Y-34776402D01*
X-24947133Y-34796107D01*
X-24934520Y-34817151D01*
X-24924030Y-34839329D01*
X-24915765Y-34862429D01*
X-24909804Y-34886227D01*
X-24906204Y-34910496D01*
X-24905000Y-34935000D01*
X-24905000Y-36185000D01*
X-24906204Y-36209504D01*
X-24909804Y-36233773D01*
X-24915765Y-36257571D01*
X-24924030Y-36280671D01*
X-24934520Y-36302849D01*
X-24947133Y-36323893D01*
X-24961747Y-36343598D01*
X-24978223Y-36361777D01*
X-24996402Y-36378253D01*
X-25016107Y-36392867D01*
X-25037151Y-36405480D01*
X-25059329Y-36415970D01*
X-25082429Y-36424235D01*
X-25106227Y-36430196D01*
X-25130496Y-36433796D01*
X-25155000Y-36435000D01*
X-26080000Y-36435000D01*
X-26104504Y-36433796D01*
X-26128773Y-36430196D01*
X-26152571Y-36424235D01*
X-26175671Y-36415970D01*
X-26197849Y-36405480D01*
X-26218893Y-36392867D01*
X-26238598Y-36378253D01*
X-26256777Y-36361777D01*
X-26273253Y-36343598D01*
X-26287867Y-36323893D01*
X-26300480Y-36302849D01*
X-26310970Y-36280671D01*
X-26319235Y-36257571D01*
X-26325196Y-36233773D01*
X-26328796Y-36209504D01*
X-26330000Y-36185000D01*
X-26330000Y-34935000D01*
X-26328796Y-34910496D01*
X-26325196Y-34886227D01*
X-26319235Y-34862429D01*
X-26310970Y-34839329D01*
X-26300480Y-34817151D01*
X-26287867Y-34796107D01*
X-26273253Y-34776402D01*
X-26256777Y-34758223D01*
X-26238598Y-34741747D01*
X-26218893Y-34727133D01*
X-26197849Y-34714520D01*
X-26175671Y-34704030D01*
X-26152571Y-34695765D01*
X-26128773Y-34689804D01*
X-26104504Y-34686204D01*
X-26080000Y-34685000D01*
X-25155000Y-34685000D01*
X-25130496Y-34686204D01*
X-25130496Y-34686204D01*
G37*
D16*
G04 #@! TD*
G04 #@! TO.P,R8,2*
G04 #@! TO.N,Net-(R10-Pad2)*
X-25617500Y-35560000D03*
D15*
G04 #@! TO.N,Net-(R10-Pad2)*
G04 #@! TO.C,R10*
G36*
X-25130496Y-67706204D02*
X-25106227Y-67709804D01*
X-25082429Y-67715765D01*
X-25059329Y-67724030D01*
X-25037151Y-67734520D01*
X-25016107Y-67747133D01*
X-24996402Y-67761747D01*
X-24978223Y-67778223D01*
X-24961747Y-67796402D01*
X-24947133Y-67816107D01*
X-24934520Y-67837151D01*
X-24924030Y-67859329D01*
X-24915765Y-67882429D01*
X-24909804Y-67906227D01*
X-24906204Y-67930496D01*
X-24905000Y-67955000D01*
X-24905000Y-69205000D01*
X-24906204Y-69229504D01*
X-24909804Y-69253773D01*
X-24915765Y-69277571D01*
X-24924030Y-69300671D01*
X-24934520Y-69322849D01*
X-24947133Y-69343893D01*
X-24961747Y-69363598D01*
X-24978223Y-69381777D01*
X-24996402Y-69398253D01*
X-25016107Y-69412867D01*
X-25037151Y-69425480D01*
X-25059329Y-69435970D01*
X-25082429Y-69444235D01*
X-25106227Y-69450196D01*
X-25130496Y-69453796D01*
X-25155000Y-69455000D01*
X-26080000Y-69455000D01*
X-26104504Y-69453796D01*
X-26128773Y-69450196D01*
X-26152571Y-69444235D01*
X-26175671Y-69435970D01*
X-26197849Y-69425480D01*
X-26218893Y-69412867D01*
X-26238598Y-69398253D01*
X-26256777Y-69381777D01*
X-26273253Y-69363598D01*
X-26287867Y-69343893D01*
X-26300480Y-69322849D01*
X-26310970Y-69300671D01*
X-26319235Y-69277571D01*
X-26325196Y-69253773D01*
X-26328796Y-69229504D01*
X-26330000Y-69205000D01*
X-26330000Y-67955000D01*
X-26328796Y-67930496D01*
X-26325196Y-67906227D01*
X-26319235Y-67882429D01*
X-26310970Y-67859329D01*
X-26300480Y-67837151D01*
X-26287867Y-67816107D01*
X-26273253Y-67796402D01*
X-26256777Y-67778223D01*
X-26238598Y-67761747D01*
X-26218893Y-67747133D01*
X-26197849Y-67734520D01*
X-26175671Y-67724030D01*
X-26152571Y-67715765D01*
X-26128773Y-67709804D01*
X-26104504Y-67706204D01*
X-26080000Y-67705000D01*
X-25155000Y-67705000D01*
X-25130496Y-67706204D01*
X-25130496Y-67706204D01*
G37*
D16*
G04 #@! TD*
G04 #@! TO.P,R10,2*
G04 #@! TO.N,Net-(R10-Pad2)*
X-25617500Y-68580000D03*
D15*
G04 #@! TO.N,/PORT3_LED_EXCITE*
G04 #@! TO.C,R10*
G36*
X-22155496Y-67706204D02*
X-22131227Y-67709804D01*
X-22107429Y-67715765D01*
X-22084329Y-67724030D01*
X-22062151Y-67734520D01*
X-22041107Y-67747133D01*
X-22021402Y-67761747D01*
X-22003223Y-67778223D01*
X-21986747Y-67796402D01*
X-21972133Y-67816107D01*
X-21959520Y-67837151D01*
X-21949030Y-67859329D01*
X-21940765Y-67882429D01*
X-21934804Y-67906227D01*
X-21931204Y-67930496D01*
X-21930000Y-67955000D01*
X-21930000Y-69205000D01*
X-21931204Y-69229504D01*
X-21934804Y-69253773D01*
X-21940765Y-69277571D01*
X-21949030Y-69300671D01*
X-21959520Y-69322849D01*
X-21972133Y-69343893D01*
X-21986747Y-69363598D01*
X-22003223Y-69381777D01*
X-22021402Y-69398253D01*
X-22041107Y-69412867D01*
X-22062151Y-69425480D01*
X-22084329Y-69435970D01*
X-22107429Y-69444235D01*
X-22131227Y-69450196D01*
X-22155496Y-69453796D01*
X-22180000Y-69455000D01*
X-23105000Y-69455000D01*
X-23129504Y-69453796D01*
X-23153773Y-69450196D01*
X-23177571Y-69444235D01*
X-23200671Y-69435970D01*
X-23222849Y-69425480D01*
X-23243893Y-69412867D01*
X-23263598Y-69398253D01*
X-23281777Y-69381777D01*
X-23298253Y-69363598D01*
X-23312867Y-69343893D01*
X-23325480Y-69322849D01*
X-23335970Y-69300671D01*
X-23344235Y-69277571D01*
X-23350196Y-69253773D01*
X-23353796Y-69229504D01*
X-23355000Y-69205000D01*
X-23355000Y-67955000D01*
X-23353796Y-67930496D01*
X-23350196Y-67906227D01*
X-23344235Y-67882429D01*
X-23335970Y-67859329D01*
X-23325480Y-67837151D01*
X-23312867Y-67816107D01*
X-23298253Y-67796402D01*
X-23281777Y-67778223D01*
X-23263598Y-67761747D01*
X-23243893Y-67747133D01*
X-23222849Y-67734520D01*
X-23200671Y-67724030D01*
X-23177571Y-67715765D01*
X-23153773Y-67709804D01*
X-23129504Y-67706204D01*
X-23105000Y-67705000D01*
X-22180000Y-67705000D01*
X-22155496Y-67706204D01*
X-22155496Y-67706204D01*
G37*
D16*
G04 #@! TD*
G04 #@! TO.P,R10,1*
G04 #@! TO.N,/PORT3_LED_EXCITE*
X-22642500Y-68580000D03*
D15*
G04 #@! TO.N,Net-(L1_Start1-Pad2)*
G04 #@! TO.C,R11*
G36*
X-22025496Y-18176204D02*
X-22001227Y-18179804D01*
X-21977429Y-18185765D01*
X-21954329Y-18194030D01*
X-21932151Y-18204520D01*
X-21911107Y-18217133D01*
X-21891402Y-18231747D01*
X-21873223Y-18248223D01*
X-21856747Y-18266402D01*
X-21842133Y-18286107D01*
X-21829520Y-18307151D01*
X-21819030Y-18329329D01*
X-21810765Y-18352429D01*
X-21804804Y-18376227D01*
X-21801204Y-18400496D01*
X-21800000Y-18425000D01*
X-21800000Y-19675000D01*
X-21801204Y-19699504D01*
X-21804804Y-19723773D01*
X-21810765Y-19747571D01*
X-21819030Y-19770671D01*
X-21829520Y-19792849D01*
X-21842133Y-19813893D01*
X-21856747Y-19833598D01*
X-21873223Y-19851777D01*
X-21891402Y-19868253D01*
X-21911107Y-19882867D01*
X-21932151Y-19895480D01*
X-21954329Y-19905970D01*
X-21977429Y-19914235D01*
X-22001227Y-19920196D01*
X-22025496Y-19923796D01*
X-22050000Y-19925000D01*
X-22975000Y-19925000D01*
X-22999504Y-19923796D01*
X-23023773Y-19920196D01*
X-23047571Y-19914235D01*
X-23070671Y-19905970D01*
X-23092849Y-19895480D01*
X-23113893Y-19882867D01*
X-23133598Y-19868253D01*
X-23151777Y-19851777D01*
X-23168253Y-19833598D01*
X-23182867Y-19813893D01*
X-23195480Y-19792849D01*
X-23205970Y-19770671D01*
X-23214235Y-19747571D01*
X-23220196Y-19723773D01*
X-23223796Y-19699504D01*
X-23225000Y-19675000D01*
X-23225000Y-18425000D01*
X-23223796Y-18400496D01*
X-23220196Y-18376227D01*
X-23214235Y-18352429D01*
X-23205970Y-18329329D01*
X-23195480Y-18307151D01*
X-23182867Y-18286107D01*
X-23168253Y-18266402D01*
X-23151777Y-18248223D01*
X-23133598Y-18231747D01*
X-23113893Y-18217133D01*
X-23092849Y-18204520D01*
X-23070671Y-18194030D01*
X-23047571Y-18185765D01*
X-23023773Y-18179804D01*
X-22999504Y-18176204D01*
X-22975000Y-18175000D01*
X-22050000Y-18175000D01*
X-22025496Y-18176204D01*
X-22025496Y-18176204D01*
G37*
D16*
G04 #@! TD*
G04 #@! TO.P,R11,1*
G04 #@! TO.N,Net-(L1_Start1-Pad2)*
X-22512500Y-19050000D03*
D15*
G04 #@! TO.N,Net-(R11-Pad2)*
G04 #@! TO.C,R11*
G36*
X-25000496Y-18176204D02*
X-24976227Y-18179804D01*
X-24952429Y-18185765D01*
X-24929329Y-18194030D01*
X-24907151Y-18204520D01*
X-24886107Y-18217133D01*
X-24866402Y-18231747D01*
X-24848223Y-18248223D01*
X-24831747Y-18266402D01*
X-24817133Y-18286107D01*
X-24804520Y-18307151D01*
X-24794030Y-18329329D01*
X-24785765Y-18352429D01*
X-24779804Y-18376227D01*
X-24776204Y-18400496D01*
X-24775000Y-18425000D01*
X-24775000Y-19675000D01*
X-24776204Y-19699504D01*
X-24779804Y-19723773D01*
X-24785765Y-19747571D01*
X-24794030Y-19770671D01*
X-24804520Y-19792849D01*
X-24817133Y-19813893D01*
X-24831747Y-19833598D01*
X-24848223Y-19851777D01*
X-24866402Y-19868253D01*
X-24886107Y-19882867D01*
X-24907151Y-19895480D01*
X-24929329Y-19905970D01*
X-24952429Y-19914235D01*
X-24976227Y-19920196D01*
X-25000496Y-19923796D01*
X-25025000Y-19925000D01*
X-25950000Y-19925000D01*
X-25974504Y-19923796D01*
X-25998773Y-19920196D01*
X-26022571Y-19914235D01*
X-26045671Y-19905970D01*
X-26067849Y-19895480D01*
X-26088893Y-19882867D01*
X-26108598Y-19868253D01*
X-26126777Y-19851777D01*
X-26143253Y-19833598D01*
X-26157867Y-19813893D01*
X-26170480Y-19792849D01*
X-26180970Y-19770671D01*
X-26189235Y-19747571D01*
X-26195196Y-19723773D01*
X-26198796Y-19699504D01*
X-26200000Y-19675000D01*
X-26200000Y-18425000D01*
X-26198796Y-18400496D01*
X-26195196Y-18376227D01*
X-26189235Y-18352429D01*
X-26180970Y-18329329D01*
X-26170480Y-18307151D01*
X-26157867Y-18286107D01*
X-26143253Y-18266402D01*
X-26126777Y-18248223D01*
X-26108598Y-18231747D01*
X-26088893Y-18217133D01*
X-26067849Y-18204520D01*
X-26045671Y-18194030D01*
X-26022571Y-18185765D01*
X-25998773Y-18179804D01*
X-25974504Y-18176204D01*
X-25950000Y-18175000D01*
X-25025000Y-18175000D01*
X-25000496Y-18176204D01*
X-25000496Y-18176204D01*
G37*
D16*
G04 #@! TD*
G04 #@! TO.P,R11,2*
G04 #@! TO.N,Net-(R11-Pad2)*
X-25487500Y-19050000D03*
D15*
G04 #@! TO.N,Net-(R11-Pad2)*
G04 #@! TO.C,R12*
G36*
X-25130496Y-38496204D02*
X-25106227Y-38499804D01*
X-25082429Y-38505765D01*
X-25059329Y-38514030D01*
X-25037151Y-38524520D01*
X-25016107Y-38537133D01*
X-24996402Y-38551747D01*
X-24978223Y-38568223D01*
X-24961747Y-38586402D01*
X-24947133Y-38606107D01*
X-24934520Y-38627151D01*
X-24924030Y-38649329D01*
X-24915765Y-38672429D01*
X-24909804Y-38696227D01*
X-24906204Y-38720496D01*
X-24905000Y-38745000D01*
X-24905000Y-39995000D01*
X-24906204Y-40019504D01*
X-24909804Y-40043773D01*
X-24915765Y-40067571D01*
X-24924030Y-40090671D01*
X-24934520Y-40112849D01*
X-24947133Y-40133893D01*
X-24961747Y-40153598D01*
X-24978223Y-40171777D01*
X-24996402Y-40188253D01*
X-25016107Y-40202867D01*
X-25037151Y-40215480D01*
X-25059329Y-40225970D01*
X-25082429Y-40234235D01*
X-25106227Y-40240196D01*
X-25130496Y-40243796D01*
X-25155000Y-40245000D01*
X-26080000Y-40245000D01*
X-26104504Y-40243796D01*
X-26128773Y-40240196D01*
X-26152571Y-40234235D01*
X-26175671Y-40225970D01*
X-26197849Y-40215480D01*
X-26218893Y-40202867D01*
X-26238598Y-40188253D01*
X-26256777Y-40171777D01*
X-26273253Y-40153598D01*
X-26287867Y-40133893D01*
X-26300480Y-40112849D01*
X-26310970Y-40090671D01*
X-26319235Y-40067571D01*
X-26325196Y-40043773D01*
X-26328796Y-40019504D01*
X-26330000Y-39995000D01*
X-26330000Y-38745000D01*
X-26328796Y-38720496D01*
X-26325196Y-38696227D01*
X-26319235Y-38672429D01*
X-26310970Y-38649329D01*
X-26300480Y-38627151D01*
X-26287867Y-38606107D01*
X-26273253Y-38586402D01*
X-26256777Y-38568223D01*
X-26238598Y-38551747D01*
X-26218893Y-38537133D01*
X-26197849Y-38524520D01*
X-26175671Y-38514030D01*
X-26152571Y-38505765D01*
X-26128773Y-38499804D01*
X-26104504Y-38496204D01*
X-26080000Y-38495000D01*
X-25155000Y-38495000D01*
X-25130496Y-38496204D01*
X-25130496Y-38496204D01*
G37*
D16*
G04 #@! TD*
G04 #@! TO.P,R12,2*
G04 #@! TO.N,Net-(R11-Pad2)*
X-25617500Y-39370000D03*
D15*
G04 #@! TO.N,Net-(L2_Start1-Pad2)*
G04 #@! TO.C,R12*
G36*
X-22155496Y-38496204D02*
X-22131227Y-38499804D01*
X-22107429Y-38505765D01*
X-22084329Y-38514030D01*
X-22062151Y-38524520D01*
X-22041107Y-38537133D01*
X-22021402Y-38551747D01*
X-22003223Y-38568223D01*
X-21986747Y-38586402D01*
X-21972133Y-38606107D01*
X-21959520Y-38627151D01*
X-21949030Y-38649329D01*
X-21940765Y-38672429D01*
X-21934804Y-38696227D01*
X-21931204Y-38720496D01*
X-21930000Y-38745000D01*
X-21930000Y-39995000D01*
X-21931204Y-40019504D01*
X-21934804Y-40043773D01*
X-21940765Y-40067571D01*
X-21949030Y-40090671D01*
X-21959520Y-40112849D01*
X-21972133Y-40133893D01*
X-21986747Y-40153598D01*
X-22003223Y-40171777D01*
X-22021402Y-40188253D01*
X-22041107Y-40202867D01*
X-22062151Y-40215480D01*
X-22084329Y-40225970D01*
X-22107429Y-40234235D01*
X-22131227Y-40240196D01*
X-22155496Y-40243796D01*
X-22180000Y-40245000D01*
X-23105000Y-40245000D01*
X-23129504Y-40243796D01*
X-23153773Y-40240196D01*
X-23177571Y-40234235D01*
X-23200671Y-40225970D01*
X-23222849Y-40215480D01*
X-23243893Y-40202867D01*
X-23263598Y-40188253D01*
X-23281777Y-40171777D01*
X-23298253Y-40153598D01*
X-23312867Y-40133893D01*
X-23325480Y-40112849D01*
X-23335970Y-40090671D01*
X-23344235Y-40067571D01*
X-23350196Y-40043773D01*
X-23353796Y-40019504D01*
X-23355000Y-39995000D01*
X-23355000Y-38745000D01*
X-23353796Y-38720496D01*
X-23350196Y-38696227D01*
X-23344235Y-38672429D01*
X-23335970Y-38649329D01*
X-23325480Y-38627151D01*
X-23312867Y-38606107D01*
X-23298253Y-38586402D01*
X-23281777Y-38568223D01*
X-23263598Y-38551747D01*
X-23243893Y-38537133D01*
X-23222849Y-38524520D01*
X-23200671Y-38514030D01*
X-23177571Y-38505765D01*
X-23153773Y-38499804D01*
X-23129504Y-38496204D01*
X-23105000Y-38495000D01*
X-22180000Y-38495000D01*
X-22155496Y-38496204D01*
X-22155496Y-38496204D01*
G37*
D16*
G04 #@! TD*
G04 #@! TO.P,R12,1*
G04 #@! TO.N,Net-(L2_Start1-Pad2)*
X-22642500Y-39370000D03*
D15*
G04 #@! TO.N,Net-(D1-Pad2)*
G04 #@! TO.C,R13*
G36*
X-52765496Y-34686204D02*
X-52741227Y-34689804D01*
X-52717429Y-34695765D01*
X-52694329Y-34704030D01*
X-52672151Y-34714520D01*
X-52651107Y-34727133D01*
X-52631402Y-34741747D01*
X-52613223Y-34758223D01*
X-52596747Y-34776402D01*
X-52582133Y-34796107D01*
X-52569520Y-34817151D01*
X-52559030Y-34839329D01*
X-52550765Y-34862429D01*
X-52544804Y-34886227D01*
X-52541204Y-34910496D01*
X-52540000Y-34935000D01*
X-52540000Y-36185000D01*
X-52541204Y-36209504D01*
X-52544804Y-36233773D01*
X-52550765Y-36257571D01*
X-52559030Y-36280671D01*
X-52569520Y-36302849D01*
X-52582133Y-36323893D01*
X-52596747Y-36343598D01*
X-52613223Y-36361777D01*
X-52631402Y-36378253D01*
X-52651107Y-36392867D01*
X-52672151Y-36405480D01*
X-52694329Y-36415970D01*
X-52717429Y-36424235D01*
X-52741227Y-36430196D01*
X-52765496Y-36433796D01*
X-52790000Y-36435000D01*
X-53715000Y-36435000D01*
X-53739504Y-36433796D01*
X-53763773Y-36430196D01*
X-53787571Y-36424235D01*
X-53810671Y-36415970D01*
X-53832849Y-36405480D01*
X-53853893Y-36392867D01*
X-53873598Y-36378253D01*
X-53891777Y-36361777D01*
X-53908253Y-36343598D01*
X-53922867Y-36323893D01*
X-53935480Y-36302849D01*
X-53945970Y-36280671D01*
X-53954235Y-36257571D01*
X-53960196Y-36233773D01*
X-53963796Y-36209504D01*
X-53965000Y-36185000D01*
X-53965000Y-34935000D01*
X-53963796Y-34910496D01*
X-53960196Y-34886227D01*
X-53954235Y-34862429D01*
X-53945970Y-34839329D01*
X-53935480Y-34817151D01*
X-53922867Y-34796107D01*
X-53908253Y-34776402D01*
X-53891777Y-34758223D01*
X-53873598Y-34741747D01*
X-53853893Y-34727133D01*
X-53832849Y-34714520D01*
X-53810671Y-34704030D01*
X-53787571Y-34695765D01*
X-53763773Y-34689804D01*
X-53739504Y-34686204D01*
X-53715000Y-34685000D01*
X-52790000Y-34685000D01*
X-52765496Y-34686204D01*
X-52765496Y-34686204D01*
G37*
D16*
G04 #@! TD*
G04 #@! TO.P,R13,1*
G04 #@! TO.N,Net-(D1-Pad2)*
X-53252500Y-35560000D03*
D15*
G04 #@! TO.N,/LED1*
G04 #@! TO.C,R13*
G36*
X-55740496Y-34686204D02*
X-55716227Y-34689804D01*
X-55692429Y-34695765D01*
X-55669329Y-34704030D01*
X-55647151Y-34714520D01*
X-55626107Y-34727133D01*
X-55606402Y-34741747D01*
X-55588223Y-34758223D01*
X-55571747Y-34776402D01*
X-55557133Y-34796107D01*
X-55544520Y-34817151D01*
X-55534030Y-34839329D01*
X-55525765Y-34862429D01*
X-55519804Y-34886227D01*
X-55516204Y-34910496D01*
X-55515000Y-34935000D01*
X-55515000Y-36185000D01*
X-55516204Y-36209504D01*
X-55519804Y-36233773D01*
X-55525765Y-36257571D01*
X-55534030Y-36280671D01*
X-55544520Y-36302849D01*
X-55557133Y-36323893D01*
X-55571747Y-36343598D01*
X-55588223Y-36361777D01*
X-55606402Y-36378253D01*
X-55626107Y-36392867D01*
X-55647151Y-36405480D01*
X-55669329Y-36415970D01*
X-55692429Y-36424235D01*
X-55716227Y-36430196D01*
X-55740496Y-36433796D01*
X-55765000Y-36435000D01*
X-56690000Y-36435000D01*
X-56714504Y-36433796D01*
X-56738773Y-36430196D01*
X-56762571Y-36424235D01*
X-56785671Y-36415970D01*
X-56807849Y-36405480D01*
X-56828893Y-36392867D01*
X-56848598Y-36378253D01*
X-56866777Y-36361777D01*
X-56883253Y-36343598D01*
X-56897867Y-36323893D01*
X-56910480Y-36302849D01*
X-56920970Y-36280671D01*
X-56929235Y-36257571D01*
X-56935196Y-36233773D01*
X-56938796Y-36209504D01*
X-56940000Y-36185000D01*
X-56940000Y-34935000D01*
X-56938796Y-34910496D01*
X-56935196Y-34886227D01*
X-56929235Y-34862429D01*
X-56920970Y-34839329D01*
X-56910480Y-34817151D01*
X-56897867Y-34796107D01*
X-56883253Y-34776402D01*
X-56866777Y-34758223D01*
X-56848598Y-34741747D01*
X-56828893Y-34727133D01*
X-56807849Y-34714520D01*
X-56785671Y-34704030D01*
X-56762571Y-34695765D01*
X-56738773Y-34689804D01*
X-56714504Y-34686204D01*
X-56690000Y-34685000D01*
X-55765000Y-34685000D01*
X-55740496Y-34686204D01*
X-55740496Y-34686204D01*
G37*
D16*
G04 #@! TD*
G04 #@! TO.P,R13,2*
G04 #@! TO.N,/LED1*
X-56227500Y-35560000D03*
D17*
G04 #@! TO.P,C1,1*
G04 #@! TO.N,Net-(A1-Pad27)*
X-82550000Y-62230000D03*
D18*
G04 #@! TO.P,C1,2*
G04 #@! TO.N,GND*
X-82550000Y-59730000D03*
G04 #@! TD*
D19*
G04 #@! TO.P,F1,1*
G04 #@! TO.N,/12V_FUSED*
X-50800000Y-15240000D03*
X-50800000Y-11840000D03*
G04 #@! TO.P,F1,2*
G04 #@! TO.N,+12V*
X-60720000Y-15240000D03*
X-60720000Y-11840000D03*
G04 #@! TD*
D20*
G04 #@! TO.P,D1,2*
G04 #@! TO.N,Net-(D1-Pad2)*
X-46990000Y-21590000D03*
D21*
G04 #@! TO.P,D1,1*
G04 #@! TO.N,GND*
X-44450000Y-21590000D03*
G04 #@! TD*
D15*
G04 #@! TO.N,Net-(R10-Pad2)*
G04 #@! TO.C,R9*
G36*
X-25130496Y-51196204D02*
X-25106227Y-51199804D01*
X-25082429Y-51205765D01*
X-25059329Y-51214030D01*
X-25037151Y-51224520D01*
X-25016107Y-51237133D01*
X-24996402Y-51251747D01*
X-24978223Y-51268223D01*
X-24961747Y-51286402D01*
X-24947133Y-51306107D01*
X-24934520Y-51327151D01*
X-24924030Y-51349329D01*
X-24915765Y-51372429D01*
X-24909804Y-51396227D01*
X-24906204Y-51420496D01*
X-24905000Y-51445000D01*
X-24905000Y-52695000D01*
X-24906204Y-52719504D01*
X-24909804Y-52743773D01*
X-24915765Y-52767571D01*
X-24924030Y-52790671D01*
X-24934520Y-52812849D01*
X-24947133Y-52833893D01*
X-24961747Y-52853598D01*
X-24978223Y-52871777D01*
X-24996402Y-52888253D01*
X-25016107Y-52902867D01*
X-25037151Y-52915480D01*
X-25059329Y-52925970D01*
X-25082429Y-52934235D01*
X-25106227Y-52940196D01*
X-25130496Y-52943796D01*
X-25155000Y-52945000D01*
X-25905000Y-52945000D01*
X-25929504Y-52943796D01*
X-25953773Y-52940196D01*
X-25977571Y-52934235D01*
X-26000671Y-52925970D01*
X-26022849Y-52915480D01*
X-26043893Y-52902867D01*
X-26063598Y-52888253D01*
X-26081777Y-52871777D01*
X-26098253Y-52853598D01*
X-26112867Y-52833893D01*
X-26125480Y-52812849D01*
X-26135970Y-52790671D01*
X-26144235Y-52767571D01*
X-26150196Y-52743773D01*
X-26153796Y-52719504D01*
X-26155000Y-52695000D01*
X-26155000Y-51445000D01*
X-26153796Y-51420496D01*
X-26150196Y-51396227D01*
X-26144235Y-51372429D01*
X-26135970Y-51349329D01*
X-26125480Y-51327151D01*
X-26112867Y-51306107D01*
X-26098253Y-51286402D01*
X-26081777Y-51268223D01*
X-26063598Y-51251747D01*
X-26043893Y-51237133D01*
X-26022849Y-51224520D01*
X-26000671Y-51214030D01*
X-25977571Y-51205765D01*
X-25953773Y-51199804D01*
X-25929504Y-51196204D01*
X-25905000Y-51195000D01*
X-25155000Y-51195000D01*
X-25130496Y-51196204D01*
X-25130496Y-51196204D01*
G37*
D22*
G04 #@! TD*
G04 #@! TO.P,R9,2*
G04 #@! TO.N,Net-(R10-Pad2)*
X-25530000Y-52070000D03*
D15*
G04 #@! TO.N,/PORT2_LED_EXCITE*
G04 #@! TO.C,R9*
G36*
X-22330496Y-51196204D02*
X-22306227Y-51199804D01*
X-22282429Y-51205765D01*
X-22259329Y-51214030D01*
X-22237151Y-51224520D01*
X-22216107Y-51237133D01*
X-22196402Y-51251747D01*
X-22178223Y-51268223D01*
X-22161747Y-51286402D01*
X-22147133Y-51306107D01*
X-22134520Y-51327151D01*
X-22124030Y-51349329D01*
X-22115765Y-51372429D01*
X-22109804Y-51396227D01*
X-22106204Y-51420496D01*
X-22105000Y-51445000D01*
X-22105000Y-52695000D01*
X-22106204Y-52719504D01*
X-22109804Y-52743773D01*
X-22115765Y-52767571D01*
X-22124030Y-52790671D01*
X-22134520Y-52812849D01*
X-22147133Y-52833893D01*
X-22161747Y-52853598D01*
X-22178223Y-52871777D01*
X-22196402Y-52888253D01*
X-22216107Y-52902867D01*
X-22237151Y-52915480D01*
X-22259329Y-52925970D01*
X-22282429Y-52934235D01*
X-22306227Y-52940196D01*
X-22330496Y-52943796D01*
X-22355000Y-52945000D01*
X-23105000Y-52945000D01*
X-23129504Y-52943796D01*
X-23153773Y-52940196D01*
X-23177571Y-52934235D01*
X-23200671Y-52925970D01*
X-23222849Y-52915480D01*
X-23243893Y-52902867D01*
X-23263598Y-52888253D01*
X-23281777Y-52871777D01*
X-23298253Y-52853598D01*
X-23312867Y-52833893D01*
X-23325480Y-52812849D01*
X-23335970Y-52790671D01*
X-23344235Y-52767571D01*
X-23350196Y-52743773D01*
X-23353796Y-52719504D01*
X-23355000Y-52695000D01*
X-23355000Y-51445000D01*
X-23353796Y-51420496D01*
X-23350196Y-51396227D01*
X-23344235Y-51372429D01*
X-23335970Y-51349329D01*
X-23325480Y-51327151D01*
X-23312867Y-51306107D01*
X-23298253Y-51286402D01*
X-23281777Y-51268223D01*
X-23263598Y-51251747D01*
X-23243893Y-51237133D01*
X-23222849Y-51224520D01*
X-23200671Y-51214030D01*
X-23177571Y-51205765D01*
X-23153773Y-51199804D01*
X-23129504Y-51196204D01*
X-23105000Y-51195000D01*
X-22355000Y-51195000D01*
X-22330496Y-51196204D01*
X-22330496Y-51196204D01*
G37*
D22*
G04 #@! TD*
G04 #@! TO.P,R9,1*
G04 #@! TO.N,/PORT2_LED_EXCITE*
X-22730000Y-52070000D03*
D23*
G04 #@! TO.P,J1,1*
G04 #@! TO.N,GND*
X-86360000Y-11430000D03*
D24*
G04 #@! TO.P,J1,2*
G04 #@! TO.N,+12V*
X-86360000Y-16510000D03*
G04 #@! TD*
D17*
G04 #@! TO.P,A1,1*
G04 #@! TO.N,Net-(A1-Pad1)*
X-60960000Y-60960000D03*
D25*
G04 #@! TO.P,A1,17*
G04 #@! TO.N,Net-(A1-Pad17)*
X-76200000Y-27940000D03*
G04 #@! TO.P,A1,2*
G04 #@! TO.N,Net-(A1-Pad2)*
X-60960000Y-58420000D03*
G04 #@! TO.P,A1,18*
G04 #@! TO.N,Net-(A1-Pad18)*
X-76200000Y-30480000D03*
G04 #@! TO.P,A1,3*
G04 #@! TO.N,Net-(A1-Pad3)*
X-60960000Y-55880000D03*
G04 #@! TO.P,A1,19*
G04 #@! TO.N,Net-(A1-Pad19)*
X-76200000Y-33020000D03*
G04 #@! TO.P,A1,4*
G04 #@! TO.N,GND*
X-60960000Y-53340000D03*
G04 #@! TO.P,A1,20*
G04 #@! TO.N,Net-(A1-Pad20)*
X-76200000Y-35560000D03*
G04 #@! TO.P,A1,5*
G04 #@! TO.N,Net-(A1-Pad5)*
X-60960000Y-50800000D03*
G04 #@! TO.P,A1,21*
G04 #@! TO.N,Net-(A1-Pad21)*
X-76200000Y-38100000D03*
G04 #@! TO.P,A1,6*
G04 #@! TO.N,Net-(A1-Pad6)*
X-60960000Y-48260000D03*
G04 #@! TO.P,A1,22*
G04 #@! TO.N,Net-(A1-Pad22)*
X-76200000Y-40640000D03*
G04 #@! TO.P,A1,7*
G04 #@! TO.N,Net-(A1-Pad7)*
X-60960000Y-45720000D03*
G04 #@! TO.P,A1,23*
G04 #@! TO.N,Net-(A1-Pad23)*
X-76200000Y-43180000D03*
G04 #@! TO.P,A1,8*
G04 #@! TO.N,Net-(A1-Pad8)*
X-60960000Y-43180000D03*
G04 #@! TO.P,A1,24*
G04 #@! TO.N,Net-(A1-Pad24)*
X-76200000Y-45720000D03*
G04 #@! TO.P,A1,9*
G04 #@! TO.N,/SEL0*
X-60960000Y-40640000D03*
G04 #@! TO.P,A1,25*
G04 #@! TO.N,Net-(A1-Pad25)*
X-76200000Y-48260000D03*
G04 #@! TO.P,A1,10*
G04 #@! TO.N,/SEL1*
X-60960000Y-38100000D03*
G04 #@! TO.P,A1,26*
G04 #@! TO.N,Net-(A1-Pad26)*
X-76200000Y-50800000D03*
G04 #@! TO.P,A1,11*
G04 #@! TO.N,/LED1*
X-60960000Y-35560000D03*
G04 #@! TO.P,A1,27*
G04 #@! TO.N,Net-(A1-Pad27)*
X-76200000Y-53340000D03*
G04 #@! TO.P,A1,12*
G04 #@! TO.N,/PB1*
X-60960000Y-33020000D03*
G04 #@! TO.P,A1,28*
G04 #@! TO.N,Net-(A1-Pad28)*
X-76200000Y-55880000D03*
G04 #@! TO.P,A1,13*
G04 #@! TO.N,/SS*
X-60960000Y-30480000D03*
G04 #@! TO.P,A1,29*
G04 #@! TO.N,GND*
X-76200000Y-58420000D03*
G04 #@! TO.P,A1,14*
G04 #@! TO.N,/MOSI*
X-60960000Y-27940000D03*
G04 #@! TO.P,A1,30*
G04 #@! TO.N,/12V_FUSED*
X-76200000Y-60960000D03*
G04 #@! TO.P,A1,15*
G04 #@! TO.N,/MISO*
X-60960000Y-25400000D03*
G04 #@! TO.P,A1,16*
G04 #@! TO.N,/SCL*
X-76200000Y-25400000D03*
G04 #@! TD*
D26*
G04 #@! TO.P,L2_Start1,8*
G04 #@! TO.N,GND*
X-16510000Y-29210000D03*
G04 #@! TO.P,L2_Start1,7*
G04 #@! TO.N,Net-(L2_Start1-Pad7)*
X-13970000Y-30480000D03*
G04 #@! TO.P,L2_Start1,6*
G04 #@! TO.N,Net-(L2_Start1-Pad6)*
X-16510000Y-31750000D03*
G04 #@! TO.P,L2_Start1,5*
G04 #@! TO.N,Net-(L2_Start1-Pad5)*
X-13970000Y-33020000D03*
G04 #@! TO.P,L2_Start1,4*
G04 #@! TO.N,/PORT1_LED_EXCITE*
X-16510000Y-34290000D03*
G04 #@! TO.P,L2_Start1,3*
G04 #@! TO.N,Net-(A1-Pad20)*
X-13970000Y-35560000D03*
G04 #@! TO.P,L2_Start1,2*
G04 #@! TO.N,Net-(L2_Start1-Pad2)*
X-16510000Y-36830000D03*
D27*
G04 #@! TO.P,L2_Start1,1*
G04 #@! TO.N,/12V_FUSED*
X-13970000Y-38100000D03*
G04 #@! TD*
G04 #@! TO.P,L1_Finish1,1*
G04 #@! TO.N,/12V_FUSED*
X-13970000Y-55880000D03*
D26*
G04 #@! TO.P,L1_Finish1,2*
G04 #@! TO.N,Net-(L1_Finish1-Pad2)*
X-16510000Y-54610000D03*
G04 #@! TO.P,L1_Finish1,3*
G04 #@! TO.N,Net-(A1-Pad21)*
X-13970000Y-53340000D03*
G04 #@! TO.P,L1_Finish1,4*
G04 #@! TO.N,/PORT2_LED_EXCITE*
X-16510000Y-52070000D03*
G04 #@! TO.P,L1_Finish1,5*
G04 #@! TO.N,/SEL0*
X-13970000Y-50800000D03*
G04 #@! TO.P,L1_Finish1,6*
G04 #@! TO.N,/MOSI*
X-16510000Y-49530000D03*
G04 #@! TO.P,L1_Finish1,7*
G04 #@! TO.N,/SCL*
X-13970000Y-48260000D03*
G04 #@! TO.P,L1_Finish1,8*
G04 #@! TO.N,GND*
X-16510000Y-46990000D03*
G04 #@! TD*
D28*
G04 #@! TO.P,C3,1*
G04 #@! TO.N,+12V*
X-72390000Y-15240000D03*
D29*
G04 #@! TO.P,C3,2*
G04 #@! TO.N,GND*
X-72390000Y-10240000D03*
G04 #@! TD*
D18*
G04 #@! TO.P,C2,1*
G04 #@! TO.N,Net-(A1-Pad27)*
X-82550000Y-53380000D03*
G04 #@! TO.P,C2,2*
G04 #@! TO.N,GND*
X-82550000Y-55880000D03*
G04 #@! TD*
D27*
G04 #@! TO.P,L2_finish1,1*
G04 #@! TO.N,/12V_FUSED*
X-13970000Y-73660000D03*
D26*
G04 #@! TO.P,L2_finish1,2*
G04 #@! TO.N,Net-(L2_finish1-Pad2)*
X-16510000Y-72390000D03*
G04 #@! TO.P,L2_finish1,3*
G04 #@! TO.N,Net-(A1-Pad22)*
X-13970000Y-71120000D03*
G04 #@! TO.P,L2_finish1,4*
G04 #@! TO.N,/PORT3_LED_EXCITE*
X-16510000Y-69850000D03*
G04 #@! TO.P,L2_finish1,5*
G04 #@! TO.N,/SEL1*
X-13970000Y-68580000D03*
G04 #@! TO.P,L2_finish1,6*
G04 #@! TO.N,/MOSI*
X-16510000Y-67310000D03*
G04 #@! TO.P,L2_finish1,7*
G04 #@! TO.N,/SCL*
X-13970000Y-66040000D03*
G04 #@! TO.P,L2_finish1,8*
G04 #@! TO.N,GND*
X-16510000Y-64770000D03*
G04 #@! TD*
G04 #@! TO.P,L1_Start1,8*
G04 #@! TO.N,GND*
X-16510000Y-11430000D03*
G04 #@! TO.P,L1_Start1,7*
G04 #@! TO.N,Net-(L1_Start1-Pad7)*
X-13970000Y-12700000D03*
G04 #@! TO.P,L1_Start1,6*
G04 #@! TO.N,Net-(L1_Start1-Pad6)*
X-16510000Y-13970000D03*
G04 #@! TO.P,L1_Start1,5*
G04 #@! TO.N,Net-(L1_Start1-Pad5)*
X-13970000Y-15240000D03*
G04 #@! TO.P,L1_Start1,4*
G04 #@! TO.N,/PORT0_LED_EXCITE*
X-16510000Y-16510000D03*
G04 #@! TO.P,L1_Start1,3*
G04 #@! TO.N,Net-(A1-Pad19)*
X-13970000Y-17780000D03*
G04 #@! TO.P,L1_Start1,2*
G04 #@! TO.N,Net-(L1_Start1-Pad2)*
X-16510000Y-19050000D03*
D27*
G04 #@! TO.P,L1_Start1,1*
G04 #@! TO.N,/12V_FUSED*
X-13970000Y-20320000D03*
G04 #@! TD*
D11*
G04 #@! TO.P,MOUNT1,1*
G04 #@! TO.N,N/C*
X-87630000Y-3810000D03*
G04 #@! TD*
D30*
G04 #@! TO.N,Net-(A1-Pad20)*
X-73014900Y-35012100D03*
X-23220400Y-27293700D03*
G04 #@! TO.N,Net-(A1-Pad21)*
X-68525500Y-46860200D03*
X-10891100Y-51840100D03*
G04 #@! TO.N,Net-(A1-Pad22)*
X-71657100Y-55998100D03*
X-10749900Y-73172600D03*
G04 #@! TO.N,GND*
X-19593700Y-56876700D03*
X-19593700Y-44804000D03*
X-19593700Y-29444100D03*
G04 #@! TO.N,/SEL0*
X-57815200Y-40552900D03*
X-33932400Y-44773400D03*
G04 #@! TO.N,/SEL1*
X-66291100Y-54005900D03*
X-10700900Y-65736500D03*
G04 #@! TO.N,/MOSI*
X-57851700Y-29226200D03*
X-24831500Y-58586400D03*
X-26218200Y-49285400D03*
G04 #@! TO.N,/SCL*
X-4819700Y-59161300D03*
X-14294300Y-43721200D03*
X-68164200Y-19364500D03*
G04 #@! TO.N,Net-(R2-Pad2)*
X-29210000Y-55880000D03*
X-34290000Y-55880000D03*
G04 #@! TO.N,Net-(R11-Pad2)*
X-24987300Y-32861100D03*
X-24987300Y-42256200D03*
X-36830000Y-48260000D03*
G04 #@! TD*
D31*
G04 #@! TO.N,Net-(A1-Pad20)*
X-13970000Y-35560000D02*
X-13747300Y-35560000D01*
X-13747300Y-35560000D02*
X-12005600Y-33818300D01*
X-12005600Y-33818300D02*
X-12005600Y-29666100D01*
X-12005600Y-29666100D02*
X-14427900Y-27243800D01*
X-14427900Y-27243800D02*
X-23170500Y-27243800D01*
X-23170500Y-27243800D02*
X-23220400Y-27293700D01*
X-74199700Y-35560000D02*
X-73562800Y-35560000D01*
X-73562800Y-35560000D02*
X-73014900Y-35012100D01*
X-76200000Y-35560000D02*
X-74199700Y-35560000D01*
X-76200000Y-35560000D02*
X-82332500Y-35560000D01*
X-82332500Y-35560000D02*
X-83602500Y-34290000D01*
G04 #@! TO.N,Net-(A1-Pad19)*
X-76200000Y-33020000D02*
X-74199700Y-33020000D01*
X-13970000Y-17780000D02*
X-13747300Y-17780000D01*
X-13747300Y-17780000D02*
X-11981100Y-16013800D01*
X-11981100Y-16013800D02*
X-11981100Y-11910500D01*
X-11981100Y-11910500D02*
X-14470900Y-9420700D01*
X-14470900Y-9420700D02*
X-40709900Y-9420700D01*
X-40709900Y-9420700D02*
X-49119600Y-17830400D01*
X-49119600Y-17830400D02*
X-59010100Y-17830400D01*
X-59010100Y-17830400D02*
X-74199700Y-33020000D01*
X-76200000Y-33020000D02*
X-81192500Y-33020000D01*
X-81192500Y-33020000D02*
X-83732500Y-30480000D01*
D32*
G04 #@! TO.N,Net-(A1-Pad5)*
X-59690000Y-49530000D02*
X-60960000Y-50800000D01*
X-54610000Y-49530000D02*
X-59690000Y-49530000D01*
D31*
G04 #@! TO.N,Net-(A1-Pad21)*
X-68525500Y-46860200D02*
X-68525500Y-43774200D01*
X-68525500Y-43774200D02*
X-74199700Y-38100000D01*
X-76200000Y-38100000D02*
X-74199700Y-38100000D01*
X-13970000Y-53340000D02*
X-12391000Y-53340000D01*
X-12391000Y-53340000D02*
X-10891100Y-51840100D01*
X-76200000Y-38100000D02*
X-83602500Y-38100000D01*
D32*
G04 #@! TO.N,Net-(A1-Pad6)*
X-54610000Y-48260000D02*
X-60960000Y-48260000D01*
D31*
G04 #@! TO.N,Net-(A1-Pad22)*
X-13970000Y-71120000D02*
X-12802500Y-71120000D01*
X-12802500Y-71120000D02*
X-10749900Y-73172600D01*
X-76200000Y-40640000D02*
X-74199700Y-40640000D01*
X-74199700Y-40640000D02*
X-74199700Y-53455500D01*
X-74199700Y-53455500D02*
X-71657100Y-55998100D01*
X-76200000Y-40640000D02*
X-82332500Y-40640000D01*
X-82332500Y-40640000D02*
X-83602500Y-41910000D01*
D32*
G04 #@! TO.N,Net-(A1-Pad7)*
X-60960000Y-45720000D02*
X-59690000Y-46990000D01*
X-59690000Y-46990000D02*
X-54610000Y-46990000D01*
G04 #@! TO.N,Net-(A1-Pad8)*
X-58420000Y-45720000D02*
X-60960000Y-43180000D01*
X-54610000Y-45720000D02*
X-58420000Y-45720000D01*
D31*
G04 #@! TO.N,Net-(A1-Pad27)*
X-82550000Y-62230000D02*
X-84550300Y-62230000D01*
X-82550000Y-53380000D02*
X-82879200Y-53380000D01*
X-82879200Y-53380000D02*
X-84550300Y-55051100D01*
X-84550300Y-55051100D02*
X-84550300Y-62230000D01*
X-78200300Y-53340000D02*
X-78240300Y-53380000D01*
X-78240300Y-53380000D02*
X-82550000Y-53380000D01*
X-76200000Y-53340000D02*
X-78200300Y-53340000D01*
D33*
G04 #@! TO.N,GND*
X-86577500Y-41910000D02*
X-86577500Y-38100000D01*
X-80170900Y-59730000D02*
X-80170900Y-63725600D01*
X-80170900Y-63725600D02*
X-81043900Y-64598600D01*
X-81043900Y-64598600D02*
X-84948800Y-64598600D01*
X-84948800Y-64598600D02*
X-86577500Y-62969900D01*
X-86577500Y-62969900D02*
X-86577500Y-41910000D01*
X-16510000Y-64770000D02*
X-16510000Y-59960400D01*
X-16510000Y-59960400D02*
X-19593700Y-56876700D01*
X-16510000Y-46990000D02*
X-17407700Y-46990000D01*
X-17407700Y-46990000D02*
X-19593700Y-44804000D01*
X-16510000Y-29210000D02*
X-19359600Y-29210000D01*
X-19359600Y-29210000D02*
X-19593700Y-29444100D01*
X-67208200Y-58561000D02*
X-63010300Y-54363100D01*
X-63010300Y-54363100D02*
X-63010300Y-53340000D01*
X-74149700Y-58420000D02*
X-74008600Y-58561100D01*
X-74008600Y-58561100D02*
X-67208300Y-58561100D01*
X-67208300Y-58561100D02*
X-67208200Y-58561000D01*
X-49530000Y-33020000D02*
X-49530000Y-37231000D01*
X-60960000Y-53340000D02*
X-63010300Y-53340000D01*
X-76200000Y-58420000D02*
X-74149700Y-58420000D01*
X-77225100Y-58420000D02*
X-76200000Y-58420000D01*
X-77225100Y-58420000D02*
X-78250300Y-58420000D01*
X-34035900Y-20072300D02*
X-25393600Y-11430000D01*
X-25393600Y-11430000D02*
X-16510000Y-11430000D01*
X-80170900Y-59730000D02*
X-82550000Y-59730000D01*
X-78250300Y-58420000D02*
X-79560300Y-59730000D01*
X-79560300Y-59730000D02*
X-80170900Y-59730000D01*
X-82550000Y-55880000D02*
X-82550000Y-59730000D01*
X-83809700Y-11430000D02*
X-82619700Y-10240000D01*
X-82619700Y-10240000D02*
X-72390000Y-10240000D01*
X-44450000Y-21590000D02*
X-44450000Y-23740300D01*
X-86577500Y-38100000D02*
X-86577500Y-34290000D01*
X-86360000Y-11430000D02*
X-88921400Y-13991400D01*
X-88921400Y-13991400D02*
X-88921400Y-28266100D01*
X-88921400Y-28266100D02*
X-86707500Y-30480000D01*
X-86707500Y-30480000D02*
X-86707500Y-34160000D01*
X-86707500Y-34160000D02*
X-86577500Y-34290000D01*
X-85084800Y-11430000D02*
X-86360000Y-11430000D01*
X-85084800Y-11430000D02*
X-83809700Y-11430000D01*
X-44450000Y-23990000D02*
X-44450000Y-33020000D01*
X-44450000Y-21590000D02*
X-44450000Y-23990000D01*
X-34035900Y-22860000D02*
X-34035900Y-20072300D01*
X-34035900Y-23305800D02*
X-34035900Y-22860000D01*
X-49530000Y-33020000D02*
X-48410000Y-33020000D01*
X-48410000Y-33020000D02*
X-44450000Y-33020000D01*
X-44450000Y-33882522D02*
X-44450000Y-33020000D01*
X-40806479Y-35319001D02*
X-43013521Y-35319001D01*
X-34035900Y-28548422D02*
X-40806479Y-35319001D01*
X-43013521Y-35319001D02*
X-44450000Y-33882522D01*
X-34035900Y-22860000D02*
X-34035900Y-28548422D01*
X-50800000Y-38501000D02*
X-49530000Y-37231000D01*
X-50800000Y-43180000D02*
X-50800000Y-38501000D01*
D31*
X-54610000Y-44450000D02*
X-54610000Y-43180000D01*
X-54610000Y-43180000D02*
X-50800000Y-43180000D01*
D33*
X-50800000Y-54350002D02*
X-50800000Y-43180000D01*
X-50800000Y-55880000D02*
X-50800000Y-54350002D01*
X-60960000Y-53340000D02*
X-59828630Y-53340000D01*
X-59828630Y-53340000D02*
X-56018630Y-57150000D01*
X-56018630Y-57150000D02*
X-52070000Y-57150000D01*
X-52070000Y-57150000D02*
X-50800000Y-55880000D01*
G04 #@! TO.N,+12V*
X-61479600Y-14480400D02*
X-69380100Y-14480400D01*
X-69380100Y-14480400D02*
X-70139700Y-15240000D01*
X-60720000Y-15240000D02*
X-61479600Y-14480400D01*
X-61479600Y-14480400D02*
X-60720000Y-13720800D01*
X-60720000Y-13720800D02*
X-60720000Y-11840000D01*
X-72390000Y-15240000D02*
X-70139700Y-15240000D01*
X-72390000Y-15240000D02*
X-74640300Y-15240000D01*
X-86360000Y-16510000D02*
X-75910300Y-16510000D01*
X-75910300Y-16510000D02*
X-74640300Y-15240000D01*
D31*
G04 #@! TO.N,/SEL0*
X-13970000Y-50800000D02*
X-13751700Y-50800000D01*
X-13751700Y-50800000D02*
X-12017200Y-49065500D01*
X-12017200Y-49065500D02*
X-12017200Y-42886500D01*
X-12017200Y-42886500D02*
X-13405600Y-41498100D01*
X-13405600Y-41498100D02*
X-19954000Y-41498100D01*
X-19954000Y-41498100D02*
X-23229300Y-44773400D01*
X-23229300Y-44773400D02*
X-33932400Y-44773400D01*
X-60960000Y-40640000D02*
X-58959700Y-40640000D01*
X-57815200Y-40552900D02*
X-58872600Y-40552900D01*
X-58872600Y-40552900D02*
X-58959700Y-40640000D01*
G04 #@! TO.N,/SEL1*
X-13970000Y-68580000D02*
X-13544400Y-68580000D01*
X-13544400Y-68580000D02*
X-10700900Y-65736500D01*
X-62960300Y-38100000D02*
X-66291100Y-41430800D01*
X-66291100Y-41430800D02*
X-66291100Y-54005900D01*
X-60960000Y-38100000D02*
X-62960300Y-38100000D01*
G04 #@! TO.N,/MOSI*
X-60960000Y-27940000D02*
X-58959700Y-27940000D01*
X-16510000Y-49530000D02*
X-25973600Y-49530000D01*
X-25973600Y-49530000D02*
X-26218200Y-49285400D01*
X-58959700Y-27940000D02*
X-58959700Y-28118200D01*
X-58959700Y-28118200D02*
X-57851700Y-29226200D01*
X-16510000Y-67310000D02*
X-16753000Y-67310000D01*
X-16753000Y-67310000D02*
X-24831500Y-59231500D01*
X-24831500Y-59231500D02*
X-24831500Y-58586400D01*
G04 #@! TO.N,/SCL*
X-13970000Y-66040000D02*
X-13970000Y-65811600D01*
X-13970000Y-65811600D02*
X-8196900Y-60038500D01*
X-8196900Y-60038500D02*
X-5696900Y-60038500D01*
X-5696900Y-60038500D02*
X-4819700Y-59161300D01*
X-14294300Y-43721200D02*
X-13970000Y-44045500D01*
X-13970000Y-44045500D02*
X-13970000Y-48260000D01*
X-68164200Y-19364500D02*
X-74199700Y-25400000D01*
X-76200000Y-25400000D02*
X-74199700Y-25400000D01*
D32*
G04 #@! TO.N,Net-(R1-Pad2)*
X-43710000Y-49530000D02*
X-45210000Y-49530000D01*
X-30480000Y-72390000D02*
X-38100000Y-64770000D01*
X-38100000Y-64770000D02*
X-38100000Y-55140000D01*
X-25487500Y-72390000D02*
X-30480000Y-72390000D01*
X-38100000Y-55140000D02*
X-43710000Y-49530000D01*
G04 #@! TO.N,Net-(R2-Pad2)*
X-25617500Y-55880000D02*
X-29210000Y-55880000D01*
X-41910000Y-48260000D02*
X-45210000Y-48260000D01*
X-34290000Y-55880000D02*
X-41910000Y-48260000D01*
D31*
G04 #@! TO.N,Net-(L2_Start1-Pad2)*
X-16510000Y-36830000D02*
X-20102500Y-36830000D01*
X-20102500Y-36830000D02*
X-22642500Y-39370000D01*
G04 #@! TO.N,Net-(L1_Start1-Pad2)*
X-16510000Y-19050000D02*
X-22512500Y-19050000D01*
G04 #@! TO.N,Net-(L1_Finish1-Pad2)*
X-16510000Y-54610000D02*
X-21372500Y-54610000D01*
X-21372500Y-54610000D02*
X-22642500Y-55880000D01*
G04 #@! TO.N,Net-(L2_finish1-Pad2)*
X-16510000Y-72390000D02*
X-22512500Y-72390000D01*
G04 #@! TO.N,/PORT0_LED_EXCITE*
X-16510000Y-16510000D02*
X-21242500Y-16510000D01*
X-21242500Y-16510000D02*
X-22512500Y-15240000D01*
G04 #@! TO.N,/PORT1_LED_EXCITE*
X-16510000Y-34290000D02*
X-21372500Y-34290000D01*
X-21372500Y-34290000D02*
X-22642500Y-35560000D01*
G04 #@! TO.N,/PORT2_LED_EXCITE*
X-16510000Y-52070000D02*
X-22730000Y-52070000D01*
G04 #@! TO.N,/PORT3_LED_EXCITE*
X-16510000Y-69850000D02*
X-21372500Y-69850000D01*
X-21372500Y-69850000D02*
X-22642500Y-68580000D01*
G04 #@! TO.N,Net-(R11-Pad2)*
X-25487500Y-19050000D02*
X-25487500Y-32360900D01*
X-25487500Y-32360900D02*
X-24987300Y-32861100D01*
X-24987300Y-42256200D02*
X-25617500Y-41626000D01*
X-25617500Y-41626000D02*
X-25617500Y-39370000D01*
D32*
X-38100000Y-46990000D02*
X-36830000Y-48260000D01*
X-45210000Y-46990000D02*
X-38100000Y-46990000D01*
D31*
G04 #@! TO.N,Net-(R10-Pad2)*
X-29835400Y-52070000D02*
X-25530000Y-52070000D01*
X-37058700Y-44758600D02*
X-37058700Y-44846700D01*
X-37058700Y-44846700D02*
X-29835400Y-52070000D01*
X-29835400Y-52070000D02*
X-31323900Y-53558500D01*
X-31323900Y-53558500D02*
X-31323900Y-62873600D01*
X-31323900Y-62873600D02*
X-25617500Y-68580000D01*
X-27436200Y-35560000D02*
X-27860100Y-35560000D01*
X-27860100Y-35560000D02*
X-37058700Y-44758600D01*
X-27436200Y-35560000D02*
X-27436200Y-17188700D01*
X-27436200Y-17188700D02*
X-25487500Y-15240000D01*
X-25617500Y-35560000D02*
X-27436200Y-35560000D01*
D32*
X-38020100Y-45720000D02*
X-37058700Y-44758600D01*
X-45210000Y-45720000D02*
X-38020100Y-45720000D01*
D31*
G04 #@! TO.N,/LED1*
X-60960000Y-35560000D02*
X-56227500Y-35560000D01*
G04 #@! TO.N,Net-(D1-Pad2)*
X-46460999Y-23539003D02*
X-46990000Y-23010002D01*
X-46460999Y-30229001D02*
X-46460999Y-23539003D01*
X-49740701Y-30469001D02*
X-46700999Y-30469001D01*
X-46990000Y-22862792D02*
X-46990000Y-21590000D01*
X-46990000Y-23010002D02*
X-46990000Y-22862792D01*
X-53252500Y-33980800D02*
X-49740701Y-30469001D01*
X-46700999Y-30469001D02*
X-46460999Y-30229001D01*
X-53252500Y-35560000D02*
X-53252500Y-33980800D01*
D33*
G04 #@! TO.N,/12V_FUSED*
X-12319800Y-20320000D02*
X-4423000Y-12423200D01*
X-4423000Y-12423200D02*
X-4423000Y-8822900D01*
X-4423000Y-8822900D02*
X-6264500Y-6981400D01*
X-6264500Y-6981400D02*
X-45941400Y-6981400D01*
X-45941400Y-6981400D02*
X-50800000Y-11840000D01*
X-12319800Y-20320000D02*
X-11969700Y-20320000D01*
X-13970000Y-20320000D02*
X-12319800Y-20320000D01*
X-11969700Y-20320000D02*
X-11969700Y-21726400D01*
X-11969700Y-21726400D02*
X-8931100Y-24765000D01*
X-8931100Y-24765000D02*
X-6286300Y-24765000D01*
X-6286300Y-24765000D02*
X-4469600Y-26581700D01*
X-4469600Y-26581700D02*
X-4469600Y-30599900D01*
X-4469600Y-30599900D02*
X-11969700Y-38100000D01*
X-4412400Y-53949200D02*
X-2240000Y-56121600D01*
X-2240000Y-56121600D02*
X-2240000Y-74042200D01*
X-2240000Y-74042200D02*
X-6301200Y-78103400D01*
X-6301200Y-78103400D02*
X-9526600Y-78103400D01*
X-9526600Y-78103400D02*
X-13970000Y-73660000D01*
X-13970000Y-55880000D02*
X-11246300Y-55880000D01*
X-11246300Y-55880000D02*
X-9315500Y-53949200D01*
X-9315500Y-53949200D02*
X-4412400Y-53949200D01*
X-4412400Y-53949200D02*
X-4412400Y-44472400D01*
X-4412400Y-44472400D02*
X-6315200Y-42569600D01*
X-6315200Y-42569600D02*
X-8906500Y-42569600D01*
X-8906500Y-42569600D02*
X-11969700Y-39506400D01*
X-11969700Y-39506400D02*
X-11969700Y-38100000D01*
X-13970000Y-38100000D02*
X-11969700Y-38100000D01*
X-13970000Y-73660000D02*
X-15126400Y-74816400D01*
X-15126400Y-74816400D02*
X-34493300Y-74816400D01*
X-34493300Y-74816400D02*
X-45809700Y-63500000D01*
X-74149700Y-60960000D02*
X-69549200Y-65560500D01*
X-69549200Y-65560500D02*
X-50320500Y-65560500D01*
X-50320500Y-65560500D02*
X-48260000Y-63500000D01*
X-76200000Y-60960000D02*
X-74149700Y-60960000D01*
X-50800000Y-11840000D02*
X-50800000Y-15240000D01*
X-46990000Y-63500000D02*
X-48260000Y-62230000D01*
X-48260000Y-63500000D02*
X-46990000Y-63500000D01*
X-46990000Y-63500000D02*
X-45809700Y-63500000D01*
X-48260000Y-62230000D02*
X-48260000Y-45219998D01*
D31*
X-45210000Y-43350000D02*
X-45380000Y-43180000D01*
X-45210000Y-44450000D02*
X-45210000Y-43350000D01*
X-45380000Y-43180000D02*
X-48260000Y-43180000D01*
X-48260000Y-43180000D02*
X-48260000Y-45219998D01*
G04 #@! TO.N,/PB1*
X-60960000Y-33020000D02*
X-54610000Y-33020000D01*
X-50054455Y-28520000D02*
X-49647154Y-28520000D01*
X-54554455Y-33020000D02*
X-50054455Y-28520000D01*
X-60960000Y-33020000D02*
X-54554455Y-33020000D01*
X-48410000Y-28520000D02*
X-50054455Y-28520000D01*
X-48410000Y-28520000D02*
X-48950000Y-28520000D01*
G04 #@! TD*
M02*
