G04 #@! TF.GenerationSoftware,KiCad,Pcbnew,5.0.2*
G04 #@! TF.CreationDate,2019-03-04T19:00:17-06:00*
G04 #@! TF.ProjectId,race timer,72616365-2074-4696-9d65-722e6b696361,rev?*
G04 #@! TF.SameCoordinates,PX6e37550PYe88b40*
G04 #@! TF.FileFunction,Copper,L1,Top*
G04 #@! TF.FilePolarity,Positive*
%FSLAX46Y46*%
G04 Gerber Fmt 4.6, Leading zero omitted, Abs format (unit mm)*
G04 Created by KiCad (PCBNEW 5.0.2) date Mon 04 Mar 2019 19:00:17 CST*
%MOMM*%
%LPD*%
G01*
G04 APERTURE LIST*
G04 #@! TA.AperFunction,NonConductor*
%ADD10C,0.150000*%
G04 #@! TD*
G04 #@! TA.AperFunction,ComponentPad*
%ADD11C,3.000000*%
G04 #@! TD*
G04 #@! TA.AperFunction,ComponentPad*
%ADD12R,1.498000X1.498000*%
G04 #@! TD*
G04 #@! TA.AperFunction,ComponentPad*
%ADD13C,1.498000*%
G04 #@! TD*
G04 #@! TA.AperFunction,ComponentPad*
%ADD14R,1.600000X1.600000*%
G04 #@! TD*
G04 #@! TA.AperFunction,ComponentPad*
%ADD15C,1.600000*%
G04 #@! TD*
G04 #@! TA.AperFunction,ComponentPad*
%ADD16C,2.780000*%
G04 #@! TD*
G04 #@! TA.AperFunction,ComponentPad*
%ADD17C,1.800000*%
G04 #@! TD*
G04 #@! TA.AperFunction,ComponentPad*
%ADD18R,1.800000X1.800000*%
G04 #@! TD*
G04 #@! TA.AperFunction,ComponentPad*
%ADD19R,2.600000X2.600000*%
G04 #@! TD*
G04 #@! TA.AperFunction,ComponentPad*
%ADD20C,2.600000*%
G04 #@! TD*
G04 #@! TA.AperFunction,ComponentPad*
%ADD21O,1.600000X1.600000*%
G04 #@! TD*
G04 #@! TA.AperFunction,ComponentPad*
%ADD22C,1.500000*%
G04 #@! TD*
G04 #@! TA.AperFunction,ComponentPad*
%ADD23R,1.500000X1.500000*%
G04 #@! TD*
G04 #@! TA.AperFunction,ComponentPad*
%ADD24R,2.000000X2.000000*%
G04 #@! TD*
G04 #@! TA.AperFunction,ComponentPad*
%ADD25C,2.000000*%
G04 #@! TD*
G04 #@! TA.AperFunction,ViaPad*
%ADD26C,2.000000*%
G04 #@! TD*
G04 #@! TA.AperFunction,Conductor*
%ADD27C,0.800000*%
G04 #@! TD*
G04 #@! TA.AperFunction,Conductor*
%ADD28C,1.500000*%
G04 #@! TD*
G04 #@! TA.AperFunction,Conductor*
%ADD29C,0.500000*%
G04 #@! TD*
G04 APERTURE END LIST*
D10*
X0Y0D02*
X-92710000Y0D01*
X-92710000Y0D02*
X-92710000Y-85090000D01*
X0Y-85090000D02*
X0Y0D01*
X-92710000Y-85090000D02*
X0Y-85090000D01*
D11*
G04 #@! TO.P,MOUNT3,1*
G04 #@! TO.N,N/C*
X-87630000Y-81280000D03*
G04 #@! TD*
G04 #@! TO.P,MOUNT4,1*
G04 #@! TO.N,N/C*
X-3810000Y-3810000D03*
G04 #@! TD*
G04 #@! TO.P,MOUNT2,1*
G04 #@! TO.N,N/C*
X-3810000Y-81280000D03*
G04 #@! TD*
D12*
G04 #@! TO.P,SW1,1*
G04 #@! TO.N,/PB1*
X-48410000Y-28520000D03*
D13*
G04 #@! TO.P,SW1,2*
G04 #@! TO.N,GND*
X-48410000Y-33020000D03*
G04 #@! TO.P,SW1,4*
G04 #@! TO.N,N/C*
X-41910000Y-33020000D03*
G04 #@! TO.P,SW1,3*
X-41910000Y-28520000D03*
G04 #@! TD*
D14*
G04 #@! TO.P,C1,1*
G04 #@! TO.N,Net-(A1-Pad27)*
X-82550000Y-62230000D03*
D15*
G04 #@! TO.P,C1,2*
G04 #@! TO.N,GND*
X-82550000Y-59730000D03*
G04 #@! TD*
D16*
G04 #@! TO.P,F1,1*
G04 #@! TO.N,/12V_FUSED*
X-50800000Y-15240000D03*
X-50800000Y-11840000D03*
G04 #@! TO.P,F1,2*
G04 #@! TO.N,+12V*
X-60720000Y-15240000D03*
X-60720000Y-11840000D03*
G04 #@! TD*
D17*
G04 #@! TO.P,D1,2*
G04 #@! TO.N,Net-(D1-Pad2)*
X-46990000Y-21590000D03*
D18*
G04 #@! TO.P,D1,1*
G04 #@! TO.N,GND*
X-44450000Y-21590000D03*
G04 #@! TD*
D19*
G04 #@! TO.P,J1,1*
G04 #@! TO.N,GND*
X-86360000Y-11430000D03*
D20*
G04 #@! TO.P,J1,2*
G04 #@! TO.N,+12V*
X-86360000Y-16510000D03*
G04 #@! TD*
D14*
G04 #@! TO.P,A1,1*
G04 #@! TO.N,Net-(A1-Pad1)*
X-60960000Y-60960000D03*
D21*
G04 #@! TO.P,A1,17*
G04 #@! TO.N,Net-(A1-Pad17)*
X-76200000Y-27940000D03*
G04 #@! TO.P,A1,2*
G04 #@! TO.N,Net-(A1-Pad2)*
X-60960000Y-58420000D03*
G04 #@! TO.P,A1,18*
G04 #@! TO.N,Net-(A1-Pad18)*
X-76200000Y-30480000D03*
G04 #@! TO.P,A1,3*
G04 #@! TO.N,Net-(A1-Pad3)*
X-60960000Y-55880000D03*
G04 #@! TO.P,A1,19*
G04 #@! TO.N,Net-(A1-Pad19)*
X-76200000Y-33020000D03*
G04 #@! TO.P,A1,4*
G04 #@! TO.N,GND*
X-60960000Y-53340000D03*
G04 #@! TO.P,A1,20*
G04 #@! TO.N,Net-(A1-Pad20)*
X-76200000Y-35560000D03*
G04 #@! TO.P,A1,5*
G04 #@! TO.N,Net-(A1-Pad5)*
X-60960000Y-50800000D03*
G04 #@! TO.P,A1,21*
G04 #@! TO.N,Net-(A1-Pad21)*
X-76200000Y-38100000D03*
G04 #@! TO.P,A1,6*
G04 #@! TO.N,Net-(A1-Pad6)*
X-60960000Y-48260000D03*
G04 #@! TO.P,A1,22*
G04 #@! TO.N,Net-(A1-Pad22)*
X-76200000Y-40640000D03*
G04 #@! TO.P,A1,7*
G04 #@! TO.N,Net-(A1-Pad7)*
X-60960000Y-45720000D03*
G04 #@! TO.P,A1,23*
G04 #@! TO.N,Net-(A1-Pad23)*
X-76200000Y-43180000D03*
G04 #@! TO.P,A1,8*
G04 #@! TO.N,Net-(A1-Pad8)*
X-60960000Y-43180000D03*
G04 #@! TO.P,A1,24*
G04 #@! TO.N,Net-(A1-Pad24)*
X-76200000Y-45720000D03*
G04 #@! TO.P,A1,9*
G04 #@! TO.N,/SEL0*
X-60960000Y-40640000D03*
G04 #@! TO.P,A1,25*
G04 #@! TO.N,Net-(A1-Pad25)*
X-76200000Y-48260000D03*
G04 #@! TO.P,A1,10*
G04 #@! TO.N,/SEL1*
X-60960000Y-38100000D03*
G04 #@! TO.P,A1,26*
G04 #@! TO.N,Net-(A1-Pad26)*
X-76200000Y-50800000D03*
G04 #@! TO.P,A1,11*
G04 #@! TO.N,/LED1*
X-60960000Y-35560000D03*
G04 #@! TO.P,A1,27*
G04 #@! TO.N,Net-(A1-Pad27)*
X-76200000Y-53340000D03*
G04 #@! TO.P,A1,12*
G04 #@! TO.N,/PB1*
X-60960000Y-33020000D03*
G04 #@! TO.P,A1,28*
G04 #@! TO.N,Net-(A1-Pad28)*
X-76200000Y-55880000D03*
G04 #@! TO.P,A1,13*
G04 #@! TO.N,/SS*
X-60960000Y-30480000D03*
G04 #@! TO.P,A1,29*
G04 #@! TO.N,GND*
X-76200000Y-58420000D03*
G04 #@! TO.P,A1,14*
G04 #@! TO.N,/MOSI*
X-60960000Y-27940000D03*
G04 #@! TO.P,A1,30*
G04 #@! TO.N,/12V_FUSED*
X-76200000Y-60960000D03*
G04 #@! TO.P,A1,15*
G04 #@! TO.N,/MISO*
X-60960000Y-25400000D03*
G04 #@! TO.P,A1,16*
G04 #@! TO.N,/SCL*
X-76200000Y-25400000D03*
G04 #@! TD*
D22*
G04 #@! TO.P,L2_Start1,8*
G04 #@! TO.N,GND*
X-16510000Y-29210000D03*
G04 #@! TO.P,L2_Start1,7*
G04 #@! TO.N,Net-(L2_Start1-Pad7)*
X-13970000Y-30480000D03*
G04 #@! TO.P,L2_Start1,6*
G04 #@! TO.N,Net-(L2_Start1-Pad6)*
X-16510000Y-31750000D03*
G04 #@! TO.P,L2_Start1,5*
G04 #@! TO.N,Net-(L2_Start1-Pad5)*
X-13970000Y-33020000D03*
G04 #@! TO.P,L2_Start1,4*
G04 #@! TO.N,/PORT1_LED_EXCITE*
X-16510000Y-34290000D03*
G04 #@! TO.P,L2_Start1,3*
G04 #@! TO.N,Net-(A1-Pad20)*
X-13970000Y-35560000D03*
G04 #@! TO.P,L2_Start1,2*
G04 #@! TO.N,Net-(L2_Start1-Pad2)*
X-16510000Y-36830000D03*
D23*
G04 #@! TO.P,L2_Start1,1*
G04 #@! TO.N,/12V_FUSED*
X-13970000Y-38100000D03*
G04 #@! TD*
G04 #@! TO.P,L1_Finish1,1*
G04 #@! TO.N,/12V_FUSED*
X-13970000Y-55880000D03*
D22*
G04 #@! TO.P,L1_Finish1,2*
G04 #@! TO.N,Net-(L1_Finish1-Pad2)*
X-16510000Y-54610000D03*
G04 #@! TO.P,L1_Finish1,3*
G04 #@! TO.N,Net-(A1-Pad21)*
X-13970000Y-53340000D03*
G04 #@! TO.P,L1_Finish1,4*
G04 #@! TO.N,/PORT2_LED_EXCITE*
X-16510000Y-52070000D03*
G04 #@! TO.P,L1_Finish1,5*
G04 #@! TO.N,/SEL0*
X-13970000Y-50800000D03*
G04 #@! TO.P,L1_Finish1,6*
G04 #@! TO.N,/MOSI*
X-16510000Y-49530000D03*
G04 #@! TO.P,L1_Finish1,7*
G04 #@! TO.N,/SCL*
X-13970000Y-48260000D03*
G04 #@! TO.P,L1_Finish1,8*
G04 #@! TO.N,GND*
X-16510000Y-46990000D03*
G04 #@! TD*
D24*
G04 #@! TO.P,C3,1*
G04 #@! TO.N,+12V*
X-72390000Y-15240000D03*
D25*
G04 #@! TO.P,C3,2*
G04 #@! TO.N,GND*
X-72390000Y-10240000D03*
G04 #@! TD*
D15*
G04 #@! TO.P,C2,1*
G04 #@! TO.N,Net-(A1-Pad27)*
X-82550000Y-53380000D03*
G04 #@! TO.P,C2,2*
G04 #@! TO.N,GND*
X-82550000Y-55880000D03*
G04 #@! TD*
D23*
G04 #@! TO.P,L2_finish1,1*
G04 #@! TO.N,/12V_FUSED*
X-13970000Y-73660000D03*
D22*
G04 #@! TO.P,L2_finish1,2*
G04 #@! TO.N,Net-(L2_finish1-Pad2)*
X-16510000Y-72390000D03*
G04 #@! TO.P,L2_finish1,3*
G04 #@! TO.N,Net-(A1-Pad22)*
X-13970000Y-71120000D03*
G04 #@! TO.P,L2_finish1,4*
G04 #@! TO.N,/PORT3_LED_EXCITE*
X-16510000Y-69850000D03*
G04 #@! TO.P,L2_finish1,5*
G04 #@! TO.N,/SEL1*
X-13970000Y-68580000D03*
G04 #@! TO.P,L2_finish1,6*
G04 #@! TO.N,/MOSI*
X-16510000Y-67310000D03*
G04 #@! TO.P,L2_finish1,7*
G04 #@! TO.N,/SCL*
X-13970000Y-66040000D03*
G04 #@! TO.P,L2_finish1,8*
G04 #@! TO.N,GND*
X-16510000Y-64770000D03*
G04 #@! TD*
G04 #@! TO.P,L1_Start1,8*
G04 #@! TO.N,GND*
X-16510000Y-11430000D03*
G04 #@! TO.P,L1_Start1,7*
G04 #@! TO.N,Net-(L1_Start1-Pad7)*
X-13970000Y-12700000D03*
G04 #@! TO.P,L1_Start1,6*
G04 #@! TO.N,Net-(L1_Start1-Pad6)*
X-16510000Y-13970000D03*
G04 #@! TO.P,L1_Start1,5*
G04 #@! TO.N,Net-(L1_Start1-Pad5)*
X-13970000Y-15240000D03*
G04 #@! TO.P,L1_Start1,4*
G04 #@! TO.N,/PORT0_LED_EXCITE*
X-16510000Y-16510000D03*
G04 #@! TO.P,L1_Start1,3*
G04 #@! TO.N,Net-(A1-Pad19)*
X-13970000Y-17780000D03*
G04 #@! TO.P,L1_Start1,2*
G04 #@! TO.N,Net-(L1_Start1-Pad2)*
X-16510000Y-19050000D03*
D23*
G04 #@! TO.P,L1_Start1,1*
G04 #@! TO.N,/12V_FUSED*
X-13970000Y-20320000D03*
G04 #@! TD*
D11*
G04 #@! TO.P,MOUNT1,1*
G04 #@! TO.N,N/C*
X-87630000Y-3810000D03*
G04 #@! TD*
D26*
G04 #@! TO.N,Net-(A1-Pad20)*
X-73014900Y-35012100D03*
X-23220400Y-27293700D03*
G04 #@! TO.N,Net-(A1-Pad21)*
X-68525500Y-46860200D03*
X-10891100Y-51840100D03*
G04 #@! TO.N,Net-(A1-Pad22)*
X-71657100Y-55998100D03*
X-10749900Y-73172600D03*
G04 #@! TO.N,GND*
X-19593700Y-56876700D03*
X-19593700Y-44804000D03*
X-19593700Y-29444100D03*
G04 #@! TO.N,/SEL0*
X-57815200Y-40552900D03*
X-33932400Y-44773400D03*
G04 #@! TO.N,/SEL1*
X-66291100Y-54005900D03*
X-10700900Y-65736500D03*
G04 #@! TO.N,/MOSI*
X-57851700Y-29226200D03*
X-24831500Y-58586400D03*
X-26218200Y-49285400D03*
G04 #@! TO.N,/SCL*
X-4819700Y-59161300D03*
X-14294300Y-43721200D03*
X-68164200Y-19364500D03*
G04 #@! TO.N,Net-(R2-Pad2)*
X-29210000Y-55880000D03*
X-34290000Y-55880000D03*
G04 #@! TO.N,Net-(R11-Pad2)*
X-24987300Y-32861100D03*
X-24987300Y-42256200D03*
X-36830000Y-48260000D03*
G04 #@! TD*
D27*
G04 #@! TO.N,Net-(A1-Pad20)*
X-73014900Y-35012100D02*
X-73014900Y-33155000D01*
X-73014900Y-33155000D02*
X-62767700Y-22907800D01*
X-62767700Y-22907800D02*
X-49112200Y-22907800D01*
X-49112200Y-22907800D02*
X-46874100Y-25145900D01*
X-46874100Y-25145900D02*
X-25368200Y-25145900D01*
X-25368200Y-25145900D02*
X-23220400Y-27293700D01*
G04 #@! TO.N,Net-(A1-Pad21)*
X-68525500Y-46860200D02*
X-63430400Y-51955300D01*
X-63430400Y-51955300D02*
X-63430400Y-62787800D01*
X-63430400Y-62787800D02*
X-60691900Y-65526300D01*
X-60691900Y-65526300D02*
X-24836700Y-65526300D01*
X-24836700Y-65526300D02*
X-20052500Y-60742100D01*
X-20052500Y-60742100D02*
X-14583800Y-60742100D01*
X-14583800Y-60742100D02*
X-10891100Y-57049400D01*
X-10891100Y-57049400D02*
X-10891100Y-51840100D01*
G04 #@! TO.N,Net-(A1-Pad22)*
X-10749900Y-73172600D02*
X-10749900Y-75064500D01*
X-10749900Y-75064500D02*
X-12224700Y-76539300D01*
X-12224700Y-76539300D02*
X-54244700Y-76539300D01*
X-54244700Y-76539300D02*
X-71657100Y-59126900D01*
X-71657100Y-59126900D02*
X-71657100Y-55998100D01*
D28*
G04 #@! TO.N,GND*
X-19593700Y-29444100D02*
X-19593700Y-27276800D01*
X-19593700Y-27276800D02*
X-25280500Y-21590000D01*
X-25280500Y-21590000D02*
X-44450000Y-21590000D01*
X-19593700Y-29444100D02*
X-19593700Y-44804000D01*
X-19593700Y-56876700D02*
X-19593700Y-44804000D01*
D27*
G04 #@! TO.N,/SEL0*
X-57815200Y-40552900D02*
X-38152900Y-40552900D01*
X-38152900Y-40552900D02*
X-33932400Y-44773400D01*
G04 #@! TO.N,/SEL1*
X-66291100Y-54005900D02*
X-66291100Y-62190400D01*
X-66291100Y-62190400D02*
X-61296500Y-67185000D01*
X-61296500Y-67185000D02*
X-23683400Y-67185000D01*
X-23683400Y-67185000D02*
X-19153100Y-62654700D01*
X-19153100Y-62654700D02*
X-12160300Y-62654700D01*
X-12160300Y-62654700D02*
X-10700900Y-64114100D01*
X-10700900Y-64114100D02*
X-10700900Y-65736500D01*
G04 #@! TO.N,/MOSI*
X-57851700Y-29226200D02*
X-50846700Y-36231200D01*
X-50846700Y-36231200D02*
X-39272400Y-36231200D01*
X-39272400Y-36231200D02*
X-26218200Y-49285400D01*
X-24831500Y-58586400D02*
X-24831500Y-50672100D01*
X-24831500Y-50672100D02*
X-26218200Y-49285400D01*
G04 #@! TO.N,/SCL*
X-4819700Y-59161300D02*
X-4819700Y-42870000D01*
X-4819700Y-42870000D02*
X-13443100Y-42870000D01*
X-13443100Y-42870000D02*
X-14294300Y-43721200D01*
X-68164200Y-19364500D02*
X-22180100Y-19364500D01*
X-22180100Y-19364500D02*
X-16440400Y-25104200D01*
X-16440400Y-25104200D02*
X-6478100Y-25104200D01*
X-6478100Y-25104200D02*
X-4819700Y-26762600D01*
X-4819700Y-26762600D02*
X-4819700Y-42870000D01*
D29*
G04 #@! TO.N,Net-(R2-Pad2)*
X-29210000Y-55880000D02*
X-34290000Y-55880000D01*
D27*
G04 #@! TO.N,Net-(R11-Pad2)*
X-26911300Y-55097400D02*
X-26911300Y-57047700D01*
X-26911300Y-57047700D02*
X-27038000Y-57174400D01*
X-27038000Y-57174400D02*
X-27038000Y-59516400D01*
X-27038000Y-59516400D02*
X-25764700Y-60789700D01*
X-25764700Y-60789700D02*
X-23866900Y-60789700D01*
X-23866900Y-60789700D02*
X-22631200Y-59554000D01*
X-22631200Y-59554000D02*
X-22631200Y-44612300D01*
X-22631200Y-44612300D02*
X-24987300Y-42256200D01*
X-24987300Y-32861100D02*
X-24987300Y-42256200D01*
D29*
X-35560000Y-46990000D02*
X-35018700Y-46990000D01*
X-36830000Y-48260000D02*
X-35560000Y-46990000D01*
D27*
X-35018700Y-46990000D02*
X-26911300Y-55097400D01*
G04 #@! TD*
M02*
