M48
;DRILL file {KiCad 5.0.2} date Mon 25 Feb 2019 11:07:36 AM CST
;FORMAT={-:-/ absolute / inch / decimal}
FMAT,2
INCH,TZ
T1C0.0299
T2C0.0315
T3C0.0354
T4C0.0390
T5C0.0394
T6C0.0512
T7C0.0701
%
G90
G05
T1
X3.9Y-1.05
X3.9Y-1.15
X3.9Y-1.25
X3.9Y-1.35
X4.Y-1.1
X4.Y-1.2
X4.Y-1.3
X4.Y-1.4
X3.9Y-2.45
X3.9Y-2.55
X3.9Y-2.65
X3.9Y-2.75
X4.Y-2.5
X4.Y-2.6
X4.Y-2.7
X4.Y-2.8
X3.9Y-3.15
X3.9Y-3.25
X3.9Y-3.35
X3.9Y-3.45
X4.Y-3.2
X4.Y-3.3
X4.Y-3.4
X4.Y-3.5
X3.9Y-1.75
X3.9Y-1.85
X3.9Y-1.95
X3.9Y-2.05
X4.Y-1.8
X4.Y-1.9
X4.Y-2.
X4.Y-2.1
T2
X1.3Y-2.9516
X1.3Y-3.05
X1.55Y-1.6
X1.55Y-1.7
X1.55Y-1.8
X1.55Y-1.9
X1.55Y-2.
X1.55Y-2.1
X1.55Y-2.2
X1.55Y-2.3
X1.55Y-2.4
X1.55Y-2.5
X1.55Y-2.6
X1.55Y-2.7
X1.55Y-2.8
X1.55Y-2.9
X1.55Y-3.
X2.15Y-1.6
X2.15Y-1.7
X2.15Y-1.8
X2.15Y-1.9
X2.15Y-2.
X2.15Y-2.1
X2.15Y-2.2
X2.15Y-2.3
X2.15Y-2.4
X2.15Y-2.5
X2.15Y-2.6
X2.15Y-2.7
X2.15Y-2.8
X2.15Y-2.9
X2.15Y-3.
X2.35Y-2.3
X2.35Y-2.4
X2.35Y-2.5
X2.35Y-2.6
X2.35Y-2.7
X2.35Y-2.8
X2.35Y-2.9
X2.35Y-3.
X2.35Y-3.1
X2.65Y-2.3
X2.65Y-2.4
X2.65Y-2.5
X2.65Y-2.6
X2.65Y-2.7
X2.65Y-2.8
X2.65Y-2.9
X2.65Y-3.
X2.65Y-3.1
X1.3Y-2.7016
X1.3Y-2.8
T3
X2.7Y-1.45
X2.8Y-1.45
T4
X2.6441Y-1.7228
X2.6441Y-1.9
X2.9Y-1.7228
X2.9Y-1.9
T5
X1.6754Y-1.9784
X1.7289Y-2.8046
X1.8521Y-2.4449
X1.8664Y-1.3624
X1.9401Y-2.7262
X2.2724Y-1.7506
X2.2738Y-2.1966
X3.2141Y-2.3627
X3.4039Y-2.8066
X3.5178Y-2.5404
X3.5662Y-1.8937
X3.5662Y-2.2636
X3.5724Y-2.9066
X3.6358Y-1.6746
X3.7786Y-1.7592
X3.7786Y-2.3639
X3.7786Y-2.8392
X3.9872Y-2.3213
X4.1212Y-2.6409
X4.1268Y-3.4808
X4.1287Y-3.1881
X4.3602Y-2.9292
X1.7Y-1.0031
X1.7Y-1.2
T6
X1.15Y-1.05
X1.15Y-1.25
T7
X2.1594Y-1.0661
X2.1594Y-1.2
X2.55Y-1.0661
X2.55Y-1.2
T0
M30
