M48
;DRILL file {KiCad 5.0.2} date Mon 04 Mar 2019 18:16:59 CST
;FORMAT={-:-/ absolute / inch / decimal}
FMAT,2
INCH,TZ
T1C0.0299
T2C0.0315
T3C0.0354
T4C0.0390
T5C0.0394
T6C0.0512
T7C0.0591
T8C0.0701
T9C0.1260
%
G90
G05
T1
X-0.65Y-0.45
X-0.65Y-0.55
X-0.65Y-0.65
X-0.65Y-0.75
X-0.55Y-0.5
X-0.55Y-0.6
X-0.55Y-0.7
X-0.55Y-0.8
X-0.65Y-2.55
X-0.65Y-2.65
X-0.65Y-2.75
X-0.65Y-2.85
X-0.55Y-2.6
X-0.55Y-2.7
X-0.55Y-2.8
X-0.55Y-2.9
X-0.65Y-1.15
X-0.65Y-1.25
X-0.65Y-1.35
X-0.65Y-1.45
X-0.55Y-1.2
X-0.55Y-1.3
X-0.55Y-1.4
X-0.55Y-1.5
X-0.65Y-1.85
X-0.65Y-1.95
X-0.65Y-2.05
X-0.65Y-2.15
X-0.55Y-1.9
X-0.55Y-2.
X-0.55Y-2.1
X-0.55Y-2.2
T2
X-3.25Y-2.1016
X-3.25Y-2.2
X-3.Y-1.
X-3.Y-1.1
X-3.Y-1.2
X-3.Y-1.3
X-3.Y-1.4
X-3.Y-1.5
X-3.Y-1.6
X-3.Y-1.7
X-3.Y-1.8
X-3.Y-1.9
X-3.Y-2.
X-3.Y-2.1
X-3.Y-2.2
X-3.Y-2.3
X-3.Y-2.4
X-2.4Y-1.
X-2.4Y-1.1
X-2.4Y-1.2
X-2.4Y-1.3
X-2.4Y-1.4
X-2.4Y-1.5
X-2.4Y-1.6
X-2.4Y-1.7
X-2.4Y-1.8
X-2.4Y-1.9
X-2.4Y-2.
X-2.4Y-2.1
X-2.4Y-2.2
X-2.4Y-2.3
X-2.4Y-2.4
X-3.25Y-2.3516
X-3.25Y-2.45
T3
X-1.85Y-0.85
X-1.75Y-0.85
T4
X-1.9059Y-1.1228
X-1.9059Y-1.3
X-1.65Y-1.1228
X-1.65Y-1.3
T5
X-2.8746Y-1.3784
X-2.8211Y-2.2046
X-2.6979Y-1.8449
X-2.6836Y-0.7624
X-2.6099Y-2.1262
X-2.2776Y-1.1506
X-2.2762Y-1.5966
X-1.45Y-1.9
X-1.35Y-2.2
X-1.3359Y-1.7627
X-1.15Y-2.2
X-1.0322Y-1.9404
X-0.9838Y-1.2937
X-0.9838Y-1.6636
X-0.9776Y-2.3066
X-0.9142Y-1.0746
X-0.7714Y-1.1592
X-0.7714Y-1.7639
X-0.7714Y-2.2392
X-0.5628Y-1.7213
X-0.4288Y-2.0409
X-0.4232Y-2.8808
X-0.4213Y-2.5881
X-0.1898Y-2.3292
X-2.85Y-0.4031
X-2.85Y-0.6
T6
X-3.4Y-0.45
X-3.4Y-0.65
T7
X-3.45Y-0.15
X-3.45Y-3.2
X-0.15Y-0.15
X-0.15Y-3.2
T8
X-2.3906Y-0.4661
X-2.3906Y-0.6
X-2.Y-0.4661
X-2.Y-0.6
T9
X-0.3Y-0.4
X-0.3Y-0.85
X-0.3Y-2.5
X-0.3Y-2.95
X-0.3Y-1.1
X-0.3Y-1.55
X-0.3Y-1.8
X-0.3Y-2.25
T0
M30
