G04 #@! TF.GenerationSoftware,KiCad,Pcbnew,(5.1.4)*
G04 #@! TF.CreationDate,2020-02-25T01:22:36-06:00*
G04 #@! TF.ProjectId,gate board,67617465-2062-46f6-9172-642e6b696361,rev?*
G04 #@! TF.SameCoordinates,Original*
G04 #@! TF.FileFunction,Copper,L2,Bot*
G04 #@! TF.FilePolarity,Positive*
%FSLAX46Y46*%
G04 Gerber Fmt 4.6, Leading zero omitted, Abs format (unit mm)*
G04 Created by KiCad (PCBNEW (5.1.4)) date 2020-02-25 01:22:36*
%MOMM*%
%LPD*%
G04 APERTURE LIST*
%ADD10C,0.150000*%
%ADD11O,2.000000X3.600000*%
%ADD12C,0.100000*%
%ADD13C,2.000000*%
%ADD14C,1.500000*%
%ADD15R,1.500000X1.500000*%
%ADD16C,1.600000*%
%ADD17R,1.600000X1.600000*%
%ADD18O,3.600000X2.000000*%
%ADD19O,2.300000X1.500000*%
%ADD20R,2.300000X1.500000*%
%ADD21C,1.400000*%
%ADD22C,1.200000*%
%ADD23C,0.254000*%
G04 APERTURE END LIST*
D10*
X85090000Y-58420000D02*
G75*
G02X82550000Y-60960000I-2540000J0D01*
G01*
X19050000Y-60960000D02*
G75*
G02X16510000Y-58420000I0J2540000D01*
G01*
X16510000Y-15240000D02*
G75*
G02X19050000Y-12700000I2540000J0D01*
G01*
X82550000Y-12700000D02*
G75*
G02X85090000Y-15240000I0J-2540000D01*
G01*
X16510000Y-58420000D02*
X16510000Y-15240000D01*
X82550000Y-60960000D02*
X19050000Y-60960000D01*
X85090000Y-15240000D02*
X85090000Y-58420000D01*
X19050000Y-12700000D02*
X82550000Y-12700000D01*
D11*
X65960000Y-54610000D03*
D12*
G36*
X61734504Y-52811204D02*
G01*
X61758773Y-52814804D01*
X61782571Y-52820765D01*
X61805671Y-52829030D01*
X61827849Y-52839520D01*
X61848893Y-52852133D01*
X61868598Y-52866747D01*
X61886777Y-52883223D01*
X61903253Y-52901402D01*
X61917867Y-52921107D01*
X61930480Y-52942151D01*
X61940970Y-52964329D01*
X61949235Y-52987429D01*
X61955196Y-53011227D01*
X61958796Y-53035496D01*
X61960000Y-53060000D01*
X61960000Y-56160000D01*
X61958796Y-56184504D01*
X61955196Y-56208773D01*
X61949235Y-56232571D01*
X61940970Y-56255671D01*
X61930480Y-56277849D01*
X61917867Y-56298893D01*
X61903253Y-56318598D01*
X61886777Y-56336777D01*
X61868598Y-56353253D01*
X61848893Y-56367867D01*
X61827849Y-56380480D01*
X61805671Y-56390970D01*
X61782571Y-56399235D01*
X61758773Y-56405196D01*
X61734504Y-56408796D01*
X61710000Y-56410000D01*
X60210000Y-56410000D01*
X60185496Y-56408796D01*
X60161227Y-56405196D01*
X60137429Y-56399235D01*
X60114329Y-56390970D01*
X60092151Y-56380480D01*
X60071107Y-56367867D01*
X60051402Y-56353253D01*
X60033223Y-56336777D01*
X60016747Y-56318598D01*
X60002133Y-56298893D01*
X59989520Y-56277849D01*
X59979030Y-56255671D01*
X59970765Y-56232571D01*
X59964804Y-56208773D01*
X59961204Y-56184504D01*
X59960000Y-56160000D01*
X59960000Y-53060000D01*
X59961204Y-53035496D01*
X59964804Y-53011227D01*
X59970765Y-52987429D01*
X59979030Y-52964329D01*
X59989520Y-52942151D01*
X60002133Y-52921107D01*
X60016747Y-52901402D01*
X60033223Y-52883223D01*
X60051402Y-52866747D01*
X60071107Y-52852133D01*
X60092151Y-52839520D01*
X60114329Y-52829030D01*
X60137429Y-52820765D01*
X60161227Y-52814804D01*
X60185496Y-52811204D01*
X60210000Y-52810000D01*
X61710000Y-52810000D01*
X61734504Y-52811204D01*
X61734504Y-52811204D01*
G37*
D13*
X60960000Y-54610000D03*
D14*
X33020000Y-40640000D03*
X30480000Y-39370000D03*
X33020000Y-38100000D03*
X30480000Y-36830000D03*
X33020000Y-35560000D03*
X30480000Y-34290000D03*
X33020000Y-33020000D03*
D15*
X30480000Y-31750000D03*
D16*
X67310000Y-36870000D03*
D17*
X67310000Y-39370000D03*
D16*
X67310000Y-32980000D03*
D17*
X67310000Y-30480000D03*
D11*
X40560000Y-54610000D03*
D12*
G36*
X36334504Y-52811204D02*
G01*
X36358773Y-52814804D01*
X36382571Y-52820765D01*
X36405671Y-52829030D01*
X36427849Y-52839520D01*
X36448893Y-52852133D01*
X36468598Y-52866747D01*
X36486777Y-52883223D01*
X36503253Y-52901402D01*
X36517867Y-52921107D01*
X36530480Y-52942151D01*
X36540970Y-52964329D01*
X36549235Y-52987429D01*
X36555196Y-53011227D01*
X36558796Y-53035496D01*
X36560000Y-53060000D01*
X36560000Y-56160000D01*
X36558796Y-56184504D01*
X36555196Y-56208773D01*
X36549235Y-56232571D01*
X36540970Y-56255671D01*
X36530480Y-56277849D01*
X36517867Y-56298893D01*
X36503253Y-56318598D01*
X36486777Y-56336777D01*
X36468598Y-56353253D01*
X36448893Y-56367867D01*
X36427849Y-56380480D01*
X36405671Y-56390970D01*
X36382571Y-56399235D01*
X36358773Y-56405196D01*
X36334504Y-56408796D01*
X36310000Y-56410000D01*
X34810000Y-56410000D01*
X34785496Y-56408796D01*
X34761227Y-56405196D01*
X34737429Y-56399235D01*
X34714329Y-56390970D01*
X34692151Y-56380480D01*
X34671107Y-56367867D01*
X34651402Y-56353253D01*
X34633223Y-56336777D01*
X34616747Y-56318598D01*
X34602133Y-56298893D01*
X34589520Y-56277849D01*
X34579030Y-56255671D01*
X34570765Y-56232571D01*
X34564804Y-56208773D01*
X34561204Y-56184504D01*
X34560000Y-56160000D01*
X34560000Y-53060000D01*
X34561204Y-53035496D01*
X34564804Y-53011227D01*
X34570765Y-52987429D01*
X34579030Y-52964329D01*
X34589520Y-52942151D01*
X34602133Y-52921107D01*
X34616747Y-52901402D01*
X34633223Y-52883223D01*
X34651402Y-52866747D01*
X34671107Y-52852133D01*
X34692151Y-52839520D01*
X34714329Y-52829030D01*
X34737429Y-52820765D01*
X34761227Y-52814804D01*
X34785496Y-52811204D01*
X34810000Y-52810000D01*
X36310000Y-52810000D01*
X36334504Y-52811204D01*
X36334504Y-52811204D01*
G37*
D13*
X35560000Y-54610000D03*
D18*
X80010000Y-33100000D03*
D12*
G36*
X81584504Y-37101204D02*
G01*
X81608773Y-37104804D01*
X81632571Y-37110765D01*
X81655671Y-37119030D01*
X81677849Y-37129520D01*
X81698893Y-37142133D01*
X81718598Y-37156747D01*
X81736777Y-37173223D01*
X81753253Y-37191402D01*
X81767867Y-37211107D01*
X81780480Y-37232151D01*
X81790970Y-37254329D01*
X81799235Y-37277429D01*
X81805196Y-37301227D01*
X81808796Y-37325496D01*
X81810000Y-37350000D01*
X81810000Y-38850000D01*
X81808796Y-38874504D01*
X81805196Y-38898773D01*
X81799235Y-38922571D01*
X81790970Y-38945671D01*
X81780480Y-38967849D01*
X81767867Y-38988893D01*
X81753253Y-39008598D01*
X81736777Y-39026777D01*
X81718598Y-39043253D01*
X81698893Y-39057867D01*
X81677849Y-39070480D01*
X81655671Y-39080970D01*
X81632571Y-39089235D01*
X81608773Y-39095196D01*
X81584504Y-39098796D01*
X81560000Y-39100000D01*
X78460000Y-39100000D01*
X78435496Y-39098796D01*
X78411227Y-39095196D01*
X78387429Y-39089235D01*
X78364329Y-39080970D01*
X78342151Y-39070480D01*
X78321107Y-39057867D01*
X78301402Y-39043253D01*
X78283223Y-39026777D01*
X78266747Y-39008598D01*
X78252133Y-38988893D01*
X78239520Y-38967849D01*
X78229030Y-38945671D01*
X78220765Y-38922571D01*
X78214804Y-38898773D01*
X78211204Y-38874504D01*
X78210000Y-38850000D01*
X78210000Y-37350000D01*
X78211204Y-37325496D01*
X78214804Y-37301227D01*
X78220765Y-37277429D01*
X78229030Y-37254329D01*
X78239520Y-37232151D01*
X78252133Y-37211107D01*
X78266747Y-37191402D01*
X78283223Y-37173223D01*
X78301402Y-37156747D01*
X78321107Y-37142133D01*
X78342151Y-37129520D01*
X78364329Y-37119030D01*
X78387429Y-37110765D01*
X78411227Y-37104804D01*
X78435496Y-37101204D01*
X78460000Y-37100000D01*
X81560000Y-37100000D01*
X81584504Y-37101204D01*
X81584504Y-37101204D01*
G37*
D13*
X80010000Y-38100000D03*
D11*
X33580000Y-17780000D03*
X38580000Y-17780000D03*
X43580000Y-17780000D03*
X48580000Y-17780000D03*
X53580000Y-17780000D03*
X58580000Y-17780000D03*
X63580000Y-17780000D03*
D12*
G36*
X69354504Y-15981204D02*
G01*
X69378773Y-15984804D01*
X69402571Y-15990765D01*
X69425671Y-15999030D01*
X69447849Y-16009520D01*
X69468893Y-16022133D01*
X69488598Y-16036747D01*
X69506777Y-16053223D01*
X69523253Y-16071402D01*
X69537867Y-16091107D01*
X69550480Y-16112151D01*
X69560970Y-16134329D01*
X69569235Y-16157429D01*
X69575196Y-16181227D01*
X69578796Y-16205496D01*
X69580000Y-16230000D01*
X69580000Y-19330000D01*
X69578796Y-19354504D01*
X69575196Y-19378773D01*
X69569235Y-19402571D01*
X69560970Y-19425671D01*
X69550480Y-19447849D01*
X69537867Y-19468893D01*
X69523253Y-19488598D01*
X69506777Y-19506777D01*
X69488598Y-19523253D01*
X69468893Y-19537867D01*
X69447849Y-19550480D01*
X69425671Y-19560970D01*
X69402571Y-19569235D01*
X69378773Y-19575196D01*
X69354504Y-19578796D01*
X69330000Y-19580000D01*
X67830000Y-19580000D01*
X67805496Y-19578796D01*
X67781227Y-19575196D01*
X67757429Y-19569235D01*
X67734329Y-19560970D01*
X67712151Y-19550480D01*
X67691107Y-19537867D01*
X67671402Y-19523253D01*
X67653223Y-19506777D01*
X67636747Y-19488598D01*
X67622133Y-19468893D01*
X67609520Y-19447849D01*
X67599030Y-19425671D01*
X67590765Y-19402571D01*
X67584804Y-19378773D01*
X67581204Y-19354504D01*
X67580000Y-19330000D01*
X67580000Y-16230000D01*
X67581204Y-16205496D01*
X67584804Y-16181227D01*
X67590765Y-16157429D01*
X67599030Y-16134329D01*
X67609520Y-16112151D01*
X67622133Y-16091107D01*
X67636747Y-16071402D01*
X67653223Y-16053223D01*
X67671402Y-16036747D01*
X67691107Y-16022133D01*
X67712151Y-16009520D01*
X67734329Y-15999030D01*
X67757429Y-15990765D01*
X67781227Y-15984804D01*
X67805496Y-15981204D01*
X67830000Y-15980000D01*
X69330000Y-15980000D01*
X69354504Y-15981204D01*
X69354504Y-15981204D01*
G37*
D13*
X68580000Y-17780000D03*
D19*
X50800000Y-38100000D03*
X50800000Y-35560000D03*
D20*
X50800000Y-33020000D03*
D21*
X51436000Y-24924000D03*
X36995700Y-39643200D03*
X35978300Y-32822200D03*
X79311600Y-22461300D03*
X35790800Y-28255200D03*
X39113200Y-38111700D03*
X45383000Y-30587300D03*
X40915200Y-24386400D03*
X18542200Y-26075600D03*
D22*
X50800000Y-33020000D02*
X50800000Y-30869700D01*
X50800000Y-30869700D02*
X51189700Y-30480000D01*
X51189700Y-30480000D02*
X67310000Y-30480000D01*
X50800000Y-33020000D02*
X44563600Y-33020000D01*
X44563600Y-33020000D02*
X44563600Y-36688500D01*
X30480000Y-31750000D02*
X31565100Y-30664900D01*
X31565100Y-30664900D02*
X42208500Y-30664900D01*
X42208500Y-30664900D02*
X44563600Y-33020000D01*
X67310000Y-30480000D02*
X67310000Y-28279700D01*
X68580000Y-17780000D02*
X68580000Y-27009700D01*
X68580000Y-27009700D02*
X67310000Y-28279700D01*
X40560000Y-57610000D02*
X40560000Y-54610000D01*
X65960000Y-55410000D02*
X63525200Y-57844800D01*
X40794800Y-57844800D02*
X40560000Y-57610000D01*
X63525200Y-57844800D02*
X40794800Y-57844800D01*
X65960000Y-54610000D02*
X65960000Y-55410000D01*
X55330000Y-43180000D02*
X50800000Y-43180000D01*
X65960000Y-54610000D02*
X65960000Y-53810000D01*
X65960000Y-53810000D02*
X55330000Y-43180000D01*
X44563600Y-36943600D02*
X44563600Y-36688500D01*
X50800000Y-43180000D02*
X44563600Y-36943600D01*
X48247000Y-35557300D02*
X48249700Y-35560000D01*
X66000000Y-35560000D02*
X67310000Y-36870000D01*
X67310000Y-34250000D02*
X67310000Y-32980000D01*
X50543300Y-35560000D02*
X50800000Y-35560000D01*
X63580000Y-17780000D02*
X63580000Y-14579700D01*
X76243500Y-36274300D02*
X78069200Y-38100000D01*
X78069200Y-38100000D02*
X80010000Y-38100000D01*
X63580000Y-14579700D02*
X63615800Y-14543900D01*
X63615800Y-14543900D02*
X69992400Y-14543900D01*
X69992400Y-14543900D02*
X76243500Y-20795000D01*
X76243500Y-20795000D02*
X76243500Y-36274300D01*
X67310000Y-39370000D02*
X73147800Y-39370000D01*
X73147800Y-39370000D02*
X76243500Y-36274300D01*
X53350300Y-38100000D02*
X54620300Y-39370000D01*
X54620300Y-39370000D02*
X67310000Y-39370000D01*
X50800000Y-38100000D02*
X53350300Y-38100000D01*
X58580000Y-17780000D02*
X58580000Y-20980300D01*
X51436000Y-24924000D02*
X55379700Y-20980300D01*
X55379700Y-20980300D02*
X58580000Y-20980300D01*
X33020000Y-33020000D02*
X33217800Y-32822200D01*
X33217800Y-32822200D02*
X35978300Y-32822200D01*
X36995700Y-53174300D02*
X35560000Y-54610000D01*
X36995700Y-39643200D02*
X36995700Y-53174300D01*
X30480000Y-34290000D02*
X29467900Y-34290000D01*
X29467900Y-34290000D02*
X28327400Y-33149500D01*
X28327400Y-33149500D02*
X28327400Y-30375300D01*
X28327400Y-30375300D02*
X30447500Y-28255200D01*
X30447500Y-28255200D02*
X35790800Y-28255200D01*
X80010000Y-33100000D02*
X80010000Y-23159700D01*
X80010000Y-23159700D02*
X79311600Y-22461300D01*
X39464800Y-35478100D02*
X57150000Y-53163300D01*
X33101900Y-35478100D02*
X39464800Y-35478100D01*
X33020000Y-35560000D02*
X33101900Y-35478100D01*
X59513300Y-53163300D02*
X60960000Y-54610000D01*
X57150000Y-53163300D02*
X59513300Y-53163300D01*
X53580000Y-17780000D02*
X53580000Y-14579700D01*
X30480000Y-36830000D02*
X26227200Y-36830000D01*
X26227200Y-36830000D02*
X21122500Y-31725300D01*
X21122500Y-31725300D02*
X21122500Y-25996000D01*
X21122500Y-25996000D02*
X32538800Y-14579700D01*
X32538800Y-14579700D02*
X53580000Y-14579700D01*
X48580000Y-20980300D02*
X45383000Y-24177300D01*
X45383000Y-24177300D02*
X45383000Y-30587300D01*
X39113200Y-38111700D02*
X38541400Y-37539900D01*
X38541400Y-37539900D02*
X34491300Y-37539900D01*
X34491300Y-37539900D02*
X33931200Y-38100000D01*
X33931200Y-38100000D02*
X33020000Y-38100000D01*
X48580000Y-17780000D02*
X48580000Y-20980300D01*
X30480000Y-39370000D02*
X25938200Y-39370000D01*
X25938200Y-39370000D02*
X18542200Y-31974000D01*
X18542200Y-31974000D02*
X18542200Y-26075600D01*
X40915200Y-24386400D02*
X43580000Y-21721600D01*
X43580000Y-21721600D02*
X43580000Y-17780000D01*
D23*
G36*
X82904785Y-13448191D02*
G01*
X83246060Y-13551228D01*
X83560822Y-13718590D01*
X83837083Y-13943903D01*
X84064317Y-14218582D01*
X84233870Y-14532164D01*
X84339286Y-14872708D01*
X84380000Y-15260072D01*
X84380001Y-58385269D01*
X84341809Y-58774784D01*
X84238771Y-59116063D01*
X84071409Y-59430825D01*
X83846097Y-59707083D01*
X83571418Y-59934317D01*
X83257838Y-60103869D01*
X82917288Y-60209287D01*
X82529928Y-60250000D01*
X19084720Y-60250000D01*
X18695216Y-60211809D01*
X18353937Y-60108771D01*
X18039175Y-59941409D01*
X17762917Y-59716097D01*
X17535683Y-59441418D01*
X17366131Y-59127838D01*
X17260713Y-58787288D01*
X17220000Y-58399928D01*
X17220000Y-55556456D01*
X18305000Y-55556456D01*
X18305000Y-56203544D01*
X18431240Y-56838199D01*
X18678871Y-57436031D01*
X19038374Y-57974066D01*
X19495934Y-58431626D01*
X20033969Y-58791129D01*
X20631801Y-59038760D01*
X21266456Y-59165000D01*
X21913544Y-59165000D01*
X22548199Y-59038760D01*
X23146031Y-58791129D01*
X23684066Y-58431626D01*
X24141626Y-57974066D01*
X24501129Y-57436031D01*
X24748760Y-56838199D01*
X24875000Y-56203544D01*
X24875000Y-55556456D01*
X24748760Y-54921801D01*
X24501129Y-54323969D01*
X24141626Y-53785934D01*
X23684066Y-53328374D01*
X23146031Y-52968871D01*
X22548199Y-52721240D01*
X21913544Y-52595000D01*
X21266456Y-52595000D01*
X20631801Y-52721240D01*
X20033969Y-52968871D01*
X19495934Y-53328374D01*
X19038374Y-53785934D01*
X18678871Y-54323969D01*
X18431240Y-54921801D01*
X18305000Y-55556456D01*
X17220000Y-55556456D01*
X17220000Y-26271435D01*
X17258504Y-26465005D01*
X17307201Y-26582570D01*
X17307200Y-31913335D01*
X17301225Y-31974000D01*
X17325070Y-32216102D01*
X17359788Y-32330550D01*
X17395689Y-32448900D01*
X17510367Y-32663448D01*
X17664698Y-32851502D01*
X17711826Y-32890179D01*
X24533028Y-39711381D01*
X24350128Y-39675000D01*
X23909872Y-39675000D01*
X23478075Y-39760890D01*
X23071331Y-39929369D01*
X22705271Y-40173962D01*
X22393962Y-40485271D01*
X22149369Y-40851331D01*
X21980890Y-41258075D01*
X21895000Y-41689872D01*
X21895000Y-42130128D01*
X21980890Y-42561925D01*
X22149369Y-42968669D01*
X22393962Y-43334729D01*
X22705271Y-43646038D01*
X23071331Y-43890631D01*
X23478075Y-44059110D01*
X23909872Y-44145000D01*
X24350128Y-44145000D01*
X24781925Y-44059110D01*
X25188669Y-43890631D01*
X25554729Y-43646038D01*
X25866038Y-43334729D01*
X26110631Y-42968669D01*
X26279110Y-42561925D01*
X26365000Y-42130128D01*
X26365000Y-41689872D01*
X26346526Y-41596993D01*
X32242612Y-41596993D01*
X32308137Y-41835860D01*
X32555116Y-41951760D01*
X32819960Y-42017250D01*
X33092492Y-42029812D01*
X33362238Y-41988965D01*
X33618832Y-41896277D01*
X33731863Y-41835860D01*
X33797388Y-41596993D01*
X33020000Y-40819605D01*
X32242612Y-41596993D01*
X26346526Y-41596993D01*
X26279110Y-41258075D01*
X26110631Y-40851331D01*
X25949300Y-40609882D01*
X25998865Y-40605000D01*
X29842375Y-40605000D01*
X30076011Y-40701775D01*
X30343589Y-40755000D01*
X30616411Y-40755000D01*
X30830111Y-40712492D01*
X31630188Y-40712492D01*
X31671035Y-40982238D01*
X31763723Y-41238832D01*
X31824140Y-41351863D01*
X32063007Y-41417388D01*
X32840395Y-40640000D01*
X33199605Y-40640000D01*
X33976993Y-41417388D01*
X34215860Y-41351863D01*
X34331760Y-41104884D01*
X34397250Y-40840040D01*
X34409812Y-40567508D01*
X34368965Y-40297762D01*
X34276277Y-40041168D01*
X34215860Y-39928137D01*
X33976993Y-39862612D01*
X33199605Y-40640000D01*
X32840395Y-40640000D01*
X32063007Y-39862612D01*
X31824140Y-39928137D01*
X31708240Y-40175116D01*
X31642750Y-40439960D01*
X31630188Y-40712492D01*
X30830111Y-40712492D01*
X30883989Y-40701775D01*
X31136043Y-40597371D01*
X31362886Y-40445799D01*
X31555799Y-40252886D01*
X31707371Y-40026043D01*
X31811775Y-39773989D01*
X31865000Y-39506411D01*
X31865000Y-39233589D01*
X31811775Y-38966011D01*
X31707371Y-38713957D01*
X31555799Y-38487114D01*
X31362886Y-38294201D01*
X31136043Y-38142629D01*
X31033127Y-38100000D01*
X31136043Y-38057371D01*
X31362886Y-37905799D01*
X31555799Y-37712886D01*
X31707371Y-37486043D01*
X31811775Y-37233989D01*
X31865000Y-36966411D01*
X31865000Y-36693589D01*
X31811775Y-36426011D01*
X31707371Y-36173957D01*
X31555799Y-35947114D01*
X31362886Y-35754201D01*
X31136043Y-35602629D01*
X31033127Y-35560000D01*
X31136043Y-35517371D01*
X31362886Y-35365799D01*
X31555799Y-35172886D01*
X31707371Y-34946043D01*
X31811775Y-34693989D01*
X31865000Y-34426411D01*
X31865000Y-34153589D01*
X31811775Y-33886011D01*
X31707371Y-33633957D01*
X31555799Y-33407114D01*
X31362886Y-33214201D01*
X31246517Y-33136445D01*
X31354482Y-33125812D01*
X31474180Y-33089502D01*
X31584494Y-33030537D01*
X31635000Y-32989088D01*
X31635000Y-33156411D01*
X31688225Y-33423989D01*
X31792629Y-33676043D01*
X31944201Y-33902886D01*
X32137114Y-34095799D01*
X32363957Y-34247371D01*
X32466873Y-34290000D01*
X32363957Y-34332629D01*
X32137114Y-34484201D01*
X31944201Y-34677114D01*
X31792629Y-34903957D01*
X31688225Y-35156011D01*
X31635000Y-35423589D01*
X31635000Y-35696411D01*
X31688225Y-35963989D01*
X31792629Y-36216043D01*
X31944201Y-36442886D01*
X32137114Y-36635799D01*
X32363957Y-36787371D01*
X32466873Y-36830000D01*
X32363957Y-36872629D01*
X32137114Y-37024201D01*
X31944201Y-37217114D01*
X31792629Y-37443957D01*
X31688225Y-37696011D01*
X31635000Y-37963589D01*
X31635000Y-38236411D01*
X31688225Y-38503989D01*
X31792629Y-38756043D01*
X31944201Y-38982886D01*
X32137114Y-39175799D01*
X32363957Y-39327371D01*
X32463279Y-39368511D01*
X32421168Y-39383723D01*
X32308137Y-39444140D01*
X32242612Y-39683007D01*
X33020000Y-40460395D01*
X33797388Y-39683007D01*
X33731863Y-39444140D01*
X33573523Y-39369836D01*
X33657625Y-39335000D01*
X33870535Y-39335000D01*
X33931200Y-39340975D01*
X33991865Y-39335000D01*
X34069324Y-39327371D01*
X34173302Y-39317130D01*
X34406101Y-39246511D01*
X34620649Y-39131833D01*
X34808702Y-38977502D01*
X34847379Y-38930374D01*
X35002853Y-38774900D01*
X35976025Y-38774900D01*
X35958738Y-38792187D01*
X35812639Y-39010841D01*
X35712004Y-39253795D01*
X35660700Y-39511714D01*
X35660700Y-39774686D01*
X35712004Y-40032605D01*
X35760700Y-40150167D01*
X35760701Y-52171928D01*
X34810000Y-52171928D01*
X34636746Y-52188992D01*
X34470150Y-52239528D01*
X34316614Y-52321595D01*
X34182038Y-52432038D01*
X34071595Y-52566614D01*
X33989528Y-52720150D01*
X33938992Y-52886746D01*
X33921928Y-53060000D01*
X33921928Y-56160000D01*
X33938992Y-56333254D01*
X33989528Y-56499850D01*
X34071595Y-56653386D01*
X34182038Y-56787962D01*
X34316614Y-56898405D01*
X34470150Y-56980472D01*
X34636746Y-57031008D01*
X34810000Y-57048072D01*
X36310000Y-57048072D01*
X36483254Y-57031008D01*
X36649850Y-56980472D01*
X36803386Y-56898405D01*
X36937962Y-56787962D01*
X37048405Y-56653386D01*
X37130472Y-56499850D01*
X37181008Y-56333254D01*
X37198072Y-56160000D01*
X37198072Y-54718482D01*
X37826080Y-54090474D01*
X37873202Y-54051802D01*
X38027533Y-53863749D01*
X38142211Y-53649201D01*
X38212830Y-53416402D01*
X38230700Y-53234965D01*
X38230700Y-53234956D01*
X38236674Y-53174301D01*
X38230700Y-53113646D01*
X38230700Y-40150167D01*
X38279396Y-40032605D01*
X38330700Y-39774686D01*
X38330700Y-39511714D01*
X38279396Y-39253795D01*
X38217224Y-39103699D01*
X38262187Y-39148662D01*
X38480841Y-39294761D01*
X38723795Y-39395396D01*
X38981714Y-39446700D01*
X39244686Y-39446700D01*
X39502605Y-39395396D01*
X39745559Y-39294761D01*
X39964213Y-39148662D01*
X40150162Y-38962713D01*
X40296261Y-38744059D01*
X40396896Y-38501105D01*
X40448200Y-38243186D01*
X40448200Y-38208053D01*
X56233826Y-53993680D01*
X56272498Y-54040802D01*
X56460551Y-54195133D01*
X56675099Y-54309811D01*
X56721772Y-54323969D01*
X56907898Y-54380430D01*
X57150000Y-54404275D01*
X57210665Y-54398300D01*
X59001747Y-54398300D01*
X59321928Y-54718481D01*
X59321928Y-56160000D01*
X59338992Y-56333254D01*
X59389528Y-56499850D01*
X59448298Y-56609800D01*
X41795000Y-56609800D01*
X41795000Y-56482414D01*
X41926031Y-56322752D01*
X42077852Y-56038715D01*
X42171343Y-55730516D01*
X42195000Y-55490322D01*
X42195000Y-53729678D01*
X42171343Y-53489484D01*
X42077852Y-53181285D01*
X41926031Y-52897248D01*
X41721714Y-52648286D01*
X41472751Y-52443969D01*
X41188714Y-52292148D01*
X40880515Y-52198657D01*
X40560000Y-52167089D01*
X40239484Y-52198657D01*
X39931285Y-52292148D01*
X39647248Y-52443969D01*
X39398286Y-52648286D01*
X39193969Y-52897249D01*
X39042148Y-53181286D01*
X38948657Y-53489485D01*
X38925000Y-53729679D01*
X38925000Y-55490322D01*
X38948658Y-55730516D01*
X39042149Y-56038715D01*
X39193970Y-56322752D01*
X39325000Y-56482414D01*
X39325000Y-57549334D01*
X39319025Y-57610000D01*
X39342870Y-57852102D01*
X39353615Y-57887522D01*
X39413489Y-58084900D01*
X39528167Y-58299448D01*
X39682498Y-58487502D01*
X39729626Y-58526179D01*
X39878621Y-58675174D01*
X39917298Y-58722302D01*
X40105351Y-58876633D01*
X40319899Y-58991311D01*
X40552698Y-59061930D01*
X40734135Y-59079800D01*
X40734144Y-59079800D01*
X40794799Y-59085774D01*
X40855454Y-59079800D01*
X63464535Y-59079800D01*
X63525200Y-59085775D01*
X63585865Y-59079800D01*
X63767302Y-59061930D01*
X64000101Y-58991311D01*
X64214649Y-58876633D01*
X64402702Y-58722302D01*
X64441378Y-58675175D01*
X66074966Y-57041588D01*
X66280516Y-57021343D01*
X66588715Y-56927852D01*
X66872752Y-56776031D01*
X67121714Y-56571714D01*
X67326031Y-56322752D01*
X67477852Y-56038715D01*
X67571343Y-55730516D01*
X67588486Y-55556456D01*
X76725000Y-55556456D01*
X76725000Y-56203544D01*
X76851240Y-56838199D01*
X77098871Y-57436031D01*
X77458374Y-57974066D01*
X77915934Y-58431626D01*
X78453969Y-58791129D01*
X79051801Y-59038760D01*
X79686456Y-59165000D01*
X80333544Y-59165000D01*
X80968199Y-59038760D01*
X81566031Y-58791129D01*
X82104066Y-58431626D01*
X82561626Y-57974066D01*
X82921129Y-57436031D01*
X83168760Y-56838199D01*
X83295000Y-56203544D01*
X83295000Y-55556456D01*
X83168760Y-54921801D01*
X82921129Y-54323969D01*
X82561626Y-53785934D01*
X82104066Y-53328374D01*
X81566031Y-52968871D01*
X80968199Y-52721240D01*
X80333544Y-52595000D01*
X79686456Y-52595000D01*
X79051801Y-52721240D01*
X78453969Y-52968871D01*
X77915934Y-53328374D01*
X77458374Y-53785934D01*
X77098871Y-54323969D01*
X76851240Y-54921801D01*
X76725000Y-55556456D01*
X67588486Y-55556456D01*
X67595000Y-55490322D01*
X67595000Y-53729678D01*
X67571343Y-53489484D01*
X67477852Y-53181285D01*
X67326031Y-52897248D01*
X67121714Y-52648286D01*
X66872751Y-52443969D01*
X66588714Y-52292148D01*
X66280515Y-52198657D01*
X66074966Y-52178412D01*
X56246179Y-42349626D01*
X56207502Y-42302498D01*
X56019449Y-42148167D01*
X55804901Y-42033489D01*
X55572102Y-41962870D01*
X55390665Y-41945000D01*
X55330000Y-41939025D01*
X55269335Y-41945000D01*
X51311554Y-41945000D01*
X45798600Y-36432047D01*
X45798600Y-34255000D01*
X49240019Y-34255000D01*
X49295506Y-34300537D01*
X49405820Y-34359502D01*
X49525518Y-34395812D01*
X49634874Y-34406582D01*
X49524939Y-34478972D01*
X49330855Y-34670460D01*
X49177858Y-34896132D01*
X49071827Y-35147316D01*
X49057682Y-35218815D01*
X49180344Y-35433000D01*
X50673000Y-35433000D01*
X50673000Y-35413000D01*
X50927000Y-35413000D01*
X50927000Y-35433000D01*
X52419656Y-35433000D01*
X52542318Y-35218815D01*
X52528173Y-35147316D01*
X52422142Y-34896132D01*
X52269145Y-34670460D01*
X52075061Y-34478972D01*
X51965126Y-34406582D01*
X52074482Y-34395812D01*
X52194180Y-34359502D01*
X52304494Y-34300537D01*
X52401185Y-34221185D01*
X52480537Y-34124494D01*
X52539502Y-34014180D01*
X52552084Y-33972702D01*
X66496903Y-33972702D01*
X66568486Y-34216671D01*
X66823996Y-34337571D01*
X67098184Y-34406300D01*
X67380512Y-34420217D01*
X67660130Y-34378787D01*
X67926292Y-34283603D01*
X68051514Y-34216671D01*
X68123097Y-33972702D01*
X67310000Y-33159605D01*
X66496903Y-33972702D01*
X52552084Y-33972702D01*
X52575812Y-33894482D01*
X52588072Y-33770000D01*
X52588072Y-33050512D01*
X65869783Y-33050512D01*
X65911213Y-33330130D01*
X66006397Y-33596292D01*
X66073329Y-33721514D01*
X66317298Y-33793097D01*
X67130395Y-32980000D01*
X67489605Y-32980000D01*
X68302702Y-33793097D01*
X68546671Y-33721514D01*
X68667571Y-33466004D01*
X68736300Y-33191816D01*
X68750217Y-32909488D01*
X68708787Y-32629870D01*
X68613603Y-32363708D01*
X68546671Y-32238486D01*
X68302702Y-32166903D01*
X67489605Y-32980000D01*
X67130395Y-32980000D01*
X66317298Y-32166903D01*
X66073329Y-32238486D01*
X65952429Y-32493996D01*
X65883700Y-32768184D01*
X65869783Y-33050512D01*
X52588072Y-33050512D01*
X52588072Y-32270000D01*
X52575812Y-32145518D01*
X52539502Y-32025820D01*
X52480537Y-31915506D01*
X52401185Y-31818815D01*
X52304494Y-31739463D01*
X52258728Y-31715000D01*
X66045532Y-31715000D01*
X66058815Y-31731185D01*
X66155506Y-31810537D01*
X66265820Y-31869502D01*
X66385518Y-31905812D01*
X66510000Y-31918072D01*
X66517215Y-31918072D01*
X66496903Y-31987298D01*
X67310000Y-32800395D01*
X68123097Y-31987298D01*
X68102785Y-31918072D01*
X68110000Y-31918072D01*
X68234482Y-31905812D01*
X68354180Y-31869502D01*
X68464494Y-31810537D01*
X68561185Y-31731185D01*
X68640537Y-31634494D01*
X68699502Y-31524180D01*
X68735812Y-31404482D01*
X68748072Y-31280000D01*
X68748072Y-29680000D01*
X68735812Y-29555518D01*
X68699502Y-29435820D01*
X68640537Y-29325506D01*
X68561185Y-29228815D01*
X68545000Y-29215532D01*
X68545000Y-28791253D01*
X69410380Y-27925874D01*
X69457502Y-27887202D01*
X69611833Y-27699149D01*
X69726511Y-27484601D01*
X69751508Y-27402198D01*
X69797130Y-27251803D01*
X69820975Y-27009701D01*
X69815000Y-26949036D01*
X69815000Y-20072887D01*
X69823386Y-20068405D01*
X69957962Y-19957962D01*
X70068405Y-19823386D01*
X70150472Y-19669850D01*
X70201008Y-19503254D01*
X70218072Y-19330000D01*
X70218072Y-16516125D01*
X75008500Y-21306554D01*
X75008501Y-35762745D01*
X72636247Y-38135000D01*
X68574468Y-38135000D01*
X68561185Y-38118815D01*
X68464494Y-38039463D01*
X68354180Y-37980498D01*
X68234482Y-37944188D01*
X68110000Y-37931928D01*
X68102785Y-37931928D01*
X68123097Y-37862702D01*
X67310000Y-37049605D01*
X66496903Y-37862702D01*
X66517215Y-37931928D01*
X66510000Y-37931928D01*
X66385518Y-37944188D01*
X66265820Y-37980498D01*
X66155506Y-38039463D01*
X66058815Y-38118815D01*
X66045532Y-38135000D01*
X55131854Y-38135000D01*
X54266478Y-37269625D01*
X54227802Y-37222498D01*
X54039749Y-37068167D01*
X53825201Y-36953489D01*
X53782422Y-36940512D01*
X65869783Y-36940512D01*
X65911213Y-37220130D01*
X66006397Y-37486292D01*
X66073329Y-37611514D01*
X66317298Y-37683097D01*
X67130395Y-36870000D01*
X67489605Y-36870000D01*
X68302702Y-37683097D01*
X68546671Y-37611514D01*
X68667571Y-37356004D01*
X68736300Y-37081816D01*
X68750217Y-36799488D01*
X68708787Y-36519870D01*
X68613603Y-36253708D01*
X68546671Y-36128486D01*
X68302702Y-36056903D01*
X67489605Y-36870000D01*
X67130395Y-36870000D01*
X66317298Y-36056903D01*
X66073329Y-36128486D01*
X65952429Y-36383996D01*
X65883700Y-36658184D01*
X65869783Y-36940512D01*
X53782422Y-36940512D01*
X53592402Y-36882870D01*
X53350300Y-36859025D01*
X53289635Y-36865000D01*
X51827554Y-36865000D01*
X51757422Y-36827514D01*
X51847349Y-36790972D01*
X52075061Y-36641028D01*
X52269145Y-36449540D01*
X52422142Y-36223868D01*
X52528173Y-35972684D01*
X52542318Y-35901185D01*
X52528639Y-35877298D01*
X66496903Y-35877298D01*
X67310000Y-36690395D01*
X68123097Y-35877298D01*
X68051514Y-35633329D01*
X67796004Y-35512429D01*
X67521816Y-35443700D01*
X67239488Y-35429783D01*
X66959870Y-35471213D01*
X66693708Y-35566397D01*
X66568486Y-35633329D01*
X66496903Y-35877298D01*
X52528639Y-35877298D01*
X52419656Y-35687000D01*
X50927000Y-35687000D01*
X50927000Y-35707000D01*
X50673000Y-35707000D01*
X50673000Y-35687000D01*
X49180344Y-35687000D01*
X49057682Y-35901185D01*
X49071827Y-35972684D01*
X49177858Y-36223868D01*
X49330855Y-36449540D01*
X49524939Y-36641028D01*
X49752651Y-36790972D01*
X49842578Y-36827514D01*
X49626812Y-36942843D01*
X49415919Y-37115919D01*
X49242843Y-37326812D01*
X49114236Y-37567419D01*
X49035040Y-37828493D01*
X49008299Y-38100000D01*
X49035040Y-38371507D01*
X49114236Y-38632581D01*
X49242843Y-38873188D01*
X49415919Y-39084081D01*
X49626812Y-39257157D01*
X49867419Y-39385764D01*
X50128493Y-39464960D01*
X50331963Y-39485000D01*
X51268037Y-39485000D01*
X51471507Y-39464960D01*
X51732581Y-39385764D01*
X51827554Y-39335000D01*
X52838747Y-39335000D01*
X53704126Y-40200380D01*
X53742798Y-40247502D01*
X53930851Y-40401833D01*
X54086953Y-40485271D01*
X54145399Y-40516511D01*
X54378197Y-40587130D01*
X54620299Y-40610975D01*
X54680964Y-40605000D01*
X66045532Y-40605000D01*
X66058815Y-40621185D01*
X66155506Y-40700537D01*
X66265820Y-40759502D01*
X66385518Y-40795812D01*
X66510000Y-40808072D01*
X68110000Y-40808072D01*
X68234482Y-40795812D01*
X68354180Y-40759502D01*
X68464494Y-40700537D01*
X68561185Y-40621185D01*
X68574468Y-40605000D01*
X73087135Y-40605000D01*
X73147800Y-40610975D01*
X73208465Y-40605000D01*
X73285924Y-40597371D01*
X73389902Y-40587130D01*
X73622701Y-40516511D01*
X73837249Y-40401833D01*
X74025302Y-40247502D01*
X74063978Y-40200375D01*
X76243500Y-38020854D01*
X77153026Y-38930380D01*
X77191698Y-38977502D01*
X77379751Y-39131833D01*
X77594299Y-39246511D01*
X77684428Y-39273851D01*
X77721595Y-39343386D01*
X77832038Y-39477962D01*
X77966614Y-39588405D01*
X78120150Y-39670472D01*
X78286746Y-39721008D01*
X78460000Y-39738072D01*
X81560000Y-39738072D01*
X81733254Y-39721008D01*
X81899850Y-39670472D01*
X82053386Y-39588405D01*
X82187962Y-39477962D01*
X82298405Y-39343386D01*
X82380472Y-39189850D01*
X82431008Y-39023254D01*
X82448072Y-38850000D01*
X82448072Y-37350000D01*
X82431008Y-37176746D01*
X82380472Y-37010150D01*
X82298405Y-36856614D01*
X82187962Y-36722038D01*
X82053386Y-36611595D01*
X81899850Y-36529528D01*
X81733254Y-36478992D01*
X81560000Y-36461928D01*
X78460000Y-36461928D01*
X78286746Y-36478992D01*
X78216158Y-36500404D01*
X77478500Y-35762747D01*
X77478500Y-33100000D01*
X77567089Y-33100000D01*
X77598657Y-33420516D01*
X77692148Y-33728715D01*
X77843969Y-34012752D01*
X78048286Y-34261714D01*
X78297248Y-34466031D01*
X78581285Y-34617852D01*
X78889484Y-34711343D01*
X79129678Y-34735000D01*
X80890322Y-34735000D01*
X81130516Y-34711343D01*
X81438715Y-34617852D01*
X81722752Y-34466031D01*
X81971714Y-34261714D01*
X82176031Y-34012752D01*
X82327852Y-33728715D01*
X82421343Y-33420516D01*
X82452911Y-33100000D01*
X82421343Y-32779484D01*
X82327852Y-32471285D01*
X82176031Y-32187248D01*
X81971714Y-31938286D01*
X81722752Y-31733969D01*
X81438715Y-31582148D01*
X81245000Y-31523385D01*
X81245000Y-23220365D01*
X81250975Y-23159700D01*
X81227130Y-22917598D01*
X81156511Y-22684800D01*
X81156511Y-22684799D01*
X81041833Y-22470251D01*
X80887502Y-22282198D01*
X80840374Y-22243521D01*
X80543357Y-21946504D01*
X80494661Y-21828941D01*
X80348562Y-21610287D01*
X80162613Y-21424338D01*
X79943959Y-21278239D01*
X79701005Y-21177604D01*
X79443086Y-21126300D01*
X79180114Y-21126300D01*
X78922195Y-21177604D01*
X78679241Y-21278239D01*
X78460587Y-21424338D01*
X78274638Y-21610287D01*
X78128539Y-21828941D01*
X78027904Y-22071895D01*
X77976600Y-22329814D01*
X77976600Y-22592786D01*
X78027904Y-22850705D01*
X78128539Y-23093659D01*
X78274638Y-23312313D01*
X78460587Y-23498262D01*
X78679241Y-23644361D01*
X78775001Y-23684026D01*
X78775000Y-31523385D01*
X78581285Y-31582148D01*
X78297248Y-31733969D01*
X78048286Y-31938286D01*
X77843969Y-32187248D01*
X77692148Y-32471285D01*
X77598657Y-32779484D01*
X77567089Y-33100000D01*
X77478500Y-33100000D01*
X77478500Y-20855654D01*
X77484474Y-20794999D01*
X77478500Y-20734344D01*
X77478500Y-20734335D01*
X77460630Y-20552898D01*
X77390011Y-20320099D01*
X77275333Y-20105551D01*
X77121002Y-19917498D01*
X77073881Y-19878827D01*
X74651510Y-17456456D01*
X76725000Y-17456456D01*
X76725000Y-18103544D01*
X76851240Y-18738199D01*
X77098871Y-19336031D01*
X77458374Y-19874066D01*
X77915934Y-20331626D01*
X78453969Y-20691129D01*
X79051801Y-20938760D01*
X79686456Y-21065000D01*
X80333544Y-21065000D01*
X80968199Y-20938760D01*
X81566031Y-20691129D01*
X82104066Y-20331626D01*
X82561626Y-19874066D01*
X82921129Y-19336031D01*
X83168760Y-18738199D01*
X83295000Y-18103544D01*
X83295000Y-17456456D01*
X83168760Y-16821801D01*
X82921129Y-16223969D01*
X82561626Y-15685934D01*
X82104066Y-15228374D01*
X81566031Y-14868871D01*
X80968199Y-14621240D01*
X80333544Y-14495000D01*
X79686456Y-14495000D01*
X79051801Y-14621240D01*
X78453969Y-14868871D01*
X77915934Y-15228374D01*
X77458374Y-15685934D01*
X77098871Y-16223969D01*
X76851240Y-16821801D01*
X76725000Y-17456456D01*
X74651510Y-17456456D01*
X70908579Y-13713525D01*
X70869902Y-13666398D01*
X70681849Y-13512067D01*
X70490895Y-13410000D01*
X82515280Y-13410000D01*
X82904785Y-13448191D01*
X82904785Y-13448191D01*
G37*
X82904785Y-13448191D02*
X83246060Y-13551228D01*
X83560822Y-13718590D01*
X83837083Y-13943903D01*
X84064317Y-14218582D01*
X84233870Y-14532164D01*
X84339286Y-14872708D01*
X84380000Y-15260072D01*
X84380001Y-58385269D01*
X84341809Y-58774784D01*
X84238771Y-59116063D01*
X84071409Y-59430825D01*
X83846097Y-59707083D01*
X83571418Y-59934317D01*
X83257838Y-60103869D01*
X82917288Y-60209287D01*
X82529928Y-60250000D01*
X19084720Y-60250000D01*
X18695216Y-60211809D01*
X18353937Y-60108771D01*
X18039175Y-59941409D01*
X17762917Y-59716097D01*
X17535683Y-59441418D01*
X17366131Y-59127838D01*
X17260713Y-58787288D01*
X17220000Y-58399928D01*
X17220000Y-55556456D01*
X18305000Y-55556456D01*
X18305000Y-56203544D01*
X18431240Y-56838199D01*
X18678871Y-57436031D01*
X19038374Y-57974066D01*
X19495934Y-58431626D01*
X20033969Y-58791129D01*
X20631801Y-59038760D01*
X21266456Y-59165000D01*
X21913544Y-59165000D01*
X22548199Y-59038760D01*
X23146031Y-58791129D01*
X23684066Y-58431626D01*
X24141626Y-57974066D01*
X24501129Y-57436031D01*
X24748760Y-56838199D01*
X24875000Y-56203544D01*
X24875000Y-55556456D01*
X24748760Y-54921801D01*
X24501129Y-54323969D01*
X24141626Y-53785934D01*
X23684066Y-53328374D01*
X23146031Y-52968871D01*
X22548199Y-52721240D01*
X21913544Y-52595000D01*
X21266456Y-52595000D01*
X20631801Y-52721240D01*
X20033969Y-52968871D01*
X19495934Y-53328374D01*
X19038374Y-53785934D01*
X18678871Y-54323969D01*
X18431240Y-54921801D01*
X18305000Y-55556456D01*
X17220000Y-55556456D01*
X17220000Y-26271435D01*
X17258504Y-26465005D01*
X17307201Y-26582570D01*
X17307200Y-31913335D01*
X17301225Y-31974000D01*
X17325070Y-32216102D01*
X17359788Y-32330550D01*
X17395689Y-32448900D01*
X17510367Y-32663448D01*
X17664698Y-32851502D01*
X17711826Y-32890179D01*
X24533028Y-39711381D01*
X24350128Y-39675000D01*
X23909872Y-39675000D01*
X23478075Y-39760890D01*
X23071331Y-39929369D01*
X22705271Y-40173962D01*
X22393962Y-40485271D01*
X22149369Y-40851331D01*
X21980890Y-41258075D01*
X21895000Y-41689872D01*
X21895000Y-42130128D01*
X21980890Y-42561925D01*
X22149369Y-42968669D01*
X22393962Y-43334729D01*
X22705271Y-43646038D01*
X23071331Y-43890631D01*
X23478075Y-44059110D01*
X23909872Y-44145000D01*
X24350128Y-44145000D01*
X24781925Y-44059110D01*
X25188669Y-43890631D01*
X25554729Y-43646038D01*
X25866038Y-43334729D01*
X26110631Y-42968669D01*
X26279110Y-42561925D01*
X26365000Y-42130128D01*
X26365000Y-41689872D01*
X26346526Y-41596993D01*
X32242612Y-41596993D01*
X32308137Y-41835860D01*
X32555116Y-41951760D01*
X32819960Y-42017250D01*
X33092492Y-42029812D01*
X33362238Y-41988965D01*
X33618832Y-41896277D01*
X33731863Y-41835860D01*
X33797388Y-41596993D01*
X33020000Y-40819605D01*
X32242612Y-41596993D01*
X26346526Y-41596993D01*
X26279110Y-41258075D01*
X26110631Y-40851331D01*
X25949300Y-40609882D01*
X25998865Y-40605000D01*
X29842375Y-40605000D01*
X30076011Y-40701775D01*
X30343589Y-40755000D01*
X30616411Y-40755000D01*
X30830111Y-40712492D01*
X31630188Y-40712492D01*
X31671035Y-40982238D01*
X31763723Y-41238832D01*
X31824140Y-41351863D01*
X32063007Y-41417388D01*
X32840395Y-40640000D01*
X33199605Y-40640000D01*
X33976993Y-41417388D01*
X34215860Y-41351863D01*
X34331760Y-41104884D01*
X34397250Y-40840040D01*
X34409812Y-40567508D01*
X34368965Y-40297762D01*
X34276277Y-40041168D01*
X34215860Y-39928137D01*
X33976993Y-39862612D01*
X33199605Y-40640000D01*
X32840395Y-40640000D01*
X32063007Y-39862612D01*
X31824140Y-39928137D01*
X31708240Y-40175116D01*
X31642750Y-40439960D01*
X31630188Y-40712492D01*
X30830111Y-40712492D01*
X30883989Y-40701775D01*
X31136043Y-40597371D01*
X31362886Y-40445799D01*
X31555799Y-40252886D01*
X31707371Y-40026043D01*
X31811775Y-39773989D01*
X31865000Y-39506411D01*
X31865000Y-39233589D01*
X31811775Y-38966011D01*
X31707371Y-38713957D01*
X31555799Y-38487114D01*
X31362886Y-38294201D01*
X31136043Y-38142629D01*
X31033127Y-38100000D01*
X31136043Y-38057371D01*
X31362886Y-37905799D01*
X31555799Y-37712886D01*
X31707371Y-37486043D01*
X31811775Y-37233989D01*
X31865000Y-36966411D01*
X31865000Y-36693589D01*
X31811775Y-36426011D01*
X31707371Y-36173957D01*
X31555799Y-35947114D01*
X31362886Y-35754201D01*
X31136043Y-35602629D01*
X31033127Y-35560000D01*
X31136043Y-35517371D01*
X31362886Y-35365799D01*
X31555799Y-35172886D01*
X31707371Y-34946043D01*
X31811775Y-34693989D01*
X31865000Y-34426411D01*
X31865000Y-34153589D01*
X31811775Y-33886011D01*
X31707371Y-33633957D01*
X31555799Y-33407114D01*
X31362886Y-33214201D01*
X31246517Y-33136445D01*
X31354482Y-33125812D01*
X31474180Y-33089502D01*
X31584494Y-33030537D01*
X31635000Y-32989088D01*
X31635000Y-33156411D01*
X31688225Y-33423989D01*
X31792629Y-33676043D01*
X31944201Y-33902886D01*
X32137114Y-34095799D01*
X32363957Y-34247371D01*
X32466873Y-34290000D01*
X32363957Y-34332629D01*
X32137114Y-34484201D01*
X31944201Y-34677114D01*
X31792629Y-34903957D01*
X31688225Y-35156011D01*
X31635000Y-35423589D01*
X31635000Y-35696411D01*
X31688225Y-35963989D01*
X31792629Y-36216043D01*
X31944201Y-36442886D01*
X32137114Y-36635799D01*
X32363957Y-36787371D01*
X32466873Y-36830000D01*
X32363957Y-36872629D01*
X32137114Y-37024201D01*
X31944201Y-37217114D01*
X31792629Y-37443957D01*
X31688225Y-37696011D01*
X31635000Y-37963589D01*
X31635000Y-38236411D01*
X31688225Y-38503989D01*
X31792629Y-38756043D01*
X31944201Y-38982886D01*
X32137114Y-39175799D01*
X32363957Y-39327371D01*
X32463279Y-39368511D01*
X32421168Y-39383723D01*
X32308137Y-39444140D01*
X32242612Y-39683007D01*
X33020000Y-40460395D01*
X33797388Y-39683007D01*
X33731863Y-39444140D01*
X33573523Y-39369836D01*
X33657625Y-39335000D01*
X33870535Y-39335000D01*
X33931200Y-39340975D01*
X33991865Y-39335000D01*
X34069324Y-39327371D01*
X34173302Y-39317130D01*
X34406101Y-39246511D01*
X34620649Y-39131833D01*
X34808702Y-38977502D01*
X34847379Y-38930374D01*
X35002853Y-38774900D01*
X35976025Y-38774900D01*
X35958738Y-38792187D01*
X35812639Y-39010841D01*
X35712004Y-39253795D01*
X35660700Y-39511714D01*
X35660700Y-39774686D01*
X35712004Y-40032605D01*
X35760700Y-40150167D01*
X35760701Y-52171928D01*
X34810000Y-52171928D01*
X34636746Y-52188992D01*
X34470150Y-52239528D01*
X34316614Y-52321595D01*
X34182038Y-52432038D01*
X34071595Y-52566614D01*
X33989528Y-52720150D01*
X33938992Y-52886746D01*
X33921928Y-53060000D01*
X33921928Y-56160000D01*
X33938992Y-56333254D01*
X33989528Y-56499850D01*
X34071595Y-56653386D01*
X34182038Y-56787962D01*
X34316614Y-56898405D01*
X34470150Y-56980472D01*
X34636746Y-57031008D01*
X34810000Y-57048072D01*
X36310000Y-57048072D01*
X36483254Y-57031008D01*
X36649850Y-56980472D01*
X36803386Y-56898405D01*
X36937962Y-56787962D01*
X37048405Y-56653386D01*
X37130472Y-56499850D01*
X37181008Y-56333254D01*
X37198072Y-56160000D01*
X37198072Y-54718482D01*
X37826080Y-54090474D01*
X37873202Y-54051802D01*
X38027533Y-53863749D01*
X38142211Y-53649201D01*
X38212830Y-53416402D01*
X38230700Y-53234965D01*
X38230700Y-53234956D01*
X38236674Y-53174301D01*
X38230700Y-53113646D01*
X38230700Y-40150167D01*
X38279396Y-40032605D01*
X38330700Y-39774686D01*
X38330700Y-39511714D01*
X38279396Y-39253795D01*
X38217224Y-39103699D01*
X38262187Y-39148662D01*
X38480841Y-39294761D01*
X38723795Y-39395396D01*
X38981714Y-39446700D01*
X39244686Y-39446700D01*
X39502605Y-39395396D01*
X39745559Y-39294761D01*
X39964213Y-39148662D01*
X40150162Y-38962713D01*
X40296261Y-38744059D01*
X40396896Y-38501105D01*
X40448200Y-38243186D01*
X40448200Y-38208053D01*
X56233826Y-53993680D01*
X56272498Y-54040802D01*
X56460551Y-54195133D01*
X56675099Y-54309811D01*
X56721772Y-54323969D01*
X56907898Y-54380430D01*
X57150000Y-54404275D01*
X57210665Y-54398300D01*
X59001747Y-54398300D01*
X59321928Y-54718481D01*
X59321928Y-56160000D01*
X59338992Y-56333254D01*
X59389528Y-56499850D01*
X59448298Y-56609800D01*
X41795000Y-56609800D01*
X41795000Y-56482414D01*
X41926031Y-56322752D01*
X42077852Y-56038715D01*
X42171343Y-55730516D01*
X42195000Y-55490322D01*
X42195000Y-53729678D01*
X42171343Y-53489484D01*
X42077852Y-53181285D01*
X41926031Y-52897248D01*
X41721714Y-52648286D01*
X41472751Y-52443969D01*
X41188714Y-52292148D01*
X40880515Y-52198657D01*
X40560000Y-52167089D01*
X40239484Y-52198657D01*
X39931285Y-52292148D01*
X39647248Y-52443969D01*
X39398286Y-52648286D01*
X39193969Y-52897249D01*
X39042148Y-53181286D01*
X38948657Y-53489485D01*
X38925000Y-53729679D01*
X38925000Y-55490322D01*
X38948658Y-55730516D01*
X39042149Y-56038715D01*
X39193970Y-56322752D01*
X39325000Y-56482414D01*
X39325000Y-57549334D01*
X39319025Y-57610000D01*
X39342870Y-57852102D01*
X39353615Y-57887522D01*
X39413489Y-58084900D01*
X39528167Y-58299448D01*
X39682498Y-58487502D01*
X39729626Y-58526179D01*
X39878621Y-58675174D01*
X39917298Y-58722302D01*
X40105351Y-58876633D01*
X40319899Y-58991311D01*
X40552698Y-59061930D01*
X40734135Y-59079800D01*
X40734144Y-59079800D01*
X40794799Y-59085774D01*
X40855454Y-59079800D01*
X63464535Y-59079800D01*
X63525200Y-59085775D01*
X63585865Y-59079800D01*
X63767302Y-59061930D01*
X64000101Y-58991311D01*
X64214649Y-58876633D01*
X64402702Y-58722302D01*
X64441378Y-58675175D01*
X66074966Y-57041588D01*
X66280516Y-57021343D01*
X66588715Y-56927852D01*
X66872752Y-56776031D01*
X67121714Y-56571714D01*
X67326031Y-56322752D01*
X67477852Y-56038715D01*
X67571343Y-55730516D01*
X67588486Y-55556456D01*
X76725000Y-55556456D01*
X76725000Y-56203544D01*
X76851240Y-56838199D01*
X77098871Y-57436031D01*
X77458374Y-57974066D01*
X77915934Y-58431626D01*
X78453969Y-58791129D01*
X79051801Y-59038760D01*
X79686456Y-59165000D01*
X80333544Y-59165000D01*
X80968199Y-59038760D01*
X81566031Y-58791129D01*
X82104066Y-58431626D01*
X82561626Y-57974066D01*
X82921129Y-57436031D01*
X83168760Y-56838199D01*
X83295000Y-56203544D01*
X83295000Y-55556456D01*
X83168760Y-54921801D01*
X82921129Y-54323969D01*
X82561626Y-53785934D01*
X82104066Y-53328374D01*
X81566031Y-52968871D01*
X80968199Y-52721240D01*
X80333544Y-52595000D01*
X79686456Y-52595000D01*
X79051801Y-52721240D01*
X78453969Y-52968871D01*
X77915934Y-53328374D01*
X77458374Y-53785934D01*
X77098871Y-54323969D01*
X76851240Y-54921801D01*
X76725000Y-55556456D01*
X67588486Y-55556456D01*
X67595000Y-55490322D01*
X67595000Y-53729678D01*
X67571343Y-53489484D01*
X67477852Y-53181285D01*
X67326031Y-52897248D01*
X67121714Y-52648286D01*
X66872751Y-52443969D01*
X66588714Y-52292148D01*
X66280515Y-52198657D01*
X66074966Y-52178412D01*
X56246179Y-42349626D01*
X56207502Y-42302498D01*
X56019449Y-42148167D01*
X55804901Y-42033489D01*
X55572102Y-41962870D01*
X55390665Y-41945000D01*
X55330000Y-41939025D01*
X55269335Y-41945000D01*
X51311554Y-41945000D01*
X45798600Y-36432047D01*
X45798600Y-34255000D01*
X49240019Y-34255000D01*
X49295506Y-34300537D01*
X49405820Y-34359502D01*
X49525518Y-34395812D01*
X49634874Y-34406582D01*
X49524939Y-34478972D01*
X49330855Y-34670460D01*
X49177858Y-34896132D01*
X49071827Y-35147316D01*
X49057682Y-35218815D01*
X49180344Y-35433000D01*
X50673000Y-35433000D01*
X50673000Y-35413000D01*
X50927000Y-35413000D01*
X50927000Y-35433000D01*
X52419656Y-35433000D01*
X52542318Y-35218815D01*
X52528173Y-35147316D01*
X52422142Y-34896132D01*
X52269145Y-34670460D01*
X52075061Y-34478972D01*
X51965126Y-34406582D01*
X52074482Y-34395812D01*
X52194180Y-34359502D01*
X52304494Y-34300537D01*
X52401185Y-34221185D01*
X52480537Y-34124494D01*
X52539502Y-34014180D01*
X52552084Y-33972702D01*
X66496903Y-33972702D01*
X66568486Y-34216671D01*
X66823996Y-34337571D01*
X67098184Y-34406300D01*
X67380512Y-34420217D01*
X67660130Y-34378787D01*
X67926292Y-34283603D01*
X68051514Y-34216671D01*
X68123097Y-33972702D01*
X67310000Y-33159605D01*
X66496903Y-33972702D01*
X52552084Y-33972702D01*
X52575812Y-33894482D01*
X52588072Y-33770000D01*
X52588072Y-33050512D01*
X65869783Y-33050512D01*
X65911213Y-33330130D01*
X66006397Y-33596292D01*
X66073329Y-33721514D01*
X66317298Y-33793097D01*
X67130395Y-32980000D01*
X67489605Y-32980000D01*
X68302702Y-33793097D01*
X68546671Y-33721514D01*
X68667571Y-33466004D01*
X68736300Y-33191816D01*
X68750217Y-32909488D01*
X68708787Y-32629870D01*
X68613603Y-32363708D01*
X68546671Y-32238486D01*
X68302702Y-32166903D01*
X67489605Y-32980000D01*
X67130395Y-32980000D01*
X66317298Y-32166903D01*
X66073329Y-32238486D01*
X65952429Y-32493996D01*
X65883700Y-32768184D01*
X65869783Y-33050512D01*
X52588072Y-33050512D01*
X52588072Y-32270000D01*
X52575812Y-32145518D01*
X52539502Y-32025820D01*
X52480537Y-31915506D01*
X52401185Y-31818815D01*
X52304494Y-31739463D01*
X52258728Y-31715000D01*
X66045532Y-31715000D01*
X66058815Y-31731185D01*
X66155506Y-31810537D01*
X66265820Y-31869502D01*
X66385518Y-31905812D01*
X66510000Y-31918072D01*
X66517215Y-31918072D01*
X66496903Y-31987298D01*
X67310000Y-32800395D01*
X68123097Y-31987298D01*
X68102785Y-31918072D01*
X68110000Y-31918072D01*
X68234482Y-31905812D01*
X68354180Y-31869502D01*
X68464494Y-31810537D01*
X68561185Y-31731185D01*
X68640537Y-31634494D01*
X68699502Y-31524180D01*
X68735812Y-31404482D01*
X68748072Y-31280000D01*
X68748072Y-29680000D01*
X68735812Y-29555518D01*
X68699502Y-29435820D01*
X68640537Y-29325506D01*
X68561185Y-29228815D01*
X68545000Y-29215532D01*
X68545000Y-28791253D01*
X69410380Y-27925874D01*
X69457502Y-27887202D01*
X69611833Y-27699149D01*
X69726511Y-27484601D01*
X69751508Y-27402198D01*
X69797130Y-27251803D01*
X69820975Y-27009701D01*
X69815000Y-26949036D01*
X69815000Y-20072887D01*
X69823386Y-20068405D01*
X69957962Y-19957962D01*
X70068405Y-19823386D01*
X70150472Y-19669850D01*
X70201008Y-19503254D01*
X70218072Y-19330000D01*
X70218072Y-16516125D01*
X75008500Y-21306554D01*
X75008501Y-35762745D01*
X72636247Y-38135000D01*
X68574468Y-38135000D01*
X68561185Y-38118815D01*
X68464494Y-38039463D01*
X68354180Y-37980498D01*
X68234482Y-37944188D01*
X68110000Y-37931928D01*
X68102785Y-37931928D01*
X68123097Y-37862702D01*
X67310000Y-37049605D01*
X66496903Y-37862702D01*
X66517215Y-37931928D01*
X66510000Y-37931928D01*
X66385518Y-37944188D01*
X66265820Y-37980498D01*
X66155506Y-38039463D01*
X66058815Y-38118815D01*
X66045532Y-38135000D01*
X55131854Y-38135000D01*
X54266478Y-37269625D01*
X54227802Y-37222498D01*
X54039749Y-37068167D01*
X53825201Y-36953489D01*
X53782422Y-36940512D01*
X65869783Y-36940512D01*
X65911213Y-37220130D01*
X66006397Y-37486292D01*
X66073329Y-37611514D01*
X66317298Y-37683097D01*
X67130395Y-36870000D01*
X67489605Y-36870000D01*
X68302702Y-37683097D01*
X68546671Y-37611514D01*
X68667571Y-37356004D01*
X68736300Y-37081816D01*
X68750217Y-36799488D01*
X68708787Y-36519870D01*
X68613603Y-36253708D01*
X68546671Y-36128486D01*
X68302702Y-36056903D01*
X67489605Y-36870000D01*
X67130395Y-36870000D01*
X66317298Y-36056903D01*
X66073329Y-36128486D01*
X65952429Y-36383996D01*
X65883700Y-36658184D01*
X65869783Y-36940512D01*
X53782422Y-36940512D01*
X53592402Y-36882870D01*
X53350300Y-36859025D01*
X53289635Y-36865000D01*
X51827554Y-36865000D01*
X51757422Y-36827514D01*
X51847349Y-36790972D01*
X52075061Y-36641028D01*
X52269145Y-36449540D01*
X52422142Y-36223868D01*
X52528173Y-35972684D01*
X52542318Y-35901185D01*
X52528639Y-35877298D01*
X66496903Y-35877298D01*
X67310000Y-36690395D01*
X68123097Y-35877298D01*
X68051514Y-35633329D01*
X67796004Y-35512429D01*
X67521816Y-35443700D01*
X67239488Y-35429783D01*
X66959870Y-35471213D01*
X66693708Y-35566397D01*
X66568486Y-35633329D01*
X66496903Y-35877298D01*
X52528639Y-35877298D01*
X52419656Y-35687000D01*
X50927000Y-35687000D01*
X50927000Y-35707000D01*
X50673000Y-35707000D01*
X50673000Y-35687000D01*
X49180344Y-35687000D01*
X49057682Y-35901185D01*
X49071827Y-35972684D01*
X49177858Y-36223868D01*
X49330855Y-36449540D01*
X49524939Y-36641028D01*
X49752651Y-36790972D01*
X49842578Y-36827514D01*
X49626812Y-36942843D01*
X49415919Y-37115919D01*
X49242843Y-37326812D01*
X49114236Y-37567419D01*
X49035040Y-37828493D01*
X49008299Y-38100000D01*
X49035040Y-38371507D01*
X49114236Y-38632581D01*
X49242843Y-38873188D01*
X49415919Y-39084081D01*
X49626812Y-39257157D01*
X49867419Y-39385764D01*
X50128493Y-39464960D01*
X50331963Y-39485000D01*
X51268037Y-39485000D01*
X51471507Y-39464960D01*
X51732581Y-39385764D01*
X51827554Y-39335000D01*
X52838747Y-39335000D01*
X53704126Y-40200380D01*
X53742798Y-40247502D01*
X53930851Y-40401833D01*
X54086953Y-40485271D01*
X54145399Y-40516511D01*
X54378197Y-40587130D01*
X54620299Y-40610975D01*
X54680964Y-40605000D01*
X66045532Y-40605000D01*
X66058815Y-40621185D01*
X66155506Y-40700537D01*
X66265820Y-40759502D01*
X66385518Y-40795812D01*
X66510000Y-40808072D01*
X68110000Y-40808072D01*
X68234482Y-40795812D01*
X68354180Y-40759502D01*
X68464494Y-40700537D01*
X68561185Y-40621185D01*
X68574468Y-40605000D01*
X73087135Y-40605000D01*
X73147800Y-40610975D01*
X73208465Y-40605000D01*
X73285924Y-40597371D01*
X73389902Y-40587130D01*
X73622701Y-40516511D01*
X73837249Y-40401833D01*
X74025302Y-40247502D01*
X74063978Y-40200375D01*
X76243500Y-38020854D01*
X77153026Y-38930380D01*
X77191698Y-38977502D01*
X77379751Y-39131833D01*
X77594299Y-39246511D01*
X77684428Y-39273851D01*
X77721595Y-39343386D01*
X77832038Y-39477962D01*
X77966614Y-39588405D01*
X78120150Y-39670472D01*
X78286746Y-39721008D01*
X78460000Y-39738072D01*
X81560000Y-39738072D01*
X81733254Y-39721008D01*
X81899850Y-39670472D01*
X82053386Y-39588405D01*
X82187962Y-39477962D01*
X82298405Y-39343386D01*
X82380472Y-39189850D01*
X82431008Y-39023254D01*
X82448072Y-38850000D01*
X82448072Y-37350000D01*
X82431008Y-37176746D01*
X82380472Y-37010150D01*
X82298405Y-36856614D01*
X82187962Y-36722038D01*
X82053386Y-36611595D01*
X81899850Y-36529528D01*
X81733254Y-36478992D01*
X81560000Y-36461928D01*
X78460000Y-36461928D01*
X78286746Y-36478992D01*
X78216158Y-36500404D01*
X77478500Y-35762747D01*
X77478500Y-33100000D01*
X77567089Y-33100000D01*
X77598657Y-33420516D01*
X77692148Y-33728715D01*
X77843969Y-34012752D01*
X78048286Y-34261714D01*
X78297248Y-34466031D01*
X78581285Y-34617852D01*
X78889484Y-34711343D01*
X79129678Y-34735000D01*
X80890322Y-34735000D01*
X81130516Y-34711343D01*
X81438715Y-34617852D01*
X81722752Y-34466031D01*
X81971714Y-34261714D01*
X82176031Y-34012752D01*
X82327852Y-33728715D01*
X82421343Y-33420516D01*
X82452911Y-33100000D01*
X82421343Y-32779484D01*
X82327852Y-32471285D01*
X82176031Y-32187248D01*
X81971714Y-31938286D01*
X81722752Y-31733969D01*
X81438715Y-31582148D01*
X81245000Y-31523385D01*
X81245000Y-23220365D01*
X81250975Y-23159700D01*
X81227130Y-22917598D01*
X81156511Y-22684800D01*
X81156511Y-22684799D01*
X81041833Y-22470251D01*
X80887502Y-22282198D01*
X80840374Y-22243521D01*
X80543357Y-21946504D01*
X80494661Y-21828941D01*
X80348562Y-21610287D01*
X80162613Y-21424338D01*
X79943959Y-21278239D01*
X79701005Y-21177604D01*
X79443086Y-21126300D01*
X79180114Y-21126300D01*
X78922195Y-21177604D01*
X78679241Y-21278239D01*
X78460587Y-21424338D01*
X78274638Y-21610287D01*
X78128539Y-21828941D01*
X78027904Y-22071895D01*
X77976600Y-22329814D01*
X77976600Y-22592786D01*
X78027904Y-22850705D01*
X78128539Y-23093659D01*
X78274638Y-23312313D01*
X78460587Y-23498262D01*
X78679241Y-23644361D01*
X78775001Y-23684026D01*
X78775000Y-31523385D01*
X78581285Y-31582148D01*
X78297248Y-31733969D01*
X78048286Y-31938286D01*
X77843969Y-32187248D01*
X77692148Y-32471285D01*
X77598657Y-32779484D01*
X77567089Y-33100000D01*
X77478500Y-33100000D01*
X77478500Y-20855654D01*
X77484474Y-20794999D01*
X77478500Y-20734344D01*
X77478500Y-20734335D01*
X77460630Y-20552898D01*
X77390011Y-20320099D01*
X77275333Y-20105551D01*
X77121002Y-19917498D01*
X77073881Y-19878827D01*
X74651510Y-17456456D01*
X76725000Y-17456456D01*
X76725000Y-18103544D01*
X76851240Y-18738199D01*
X77098871Y-19336031D01*
X77458374Y-19874066D01*
X77915934Y-20331626D01*
X78453969Y-20691129D01*
X79051801Y-20938760D01*
X79686456Y-21065000D01*
X80333544Y-21065000D01*
X80968199Y-20938760D01*
X81566031Y-20691129D01*
X82104066Y-20331626D01*
X82561626Y-19874066D01*
X82921129Y-19336031D01*
X83168760Y-18738199D01*
X83295000Y-18103544D01*
X83295000Y-17456456D01*
X83168760Y-16821801D01*
X82921129Y-16223969D01*
X82561626Y-15685934D01*
X82104066Y-15228374D01*
X81566031Y-14868871D01*
X80968199Y-14621240D01*
X80333544Y-14495000D01*
X79686456Y-14495000D01*
X79051801Y-14621240D01*
X78453969Y-14868871D01*
X77915934Y-15228374D01*
X77458374Y-15685934D01*
X77098871Y-16223969D01*
X76851240Y-16821801D01*
X76725000Y-17456456D01*
X74651510Y-17456456D01*
X70908579Y-13713525D01*
X70869902Y-13666398D01*
X70681849Y-13512067D01*
X70490895Y-13410000D01*
X82515280Y-13410000D01*
X82904785Y-13448191D01*
G36*
X37418287Y-15818286D02*
G01*
X37213970Y-16067248D01*
X37062149Y-16351285D01*
X36968658Y-16659484D01*
X36945000Y-16899678D01*
X36945000Y-18660321D01*
X36968657Y-18900515D01*
X37062148Y-19208714D01*
X37213969Y-19492751D01*
X37418286Y-19741714D01*
X37667248Y-19946031D01*
X37951285Y-20097852D01*
X38259484Y-20191343D01*
X38580000Y-20222911D01*
X38900515Y-20191343D01*
X39208714Y-20097852D01*
X39492751Y-19946031D01*
X39741714Y-19741714D01*
X39946031Y-19492752D01*
X40097852Y-19208715D01*
X40191343Y-18900516D01*
X40215000Y-18660322D01*
X40215000Y-16899678D01*
X40191343Y-16659484D01*
X40097852Y-16351285D01*
X39946031Y-16067248D01*
X39741714Y-15818286D01*
X39737344Y-15814700D01*
X42422657Y-15814700D01*
X42418287Y-15818286D01*
X42213970Y-16067248D01*
X42062149Y-16351285D01*
X41968658Y-16659484D01*
X41945000Y-16899678D01*
X41945000Y-18660321D01*
X41968657Y-18900515D01*
X42062148Y-19208714D01*
X42213969Y-19492751D01*
X42345001Y-19652415D01*
X42345000Y-21210046D01*
X40400404Y-23154643D01*
X40282841Y-23203339D01*
X40064187Y-23349438D01*
X39878238Y-23535387D01*
X39732139Y-23754041D01*
X39631504Y-23996995D01*
X39580200Y-24254914D01*
X39580200Y-24517886D01*
X39631504Y-24775805D01*
X39732139Y-25018759D01*
X39878238Y-25237413D01*
X40064187Y-25423362D01*
X40282841Y-25569461D01*
X40525795Y-25670096D01*
X40783714Y-25721400D01*
X41046686Y-25721400D01*
X41304605Y-25670096D01*
X41547559Y-25569461D01*
X41766213Y-25423362D01*
X41952162Y-25237413D01*
X42098261Y-25018759D01*
X42146957Y-24901196D01*
X44410381Y-22637773D01*
X44457502Y-22599102D01*
X44611833Y-22411049D01*
X44726511Y-22196501D01*
X44797130Y-21963702D01*
X44815000Y-21782265D01*
X44815000Y-21782264D01*
X44820975Y-21721601D01*
X44815000Y-21660938D01*
X44815000Y-19652414D01*
X44946031Y-19492752D01*
X45097852Y-19208715D01*
X45191343Y-18900516D01*
X45215000Y-18660322D01*
X45215000Y-16899678D01*
X45191343Y-16659484D01*
X45097852Y-16351285D01*
X44946031Y-16067248D01*
X44741714Y-15818286D01*
X44737344Y-15814700D01*
X47422657Y-15814700D01*
X47418287Y-15818286D01*
X47213970Y-16067248D01*
X47062149Y-16351285D01*
X46968658Y-16659484D01*
X46945000Y-16899678D01*
X46945000Y-18660321D01*
X46968657Y-18900515D01*
X47062148Y-19208714D01*
X47213969Y-19492751D01*
X47345001Y-19652415D01*
X47345001Y-20468745D01*
X44552625Y-23261122D01*
X44505498Y-23299798D01*
X44351167Y-23487852D01*
X44236489Y-23702400D01*
X44236489Y-23702401D01*
X44165870Y-23935198D01*
X44142025Y-24177300D01*
X44148000Y-24237965D01*
X44148001Y-30080330D01*
X44099304Y-30197895D01*
X44048000Y-30455814D01*
X44048000Y-30718786D01*
X44057699Y-30767546D01*
X43124678Y-29834525D01*
X43086002Y-29787398D01*
X42897949Y-29633067D01*
X42683401Y-29518389D01*
X42450602Y-29447770D01*
X42269165Y-29429900D01*
X42208500Y-29423925D01*
X42147835Y-29429900D01*
X36435672Y-29429900D01*
X36641813Y-29292162D01*
X36827762Y-29106213D01*
X36973861Y-28887559D01*
X37074496Y-28644605D01*
X37125800Y-28386686D01*
X37125800Y-28123714D01*
X37074496Y-27865795D01*
X36973861Y-27622841D01*
X36827762Y-27404187D01*
X36641813Y-27218238D01*
X36423159Y-27072139D01*
X36180205Y-26971504D01*
X35922286Y-26920200D01*
X35659314Y-26920200D01*
X35401395Y-26971504D01*
X35283833Y-27020200D01*
X30508164Y-27020200D01*
X30447499Y-27014225D01*
X30205397Y-27038070D01*
X29972599Y-27108689D01*
X29758051Y-27223367D01*
X29569998Y-27377698D01*
X29531326Y-27424820D01*
X27497021Y-29459126D01*
X27449899Y-29497798D01*
X27295568Y-29685851D01*
X27219548Y-29828075D01*
X27180889Y-29900401D01*
X27110270Y-30133198D01*
X27086425Y-30375300D01*
X27092401Y-30435975D01*
X27092400Y-33088834D01*
X27086425Y-33149500D01*
X27104216Y-33330130D01*
X27110270Y-33391601D01*
X27180889Y-33624400D01*
X27295567Y-33838948D01*
X27449898Y-34027002D01*
X27497026Y-34065679D01*
X28551721Y-35120374D01*
X28590398Y-35167502D01*
X28778451Y-35321833D01*
X28992999Y-35436511D01*
X29196442Y-35498225D01*
X29225798Y-35507130D01*
X29467900Y-35530975D01*
X29528565Y-35525000D01*
X29842375Y-35525000D01*
X29926873Y-35560000D01*
X29842375Y-35595000D01*
X26738754Y-35595000D01*
X23846060Y-32702307D01*
X23909872Y-32715000D01*
X24350128Y-32715000D01*
X24781925Y-32629110D01*
X25188669Y-32460631D01*
X25554729Y-32216038D01*
X25866038Y-31904729D01*
X26110631Y-31538669D01*
X26279110Y-31131925D01*
X26365000Y-30700128D01*
X26365000Y-30259872D01*
X26279110Y-29828075D01*
X26110631Y-29421331D01*
X25866038Y-29055271D01*
X25554729Y-28743962D01*
X25188669Y-28499369D01*
X24781925Y-28330890D01*
X24350128Y-28245000D01*
X23909872Y-28245000D01*
X23478075Y-28330890D01*
X23071331Y-28499369D01*
X22705271Y-28743962D01*
X22393962Y-29055271D01*
X22357500Y-29109840D01*
X22357500Y-26507553D01*
X30958053Y-17907000D01*
X31945000Y-17907000D01*
X31945000Y-18707000D01*
X32001193Y-19023532D01*
X32118058Y-19323020D01*
X32291105Y-19593954D01*
X32513683Y-19825922D01*
X32777239Y-20010010D01*
X33071645Y-20139144D01*
X33199566Y-20170124D01*
X33453000Y-20050777D01*
X33453000Y-17907000D01*
X33707000Y-17907000D01*
X33707000Y-20050777D01*
X33960434Y-20170124D01*
X34088355Y-20139144D01*
X34382761Y-20010010D01*
X34646317Y-19825922D01*
X34868895Y-19593954D01*
X35041942Y-19323020D01*
X35158807Y-19023532D01*
X35215000Y-18707000D01*
X35215000Y-17907000D01*
X33707000Y-17907000D01*
X33453000Y-17907000D01*
X31945000Y-17907000D01*
X30958053Y-17907000D01*
X31945000Y-16920054D01*
X31945000Y-17653000D01*
X33453000Y-17653000D01*
X33453000Y-17633000D01*
X33707000Y-17633000D01*
X33707000Y-17653000D01*
X35215000Y-17653000D01*
X35215000Y-16853000D01*
X35158807Y-16536468D01*
X35041942Y-16236980D01*
X34868895Y-15966046D01*
X34723675Y-15814700D01*
X37422657Y-15814700D01*
X37418287Y-15818286D01*
X37418287Y-15818286D01*
G37*
X37418287Y-15818286D02*
X37213970Y-16067248D01*
X37062149Y-16351285D01*
X36968658Y-16659484D01*
X36945000Y-16899678D01*
X36945000Y-18660321D01*
X36968657Y-18900515D01*
X37062148Y-19208714D01*
X37213969Y-19492751D01*
X37418286Y-19741714D01*
X37667248Y-19946031D01*
X37951285Y-20097852D01*
X38259484Y-20191343D01*
X38580000Y-20222911D01*
X38900515Y-20191343D01*
X39208714Y-20097852D01*
X39492751Y-19946031D01*
X39741714Y-19741714D01*
X39946031Y-19492752D01*
X40097852Y-19208715D01*
X40191343Y-18900516D01*
X40215000Y-18660322D01*
X40215000Y-16899678D01*
X40191343Y-16659484D01*
X40097852Y-16351285D01*
X39946031Y-16067248D01*
X39741714Y-15818286D01*
X39737344Y-15814700D01*
X42422657Y-15814700D01*
X42418287Y-15818286D01*
X42213970Y-16067248D01*
X42062149Y-16351285D01*
X41968658Y-16659484D01*
X41945000Y-16899678D01*
X41945000Y-18660321D01*
X41968657Y-18900515D01*
X42062148Y-19208714D01*
X42213969Y-19492751D01*
X42345001Y-19652415D01*
X42345000Y-21210046D01*
X40400404Y-23154643D01*
X40282841Y-23203339D01*
X40064187Y-23349438D01*
X39878238Y-23535387D01*
X39732139Y-23754041D01*
X39631504Y-23996995D01*
X39580200Y-24254914D01*
X39580200Y-24517886D01*
X39631504Y-24775805D01*
X39732139Y-25018759D01*
X39878238Y-25237413D01*
X40064187Y-25423362D01*
X40282841Y-25569461D01*
X40525795Y-25670096D01*
X40783714Y-25721400D01*
X41046686Y-25721400D01*
X41304605Y-25670096D01*
X41547559Y-25569461D01*
X41766213Y-25423362D01*
X41952162Y-25237413D01*
X42098261Y-25018759D01*
X42146957Y-24901196D01*
X44410381Y-22637773D01*
X44457502Y-22599102D01*
X44611833Y-22411049D01*
X44726511Y-22196501D01*
X44797130Y-21963702D01*
X44815000Y-21782265D01*
X44815000Y-21782264D01*
X44820975Y-21721601D01*
X44815000Y-21660938D01*
X44815000Y-19652414D01*
X44946031Y-19492752D01*
X45097852Y-19208715D01*
X45191343Y-18900516D01*
X45215000Y-18660322D01*
X45215000Y-16899678D01*
X45191343Y-16659484D01*
X45097852Y-16351285D01*
X44946031Y-16067248D01*
X44741714Y-15818286D01*
X44737344Y-15814700D01*
X47422657Y-15814700D01*
X47418287Y-15818286D01*
X47213970Y-16067248D01*
X47062149Y-16351285D01*
X46968658Y-16659484D01*
X46945000Y-16899678D01*
X46945000Y-18660321D01*
X46968657Y-18900515D01*
X47062148Y-19208714D01*
X47213969Y-19492751D01*
X47345001Y-19652415D01*
X47345001Y-20468745D01*
X44552625Y-23261122D01*
X44505498Y-23299798D01*
X44351167Y-23487852D01*
X44236489Y-23702400D01*
X44236489Y-23702401D01*
X44165870Y-23935198D01*
X44142025Y-24177300D01*
X44148000Y-24237965D01*
X44148001Y-30080330D01*
X44099304Y-30197895D01*
X44048000Y-30455814D01*
X44048000Y-30718786D01*
X44057699Y-30767546D01*
X43124678Y-29834525D01*
X43086002Y-29787398D01*
X42897949Y-29633067D01*
X42683401Y-29518389D01*
X42450602Y-29447770D01*
X42269165Y-29429900D01*
X42208500Y-29423925D01*
X42147835Y-29429900D01*
X36435672Y-29429900D01*
X36641813Y-29292162D01*
X36827762Y-29106213D01*
X36973861Y-28887559D01*
X37074496Y-28644605D01*
X37125800Y-28386686D01*
X37125800Y-28123714D01*
X37074496Y-27865795D01*
X36973861Y-27622841D01*
X36827762Y-27404187D01*
X36641813Y-27218238D01*
X36423159Y-27072139D01*
X36180205Y-26971504D01*
X35922286Y-26920200D01*
X35659314Y-26920200D01*
X35401395Y-26971504D01*
X35283833Y-27020200D01*
X30508164Y-27020200D01*
X30447499Y-27014225D01*
X30205397Y-27038070D01*
X29972599Y-27108689D01*
X29758051Y-27223367D01*
X29569998Y-27377698D01*
X29531326Y-27424820D01*
X27497021Y-29459126D01*
X27449899Y-29497798D01*
X27295568Y-29685851D01*
X27219548Y-29828075D01*
X27180889Y-29900401D01*
X27110270Y-30133198D01*
X27086425Y-30375300D01*
X27092401Y-30435975D01*
X27092400Y-33088834D01*
X27086425Y-33149500D01*
X27104216Y-33330130D01*
X27110270Y-33391601D01*
X27180889Y-33624400D01*
X27295567Y-33838948D01*
X27449898Y-34027002D01*
X27497026Y-34065679D01*
X28551721Y-35120374D01*
X28590398Y-35167502D01*
X28778451Y-35321833D01*
X28992999Y-35436511D01*
X29196442Y-35498225D01*
X29225798Y-35507130D01*
X29467900Y-35530975D01*
X29528565Y-35525000D01*
X29842375Y-35525000D01*
X29926873Y-35560000D01*
X29842375Y-35595000D01*
X26738754Y-35595000D01*
X23846060Y-32702307D01*
X23909872Y-32715000D01*
X24350128Y-32715000D01*
X24781925Y-32629110D01*
X25188669Y-32460631D01*
X25554729Y-32216038D01*
X25866038Y-31904729D01*
X26110631Y-31538669D01*
X26279110Y-31131925D01*
X26365000Y-30700128D01*
X26365000Y-30259872D01*
X26279110Y-29828075D01*
X26110631Y-29421331D01*
X25866038Y-29055271D01*
X25554729Y-28743962D01*
X25188669Y-28499369D01*
X24781925Y-28330890D01*
X24350128Y-28245000D01*
X23909872Y-28245000D01*
X23478075Y-28330890D01*
X23071331Y-28499369D01*
X22705271Y-28743962D01*
X22393962Y-29055271D01*
X22357500Y-29109840D01*
X22357500Y-26507553D01*
X30958053Y-17907000D01*
X31945000Y-17907000D01*
X31945000Y-18707000D01*
X32001193Y-19023532D01*
X32118058Y-19323020D01*
X32291105Y-19593954D01*
X32513683Y-19825922D01*
X32777239Y-20010010D01*
X33071645Y-20139144D01*
X33199566Y-20170124D01*
X33453000Y-20050777D01*
X33453000Y-17907000D01*
X33707000Y-17907000D01*
X33707000Y-20050777D01*
X33960434Y-20170124D01*
X34088355Y-20139144D01*
X34382761Y-20010010D01*
X34646317Y-19825922D01*
X34868895Y-19593954D01*
X35041942Y-19323020D01*
X35158807Y-19023532D01*
X35215000Y-18707000D01*
X35215000Y-17907000D01*
X33707000Y-17907000D01*
X33453000Y-17907000D01*
X31945000Y-17907000D01*
X30958053Y-17907000D01*
X31945000Y-16920054D01*
X31945000Y-17653000D01*
X33453000Y-17653000D01*
X33453000Y-17633000D01*
X33707000Y-17633000D01*
X33707000Y-17653000D01*
X35215000Y-17653000D01*
X35215000Y-16853000D01*
X35158807Y-16536468D01*
X35041942Y-16236980D01*
X34868895Y-15966046D01*
X34723675Y-15814700D01*
X37422657Y-15814700D01*
X37418287Y-15818286D01*
M02*
