M48
; DRILL file {KiCad (5.1.4)} date Tue 25 Feb 2020 01:22:39 AM CST
; FORMAT={-:-/ absolute / metric / decimal}
; #@! TF.CreationDate,2020-02-25T01:22:39-06:00
; #@! TF.GenerationSoftware,Kicad,Pcbnew,(5.1.4)
; #@! TF.FileFunction,Plated,1,2,PTH
FMAT,2
METRIC
T1C0.760
T2C0.800
T3C1.000
T4C1.400
%
G90
G05
T1
X30.48Y-31.75
X30.48Y-34.29
X30.48Y-36.83
X30.48Y-39.37
X33.02Y-33.02
X33.02Y-35.56
X33.02Y-38.1
X33.02Y-40.64
T2
X18.542Y-26.076
X35.791Y-28.255
X35.978Y-32.822
X36.996Y-39.643
X39.113Y-38.112
X40.915Y-24.386
X45.383Y-30.587
X51.436Y-24.924
X79.312Y-22.461
X67.31Y-30.48
X67.31Y-32.98
X67.31Y-36.87
X67.31Y-39.37
T3
X50.8Y-33.02
X50.8Y-35.56
X50.8Y-38.1
T4
X80.01Y-33.1
X80.01Y-38.1
X60.96Y-54.61
X65.96Y-54.61
X35.56Y-54.61
X40.56Y-54.61
X33.58Y-17.78
X38.58Y-17.78
X43.58Y-17.78
X48.58Y-17.78
X53.58Y-17.78
X58.58Y-17.78
X63.58Y-17.78
X68.58Y-17.78
T0
M30
